<svg width="17" height="17" viewBox="0 0 17 17" fill="none" xmlns="http://www.w3.org/2000/svg">
<path d="M16.6252 8.98462C11.6959 10.2204 10.2252 11.6985 8.98889 16.6254C8.96095 16.7327 8.89819 16.8276 8.81045 16.8954C8.7227 16.9632 8.61494 17 8.50404 17C8.39314 17 8.28537 16.9632 8.19763 16.8954C8.10989 16.8276 8.04713 16.7327 8.01919 16.6254C6.78283 11.6985 5.30405 10.2204 0.374779 8.98462C0.267457 8.9567 0.172434 8.89397 0.10461 8.80627C0.0367866 8.71857 0 8.61085 0 8.5C0 8.38916 0.0367866 8.28144 0.10461 8.19374C0.172434 8.10604 0.267457 8.04331 0.374779 8.01538C5.30405 6.77961 6.78283 5.30154 8.01919 0.374607C8.04713 0.267336 8.10989 0.172364 8.19763 0.104573C8.28537 0.0367815 8.39314 0 8.50404 0C8.61494 0 8.7227 0.0367815 8.81045 0.104573C8.89819 0.172364 8.96095 0.267336 8.98889 0.374607C10.2252 5.30154 11.6959 6.77961 16.6252 8.01538C16.7325 8.04331 16.8276 8.10604 16.8954 8.19374C16.9632 8.28144 17 8.38916 17 8.5C17 8.61085 16.9632 8.71857 16.8954 8.80627C16.8276 8.89397 16.7325 8.9567 16.6252 8.98462Z" fill="#FFBC01"/>
<path fill-rule="evenodd" clip-rule="evenodd" d="M16.6252 8.01538C11.6959 6.77961 10.2252 5.30154 8.98889 0.374607C8.96095 0.267336 8.89819 0.172364 8.81045 0.104573C8.7227 0.0367815 8.61494 0 8.50404 0C8.39314 0 8.28537 0.0367815 8.19763 0.104573C8.10989 0.172364 8.04713 0.267336 8.01919 0.374607C6.78283 5.30154 5.30405 6.77961 0.374779 8.01538C0.267457 8.04331 0.172434 8.10604 0.10461 8.19374C0.0367866 8.28144 0 8.38916 0 8.5C0 8.61085 0.0367866 8.71857 0.10461 8.80627C0.172434 8.89397 0.267457 8.9567 0.374779 8.98462C5.30405 10.2204 6.78283 11.6985 8.01919 16.6254C8.04713 16.7327 8.10989 16.8276 8.19763 16.8954C8.28537 16.9632 8.39314 17 8.50404 17C8.61494 17 8.7227 16.9632 8.81045 16.8954C8.89819 16.8276 8.96095 16.7327 8.98889 16.6254C10.2252 11.6985 11.6959 10.2204 16.6252 8.98462C16.7325 8.9567 16.8276 8.89397 16.8954 8.80627C16.9632 8.71857 17 8.61085 17 8.5C17 8.38916 16.9632 8.28144 16.8954 8.19374C16.8276 8.10604 16.7325 8.04331 16.6252 8.01538ZM14.6677 8.5C13.0154 9.03594 11.7262 9.70131 10.7146 10.7142C9.7032 11.7269 9.03926 13.0172 8.50387 14.6692C7.96765 13.0166 7.302 11.7263 6.28876 10.7136C5.27582 9.70108 3.98535 9.03587 2.33264 8.5C3.98535 7.96413 5.27582 7.29892 6.28876 6.28645C7.302 5.2737 7.96765 3.98339 8.50387 2.3308C9.03926 3.98284 9.7032 5.27307 10.7146 6.28583C11.7262 7.29869 13.0154 7.96406 14.6677 8.5Z" fill="white"/>
</svg>
