<svg width="33" height="33" viewBox="0 0 33 33" fill="none" xmlns="http://www.w3.org/2000/svg">
<path d="M16.6066 9.10675L9.10659 24.1067L16.6066 18.6067L24.1066 24.1067L16.6066 9.10675Z" fill="#1A1A1A"/>
<path fill-rule="evenodd" clip-rule="evenodd" d="M16.6066 8.60669C16.796 8.60669 16.9691 8.71369 17.0538 8.88308L24.5538 23.8831C24.6571 24.0896 24.6055 24.3399 24.429 24.4888C24.2526 24.6377 23.9971 24.6464 23.8109 24.5099L16.6066 19.2267L9.40229 24.5099C9.2161 24.6464 8.96064 24.6377 8.78418 24.4888C8.60771 24.3399 8.55614 24.0896 8.6594 23.8831L16.1594 8.88308C16.2441 8.71369 16.4172 8.60669 16.6066 8.60669ZM10.4788 22.4804L16.3109 18.2035C16.4869 18.0744 16.7263 18.0744 16.9023 18.2035L22.7344 22.4804L16.6066 10.2247L10.4788 22.4804Z" fill="white"/>
</svg>
