<svg width="165" height="59" viewBox="0 0 165 59" fill="none" xmlns="http://www.w3.org/2000/svg">
<path d="M10.404 11.324C10.404 11.996 10.242 12.626 9.918 13.214C9.606 13.802 9.108 14.276 8.424 14.636C7.752 14.996 6.9 15.176 5.868 15.176H3.762V20H1.242V7.436H5.868C6.84 7.436 7.668 7.604 8.352 7.94C9.036 8.276 9.546 8.738 9.882 9.326C10.23 9.914 10.404 10.58 10.404 11.324ZM5.76 13.142C6.456 13.142 6.972 12.986 7.308 12.674C7.644 12.35 7.812 11.9 7.812 11.324C7.812 10.1 7.128 9.488 5.76 9.488H3.762V13.142H5.76ZM16.6212 20.162C15.6612 20.162 14.7972 19.952 14.0292 19.532C13.2612 19.1 12.6552 18.494 12.2112 17.714C11.7792 16.934 11.5632 16.034 11.5632 15.014C11.5632 13.994 11.7852 13.094 12.2292 12.314C12.6852 11.534 13.3032 10.934 14.0832 10.514C14.8632 10.082 15.7332 9.866 16.6932 9.866C17.6532 9.866 18.5232 10.082 19.3032 10.514C20.0832 10.934 20.6952 11.534 21.1392 12.314C21.5952 13.094 21.8232 13.994 21.8232 15.014C21.8232 16.034 21.5892 16.934 21.1212 17.714C20.6652 18.494 20.0412 19.1 19.2492 19.532C18.4692 19.952 17.5932 20.162 16.6212 20.162ZM16.6212 17.966C17.0772 17.966 17.5032 17.858 17.8992 17.642C18.3072 17.414 18.6312 17.078 18.8712 16.634C19.1112 16.19 19.2312 15.65 19.2312 15.014C19.2312 14.066 18.9792 13.34 18.4752 12.836C17.9832 12.32 17.3772 12.062 16.6572 12.062C15.9372 12.062 15.3312 12.32 14.8392 12.836C14.3592 13.34 14.1192 14.066 14.1192 15.014C14.1192 15.962 14.3532 16.694 14.8212 17.21C15.3012 17.714 15.9012 17.966 16.6212 17.966ZM26.1917 11.468C26.5157 11.012 26.9597 10.634 27.5237 10.334C28.0997 10.022 28.7537 9.866 29.4857 9.866C30.3377 9.866 31.1057 10.076 31.7897 10.496C32.4857 10.916 33.0317 11.516 33.4277 12.296C33.8357 13.064 34.0397 13.958 34.0397 14.978C34.0397 15.998 33.8357 16.904 33.4277 17.696C33.0317 18.476 32.4857 19.082 31.7897 19.514C31.1057 19.946 30.3377 20.162 29.4857 20.162C28.7537 20.162 28.1057 20.012 27.5417 19.712C26.9897 19.412 26.5397 19.034 26.1917 18.578V24.752H23.6717V10.028H26.1917V11.468ZM31.4657 14.978C31.4657 14.378 31.3397 13.862 31.0877 13.43C30.8477 12.986 30.5237 12.65 30.1157 12.422C29.7197 12.194 29.2877 12.08 28.8197 12.08C28.3637 12.08 27.9317 12.2 27.5237 12.44C27.1277 12.668 26.8037 13.004 26.5517 13.448C26.3117 13.892 26.1917 14.414 26.1917 15.014C26.1917 15.614 26.3117 16.136 26.5517 16.58C26.8037 17.024 27.1277 17.366 27.5237 17.606C27.9317 17.834 28.3637 17.948 28.8197 17.948C29.2877 17.948 29.7197 17.828 30.1157 17.588C30.5237 17.348 30.8477 17.006 31.0877 16.562C31.3397 16.118 31.4657 15.59 31.4657 14.978ZM38.3909 11.468C38.7149 11.012 39.1589 10.634 39.7229 10.334C40.2989 10.022 40.9529 9.866 41.6849 9.866C42.5369 9.866 43.3049 10.076 43.9889 10.496C44.6849 10.916 45.2309 11.516 45.6269 12.296C46.0349 13.064 46.2389 13.958 46.2389 14.978C46.2389 15.998 46.0349 16.904 45.6269 17.696C45.2309 18.476 44.6849 19.082 43.9889 19.514C43.3049 19.946 42.5369 20.162 41.6849 20.162C40.9529 20.162 40.3049 20.012 39.7409 19.712C39.1889 19.412 38.7389 19.034 38.3909 18.578V24.752H35.8709V10.028H38.3909V11.468ZM43.6649 14.978C43.6649 14.378 43.5389 13.862 43.2869 13.43C43.0469 12.986 42.7229 12.65 42.3149 12.422C41.9189 12.194 41.4869 12.08 41.0189 12.08C40.5629 12.08 40.1309 12.2 39.7229 12.44C39.3269 12.668 39.0029 13.004 38.7509 13.448C38.5109 13.892 38.3909 14.414 38.3909 15.014C38.3909 15.614 38.5109 16.136 38.7509 16.58C39.0029 17.024 39.3269 17.366 39.7229 17.606C40.1309 17.834 40.5629 17.948 41.0189 17.948C41.4869 17.948 41.9189 17.828 42.3149 17.588C42.7229 17.348 43.0469 17.006 43.2869 16.562C43.5389 16.118 43.6649 15.59 43.6649 14.978ZM49.3481 8.84C48.9041 8.84 48.5321 8.702 48.2321 8.426C47.9441 8.138 47.8001 7.784 47.8001 7.364C47.8001 6.944 47.9441 6.596 48.2321 6.32C48.5321 6.032 48.9041 5.888 49.3481 5.888C49.7921 5.888 50.1581 6.032 50.4461 6.32C50.7461 6.596 50.8961 6.944 50.8961 7.364C50.8961 7.784 50.7461 8.138 50.4461 8.426C50.1581 8.702 49.7921 8.84 49.3481 8.84ZM50.5901 10.028V20H48.0701V10.028H50.5901ZM58.6059 9.884C59.7939 9.884 60.7539 10.262 61.4859 11.018C62.2179 11.762 62.5839 12.806 62.5839 14.15V20H60.0639V14.492C60.0639 13.7 59.8659 13.094 59.4699 12.674C59.0739 12.242 58.5339 12.026 57.8499 12.026C57.1539 12.026 56.6019 12.242 56.1939 12.674C55.7979 13.094 55.5999 13.7 55.5999 14.492V20H53.0799V10.028H55.5999V11.27C55.9359 10.838 56.3619 10.502 56.8779 10.262C57.4059 10.01 57.9819 9.884 58.6059 9.884ZM68.7963 20.162C67.9803 20.162 67.2483 20.018 66.6003 19.73C65.9523 19.43 65.4363 19.028 65.0523 18.524C64.6803 18.02 64.4763 17.462 64.4403 16.85H66.9783C67.0263 17.234 67.2123 17.552 67.5363 17.804C67.8723 18.056 68.2863 18.182 68.7783 18.182C69.2583 18.182 69.6303 18.086 69.8943 17.894C70.1703 17.702 70.3083 17.456 70.3083 17.156C70.3083 16.832 70.1403 16.592 69.8043 16.436C69.4803 16.268 68.9583 16.088 68.2383 15.896C67.4943 15.716 66.8823 15.53 66.4023 15.338C65.9343 15.146 65.5263 14.852 65.1783 14.456C64.8423 14.06 64.6743 13.526 64.6743 12.854C64.6743 12.302 64.8303 11.798 65.1423 11.342C65.4663 10.886 65.9223 10.526 66.5103 10.262C67.1103 9.998 67.8123 9.866 68.6163 9.866C69.8043 9.866 70.7523 10.166 71.4603 10.766C72.1683 11.354 72.5583 12.152 72.6303 13.16H70.2183C70.1823 12.764 70.0143 12.452 69.7143 12.224C69.4263 11.984 69.0363 11.864 68.5443 11.864C68.0883 11.864 67.7343 11.948 67.4823 12.116C67.2423 12.284 67.1223 12.518 67.1223 12.818C67.1223 13.154 67.2903 13.412 67.6263 13.592C67.9623 13.76 68.4843 13.934 69.1923 14.114C69.9123 14.294 70.5063 14.48 70.9743 14.672C71.4423 14.864 71.8443 15.164 72.1803 15.572C72.5283 15.968 72.7083 16.496 72.7203 17.156C72.7203 17.732 72.5583 18.248 72.2343 18.704C71.9223 19.16 71.4663 19.52 70.8663 19.784C70.2783 20.036 69.5883 20.162 68.7963 20.162Z" fill="#1A1A1A"/>
<path d="M4.96 53.112C4.18133 53.112 3.47733 52.9787 2.848 52.712C2.22933 52.4453 1.73867 52.0613 1.376 51.56C1.01333 51.0587 0.826667 50.4667 0.816 49.784H3.216C3.248 50.2427 3.408 50.6053 3.696 50.872C3.99467 51.1387 4.4 51.272 4.912 51.272C5.43467 51.272 5.84533 51.1493 6.144 50.904C6.44267 50.648 6.592 50.3173 6.592 49.912C6.592 49.5813 6.49067 49.3093 6.288 49.096C6.08533 48.8827 5.82933 48.7173 5.52 48.6C5.22133 48.472 4.80533 48.3333 4.272 48.184C3.54667 47.9707 2.95467 47.7627 2.496 47.56C2.048 47.3467 1.65867 47.032 1.328 46.616C1.008 46.1893 0.848 45.624 0.848 44.92C0.848 44.2587 1.01333 43.6827 1.344 43.192C1.67467 42.7013 2.13867 42.328 2.736 42.072C3.33333 41.8053 4.016 41.672 4.784 41.672C5.936 41.672 6.86933 41.9547 7.584 42.52C8.30933 43.0747 8.70933 43.8533 8.784 44.856H6.32C6.29867 44.472 6.13333 44.1573 5.824 43.912C5.52533 43.656 5.12533 43.528 4.624 43.528C4.18667 43.528 3.83467 43.64 3.568 43.864C3.312 44.088 3.184 44.4133 3.184 44.84C3.184 45.1387 3.28 45.3893 3.472 45.592C3.67467 45.784 3.92 45.944 4.208 46.072C4.50667 46.1893 4.92267 46.328 5.456 46.488C6.18133 46.7013 6.77333 46.9147 7.232 47.128C7.69067 47.3413 8.08533 47.6613 8.416 48.088C8.74667 48.5147 8.912 49.0747 8.912 49.768C8.912 50.3653 8.75733 50.92 8.448 51.432C8.13867 51.944 7.68533 52.3547 7.088 52.664C6.49067 52.9627 5.78133 53.112 4.96 53.112ZM19.094 48.376C19.094 48.696 19.0727 48.984 19.03 49.24H12.55C12.6033 49.88 12.8273 50.3813 13.222 50.744C13.6167 51.1067 14.102 51.288 14.678 51.288C15.51 51.288 16.102 50.9307 16.454 50.216H18.87C18.614 51.0693 18.1233 51.7733 17.398 52.328C16.6727 52.872 15.782 53.144 14.726 53.144C13.8727 53.144 13.1047 52.9573 12.422 52.584C11.75 52.2 11.222 51.6613 10.838 50.968C10.4647 50.2747 10.278 49.4747 10.278 48.568C10.278 47.6507 10.4647 46.8453 10.838 46.152C11.2113 45.4587 11.734 44.9253 12.406 44.552C13.078 44.1787 13.8513 43.992 14.726 43.992C15.5687 43.992 16.3207 44.1733 16.982 44.536C17.654 44.8987 18.1713 45.416 18.534 46.088C18.9073 46.7493 19.094 47.512 19.094 48.376ZM16.774 47.736C16.7633 47.16 16.5553 46.7013 16.15 46.36C15.7447 46.008 15.2487 45.832 14.662 45.832C14.1073 45.832 13.638 46.0027 13.254 46.344C12.8807 46.6747 12.6513 47.1387 12.566 47.736H16.774ZM31.737 44.008C32.825 44.008 33.6997 44.344 34.361 45.016C35.033 45.6773 35.369 46.6053 35.369 47.8V53H33.129V48.104C33.129 47.4107 32.953 46.8827 32.601 46.52C32.249 46.1467 31.769 45.96 31.161 45.96C30.553 45.96 30.0677 46.1467 29.705 46.52C29.353 46.8827 29.177 47.4107 29.177 48.104V53H26.937V48.104C26.937 47.4107 26.761 46.8827 26.409 46.52C26.057 46.1467 25.577 45.96 24.969 45.96C24.3503 45.96 23.8597 46.1467 23.497 46.52C23.145 46.8827 22.969 47.4107 22.969 48.104V53H20.729V44.136H22.969V45.208C23.257 44.8347 23.625 44.5413 24.073 44.328C24.5317 44.1147 25.033 44.008 25.577 44.008C26.2703 44.008 26.889 44.1573 27.433 44.456C27.977 44.744 28.3983 45.16 28.697 45.704C28.985 45.192 29.401 44.7813 29.945 44.472C30.4997 44.1627 31.097 44.008 31.737 44.008ZM38.6306 43.08C38.236 43.08 37.9053 42.9573 37.6386 42.712C37.3826 42.456 37.2546 42.1413 37.2546 41.768C37.2546 41.3947 37.3826 41.0853 37.6386 40.84C37.9053 40.584 38.236 40.456 38.6306 40.456C39.0253 40.456 39.3506 40.584 39.6066 40.84C39.8733 41.0853 40.0066 41.3947 40.0066 41.768C40.0066 42.1413 39.8733 42.456 39.6066 42.712C39.3506 42.9573 39.0253 43.08 38.6306 43.08ZM39.7346 44.136V53H37.4946V44.136H39.7346ZM48.7638 46.344V48.232H41.9798V46.344H48.7638ZM53.5159 45.432C53.8039 45.0053 54.1985 44.6587 54.6999 44.392C55.2119 44.1253 55.7932 43.992 56.4439 43.992C57.2012 43.992 57.8839 44.1787 58.4919 44.552C59.1105 44.9253 59.5959 45.4587 59.9479 46.152C60.3105 46.8347 60.4919 47.6293 60.4919 48.536C60.4919 49.4427 60.3105 50.248 59.9479 50.952C59.5959 51.6453 59.1105 52.184 58.4919 52.568C57.8839 52.952 57.2012 53.144 56.4439 53.144C55.7825 53.144 55.2012 53.016 54.6999 52.76C54.2092 52.4933 53.8145 52.152 53.5159 51.736V53H51.2759V41.16H53.5159V45.432ZM58.2039 48.536C58.2039 48.0027 58.0919 47.544 57.8679 47.16C57.6545 46.7653 57.3665 46.4667 57.0039 46.264C56.6519 46.0613 56.2679 45.96 55.8519 45.96C55.4465 45.96 55.0625 46.0667 54.6999 46.28C54.3479 46.4827 54.0599 46.7813 53.8359 47.176C53.6225 47.5707 53.5159 48.0347 53.5159 48.568C53.5159 49.1013 53.6225 49.5653 53.8359 49.96C54.0599 50.3547 54.3479 50.6587 54.6999 50.872C55.0625 51.0747 55.4465 51.176 55.8519 51.176C56.2679 51.176 56.6519 51.0693 57.0039 50.856C57.3665 50.6427 57.6545 50.3387 57.8679 49.944C58.0919 49.5493 58.2039 49.08 58.2039 48.536ZM66.0556 53.144C65.2023 53.144 64.4343 52.9573 63.7516 52.584C63.069 52.2 62.5303 51.6613 62.1356 50.968C61.7516 50.2747 61.5596 49.4747 61.5596 48.568C61.5596 47.6613 61.757 46.8613 62.1516 46.168C62.557 45.4747 63.1063 44.9413 63.7996 44.568C64.493 44.184 65.2663 43.992 66.1196 43.992C66.973 43.992 67.7463 44.184 68.4396 44.568C69.133 44.9413 69.677 45.4747 70.0716 46.168C70.477 46.8613 70.6796 47.6613 70.6796 48.568C70.6796 49.4747 70.4716 50.2747 70.0556 50.968C69.6503 51.6613 69.0956 52.2 68.3916 52.584C67.6983 52.9573 66.9196 53.144 66.0556 53.144ZM66.0556 51.192C66.461 51.192 66.8396 51.096 67.1916 50.904C67.5543 50.7013 67.8423 50.4027 68.0556 50.008C68.269 49.6133 68.3756 49.1333 68.3756 48.568C68.3756 47.7253 68.1516 47.08 67.7036 46.632C67.2663 46.1733 66.7276 45.944 66.0876 45.944C65.4476 45.944 64.909 46.1733 64.4716 46.632C64.045 47.08 63.8316 47.7253 63.8316 48.568C63.8316 49.4107 64.0396 50.0613 64.4556 50.52C64.8823 50.968 65.4156 51.192 66.0556 51.192ZM74.5628 41.16V53H72.3228V41.16H74.5628ZM76.1999 48.536C76.1999 47.64 76.3759 46.8453 76.7279 46.152C77.0905 45.4587 77.5812 44.9253 78.1999 44.552C78.8185 44.1787 79.5065 43.992 80.2639 43.992C80.8399 43.992 81.3892 44.12 81.9119 44.376C82.4345 44.6213 82.8505 44.952 83.1599 45.368V41.16H85.4319V53H83.1599V51.688C82.8825 52.1253 82.4932 52.4773 81.9919 52.744C81.4905 53.0107 80.9092 53.144 80.2479 53.144C79.5012 53.144 78.8185 52.952 78.1999 52.568C77.5812 52.184 77.0905 51.6453 76.7279 50.952C76.3759 50.248 76.1999 49.4427 76.1999 48.536ZM83.1759 48.568C83.1759 48.024 83.0692 47.56 82.8559 47.176C82.6425 46.7813 82.3545 46.4827 81.9919 46.28C81.6292 46.0667 81.2399 45.96 80.8239 45.96C80.4079 45.96 80.0239 46.0613 79.6719 46.264C79.3199 46.4667 79.0319 46.7653 78.8079 47.16C78.5945 47.544 78.4879 48.0027 78.4879 48.536C78.4879 49.0693 78.5945 49.5387 78.8079 49.944C79.0319 50.3387 79.3199 50.6427 79.6719 50.856C80.0345 51.0693 80.4185 51.176 80.8239 51.176C81.2399 51.176 81.6292 51.0747 81.9919 50.872C82.3545 50.6587 82.6425 50.36 82.8559 49.976C83.0692 49.5813 83.1759 49.112 83.1759 48.568ZM97.4533 37.928L93.0693 55.72H91.6293L95.9973 37.928H97.4533ZM109.76 53L107.104 48.44H105.344V53H103.888V41.848H107.488C108.331 41.848 109.04 41.992 109.616 42.28C110.203 42.568 110.64 42.9573 110.928 43.448C111.216 43.9387 111.36 44.4987 111.36 45.128C111.36 45.896 111.136 46.5733 110.688 47.16C110.251 47.7467 109.59 48.136 108.704 48.328L111.504 53H109.76ZM105.344 47.272H107.488C108.278 47.272 108.87 47.08 109.264 46.696C109.659 46.3013 109.856 45.7787 109.856 45.128C109.856 44.4667 109.659 43.9547 109.264 43.592C108.88 43.2293 108.288 43.048 107.488 43.048H105.344V47.272ZM121.623 48.28C121.623 48.5573 121.607 48.8507 121.575 49.16H114.567C114.62 50.024 114.913 50.7013 115.447 51.192C115.991 51.672 116.647 51.912 117.415 51.912C118.044 51.912 118.567 51.768 118.983 51.48C119.409 51.1813 119.708 50.7867 119.879 50.296H121.447C121.212 51.1387 120.743 51.8267 120.039 52.36C119.335 52.8827 118.46 53.144 117.415 53.144C116.583 53.144 115.836 52.9573 115.175 52.584C114.524 52.2107 114.012 51.6827 113.639 51C113.265 50.3067 113.079 49.5067 113.079 48.6C113.079 47.6933 113.26 46.8987 113.623 46.216C113.985 45.5333 114.492 45.0107 115.143 44.648C115.804 44.2747 116.561 44.088 117.415 44.088C118.247 44.088 118.983 44.2693 119.623 44.632C120.263 44.9947 120.753 45.496 121.095 46.136C121.447 46.7653 121.623 47.48 121.623 48.28ZM120.119 47.976C120.119 47.4213 119.996 46.9467 119.751 46.552C119.505 46.1467 119.169 45.8427 118.743 45.64C118.327 45.4267 117.863 45.32 117.351 45.32C116.615 45.32 115.985 45.5547 115.463 46.024C114.951 46.4933 114.657 47.144 114.583 47.976H120.119ZM127.161 44.088C127.918 44.088 128.579 44.2533 129.145 44.584C129.721 44.9147 130.147 45.3307 130.425 45.832V44.232H131.897V53.192C131.897 53.992 131.726 54.7013 131.385 55.32C131.043 55.9493 130.553 56.44 129.913 56.792C129.283 57.144 128.547 57.32 127.705 57.32C126.553 57.32 125.593 57.048 124.825 56.504C124.057 55.96 123.603 55.2187 123.465 54.28H124.905C125.065 54.8133 125.395 55.24 125.897 55.56C126.398 55.8907 127.001 56.056 127.705 56.056C128.505 56.056 129.155 55.8053 129.657 55.304C130.169 54.8027 130.425 54.0987 130.425 53.192V51.352C130.137 51.864 129.71 52.2907 129.145 52.632C128.579 52.9733 127.918 53.144 127.161 53.144C126.382 53.144 125.673 52.952 125.033 52.568C124.403 52.184 123.907 51.6453 123.545 50.952C123.182 50.2587 123.001 49.4693 123.001 48.584C123.001 47.688 123.182 46.904 123.545 46.232C123.907 45.5493 124.403 45.0213 125.033 44.648C125.673 44.2747 126.382 44.088 127.161 44.088ZM130.425 48.6C130.425 47.9387 130.291 47.3627 130.025 46.872C129.758 46.3813 129.395 46.008 128.937 45.752C128.489 45.4853 127.993 45.352 127.449 45.352C126.905 45.352 126.409 45.48 125.961 45.736C125.513 45.992 125.155 46.3653 124.889 46.856C124.622 47.3467 124.489 47.9227 124.489 48.584C124.489 49.256 124.622 49.8427 124.889 50.344C125.155 50.8347 125.513 51.2133 125.961 51.48C126.409 51.736 126.905 51.864 127.449 51.864C127.993 51.864 128.489 51.736 128.937 51.48C129.395 51.2133 129.758 50.8347 130.025 50.344C130.291 49.8427 130.425 49.2613 130.425 48.6ZM142.133 44.232V53H140.677V51.704C140.4 52.152 140.01 52.504 139.509 52.76C139.018 53.0053 138.474 53.128 137.877 53.128C137.194 53.128 136.581 52.9893 136.037 52.712C135.493 52.424 135.061 51.9973 134.741 51.432C134.432 50.8667 134.277 50.1787 134.277 49.368V44.232H135.717V49.176C135.717 50.04 135.936 50.7067 136.373 51.176C136.81 51.6347 137.408 51.864 138.165 51.864C138.944 51.864 139.557 51.624 140.005 51.144C140.453 50.664 140.677 49.9653 140.677 49.048V44.232H142.133ZM146.047 41.16V53H144.591V41.16H146.047ZM147.985 48.584C147.985 47.688 148.166 46.904 148.529 46.232C148.892 45.5493 149.388 45.0213 150.017 44.648C150.657 44.2747 151.366 44.088 152.145 44.088C152.913 44.088 153.58 44.2533 154.145 44.584C154.71 44.9147 155.132 45.3307 155.409 45.832V44.232H156.881V53H155.409V51.368C155.121 51.88 154.689 52.3067 154.113 52.648C153.548 52.9787 152.886 53.144 152.129 53.144C151.35 53.144 150.646 52.952 150.017 52.568C149.388 52.184 148.892 51.6453 148.529 50.952C148.166 50.2587 147.985 49.4693 147.985 48.584ZM155.409 48.6C155.409 47.9387 155.276 47.3627 155.009 46.872C154.742 46.3813 154.38 46.008 153.921 45.752C153.473 45.4853 152.977 45.352 152.433 45.352C151.889 45.352 151.393 45.48 150.945 45.736C150.497 45.992 150.14 46.3653 149.873 46.856C149.606 47.3467 149.473 47.9227 149.473 48.584C149.473 49.256 149.606 49.8427 149.873 50.344C150.14 50.8347 150.497 51.2133 150.945 51.48C151.393 51.736 151.889 51.864 152.433 51.864C152.977 51.864 153.473 51.736 153.921 51.48C154.38 51.2133 154.742 50.8347 155.009 50.344C155.276 49.8427 155.409 49.2613 155.409 48.6ZM160.797 45.656C161.053 45.1547 161.416 44.7653 161.885 44.488C162.365 44.2107 162.947 44.072 163.629 44.072V45.576H163.245C161.613 45.576 160.797 46.4613 160.797 48.232V53H159.341V44.232H160.797V45.656Z" fill="#1A1A1A"/>
</svg>
