<svg width="28" height="28" viewBox="0 0 28 28" fill="none" xmlns="http://www.w3.org/2000/svg">
<path d="M8.43555 12.3711C6.37012 12.3711 4.64746 10.6572 4.64746 8.5918C4.64746 6.51758 6.36133 4.79492 8.43555 4.79492C10.501 4.79492 12.2236 6.51758 12.2236 8.5918C12.2236 10.6572 10.501 12.3711 8.43555 12.3711ZM7.9873 10.6221C8.18066 10.6221 8.33887 10.5342 8.43555 10.376L10.2725 7.49316C10.3516 7.36133 10.3867 7.25586 10.3867 7.13281C10.3867 6.91309 10.1758 6.71973 9.92969 6.71973C9.77148 6.71973 9.63965 6.80762 9.53418 6.96582L7.96973 9.47949L7.28418 8.60938C7.16992 8.45996 7.04688 8.38965 6.87988 8.38965C6.64258 8.38965 6.44922 8.5918 6.44922 8.84668C6.44922 8.9873 6.47559 9.09277 6.56348 9.18945L7.54785 10.376C7.67969 10.5254 7.80273 10.6221 7.9873 10.6221ZM14.8516 9.25977C14.4824 9.25977 14.1836 8.96973 14.1836 8.5918C14.1836 8.22266 14.4824 7.93262 14.8516 7.93262H23.6758C24.0449 7.93262 24.3525 8.22266 24.3525 8.5918C24.3525 8.96973 24.0449 9.25977 23.6758 9.25977H14.8516ZM8.43555 22.5488C6.37012 22.5488 4.64746 20.8262 4.64746 18.7607C4.64746 16.6865 6.36133 14.9639 8.43555 14.9639C10.501 14.9639 12.2236 16.6777 12.2236 18.7607C12.2236 20.8262 10.501 22.5488 8.43555 22.5488ZM8.43555 21.2656C9.78906 21.2656 10.9404 20.1143 10.9404 18.7607C10.9404 17.3984 9.78906 16.2471 8.43555 16.2471C7.08203 16.2471 5.93066 17.3984 5.93066 18.7607C5.93066 20.1143 7.07324 21.2656 8.43555 21.2656ZM14.8516 19.4199C14.4824 19.4199 14.1836 19.1299 14.1836 18.7607C14.1836 18.3828 14.4824 18.0928 14.8516 18.0928H23.6758C24.0449 18.0928 24.3525 18.3828 24.3525 18.7607C24.3525 19.1299 24.0449 19.4199 23.6758 19.4199H14.8516Z" fill="white"/>
</svg>
