<svg width="28" height="28" viewBox="0 0 28 28" fill="none" xmlns="http://www.w3.org/2000/svg">
<path d="M7.78049 20.3755H13.7249C13.5706 20.3301 13.4254 20.2484 13.3074 20.1123L7.29949 14.1044C7.12706 13.9138 7.0363 13.7141 7.0363 13.4963C7.0363 13.0425 7.36302 12.6977 7.82587 12.6977C8.04368 12.6977 8.25241 12.7794 8.40669 12.9246L10.4396 14.9302L13.1713 17.9251L13.0987 15.9739V6.80771C13.0987 6.33579 13.4345 6 13.9155 6C14.3874 6 14.7232 6.33579 14.7232 6.80771V15.9739L14.6597 17.9161L17.3914 14.9302L19.4243 12.9246C19.5695 12.7794 19.7873 12.6977 20.0051 12.6977C20.4589 12.6977 20.7947 13.0425 20.7947 13.4963C20.7947 13.7141 20.7039 13.9138 20.5224 14.1044L14.5235 20.1123C14.3965 20.2484 14.2513 20.3301 14.097 20.3755H20.0233C20.4952 20.3755 20.8219 20.7113 20.8219 21.1832C20.8219 21.6551 20.4952 22 20.0233 22H7.78049C7.31764 22 7 21.6551 7 21.1832C7 20.7113 7.31764 20.3755 7.78049 20.3755Z" fill="white"/>
</svg>
