<svg width="28" height="28" viewBox="0 0 28 28" fill="none" xmlns="http://www.w3.org/2000/svg">
<path d="M9.33301 23.0762C7.51367 23.0762 6.6084 22.1621 6.6084 20.3252V6.99219C6.6084 5.16406 7.52246 4.23242 9.33301 4.23242H13.5078C14.4922 4.23242 15.0459 4.38184 15.7139 5.06738L20.5566 9.99805C21.2598 10.7188 21.3916 11.2109 21.3916 12.3447V20.3252C21.3916 22.1533 20.4863 23.0762 18.667 23.0762H9.33301ZM9.39453 21.6611H18.5967C19.5107 21.6611 19.9766 21.1777 19.9766 20.2988V12.4062H14.9668C13.8682 12.4062 13.3145 11.8613 13.3145 10.7539V5.64746H9.40332C8.48926 5.64746 8.02344 6.14844 8.02344 7.01855V20.2988C8.02344 21.1777 8.48926 21.6611 9.39453 21.6611ZM15.125 11.0791H19.7041L14.6416 5.91992V10.5869C14.6416 10.9385 14.7734 11.0791 15.125 11.0791Z" fill="white"/>
</svg>
