<svg width="28" height="28" viewBox="0 0 28 28" fill="none" xmlns="http://www.w3.org/2000/svg">
<path d="M5.80859 9.83105C5.41309 9.83105 5.10547 9.52344 5.10547 9.12793C5.10547 8.73242 5.41309 8.41602 5.80859 8.41602H22.1826C22.5781 8.41602 22.8857 8.73242 22.8857 9.12793C22.8857 9.52344 22.5781 9.83105 22.1826 9.83105H5.80859ZM7.66309 14.3574C7.26758 14.3574 6.95117 14.0498 6.95117 13.6543C6.95117 13.2588 7.26758 12.9424 7.66309 12.9424H20.3809C20.7764 12.9424 21.084 13.2588 21.084 13.6543C21.084 14.0498 20.7764 14.3574 20.3809 14.3574H7.66309ZM9.46484 18.8838C9.06934 18.8838 8.76172 18.5762 8.76172 18.1807C8.76172 17.7852 9.06934 17.4688 9.46484 17.4688H18.5703C18.9658 17.4688 19.2822 17.7852 19.2822 18.1807C19.2822 18.5762 18.9658 18.8838 18.5703 18.8838H9.46484Z" fill="white"/>
</svg>
