<svg width="28" height="28" viewBox="0 0 28 28" fill="none" xmlns="http://www.w3.org/2000/svg">
<path d="M7.31152 19.1387C4.48145 19.1387 2.15234 17.0029 1.85352 14.2607H0.790039C0.359375 14.2607 0.130859 14.0322 0.130859 13.5928V13.2324C0.130859 12.793 0.359375 12.5732 0.790039 12.5732H1.92383C2.4248 10.0684 4.64844 8.16992 7.31152 8.16992C9.86035 8.16992 12.0049 9.91895 12.6113 12.2744C13.0596 12.1162 13.5869 12.0547 14 12.0547C14.4131 12.0547 14.9316 12.1162 15.3799 12.2744C15.9951 9.91895 18.1396 8.16992 20.6973 8.16992C23.3428 8.16992 25.5664 10.0684 26.0674 12.5732H27.21C27.6406 12.5732 27.8604 12.793 27.8604 13.2324V13.5928C27.8604 14.0322 27.6406 14.2607 27.21 14.2607H26.1465C25.8389 17.0029 23.5098 19.1387 20.6973 19.1387C17.7002 19.1387 15.2656 16.748 15.2041 13.7598C14.835 13.6279 14.4043 13.5576 14 13.5576C13.5869 13.5576 13.1562 13.6279 12.7871 13.7598C12.7256 16.748 10.2998 19.1387 7.31152 19.1387ZM7.31152 17.6533C9.50879 17.6533 11.3018 15.8604 11.3018 13.6543C11.3018 11.457 9.50879 9.65527 7.31152 9.65527C5.09668 9.65527 3.30371 11.4482 3.30371 13.6543C3.30371 15.8691 5.09668 17.6533 7.31152 17.6533ZM20.6973 17.6533C22.9033 17.6533 24.6875 15.8691 24.6875 13.6543C24.6875 11.4482 22.9033 9.65527 20.6973 9.65527C18.4912 9.65527 16.6895 11.457 16.6895 13.6543C16.6895 15.8604 18.4912 17.6533 20.6973 17.6533Z" fill="white"/>
</svg>
