<svg width="28" height="28" viewBox="0 0 28 28" fill="none" xmlns="http://www.w3.org/2000/svg">
<path d="M18.3242 10.6045C16.6455 10.6045 15.2744 9.2334 15.2744 7.56348C15.2744 5.88477 16.6455 4.51367 18.3242 4.51367C19.9854 4.51367 21.374 5.88477 21.374 7.56348C21.374 9.2334 19.9854 10.6045 18.3242 10.6045ZM5.70312 18.4883C5.70312 17.6094 6.59082 16.8184 7.35547 16.0361C7.93555 15.4297 8.09375 14.1816 8.16406 13.1709C8.22559 9.70801 9.12207 7.47559 11.46 6.63184C11.75 5.48047 12.6992 4.5752 13.9912 4.5752C14.3955 4.5752 14.7646 4.66309 15.0898 4.82129C14.8086 5.15527 14.5889 5.5332 14.4219 5.9375C14.2988 5.88477 14.1494 5.86719 13.9912 5.86719C13.1826 5.86719 12.6553 6.50879 12.6289 7.42285C12.6201 7.65137 12.4971 7.75684 12.2773 7.80957C10.7744 8.22266 9.63184 9.44434 9.56152 13.2852C9.48242 14.999 9.18359 16.1328 8.55078 16.8359C8.09375 17.3457 7.56641 17.8643 7.4082 18.1191V18.2246H20.5742V18.1191C20.416 17.8643 19.8975 17.3457 19.4316 16.8359C18.8076 16.1328 18.5088 14.999 18.4297 13.2852C18.4209 12.6963 18.3857 12.1953 18.333 11.7295C18.7637 11.7471 19.3086 11.668 19.7217 11.5361C19.7744 12.0547 19.8184 12.5908 19.8271 13.1709C19.8975 14.1816 20.0557 15.4297 20.6357 16.0361C21.3916 16.8184 22.2881 17.6094 22.2881 18.4883C22.2881 19.1299 21.7871 19.5518 20.9609 19.5518H17.252C17.1816 21.248 15.8545 22.7334 13.9912 22.7334C12.1367 22.7334 10.8096 21.248 10.7393 19.5518H7.03027C6.19531 19.5518 5.70312 19.1299 5.70312 18.4883ZM12.1104 19.5518C12.1719 20.7471 12.9365 21.4941 13.9912 21.4941C15.0547 21.4941 15.8105 20.7471 15.8809 19.5518H12.1104Z" fill="white"/>
</svg>
