<svg width="24" height="24" viewBox="0 0 24 24" fill="none" xmlns="http://www.w3.org/2000/svg">
<path d="M19.1267 11.6961C19.1267 11.4626 19.0288 11.2366 18.8555 11.0709L13.906 6.12136C13.7102 5.93303 13.5067 5.85016 13.2958 5.85016C12.8137 5.85016 12.4671 6.18917 12.4671 6.64871C12.4671 6.88978 12.5651 7.09318 12.7157 7.24385L14.4108 8.96149L16.5955 10.9579L14.8477 10.8524H5.71713C5.21238 10.8524 4.86584 11.1989 4.86584 11.6961C4.86584 12.1858 5.21238 12.5324 5.71713 12.5324H14.8477L16.5955 12.4269L14.4108 14.4233L12.7157 16.1409C12.5651 16.2916 12.4671 16.495 12.4671 16.736C12.4671 17.1956 12.8137 17.5346 13.2958 17.5346C13.5067 17.5346 13.7102 17.4517 13.891 17.2785L18.8555 12.3139C19.0288 12.1481 19.1267 11.9221 19.1267 11.6961Z" fill="#1A1A1A"/>
</svg>
