<svg width="24" height="24" viewBox="0 0 24 24" fill="none" xmlns="http://www.w3.org/2000/svg">
<path d="M4.86584 11.6961C4.86584 11.9221 4.96378 12.1481 5.13705 12.3139L10.1091 17.2785C10.29 17.4517 10.4858 17.5346 10.7043 17.5346C11.1789 17.5346 11.5254 17.1956 11.5254 16.736C11.5254 16.495 11.435 16.2916 11.2768 16.1409L9.5818 14.4233L7.39709 12.4269L9.1524 12.5324H18.283C18.7802 12.5324 19.1267 12.1858 19.1267 11.6961C19.1267 11.1989 18.7802 10.8524 18.283 10.8524H9.1524L7.40463 10.9579L9.5818 8.96149L11.2768 7.24385C11.435 7.09318 11.5254 6.88978 11.5254 6.64871C11.5254 6.18917 11.1789 5.85016 10.7043 5.85016C10.4858 5.85016 10.2824 5.93303 10.0865 6.12136L5.13705 11.0709C4.96378 11.2366 4.86584 11.4626 4.86584 11.6961Z" fill="#1C1C1E"/>
</svg>
