<svg width="24" height="40" viewBox="0 0 24 40" fill="none" xmlns="http://www.w3.org/2000/svg">
<g opacity="0.3">
<path d="M10.6113 28.3934C16.6536 28.3934 21.3697 24.4891 21.3697 18.2065C21.3697 11.924 16.7274 8.01953 10.6849 8.01953C4.67938 8.01953 0 11.924 0 18.2065C0 24.4891 4.56874 28.3934 10.6113 28.3934ZM10.6849 13.2727C12.8955 13.2727 14.9589 14.8345 14.9589 18.2065C14.9589 21.543 12.8587 23.1402 10.6113 23.1402C8.32681 23.1402 6.41098 21.543 6.41098 18.2065C6.41098 14.8345 8.40057 13.2727 10.6849 13.2727Z" fill="white"/>
<path d="M10.9056 34.7462C8.69495 34.7462 6.6316 33.1845 6.63151 29.8125H0.220703C0.220793 36.095 4.86311 39.9994 10.9056 39.9994C16.911 39.9994 21.5904 36.095 21.5904 29.8125H15.1794C15.1794 33.1845 13.1898 34.7462 10.9056 34.7462Z" fill="white"/>
<path d="M23.3222 0C22.2163 4.22041 20.48 8.73589 15.0566 7.90135C16.4546 3.99728 19.1788 1.26017 23.3222 0Z" fill="white"/>
</g>
</svg>
