<svg width="368" height="80" viewBox="0 0 368 80" fill="none" xmlns="http://www.w3.org/2000/svg">
<path fill-rule="evenodd" clip-rule="evenodd" d="M210.705 59.9763L210.697 59.9714C207.602 58.2307 205.156 55.7814 203.375 52.6534L203.37 52.645L203.366 52.6365C201.621 49.4855 200.773 45.8882 200.773 41.8927C200.773 37.8897 201.646 34.2862 203.442 31.1321L203.446 31.1238L203.451 31.1155C205.279 27.9893 207.772 25.5639 210.913 23.8704C214.047 22.1365 217.527 21.2817 221.317 21.2817C225.107 21.2817 228.587 22.1363 231.721 23.8699C234.863 25.564 237.337 27.9921 239.122 31.1237C240.964 34.2788 241.862 37.8855 241.862 41.8927C241.862 45.9073 240.939 49.5196 239.047 52.677C237.216 55.8053 234.7 58.2481 231.522 59.9819L231.514 59.9862C228.378 61.6749 224.878 62.5038 221.052 62.5038C217.267 62.5038 213.808 61.6733 210.714 59.981L210.705 59.9763ZM237.621 51.8338C239.344 48.9619 240.205 45.6482 240.205 41.8927C240.205 38.1372 239.366 34.8236 237.687 31.9517C236.052 29.0798 233.799 26.8707 230.927 25.3243C228.055 23.7338 224.852 22.9385 221.317 22.9385C217.783 22.9385 214.579 23.7338 211.708 25.3243C208.836 26.8707 206.56 29.0798 204.881 31.9517C203.247 34.8236 202.429 38.1372 202.429 41.8927C202.429 45.6482 203.225 48.9619 204.815 51.8338C206.45 54.7056 208.681 56.9368 211.509 58.5274C214.336 60.0738 217.518 60.847 221.052 60.847C224.631 60.847 227.856 60.0738 230.728 58.5274C233.644 56.9368 235.942 54.7056 237.621 51.8338ZM226.693 35.0312L226.679 35.017C225.184 33.4487 223.388 32.6807 221.185 32.6807C218.982 32.6807 217.186 33.4487 215.69 35.017C214.309 36.4672 213.497 38.6715 213.497 41.8927C213.497 45.1109 214.287 47.3503 215.638 48.8498C217.078 50.3549 218.844 51.1047 221.052 51.1047C222.454 51.1047 223.747 50.7766 224.956 50.1183C226.159 49.4446 227.134 48.4479 227.879 47.0695C228.602 45.7317 229.005 44.0294 229.005 41.8927C229.005 38.6918 228.16 36.4981 226.707 35.0452L226.693 35.0312ZM225.758 51.5687C224.3 52.3639 222.731 52.7616 221.052 52.7616C218.401 52.7616 216.192 51.8338 214.425 49.9781C212.702 48.0783 211.84 45.3831 211.84 41.8927C211.84 38.4023 212.724 35.7293 214.491 33.8736C216.303 31.9738 218.534 31.0239 221.185 31.0239C223.836 31.0239 226.067 31.9738 227.878 33.8736C229.734 35.7293 230.662 38.4023 230.662 41.8927C230.662 44.2344 230.22 46.2226 229.336 47.8573C228.453 49.4921 227.26 50.7292 225.758 51.5687Z" fill="#F5C05C"/>
<path fill-rule="evenodd" clip-rule="evenodd" d="M168.25 64.7571C168.736 66.436 169.774 67.7615 171.365 68.7335C172.999 69.7497 174.966 70.2578 177.263 70.2578C179.958 70.2578 182.145 69.4404 183.824 67.8057C185.503 66.2151 186.342 63.7851 186.342 60.5156V54.8161C185.865 55.5063 185.312 56.1504 184.686 56.7485C183.748 57.6435 182.643 58.4352 181.372 59.1238C179.295 60.2726 176.91 60.847 174.214 60.847C171.122 60.847 168.294 60.0517 165.731 58.4611C163.169 56.8705 161.136 54.6393 159.634 51.7675C158.176 48.8514 157.447 45.5157 157.447 41.7602C157.447 38.0489 158.176 34.7573 159.634 31.8854C161.136 29.0136 163.147 26.8045 165.665 25.2581C168.228 23.7117 171.077 22.9385 174.214 22.9385C176.954 22.9385 179.362 23.4908 181.438 24.5953C182.678 25.2285 183.761 25.9799 184.686 26.8494C185.31 27.436 185.862 28.0764 186.342 28.7706V23.535H195.687V60.5156C195.687 63.9176 195.002 66.9441 193.633 69.5951C192.263 72.2902 190.208 74.4109 187.469 75.9573C184.73 77.5479 181.416 78.3432 177.528 78.3432C172.315 78.3432 168.029 77.1282 164.671 74.6981C161.806 72.5972 160.015 69.8358 159.296 66.4139C159.184 65.8779 159.098 65.3256 159.038 64.7571H168.25ZM188.293 77.3951C185.251 79.159 181.638 80 177.528 80C172.056 80 167.406 78.7223 163.7 76.0404L163.691 76.0342C159.99 73.3197 157.879 69.5779 157.39 64.9305L157.197 63.1003H169.495L169.841 64.2964C170.204 65.55 170.965 66.5478 172.229 67.3198L172.234 67.323L172.239 67.3264C173.565 68.1502 175.214 68.601 177.263 68.601C179.596 68.601 181.345 67.9066 182.668 66.6186L182.676 66.6107L182.685 66.6029C183.916 65.4364 184.686 63.5221 184.686 60.5156V58.9356C183.918 59.5371 183.078 60.0838 182.168 60.577C179.816 61.8768 177.149 62.5038 174.214 62.5038C170.821 62.5038 167.69 61.6265 164.858 59.8688C162.025 58.1103 159.795 55.6496 158.166 52.5354L158.159 52.522L158.152 52.5084C156.563 49.3297 155.79 45.7337 155.79 41.7602C155.79 37.828 156.564 34.2727 158.157 31.1354L158.161 31.1264L158.166 31.1175C159.793 28.0071 162.001 25.5639 164.798 23.8462L164.804 23.8428L164.809 23.8395C167.643 22.1296 170.791 21.2817 174.214 21.2817C177.175 21.2817 179.854 21.879 182.204 23.1261C183.099 23.584 183.927 24.102 184.686 24.681V21.8781H197.344V60.5156C197.344 64.1427 196.613 67.4344 195.107 70.3502C193.585 73.3434 191.298 75.6964 188.293 77.3951ZM183.564 36.9232L183.559 36.9148C182.813 35.5337 181.836 34.5357 180.63 33.8619L180.614 33.853L180.598 33.8437C179.348 33.108 178.024 32.747 176.6 32.747C175.16 32.747 173.856 33.0941 172.655 33.7852C171.484 34.4593 170.493 35.4668 169.695 36.8718C168.976 38.1675 168.581 39.776 168.581 41.7602C168.581 43.7339 168.972 45.3977 169.704 46.7976C170.502 48.1966 171.497 49.2292 172.678 49.9473C173.933 50.6834 175.232 51.0385 176.6 51.0385C178.035 51.0385 179.364 50.694 180.614 49.9987C181.84 49.2739 182.821 48.263 183.564 46.9291C184.289 45.5841 184.686 43.925 184.686 41.8927C184.686 39.8547 184.287 38.2239 183.569 36.9316L183.564 36.9232ZM185.017 47.7248C184.133 49.3154 182.94 50.5525 181.438 51.4361C179.936 52.2756 178.323 52.6953 176.6 52.6953C174.921 52.6953 173.331 52.2535 171.829 51.3698C170.371 50.4862 169.178 49.227 168.25 47.5923C167.366 45.9133 166.924 43.9693 166.924 41.7602C166.924 39.5511 167.366 37.6512 168.25 36.0607C169.178 34.4259 170.371 33.1888 171.829 32.3493C173.287 31.5099 174.877 31.0901 176.6 31.0901C178.323 31.0901 179.936 31.532 181.438 32.4156C182.94 33.2551 184.133 34.4922 185.017 36.1269C185.901 37.7175 186.342 39.6394 186.342 41.8927C186.342 44.146 185.901 46.09 185.017 47.7248Z" fill="#F5C05C"/>
<path fill-rule="evenodd" clip-rule="evenodd" d="M152.667 61.9073H140.075V39.9708C140.075 37.318 139.414 35.5536 138.339 34.4138L138.331 34.4053L138.323 34.3967C137.232 33.2065 135.719 32.5482 133.58 32.5482C131.389 32.5482 129.824 33.2124 128.688 34.4138C127.614 35.5536 126.953 37.318 126.953 39.9708V61.9073H114.361V21.8781H126.953V24.2533C127.679 23.7384 128.46 23.2864 129.296 22.8974C131.475 21.8588 133.839 21.3479 136.363 21.3479C141.12 21.3479 145.105 22.8772 148.153 26.0225C151.23 29.1534 152.667 33.4614 152.667 38.7116V61.9073ZM146.967 27.18C144.272 24.3965 140.738 23.0048 136.363 23.0048C134.066 23.0048 131.945 23.4687 130.001 24.3965C128.867 24.9241 127.851 25.5777 126.953 26.3573C126.347 26.8834 125.794 27.4669 125.296 28.1078V23.535H116.017V60.2505H125.296V39.9708C125.296 37.0548 126.025 34.8236 127.483 33.2772C128.985 31.6866 131.017 30.8913 133.58 30.8913C136.098 30.8913 138.087 31.6866 139.545 33.2772C141.003 34.8236 141.732 37.0548 141.732 39.9708V60.2505H151.01V38.7116C151.01 33.7632 149.662 29.9193 146.967 27.18Z" fill="#F5C05C"/>
<path fill-rule="evenodd" clip-rule="evenodd" d="M69.43 31.1264L69.4347 31.1175C71.0617 28.0071 73.2693 25.5639 76.0667 23.8462L76.0722 23.8428L76.0777 23.8395C78.9113 22.1296 82.0595 21.2817 85.483 21.2817C88.4449 21.2817 91.1103 21.8796 93.4251 23.136C94.3353 23.6206 95.1793 24.1601 95.9542 24.7555V21.8781H108.612V61.9073H95.9542V59.0018C95.1846 59.6049 94.3419 60.1528 93.4297 60.647L93.4241 60.65L93.4186 60.6529C91.0658 61.9044 88.3825 62.5038 85.4167 62.5038C82.0235 62.5038 78.8918 61.6265 76.06 59.8688L76.0545 59.8654L76.049 59.8619C73.2623 58.1019 71.0599 55.6425 69.4347 52.5354L69.4277 52.522L69.4209 52.5084C67.8315 49.3297 67.059 45.7337 67.059 41.7602C67.059 37.828 67.8327 34.2727 69.4255 31.1354L69.43 31.1264ZM95.9542 56.8148C96.5809 56.2167 97.1332 55.5726 97.6111 54.8823V60.2505H106.956V23.535H97.6111V28.7706C97.1239 28.1094 96.5716 27.4928 95.9542 26.9207C95.0039 26.04 93.8993 25.2649 92.6405 24.5953C90.6081 23.4908 88.2223 22.9385 85.483 22.9385C82.346 22.9385 79.4963 23.7117 76.9337 25.2581C74.4153 26.8045 72.405 29.0136 70.9028 31.8854C69.4448 34.7573 68.7158 38.0489 68.7158 41.7602C68.7158 45.5157 69.4448 48.8514 70.9028 51.7675C72.405 54.6393 74.4153 56.8705 76.9337 58.4611C79.4963 60.0517 82.324 60.847 85.4167 60.847C88.156 60.847 90.564 60.2947 92.6405 59.1901C93.9118 58.5015 95.0164 57.7097 95.9542 56.8148ZM94.8326 36.9232L94.828 36.9148C94.0815 35.5337 93.1042 34.5357 91.8986 33.8619L91.8826 33.853L91.8668 33.8437C90.6161 33.108 89.293 32.747 87.8688 32.747C86.4286 32.747 85.1241 33.0941 83.9239 33.7852C82.753 34.4593 81.7619 35.4668 80.9631 36.8718C80.2449 38.1675 79.8497 39.776 79.8497 41.7602C79.8497 43.7339 80.2409 45.3976 80.9724 46.7975C81.7709 48.1965 82.7655 49.2292 83.9467 49.9473C85.2015 50.6834 86.5003 51.0385 87.8688 51.0385C89.3032 51.0385 90.6323 50.694 91.8825 49.9988C93.1085 49.2739 94.0895 48.2629 94.8325 46.9288C95.5574 45.5839 95.9542 43.9248 95.9542 41.8927C95.9542 39.8547 95.5552 38.2239 94.8372 36.9316L94.8326 36.9232ZM92.7068 51.4361C91.2046 52.2756 89.592 52.6953 87.8688 52.6953C86.1899 52.6953 84.5993 52.2535 83.0972 51.3698C81.6391 50.4862 80.4462 49.227 79.5184 47.5923C78.6347 45.9133 78.1929 43.9693 78.1929 41.7602C78.1929 39.5511 78.6347 37.6512 79.5184 36.0607C80.4462 34.4259 81.6391 33.1888 83.0972 32.3493C84.5552 31.5099 86.1457 31.0901 87.8688 31.0901C89.592 31.0901 91.2046 31.532 92.7068 32.4156C94.209 33.2551 95.4019 34.4922 96.2856 36.1269C97.1692 37.7175 97.6111 39.6394 97.6111 41.8927C97.6111 44.146 97.1692 46.09 96.2856 47.7248C95.4019 49.3154 94.209 50.5525 92.7068 51.4361Z" fill="#F5C05C"/>
<path fill-rule="evenodd" clip-rule="evenodd" d="M63.9539 61.9073H51.362V39.9708C51.362 37.3667 50.7037 35.6567 49.6429 34.5637L49.6345 34.5551L49.6263 34.5463C48.539 33.3932 47.0208 32.747 44.8672 32.747C42.7149 32.747 41.1623 33.3931 40.0247 34.5642C38.9641 35.6572 38.3061 37.3671 38.3061 39.9708V61.9073H25.7141V39.9708C25.7141 37.3667 25.0559 35.6567 23.995 34.5637L23.9867 34.5551L23.9784 34.5463C22.8912 33.3932 21.3729 32.747 19.2193 32.747C17.0134 32.747 15.4426 33.3989 14.3106 34.5642C13.25 35.6572 12.592 37.3671 12.592 39.9708V61.9073H0V21.8781H12.592V24.1196C13.2765 23.6361 14.0116 23.2077 14.7957 22.8343L14.8025 22.8311L14.8093 22.828C16.9442 21.835 19.2615 21.3479 21.7377 21.3479C24.8505 21.3479 27.6893 22.0197 30.2118 23.4021C31.9755 24.3376 33.468 25.5674 34.6809 27.0807C35.8581 25.6541 37.3066 24.4558 39.0114 23.4864L39.0174 23.483L39.0234 23.4797C41.5696 22.0597 44.3219 21.3479 47.253 21.3479C52.1245 21.3479 56.1953 22.8656 59.2934 26.0083C62.4661 29.1363 63.9539 33.4493 63.9539 38.7116V61.9073ZM29.4254 24.8604C27.1721 23.6233 24.6096 23.0048 21.7377 23.0048C19.4844 23.0048 17.4078 23.4466 15.508 24.3302C14.4226 24.8471 13.4506 25.4773 12.592 26.2209C11.9826 26.7486 11.4303 27.3334 10.9351 27.9753V23.535H1.65684V60.2505H10.9351V39.9708C10.9351 37.0989 11.6641 34.9119 13.1222 33.4097C14.6244 31.8633 16.6567 31.0901 19.2193 31.0901C21.7377 31.0901 23.7259 31.8633 25.1839 33.4097C26.642 34.9119 27.371 37.0989 27.371 39.9708V60.2505H36.6493V39.9708C36.6493 37.0989 37.3783 34.9119 38.8363 33.4097C40.3385 31.8633 42.3488 31.0901 44.8672 31.0901C47.3856 31.0901 49.3738 31.8633 50.8318 33.4097C52.2898 34.9119 53.0188 37.0989 53.0188 39.9708V60.2505H62.2971V38.7116C62.2971 33.7632 60.9054 29.9193 58.1219 27.18C55.3826 24.3965 51.7596 23.0048 47.253 23.0048C44.6021 23.0048 42.1279 23.6454 39.8304 24.9267C38.152 25.8811 36.7678 27.0683 35.6777 28.4884C35.3043 28.9749 34.9654 29.4887 34.661 30.0298C34.359 29.4797 34.0267 28.9611 33.6641 28.4742C32.5415 26.9667 31.1286 25.7621 29.4254 24.8604Z" fill="#F5C05C"/>
<path fill-rule="evenodd" clip-rule="evenodd" d="M301.412 42.3566H288.886V55.2137H276.824V42.3566H264.299V30.9576H276.824V18.1005H288.886V30.9576H301.412V42.3566ZM287.229 32.6144V19.7574H278.481V32.6144H265.956V40.6998H278.481V53.5569H287.229V40.6998H299.755V32.6144H287.229Z" fill="#F5C05C"/>
<path d="M360.516 9.07816C358.636 8.12647 356.467 7.64438 354.065 7.64438C353.217 7.64438 352.467 7.70689 351.857 7.78268C351.973 7.61469 352.093 7.44904 352.209 7.2834C352.454 6.88881 352.8 6.58018 353.074 6.23795C353.346 5.89259 353.7 5.63866 353.983 5.35268C354.263 5.0628 354.588 4.85106 354.871 4.63853C355.163 4.43694 355.398 4.21504 355.659 4.08064C355.91 3.93453 356.13 3.80795 356.309 3.70403C356.667 3.49307 356.872 3.37274 356.872 3.37274L357.036 3.27585C357.053 3.26648 357.069 3.25632 357.085 3.24538C357.908 2.72031 358.148 1.63033 357.62 0.810696C357.091 -0.00815871 355.995 -0.24647 355.172 0.279378C355.172 0.279378 354.924 0.437992 354.489 0.715371C354.273 0.855233 354.01 1.02479 353.709 1.21856C353.401 1.40061 353.102 1.68737 352.752 1.95694C352.408 2.239 352.023 2.52576 351.676 2.90315C351.329 3.27664 350.914 3.62199 350.58 4.06971C350.482 4.20019 350.374 4.32833 350.269 4.45647C349.005 3.50713 344.274 0.29188 338.416 0.505188C329.115 0.85914 323.511 8.29212 323.277 8.60857C323.076 8.88126 323.061 9.24693 323.239 9.53525C323.419 9.82278 323.751 9.97437 324.09 9.91576C324.106 9.91264 325.831 9.62276 328.608 9.62276C331.703 9.62276 334.831 9.96655 337.907 10.6448C338.736 10.8276 339.579 10.9206 340.413 10.9206C343.603 10.9206 346.214 9.60166 348.013 8.31087C347.983 8.38588 347.951 8.46245 347.921 8.53746C347.684 9.06409 347.551 9.61416 347.376 10.1314C347.246 10.6588 347.106 11.1675 347.025 11.6574C346.935 12.1457 346.862 12.6091 346.822 13.0412C346.761 13.5881 346.737 14.071 346.728 14.4898C346.023 14.389 345.309 14.3202 344.585 14.2952C344.356 14.2874 344.129 14.2835 343.899 14.2835C337.727 14.2835 329.819 17.3206 326.07 24.1066C323.596 28.583 322.104 36.2011 329.042 47.0713C332.017 51.7328 332.636 55.813 333.133 59.0924C333.859 63.882 334.486 68.0177 342.715 68.2998C342.945 68.3076 343.175 68.3115 343.404 68.3115C355.996 68.3115 366.259 56.7944 366.769 42.0902C367.215 29.2096 359.824 18.1473 349.569 15.1125C349.58 14.7023 349.613 14.1085 349.724 13.4037C349.772 13.0443 349.851 12.6599 349.943 12.2559C350.024 11.8684 350.154 11.4706 350.273 11.0597C351.333 13.6983 353.609 16.8104 357.552 16.8604C362.453 16.9213 366.496 18.9638 366.536 18.9841C366.656 19.0458 366.787 19.0763 366.918 19.0763C367.08 19.0763 367.241 19.0294 367.381 18.9364C367.632 18.7692 367.773 18.4801 367.748 18.1793C367.729 17.9473 367.198 12.4606 360.516 9.07816ZM364.763 41.7193C364.296 55.1444 354.712 66.8607 343.404 66.4724C337.509 66.2708 335.809 63.733 335.078 58.9089C334.57 55.557 333.539 50.318 330.245 45.1572C325.336 37.4671 324.46 30.6897 327.484 25.2171C330.68 19.4328 338.553 16.4239 343.899 16.4239C344.096 16.4239 344.292 16.4271 344.488 16.4341C355.687 16.8193 365.226 28.3715 364.763 41.7193ZM338.269 9.02815C335.076 8.32415 331.826 7.96708 328.61 7.96708C327.595 7.96708 326.716 8.00302 325.998 8.05146C328.102 5.94182 332.509 2.38746 338.481 2.16009C343.204 1.97647 347.236 4.37365 348.821 5.46285C347.573 6.69035 344.475 9.26412 340.414 9.26412C339.702 9.2649 338.98 9.1852 338.269 9.02815ZM357.574 15.2039C353.635 15.1547 352.019 11.2378 351.496 9.5079C352.099 9.40867 352.999 9.30084 354.066 9.30084C356.203 9.30084 358.118 9.72277 359.761 10.5541C363.6 12.4981 365.121 15.1727 365.716 16.8237C363.985 16.1587 361.002 15.2461 357.574 15.2039Z" fill="#F5C05C"/>
<path d="M356.839 49.7869C356.502 50.4831 356.471 51.0108 357.171 51.3452C357.171 51.3452 357.749 51.4981 357.991 50.9972C363.899 38.7636 355.256 26.6058 354.885 26.0948C354.431 25.4689 353.455 24.9138 353.03 25.217C352.665 25.4749 352.576 25.9647 353.028 26.5922C353.577 27.3553 362.016 39.0683 356.839 49.7869Z" fill="#F5C05C"/>
</svg>
