<svg width="104" height="32" viewBox="0 0 104 32" fill="none" xmlns="http://www.w3.org/2000/svg">
<g clip-path="url(#clip0_3021_59540)">
<path d="M20.2158 6.55859C17.916 6.55859 15.9285 7.83644 14.8779 9.51183C13.799 7.60926 11.8683 6.55859 9.48325 6.55859C7.41056 6.55859 5.79216 7.43889 4.8552 8.71673V6.72897H0V22.5742H4.8552V13.9701C4.8552 11.8971 6.0477 10.7613 7.89324 10.7613C9.73879 10.7613 10.9313 11.8971 10.9313 13.9701V22.5742H15.7581V13.9701C15.7581 11.8971 16.9506 10.7613 18.7961 10.7613C20.6417 10.7613 21.8342 11.8971 21.8342 13.9701V22.5742H26.661V13.317C26.661 9.05748 24.134 6.55859 20.2158 6.55859Z" fill="#111212"/>
<path d="M40.9708 8.97049C40.119 7.57907 38.4438 6.5 36.0872 6.5C32.1974 6.5 29.1025 9.62361 29.1025 14.6214C29.1025 19.6192 32.1974 22.7996 36.0588 22.7996C38.4154 22.7996 40.0906 21.7205 40.9708 20.3291V22.5724H45.826V6.72717H40.9708V8.97049ZM37.5069 18.5685C35.6897 18.5685 34.0429 17.1487 34.0429 14.6214C34.0429 12.0941 35.6897 10.7311 37.5069 10.7311C39.324 10.7311 40.9708 12.1225 40.9708 14.6498C40.9708 17.1771 39.3524 18.5685 37.5069 18.5685Z" fill="#111212"/>
<path d="M59.0003 6.55859C56.8708 6.55859 55.1672 7.49568 54.2019 8.83031V6.72897H49.3467V22.5742H54.2019V13.9701C54.2019 11.8119 55.3944 10.6193 57.2399 10.6193C59.0855 10.6193 60.278 11.8119 60.278 13.9701V22.5742H65.1048V13.317C65.1048 9.05748 62.663 6.55859 59.0003 6.55859Z" fill="#111212"/>
<path d="M95.0308 6.5C90.4028 6.5 86.7969 9.62361 86.7969 14.6498C86.7969 19.676 90.3176 22.7996 94.974 22.7996C99.6305 22.7996 103.265 19.676 103.265 14.6498C103.265 9.62361 99.6873 6.5 95.0308 6.5ZM94.974 18.5969C93.2137 18.5969 91.7373 17.3191 91.7373 14.6498C91.7373 11.9805 93.2705 10.7027 95.0308 10.7027C96.7912 10.7027 98.3244 11.9521 98.3244 14.6498C98.3244 17.3475 96.706 18.5969 94.974 18.5969Z" fill="#111212"/>
<path d="M75.6938 22.7156C80.3502 22.7156 83.9845 19.592 83.9845 14.5658C83.9845 9.53963 80.407 6.41602 75.7506 6.41602C71.0941 6.41602 67.5166 9.53963 67.5166 14.5658C67.5166 19.592 71.0373 22.7156 75.6938 22.7156ZM75.7506 10.6187C77.4541 10.6187 79.0441 11.8681 79.0441 14.5658C79.0441 17.2635 77.4257 18.5129 75.6938 18.5129C73.9618 18.5129 72.457 17.2351 72.457 14.5658C72.457 11.8965 73.9902 10.6187 75.7506 10.6187Z" fill="#F5C05C"/>
<path d="M75.9215 27.7987C74.2179 27.7987 72.6279 26.5492 72.6279 23.8516H67.6875C67.6875 28.8777 71.265 32.0014 75.9215 32.0014C80.5779 32.0014 84.1554 28.8777 84.1554 23.8516H79.215C79.215 26.5492 77.6818 27.7987 75.9215 27.7987Z" fill="#F5C05C"/>
<path d="M85.4881 0C84.6363 3.37634 83.2976 6.98838 79.1182 6.32106C80.1957 3.19744 82.2953 1.00808 85.4881 0Z" fill="#98C28F"/>
</g>
<defs>
<clipPath id="clip0_3021_59540">
<rect width="103.264" height="32" fill="white"/>
</clipPath>
</defs>
</svg>
