<svg width="40" height="40" viewBox="0 0 40 40" fill="none" xmlns="http://www.w3.org/2000/svg">
<path d="M27.7849 21.6189L40 19.9983L28.2288 18.4396L38.6099 12.6727L26.6495 15.6387L34.1402 5.85634L24.7123 13.0787L27.9776 1.65849L21.6189 12.2151L19.9983 0L18.4396 11.7712L12.6727 1.39011L15.6387 13.3471L5.85634 5.85634L13.0787 15.2843L1.65849 12.0224L12.2151 18.3811L0 19.9983L11.7712 21.5604L1.39011 27.3273L13.3471 24.3613L5.85634 34.1402L15.2843 26.9213L12.0224 38.3381L18.3811 27.7849L19.9983 40L21.5604 28.2288L27.3273 38.6099L24.3613 26.6495L34.1402 34.1402L26.9213 24.7123L38.3381 27.9776L27.7849 21.6189Z" fill="#F8DCD8"/>
<path fill-rule="evenodd" clip-rule="evenodd" d="M26.8059 21.4152C26.8925 20.9993 27.2323 20.6835 27.6534 20.6276L32.3895 19.9992L28.0975 19.4309C27.67 19.3743 27.3269 19.0499 27.2464 18.6262C27.1659 18.2024 27.3662 17.7749 27.7432 17.5654L31.54 15.4562L26.8902 16.6093C26.4779 16.7116 26.046 16.5422 25.8131 16.1869C25.5802 15.8316 25.5972 15.368 25.8555 15.0307L28.7601 11.2375L25.3204 13.8725C24.978 14.1349 24.506 14.1481 24.1494 13.9053C23.7929 13.6625 23.6322 13.2185 23.7508 12.8038L24.9428 8.63496L22.4755 12.731C22.2563 13.0949 21.8312 13.2806 21.4152 13.1941C20.9993 13.1076 20.6835 12.7677 20.6276 12.3466L19.9992 7.61049L19.4309 11.9025C19.3743 12.33 19.0499 12.6731 18.6262 12.7536C18.2024 12.8341 17.7749 12.6338 17.5654 12.2568L15.4572 8.46173L16.6093 13.1063C16.7116 13.5186 16.5422 13.9506 16.1869 14.1834C15.8316 14.4163 15.368 14.3993 15.0307 14.1411L11.2375 11.2364L13.8725 14.6762C14.1348 15.0185 14.1481 15.4905 13.9054 15.847C13.6627 16.2035 13.2188 16.3643 12.8041 16.2458L8.62806 15.0531L12.731 17.5245C13.095 17.7437 13.2807 18.1689 13.1941 18.5849C13.1075 19.0008 12.7675 19.3167 12.3463 19.3724L7.61019 19.9995L11.9027 20.5691C12.3302 20.6259 12.6732 20.9503 12.7536 21.374C12.8341 21.7977 12.6338 22.2252 12.2568 22.4346L8.46172 24.5428L13.1063 23.3907C13.5187 23.2884 13.9506 23.4578 14.1835 23.8132C14.4163 24.1685 14.3993 24.6321 14.141 24.9694L11.2363 28.7614L14.6764 26.1273C15.0188 25.8651 15.4907 25.852 15.8471 26.0947C16.2036 26.3374 16.3643 26.7813 16.2458 27.196L15.0531 31.3705L17.5245 27.2689C17.7438 26.905 18.169 26.7193 18.585 26.806C19.0009 26.8926 19.3167 27.2325 19.3724 27.6537L19.9995 32.3898L20.5691 28.0973C20.6259 27.6698 20.9503 27.3268 21.374 27.2464C21.7977 27.1659 22.2252 27.3662 22.4346 27.7432L24.5438 31.54L23.3907 26.8902C23.2884 26.4778 23.4579 26.0459 23.8132 25.8131C24.1685 25.5802 24.6322 25.5973 24.9694 25.8556L28.7614 28.7603L26.1273 25.3202C25.8651 24.9778 25.852 24.5058 26.0948 24.1493C26.3376 23.7928 26.7816 23.6322 27.1963 23.7508L31.3636 24.9427L27.2689 22.4755C26.905 22.2562 26.7194 21.831 26.8059 21.4152ZM38.3381 27.9776L26.9213 24.7123L34.1402 34.1402L24.3613 26.6495L27.3273 38.6099L21.5604 28.2288L19.9983 40L18.3811 27.7849L12.0224 38.3381L15.2843 26.9213L5.85634 34.1402L13.3471 24.3613L1.39011 27.3273L11.7712 21.5604L0 19.9983L12.2151 18.3811L1.65849 12.0224L13.0787 15.2843L5.85634 5.85634L15.6387 13.3471L12.6727 1.39011L18.4396 11.7712L19.9983 0L21.6189 12.2151L27.9776 1.65849L24.7123 13.0787L34.1402 5.85634L26.6495 15.6387L38.6099 12.6727L28.2288 18.4396L40 19.9983L27.7849 21.6189L38.3381 27.9776Z" fill="#1A1A1A"/>
</svg>
