<svg width="384" height="163" viewBox="0 0 384 163" fill="none" xmlns="http://www.w3.org/2000/svg">
<path d="M150.998 35.5315C154.199 36.3892 156.099 39.6792 155.241 42.88L151.292 57.6173C150.435 60.8181 152.334 64.1081 155.535 64.9657L172.478 69.5056C175.679 70.3632 177.578 73.6533 176.72 76.854L172.772 91.5913C171.914 94.7921 173.814 98.0821 177.014 98.9398L193.957 103.48C197.158 104.337 199.058 107.627 198.2 110.828L194.251 125.565C193.393 128.766 195.293 132.056 198.494 132.914L221.477 139.072C224.677 139.93 227.967 138.03 228.825 134.829L232.774 120.092C233.632 116.891 236.922 114.992 240.122 115.85L257.065 120.389C260.266 121.247 263.556 119.348 264.414 116.147L268.363 101.41C269.22 98.2087 272.51 96.3092 275.711 97.1669L292.654 101.707C295.855 102.564 299.145 100.665 300.003 97.4641L303.951 82.7268C304.809 79.526 308.099 77.6265 311.3 78.4842L325.327 82.2427C328.528 83.1004 331.818 81.2009 332.675 78.0001L335.84 66.1882C336.698 62.9874 334.799 59.6974 331.598 58.8397L143.242 8.36998C140.041 7.51233 136.751 9.41182 135.894 12.6126L132.729 24.4245C131.871 27.6253 133.771 30.9153 136.971 31.773L150.998 35.5315Z" fill="#FFBC01"/>
<path d="M60.8473 109.246L60.8473 109.246L60.8427 109.243C43.3481 99.1891 32.495 84.841 28.2463 66.1816C24.0023 47.5432 28.5742 26.5514 42.071 3.17418C42.7683 1.96653 44.3125 1.55276 45.5201 2.24999L86.1299 25.6961C87.2016 26.3148 87.5688 27.6852 86.9501 28.7569C80.6523 39.665 77.2707 48.8158 76.8947 56.1975C76.5199 63.5535 78.5087 68.6493 83.087 71.2926C87.3296 73.7421 92.5795 72.9372 98.7305 69.1438C104.93 65.3275 111.309 57.6795 117.885 46.2891C118.425 45.3534 119.622 45.0328 120.558 45.573L161.995 69.4969C162.931 70.0371 163.252 71.2337 162.711 72.1694L162.706 72.1786C156.319 83.7991 147.917 94.1933 137.882 102.889L137.878 102.892C130.084 109.784 120.697 114.67 110.527 117.126C93.6354 120.903 75.8543 118.083 60.8473 109.246Z" stroke="#7DD3B2"/>
<path fill-rule="evenodd" clip-rule="evenodd" d="M26.2157 52.1027C26.2184 51.3275 26.2346 50.5488 26.2642 49.7666L77.5427 20.1609L79.5417 21.315L26.2157 52.1027ZM73.5421 17.8511L75.5427 19.0062L26.3955 47.3814C26.4537 46.5732 26.5261 45.7614 26.6126 44.9459L73.5421 17.8511ZM28.4997 69.2603C28.3187 68.5954 28.1465 67.9248 27.9831 67.2485L84.248 34.7639C83.6909 35.8568 83.1676 36.929 82.6781 37.9804L28.4997 69.2603ZM87.3831 29.0069C86.9099 29.8266 86.4533 30.636 86.0135 31.4352L27.5217 65.2054C27.3778 64.5153 27.2458 63.8221 27.1257 63.1259L87.7021 28.152C87.646 28.4451 87.5407 28.734 87.3831 29.0069ZM26.798 61.0056C26.6998 60.288 26.6141 59.5671 26.5407 58.8429L85.5414 24.7789L86.3799 25.263C86.7483 25.4757 87.0486 25.761 87.2732 26.0903L26.798 61.0056ZM81.5417 22.4697L83.5414 23.6242L26.3565 56.6399C26.3072 55.8946 26.2708 55.1459 26.2474 54.3939L81.5417 22.4697ZM31.1032 76.9943C30.8502 76.371 30.6061 75.7419 30.3708 75.107L79.1688 46.9335C78.8795 47.8717 78.6248 48.7888 78.4049 49.6847L31.1032 76.9943ZM81.307 41.0814C80.8829 42.0969 80.4929 43.0914 80.137 44.0651L29.693 73.1889C29.4764 72.5452 29.2686 71.8958 29.0696 71.2407L81.307 41.0814ZM47.5416 2.83973L45.7702 1.81698C45.6915 1.77157 45.6117 1.73008 45.5308 1.69248L40.7742 4.43871C40.1374 5.56916 39.5214 6.69418 38.9264 7.81375L47.5416 2.83973ZM53.5413 6.30365L55.5429 7.45928L32.9921 20.479C33.4 19.4672 33.8263 18.4507 34.271 17.4293L53.5413 6.30365ZM51.5413 5.14895L35.6816 14.3055C36.1785 13.2428 36.6949 12.175 37.2309 11.102L49.5416 3.99444L51.5413 5.14895ZM69.5415 15.5413L71.5421 16.6964L26.9183 42.46C27.0361 41.6172 27.1687 40.7706 27.3161 39.9201L69.5415 15.5413ZM67.5415 14.3866L65.5415 13.232L28.4014 34.6749C28.1884 35.5626 27.9911 36.4464 27.8092 37.3261L67.5415 14.3866ZM63.5415 12.0773L29.0964 31.9642C29.3473 31.0444 29.6147 30.1204 29.8984 29.1922L61.5419 10.9228L63.5415 12.0773ZM59.5419 9.76807L30.8119 26.3553C31.1377 25.3924 31.4807 24.4249 31.8411 23.4529L57.5429 8.61398L59.5419 9.76807ZM60.5936 109.677C47.1301 101.939 37.5623 91.6636 31.89 78.8495L77.8479 52.3157C77.609 53.6715 77.4577 54.9739 77.394 56.223C77.0239 63.4874 78.9905 68.3501 83.3371 70.8596C87.3451 73.1736 92.382 72.4716 98.468 68.7182C104.56 64.9683 110.888 57.4086 117.452 46.0391C118.131 44.8642 119.633 44.4617 120.808 45.14L162.245 69.0639C163.42 69.7422 163.823 71.2446 163.144 72.4195C156.729 84.0918 148.289 94.5325 138.209 103.267C130.353 110.214 120.891 115.138 110.64 117.613C93.6228 121.419 75.7104 118.579 60.5936 109.677Z" fill="#7DD3B2"/>
<circle cx="319.558" cy="95.2046" r="14" fill="#81CAFF"/>
<circle cx="231.857" cy="18.644" r="13" fill="#F26722"/>
<rect x="342.429" y="120" width="41.1738" height="41.1738" rx="6" transform="rotate(-90 342.429 120)" fill="#EF87BF"/>
<path d="M338.241 67.6108C339.01 66.2775 340.935 66.2775 341.705 67.6108L346.878 76.5706C347.647 77.9039 346.685 79.5706 345.146 79.5706H334.8C333.26 79.5706 332.298 77.9039 333.068 76.5706L338.241 67.6108Z" fill="#1A1A1A"/>
</svg>
