<svg width="21" height="21" viewBox="0 0 21 21" fill="none" xmlns="http://www.w3.org/2000/svg">
<path d="M20.4817 10.603C14.6826 12.0568 12.9524 13.7957 11.4978 19.5921C11.4649 19.7183 11.3911 19.8301 11.2879 19.9098C11.1847 19.9896 11.0579 20.0328 10.9274 20.0328C10.7969 20.0328 10.6702 19.9896 10.5669 19.9098C10.4637 19.8301 10.3899 19.7183 10.357 19.5921C8.90245 13.7957 7.16272 12.0568 1.36357 10.603C1.23731 10.5701 1.12552 10.4963 1.04572 10.3931C0.965932 10.29 0.922653 10.1632 0.922653 10.0328C0.922653 9.90243 0.965932 9.77571 1.04572 9.67253C1.12552 9.56936 1.23731 9.49555 1.36357 9.4627C7.16272 8.00885 8.90245 6.26994 10.357 0.473551C10.3899 0.34735 10.4637 0.235618 10.5669 0.155864C10.6702 0.0761092 10.7969 0.0328369 10.9274 0.0328369C11.0579 0.0328369 11.1847 0.0761092 11.2879 0.155864C11.3911 0.235618 11.4649 0.34735 11.4978 0.473551C12.9524 6.26994 14.6826 8.00885 20.4817 9.4627C20.608 9.49555 20.7198 9.56936 20.7996 9.67253C20.8794 9.77571 20.9227 9.90243 20.9227 10.0328C20.9227 10.1632 20.8794 10.29 20.7996 10.3931C20.7198 10.4963 20.608 10.5701 20.4817 10.603Z" fill="#FFBC01"/>
<path fill-rule="evenodd" clip-rule="evenodd" d="M20.4817 9.4627C14.6826 8.00885 12.9524 6.26994 11.4978 0.473551C11.4649 0.34735 11.3911 0.235618 11.2879 0.155864C11.1847 0.0761092 11.0579 0.0328369 10.9274 0.0328369C10.7969 0.0328369 10.6702 0.0761092 10.5669 0.155864C10.4637 0.235618 10.3899 0.34735 10.357 0.473551C8.90245 6.26994 7.16272 8.00885 1.36357 9.4627C1.23731 9.49555 1.12552 9.56936 1.04572 9.67253C0.965932 9.77571 0.922653 9.90243 0.922653 10.0328C0.922653 10.1632 0.965932 10.29 1.04572 10.3931C1.12552 10.4963 1.23731 10.5701 1.36357 10.603C7.16272 12.0568 8.90245 13.7957 10.357 19.5921C10.3899 19.7183 10.4637 19.8301 10.5669 19.9098C10.6702 19.9896 10.7969 20.0328 10.9274 20.0328C11.0579 20.0328 11.1847 19.9896 11.2879 19.9098C11.3911 19.8301 11.4649 19.7183 11.4978 19.5921C12.9524 13.7957 14.6826 12.0568 20.4817 10.603C20.608 10.5701 20.7198 10.4963 20.7996 10.3931C20.8794 10.29 20.9227 10.1632 20.9227 10.0328C20.9227 9.90243 20.8794 9.77571 20.7996 9.67253C20.7198 9.56936 20.608 9.49555 20.4817 9.4627ZM18.7725 10.0328C16.579 10.6888 14.9229 11.4909 13.653 12.7625C12.3831 14.0339 11.5828 15.6915 10.9273 17.8846C10.271 15.6909 9.4685 14.0333 8.19645 12.7618C6.92472 11.4907 5.26688 10.6888 3.07295 10.0328C5.26688 9.37692 6.92472 8.57498 8.19645 7.30385C9.4685 6.0324 10.271 4.37478 10.9273 2.18108C11.5828 4.37417 12.3831 6.03173 13.653 7.30322C14.9229 8.57477 16.579 9.37686 18.7725 10.0328Z" fill="#1A1A1A"/>
</svg>
