<svg width="12" height="12" viewBox="0 0 12 12" fill="none" xmlns="http://www.w3.org/2000/svg">
<path d="M5.48215 10.0114C4.63077 9.90006 3.81037 9.51862 3.15588 8.86526C1.58256 7.29026 1.58256 4.73521 3.15588 3.16021C4.60524 1.70931 6.8841 1.59616 8.46472 2.8171L9.80105 1.47936C7.48026 -0.471605 4.01274 -0.356628 1.82868 1.82976C-0.479352 4.14025 -0.479352 7.88522 1.82868 10.1939C2.84961 11.2159 4.14947 11.7853 5.48215 11.9021V10.0114Z" fill="white"/>
<path d="M5.48204 11.999C5.48204 11.999 5.47657 11.999 5.47292 11.999C4.07279 11.8749 2.75469 11.2581 1.75929 10.2616C0.625325 9.12642 0 7.61711 0 6.01109C0 4.40506 0.625325 2.89575 1.75929 1.76058C2.82762 0.691114 4.24781 0.0669528 5.75915 0.00490174C7.26138 -0.0553243 8.71803 0.441085 9.86293 1.40288C9.88298 1.42113 9.89574 1.44485 9.89757 1.47223C9.89757 1.4996 9.88844 1.52515 9.86839 1.54523L8.53206 2.88298C8.49742 2.91765 8.44274 2.9213 8.40446 2.89028C6.84571 1.68576 4.61789 1.82811 3.22322 3.22426C2.4794 3.96887 2.07103 4.95622 2.07103 6.00926C2.07103 7.0623 2.4794 8.04965 3.22322 8.79426C3.84125 9.41295 4.62701 9.79985 5.49297 9.91301C5.54037 9.91848 5.57684 9.96046 5.57684 10.0097V11.9005C5.57684 11.9278 5.56589 11.9534 5.54584 11.9716C5.52761 11.9881 5.50391 11.9972 5.48021 11.9972L5.48204 11.999ZM6.01256 0.205656C4.51398 0.205656 3.01722 0.775066 1.89602 1.89746C0.798518 2.99613 0.193247 4.45798 0.193247 6.01109C0.193247 7.56419 0.798518 9.02604 1.89602 10.1247C2.83309 11.0628 4.06915 11.6541 5.38542 11.7946V10.0937C4.51033 9.96228 3.71728 9.56077 3.08832 8.93114C2.30803 8.15002 1.87961 7.1134 1.87961 6.00926C1.87961 4.90512 2.30803 3.8685 3.08832 3.08738C4.53038 1.64196 6.82383 1.47588 8.45732 2.68588L9.65874 1.48318C8.60135 0.627239 7.30695 0.203831 6.01437 0.203831L6.01256 0.205656Z" fill="#1A1A1A"/>
<path d="M9.19824 3.5515C9.75975 4.27969 10.0387 5.15388 10.035 6.02989L11.9092 6.24525C11.9639 4.81807 11.5063 3.37447 10.5346 2.21558L9.19824 3.55333V3.5515Z" fill="#1A1A1A"/>
<path d="M11.9088 6.33981C11.9088 6.33981 11.9016 6.33981 11.8979 6.33981L10.0238 6.12446C9.97455 6.11898 9.93808 6.077 9.93808 6.02773C9.94173 5.15719 9.65186 4.2976 9.12134 3.60956C9.09217 3.57123 9.09582 3.51648 9.12863 3.48181L10.465 2.14406C10.4832 2.12398 10.5087 2.11486 10.5379 2.11668C10.5652 2.11668 10.5907 2.12946 10.6072 2.15136C11.5661 3.29565 12.0638 4.75021 12.0055 6.24673C12.0055 6.27411 11.9927 6.29966 11.9726 6.31608C11.9544 6.33068 11.9325 6.33981 11.9088 6.33981ZM10.1313 5.94195L11.814 6.13541C11.8432 4.75751 11.3874 3.42341 10.5251 2.35759L9.3237 3.56028C9.83052 4.2465 10.1149 5.08601 10.1295 5.94195H10.1313Z" fill="#1A1A1A"/>
<path d="M9.89662 7.05542C9.71978 7.71791 9.37339 8.34389 8.85381 8.8622C8.19749 9.51922 7.37163 9.90065 6.5166 10.0101V11.9009C7.85293 11.7841 9.15827 11.2147 10.181 10.1908C11.0123 9.35861 11.5447 8.34024 11.7762 7.27078L9.89479 7.05542H9.89662Z" fill="#6041E8"/>
<path d="M6.51849 11.9999C6.49479 11.9999 6.4711 11.9907 6.45286 11.9743C6.43281 11.9561 6.42188 11.9305 6.42188 11.9031V10.0124C6.42188 9.96312 6.45833 9.92297 6.50573 9.91567C7.37717 9.80435 8.16474 9.41744 8.78642 8.7951C9.27318 8.306 9.62504 7.69643 9.80371 7.0303C9.81647 6.98467 9.86022 6.95365 9.90762 6.95912L11.789 7.17448C11.8164 7.17813 11.8401 7.19273 11.8565 7.21463C11.8729 7.23653 11.8784 7.2639 11.8729 7.29128C11.6286 8.4155 11.0689 9.44299 10.2522 10.2588C9.25495 11.2571 7.93139 11.8739 6.52761 11.9962C6.52396 11.9962 6.52214 11.9962 6.51849 11.9962V11.9999ZM6.61512 10.0964V11.7955C7.93504 11.6568 9.17474 11.0654 10.1136 10.1237C10.8793 9.35721 11.4117 8.40272 11.6596 7.35515L9.96778 7.1617C9.77453 7.82966 9.41538 8.43922 8.92315 8.93198C8.29236 9.56344 7.49567 9.96495 6.61512 10.0964Z" fill="#1A1A1A"/>
</svg>
