<svg width="12" height="12" viewBox="0 0 12 12" fill="none" xmlns="http://www.w3.org/2000/svg">
<path d="M6.00239 11.3519C8.95768 11.3519 11.3534 8.95621 11.3534 6.00092C11.3534 3.04563 8.95768 0.649902 6.00239 0.649902C3.0471 0.649902 0.651367 3.04563 0.651367 6.00092C0.651367 8.95621 3.0471 11.3519 6.00239 11.3519Z" fill="white"/>
<path d="M6 12C2.69387 12 0 9.30612 0 6C0 2.69387 2.69387 0 6 0C9.30613 0 12 2.69387 12 6C12 9.30612 9.30613 12 6 12ZM6 1.29796C3.40408 1.29796 1.29796 3.40408 1.29796 6C1.29796 8.59591 3.40408 10.702 6 10.702C8.59592 10.702 10.702 8.59591 10.702 6C10.702 3.40408 8.59592 1.29796 6 1.29796Z" fill="#1A1A1A"/>
</svg>
