<svg width="148" height="44" viewBox="0 0 148 44" fill="none" xmlns="http://www.w3.org/2000/svg">
<path d="M29.1067 9.01611C25.8238 9.01611 22.9867 10.7729 21.4873 13.0765C19.9472 10.4607 17.1911 9.01611 13.7868 9.01611C10.8281 9.01611 8.51799 10.2263 7.1806 11.9834V9.25023H0.25V31.037H7.1806V19.2067C7.1806 16.3563 8.88272 14.7947 11.5171 14.7947C14.1516 14.7947 15.8537 16.3563 15.8537 19.2067V31.037H22.7437V19.2067C22.7437 16.3563 24.4458 14.7947 27.0803 14.7947C29.7147 14.7947 31.4168 16.3563 31.4168 19.2067V31.037H38.3068V18.3085C38.3068 12.452 34.6997 9.01611 29.1067 9.01611Z" fill="#111212"/>
<path d="M58.7328 12.3343C57.5169 10.4211 55.1257 8.9375 51.7619 8.9375C46.2094 8.9375 41.7917 13.2324 41.7917 20.1042C41.7917 26.9759 46.2094 31.3488 51.7215 31.3488C55.0854 31.3488 57.4766 29.8652 58.7328 27.952V31.0365H65.6634V9.24978H58.7328V12.3343ZM53.7883 25.5314C51.1945 25.5314 48.8439 23.5791 48.8439 20.1042C48.8439 16.6292 51.1945 14.7551 53.7883 14.7551C56.4228 14.7551 58.7328 16.6683 58.7328 20.1432C58.7328 23.6182 56.4228 25.5314 53.7883 25.5314Z" fill="#111212"/>
<path d="M84.47 9.01611C81.4305 9.01611 78.9987 10.3045 77.6208 12.1395V9.25023H70.6902V31.037H77.6208V19.2067C77.6208 16.2392 79.3229 14.5994 81.9573 14.5994C84.5918 14.5994 86.2939 16.2392 86.2939 19.2067V31.037H93.1839V18.3085C93.1839 12.452 89.6983 9.01611 84.47 9.01611Z" fill="#111212"/>
<path d="M135.9 8.9375C129.294 8.9375 124.147 13.2324 124.147 20.1432C124.147 27.0541 129.172 31.3488 135.819 31.3488C142.466 31.3488 147.653 27.0541 147.653 20.1432C147.653 13.2324 142.547 8.9375 135.9 8.9375ZM135.819 25.5702C133.306 25.5702 131.199 23.8134 131.199 20.1432C131.199 16.434 133.387 14.7161 135.9 14.7161C138.332 14.7161 140.602 16.434 140.602 20.1432C140.602 23.8134 138.291 25.5702 135.819 25.5702Z" fill="#111212"/>
<path d="M108.301 31.2326C114.948 31.2326 120.136 26.9379 120.136 20.027C120.136 13.1162 115.029 8.82129 108.382 8.82129C101.776 8.82129 96.6289 13.1162 96.6289 20.027C96.6289 26.9378 101.655 31.2326 108.301 31.2326ZM108.382 14.5998C110.814 14.5998 113.084 16.3178 113.084 20.027C113.084 23.6972 110.773 25.454 108.301 25.454C105.788 25.454 103.681 23.6972 103.681 20.027C103.681 16.3178 105.87 14.5998 108.382 14.5998Z" fill="#F5C05C"/>
<path d="M108.626 38.221C106.194 38.221 103.924 36.5031 103.924 32.7939H96.8723C96.8724 39.7047 101.979 43.9996 108.626 43.9996C115.232 43.9996 120.379 39.7047 120.379 32.7939H113.327C113.327 36.5031 111.138 38.221 108.626 38.221Z" fill="#F5C05C"/>
<path d="M122.281 0C121.065 4.64247 119.155 9.60951 113.189 8.69151C114.727 4.39702 117.723 1.38619 122.281 0Z" fill="#98C28F"/>
</svg>
