<svg xmlns="http://www.w3.org/2000/svg" version="1.1" xmlns:xlink="http://www.w3.org/1999/xlink" xmlns:svgjs="http://svgjs.dev/svgjs" width="24" height="25"><svg width="24" height="25" viewBox="0 0 24 25" fill="none" xmlns="http://www.w3.org/2000/svg">
<rect y="0.220703" width="24" height="24" rx="2" fill="#81CAFF"></rect>
<path d="M21.5591 12.7908C15.7599 14.2447 14.0297 15.9836 12.5752 21.78C12.5423 21.9062 12.4685 22.0179 12.3652 22.0977C12.262 22.1774 12.1352 22.2207 12.0048 22.2207C11.8743 22.2207 11.7475 22.1774 11.6443 22.0977C11.541 22.0179 11.4672 21.9062 11.4343 21.78C9.9798 15.9836 8.24006 14.2447 2.44092 12.7908C2.31466 12.758 2.20286 12.6842 2.12307 12.581C2.04328 12.4778 2 12.3511 2 12.2207C2 12.0903 2.04328 11.9636 2.12307 11.8604C2.20286 11.7572 2.31466 11.6834 2.44092 11.6506C8.24006 10.1967 9.9798 8.45781 11.4343 2.66142C11.4672 2.53522 11.541 2.42348 11.6443 2.34373C11.7475 2.26398 11.8743 2.2207 12.0048 2.2207C12.1352 2.2207 12.262 2.26398 12.3652 2.34373C12.4685 2.42348 12.5423 2.53522 12.5752 2.66142C14.0297 8.45781 15.7599 10.1967 21.5591 11.6506C21.6853 11.6834 21.7971 11.7572 21.8769 11.8604C21.9567 11.9636 22 12.0903 22 12.2207C22 12.3511 21.9567 12.4778 21.8769 12.581C21.7971 12.6842 21.6853 12.758 21.5591 12.7908Z" fill="#FFBC01"></path>
<path fill-rule="evenodd" clip-rule="evenodd" d="M11.0329 1.55241C11.3112 1.33735 11.653 1.2207 12.0048 1.2207C12.3565 1.2207 12.6983 1.33735 12.9766 1.55241C13.255 1.76747 13.4542 2.06884 13.5429 2.40936L13.5451 2.41802L13.5451 2.41802C14.2621 5.2753 15.0052 6.93608 16.1455 8.0778C17.2854 9.21921 18.9444 9.96413 21.8022 10.6806L21.8109 10.6828L21.8109 10.6828C22.1512 10.7714 22.4527 10.9703 22.668 11.2486C22.8832 11.527 23 11.8689 23 12.2207C23 12.5725 22.8832 12.9144 22.668 13.1928C22.4527 13.4711 22.1512 13.6701 21.8109 13.7586L21.8023 13.7609L21.8022 13.7608C18.9444 14.4773 17.2854 15.2222 16.1455 16.3636C15.0052 17.5053 14.2621 19.1661 13.5451 22.0234L13.5429 22.0321L13.5429 22.0321C13.4542 22.3726 13.255 22.6739 12.9766 22.889C12.6982 23.1041 12.3564 23.2207 12.0048 23.2207C11.6531 23.2207 11.3113 23.1041 11.0329 22.889C10.7545 22.6739 10.5553 22.3726 10.4666 22.0321L10.4644 22.0234L10.4644 22.0234C9.74762 19.1669 9.0023 17.5061 7.85992 16.3642C6.71746 15.2223 5.05567 14.4773 2.19774 13.7608L2.18908 13.7587L2.18909 13.7586C1.84871 13.67 1.54725 13.4711 1.33203 13.1928C1.11677 12.9144 1 12.5725 1 12.2207C1 11.8689 1.11677 11.527 1.33203 11.2486C1.54725 10.9703 1.84871 10.7714 2.18909 10.6828L2.19773 10.6805L2.19774 10.6806C5.05567 9.9641 6.71746 9.21908 7.85992 8.07717C9.0023 6.93532 9.74762 5.27447 10.4644 2.41802L10.4666 2.40935L10.4666 2.40936C10.5553 2.06884 10.7545 1.76747 11.0329 1.55241ZM12.0046 4.36894C12.6602 6.56203 13.4605 8.2196 14.7303 9.49109C16.0002 10.7626 17.6564 11.5647 19.8499 12.2207C17.6564 12.8767 16.0002 13.6788 14.7303 14.9503C13.4605 16.2218 12.6602 17.8794 12.0046 20.0725C11.3483 17.8788 10.5459 16.2211 9.27379 14.9497C8.00206 13.6786 6.34423 12.8766 4.1503 12.2207C6.34423 11.5648 8.00206 10.7628 9.27379 9.49172C10.5459 8.22026 11.3483 6.56265 12.0046 4.36894Z" fill="#1A1A1A"></path>
</svg><style>@media (prefers-color-scheme: light) { :root { filter: none; } }
@media (prefers-color-scheme: dark) { :root { filter: none; } }
</style></svg>