<svg width="401" height="225" viewBox="0 0 401 225" fill="none" xmlns="http://www.w3.org/2000/svg">
<path d="M398.446 138.3C398.446 121.57 395.102 107.003 388.48 94.5381L388.472 94.5215L388.463 94.5059C382.019 81.8134 373.168 72.1042 361.913 65.3125L361.899 65.3047C350.834 58.5101 338.4 55.0996 324.546 55.0996C312.626 55.0997 302.051 57.5407 292.771 62.374C283.636 67.2355 276.5 73.5212 271.304 81.2188L267.646 86.6377V2H229.646V220H267.646V192.085L271.271 197.134C276.674 204.66 283.827 210.861 292.773 215.728C301.842 220.355 312.415 222.7 324.546 222.7V224.7L323.389 224.693C311.852 224.553 301.633 222.303 292.732 217.943L291.847 217.5C282.647 212.5 275.246 206.1 269.646 198.3V222H227.646V0H269.646V80.0996C275.046 72.0998 282.447 65.5995 291.847 60.5996C301.446 55.5998 312.346 53.0997 324.546 53.0996C338.746 53.0996 351.546 56.5997 362.946 63.5996C374.546 70.5995 383.646 80.5998 390.246 93.5996C397.046 106.4 400.446 121.3 400.446 138.3C400.446 155.3 397.046 170.4 390.246 183.6C383.646 196.6 374.546 206.7 362.946 213.9C351.546 221.1 338.746 224.7 324.546 224.7V222.7C338.389 222.7 350.815 219.196 361.878 212.209L361.892 212.201C373.159 205.207 382.017 195.391 388.463 182.694L388.469 182.684C395.103 169.806 398.446 155.027 398.446 138.3ZM357.546 138.3C357.546 128.612 355.575 120.238 351.634 113.179L351.246 112.5C347.371 105.331 342.182 99.8517 335.68 96.0615L335.046 95.7002C328.652 92.019 321.696 90.1209 314.176 90.0059L313.446 90C305.846 90 298.647 92.0001 291.847 96L291.231 96.3613C284.91 100.152 279.715 105.631 275.646 112.8C271.646 120.2 269.646 128.9 269.646 138.9L269.652 139.834C269.773 149.443 271.772 157.831 275.646 165C279.846 172.4 285.247 178.1 291.847 182.1C298.647 185.9 305.846 187.8 313.446 187.8C321.246 187.8 328.446 185.8 335.046 181.8C341.633 177.925 346.907 172.455 350.867 165.389L351.246 164.7C355.446 157.3 357.546 148.5 357.546 138.3ZM359.546 138.3C359.546 148.761 357.393 157.902 353.005 165.65C348.848 173.341 343.207 179.313 336.082 183.51C329.166 187.701 321.608 189.8 313.446 189.8C305.496 189.8 297.961 187.808 290.871 183.846L290.84 183.829L290.81 183.811C283.888 179.616 278.258 173.653 273.907 165.987L273.896 165.969L273.887 165.951C269.702 158.209 267.647 149.17 267.646 138.9C267.646 128.631 269.702 119.591 273.887 111.849L273.896 111.831L273.907 111.812C278.262 104.14 283.904 98.2649 290.849 94.2666C297.939 90.0994 305.482 88 313.446 88C321.579 88 329.116 89.9836 336.021 93.9541C343.177 97.9529 348.837 103.839 353.002 111.542C357.394 119.093 359.546 128.039 359.546 138.3Z" fill="#F5C05C"/>
<path d="M199.5 222H155.101L141.3 182.1H57.9004L44.1006 222H0L75.2998 12.2998H124.2L199.5 222ZM2.84375 220H42.6758L56.4756 180.1H142.725L156.524 220H196.657L122.794 14.2998H76.707L2.84375 220ZM132.708 150.5H66.4922L99.6006 54.7812L132.708 150.5ZM69.2998 148.5H129.9L99.6006 60.9004L69.2998 148.5Z" fill="#F5C05C"/>
</svg>
