<svg width="106" height="106" viewBox="0 0 106 106" fill="none" xmlns="http://www.w3.org/2000/svg">
<mask id="path-1-inside-1_2663_2745" fill="white">
<path d="M106 53C106 57.4793 99.5585 61.0519 98.4542 65.1794C97.3112 69.4539 101.071 75.7618 98.9053 79.5041C96.7094 83.3004 89.3423 83.185 86.2659 86.2659C83.1895 89.3468 83.3004 96.7094 79.5041 98.9053C75.7618 101.071 69.4539 97.3121 65.1794 98.4543C61.0492 99.5585 57.4766 106 53 106C48.5234 106 44.9481 99.5585 40.8207 98.4543C36.5462 97.3121 30.2382 101.071 26.4959 98.9053C22.6996 96.7094 22.8151 89.3423 19.7342 86.2659C16.6532 83.1895 9.2906 83.3004 7.09471 79.5041C4.92949 75.7618 8.68885 69.4539 7.54579 65.1794C6.44244 61.0492 0 57.4766 0 53C0 48.5234 6.44244 44.9481 7.54579 40.8207C8.68885 36.5462 4.92949 30.2382 7.09471 26.4959C9.2906 22.6996 16.6578 22.8151 19.7342 19.7342C22.8106 16.6532 22.6996 9.2906 26.4959 7.09471C30.2382 4.92949 36.5462 8.68885 40.8207 7.54579C44.9508 6.44244 48.5243 0 53 0C57.4757 0 61.0519 6.44244 65.1794 7.54579C69.4539 8.68885 75.7618 4.92949 79.5041 7.09471C83.3004 9.2915 83.185 16.6577 86.2659 19.7351C89.3468 22.8124 96.7094 22.6996 98.9053 26.4959C101.071 30.2382 97.3112 36.5462 98.4542 40.8207C99.5585 44.9481 106 48.5216 106 53Z"/>
<path fill-rule="evenodd" clip-rule="evenodd" d="M97.4882 64.9209C97.8146 63.701 98.517 62.5799 99.307 61.5546C99.9267 60.7502 100.647 59.9484 101.34 59.1765C101.527 58.9679 101.713 58.7614 101.893 58.5577C102.765 57.5761 103.55 56.6397 104.12 55.6957C104.687 54.757 105 53.8742 105 53C105 52.1261 104.687 51.2435 104.12 50.3048C103.55 49.3608 102.765 48.4243 101.893 47.4427C101.713 47.2391 101.527 47.0327 101.34 46.8241C100.647 46.0521 99.9268 45.2501 99.3069 44.4455C98.517 43.4201 97.8146 42.299 97.4882 41.0791C97.1538 39.8288 97.1902 38.4843 97.3548 37.1802C97.489 36.1166 97.7193 35.0111 97.9392 33.955C97.9881 33.7201 98.0365 33.4877 98.0833 33.2588C98.3463 31.9697 98.5602 30.7738 98.5878 29.6864C98.6153 28.6042 98.4547 27.7139 98.0397 26.9967C97.6158 26.2638 96.9147 25.6704 95.9583 25.1485C94.9971 24.6241 93.8504 24.2097 92.6021 23.7948C92.3649 23.716 92.1235 23.637 91.8794 23.5571C90.8695 23.2266 89.8161 22.8818 88.8478 22.4792C87.6418 21.9776 86.4647 21.347 85.5592 20.4426C84.6534 19.5378 84.022 18.3609 83.5202 17.1549C83.1167 16.1852 82.7714 15.13 82.4405 14.1185C82.3612 13.8759 82.2826 13.6358 82.2042 13.3999C81.7894 12.1513 81.3752 11.0041 80.8509 10.0425C80.3293 9.08566 79.7361 8.38433 79.0033 7.96027C78.2861 7.54532 77.3958 7.38466 76.3136 7.41216C75.2262 7.43979 74.0303 7.6537 72.7413 7.91675C72.5122 7.96348 72.2798 8.0119 72.0448 8.06082C70.9887 8.28077 69.8834 8.51097 68.8199 8.64518C67.5157 8.80977 66.1713 8.8462 64.921 8.51185C63.7011 8.18572 62.5798 7.48342 61.5543 6.69353C60.7491 6.07337 59.9465 5.35286 59.174 4.65936C58.9657 4.47243 58.7597 4.28746 58.5564 4.10694C57.5745 3.23524 56.6379 2.44976 55.694 1.87999C54.7554 1.31341 53.8731 1 53 1C52.127 1 51.2449 1.31339 50.3065 1.87995C49.3628 2.4497 48.4265 3.23516 47.4448 4.10688C47.2419 4.28699 47.0364 4.47152 46.8287 4.65802C46.0558 5.35194 45.2527 6.07297 44.4469 6.69357C43.4211 7.48349 42.2996 8.18573 41.079 8.51185C39.8287 8.8462 38.4843 8.80977 37.1802 8.64519C36.1166 8.51097 35.0113 8.28077 33.9552 8.06083C33.7203 8.0119 33.4878 7.96349 33.2588 7.91675C31.9697 7.6537 30.7738 7.43979 29.6864 7.41216C28.6042 7.38466 27.7139 7.54532 26.9967 7.96027C26.2637 8.38425 25.6702 9.08541 25.1482 10.0418C24.6236 11.003 24.2091 12.1498 23.794 13.3981C23.715 13.6355 23.6359 13.8773 23.5559 14.1217C23.2254 15.1313 22.8806 16.1844 22.478 17.1523C21.9765 18.3582 21.3459 19.5353 20.4418 20.4408C19.5373 21.3466 18.3603 21.978 17.1544 22.4798C16.1847 22.8834 15.1294 23.2287 14.1179 23.5596C13.8753 23.6389 13.6353 23.7175 13.3995 23.7958C12.1508 24.2106 11.0037 24.6248 10.0421 25.1491C9.08535 25.6707 8.38419 26.2639 7.96033 26.9966C7.54539 27.7138 7.38466 28.6042 7.41216 29.6864C7.43979 30.7738 7.6537 31.9697 7.91675 33.2588C7.96349 33.4878 8.0119 33.7203 8.06083 33.9552C8.28077 35.0113 8.51097 36.1166 8.64519 37.1802C8.80976 38.4843 8.8462 39.8286 8.51187 41.0789C8.18574 42.2989 7.48342 43.4202 6.69351 44.4457C6.07341 45.2507 5.35297 46.0532 4.65954 46.8256C4.47254 47.0339 4.2875 47.24 4.10692 47.4434C3.23523 48.4251 2.44976 49.3617 1.88 50.3056C1.31343 51.2443 1 52.1267 1 53C1 53.8733 1.31342 54.7556 1.87996 55.694C2.4497 56.6377 3.23515 57.574 4.10687 58.5556C4.28705 58.7585 4.47168 58.9641 4.65827 59.1719C5.3521 59.9447 6.07304 60.7476 6.69355 61.5533C7.48347 62.5789 8.18573 63.7005 8.51185 64.921C8.8462 66.1713 8.80977 67.5157 8.64518 68.8199C8.51097 69.8834 8.28077 70.9887 8.06082 72.0448C8.0119 72.2798 7.96348 72.5122 7.91675 72.7413C7.6537 74.0303 7.43979 75.2262 7.41216 76.3136C7.38466 77.3958 7.54532 78.2861 7.96027 79.0033C8.38425 79.7363 9.08541 80.3298 10.0418 80.8518C11.003 81.3764 12.1498 81.791 13.3981 82.206C13.6356 82.285 13.8774 82.3642 14.1218 82.4442C15.1313 82.7747 16.1844 83.1195 17.1523 83.522C18.3582 84.0236 19.5353 84.6541 20.4408 85.5583C21.3466 86.4628 21.978 87.6397 22.4798 88.8456C22.8834 89.8154 23.2287 90.8707 23.5596 91.8822C23.6389 92.1248 23.7175 92.3648 23.7958 92.6005C24.2106 93.8492 24.6248 94.9964 25.1491 95.9579C25.6707 96.9147 26.2639 97.6159 26.9966 98.0397C27.7138 98.4547 28.6042 98.6154 29.6865 98.588C30.7739 98.5604 31.9698 98.3466 33.2588 98.0836C33.4881 98.0369 33.7208 97.9884 33.956 97.9394C35.0118 97.7196 36.1169 97.4895 37.1801 97.3552C38.4843 97.1906 39.8286 97.1541 41.0788 97.4882C42.2987 97.8145 43.4202 98.517 44.4457 99.3069C45.2506 99.9269 46.0529 100.647 46.8251 101.34C47.0336 101.528 47.2398 101.713 47.4433 101.893C48.4251 102.765 49.3616 103.55 50.3056 104.12C51.2442 104.687 52.1266 105 53 105C53.8734 105 54.7556 104.687 55.694 104.12C56.6377 103.55 57.574 102.765 58.5556 101.893C58.7587 101.713 58.9645 101.528 59.1725 101.342C59.9451 100.648 60.7478 99.9273 61.5533 99.3069C62.579 98.5169 63.7005 97.8145 64.9211 97.4882C66.1713 97.1541 67.5158 97.1906 68.8199 97.3552C69.8831 97.4895 70.9882 97.7196 72.044 97.9394C72.2792 97.9884 72.5119 98.0368 72.7412 98.0836C74.0302 98.3466 75.2261 98.5604 76.3135 98.588C77.3958 98.6154 78.2861 98.4547 79.0033 98.0398C79.7363 97.6158 80.3298 96.9146 80.8518 95.9582C81.3764 94.997 81.791 93.8503 82.206 92.602C82.285 92.3645 82.3642 92.1226 82.4442 91.8782C82.7747 90.8687 83.1195 89.8157 83.522 88.8477C84.0236 87.6418 84.6541 86.4647 85.5583 85.5593C86.4628 84.6534 87.6397 84.0221 88.8456 83.5202C89.8153 83.1167 90.8705 82.7714 91.8819 82.4405C92.1246 82.3612 92.3647 82.2826 92.6005 82.2042C93.8492 81.7894 94.9964 81.3753 95.9579 80.851C96.9146 80.3293 97.6158 79.7362 98.0397 79.0034C98.4546 78.2862 98.6153 77.3958 98.5878 76.3136C98.5602 75.2262 98.3463 74.0303 98.0833 72.7413C98.0365 72.5123 97.9881 72.2799 97.9392 72.0451C97.7193 70.9889 97.489 69.8835 97.3548 68.8199C97.1902 67.5157 97.1538 66.1712 97.4882 64.9209ZM7.54579 65.1794C7.05371 63.3374 5.49964 61.6063 3.92874 59.8564C1.97736 57.6827 0 55.4801 0 53C0 50.5194 1.97823 48.3155 3.93003 46.1411C5.50049 44.3915 7.05384 42.661 7.54579 40.8207C8.06455 38.8808 7.57359 36.5221 7.08494 34.1744C6.49687 31.3491 5.91213 28.5398 7.09471 26.4959C8.30063 24.4111 11.0662 23.506 13.8241 22.6034C16.0882 21.8624 18.3472 21.1231 19.7342 19.7342C21.1199 18.3464 21.859 16.0898 22.5997 13.828C23.5034 11.0686 24.4096 8.30146 26.4959 7.09471C28.5398 5.91213 31.3491 6.49686 34.1744 7.08494C36.5221 7.57359 38.8808 8.06455 40.8207 7.54579C42.6628 7.05368 44.3941 5.49949 46.1442 3.92851C48.3179 1.9772 50.5205 0 53 0C55.48 0 57.6839 1.97808 59.8584 3.9298C61.6082 5.50034 63.339 7.05382 65.1794 7.54579C67.1193 8.06455 69.478 7.57359 71.8256 7.08494C74.6509 6.49686 77.4602 5.91213 79.5041 7.09471C81.5889 8.30114 82.494 11.0667 83.3966 13.8247C84.1376 16.0887 84.8769 18.3477 86.2659 19.7351C87.6539 21.1214 89.9109 21.8603 92.173 22.6009C94.9321 23.5042 97.6987 24.4099 98.9053 26.4959C100.088 28.5398 99.5031 31.3491 98.9151 34.1744C98.4264 36.5221 97.9355 38.8808 98.4542 40.8207C98.9465 42.6606 100.499 44.3905 102.069 46.1395C104.021 48.3139 106 50.518 106 53C106 55.4826 104.021 57.6867 102.069 59.8611C100.499 61.6099 98.9464 63.3395 98.4542 65.1794C97.9355 67.1193 98.4264 69.478 98.9151 71.8256C99.5031 74.6509 100.088 77.4602 98.9053 79.5041C97.6994 81.5889 94.9339 82.494 92.1759 83.3966C89.9118 84.1376 87.6528 84.8769 86.2659 86.2659C84.8801 87.6537 84.1411 89.9102 83.4003 92.172C82.4966 94.9314 81.5904 97.6986 79.5041 98.9053C77.46 100.088 74.6503 99.5033 71.8247 98.9153C69.4774 98.4268 67.119 97.936 65.1794 98.4543C63.3375 98.9467 61.6066 100.501 59.8569 102.071C57.6831 104.023 55.4803 106 53 106C50.5192 106 48.3152 104.022 46.1406 102.07C44.3911 100.5 42.6608 98.9466 40.8207 98.4543C38.881 97.936 36.5227 98.4268 34.1753 98.9153C31.3497 99.5033 28.54 100.088 26.4959 98.9053C24.4111 97.6994 23.506 94.9339 22.6034 92.1759C21.8624 89.9118 21.1231 87.6528 19.7342 86.2659C18.3464 84.8801 16.0898 84.1411 13.828 83.4003C11.0686 82.4966 8.30146 81.5904 7.09471 79.5041C5.91213 77.4602 6.49686 74.6509 7.08494 71.8256C7.57359 69.478 8.06455 67.1193 7.54579 65.1794Z"/>
</mask>
<path d="M106 53C106 57.4793 99.5585 61.0519 98.4542 65.1794C97.3112 69.4539 101.071 75.7618 98.9053 79.5041C96.7094 83.3004 89.3423 83.185 86.2659 86.2659C83.1895 89.3468 83.3004 96.7094 79.5041 98.9053C75.7618 101.071 69.4539 97.3121 65.1794 98.4543C61.0492 99.5585 57.4766 106 53 106C48.5234 106 44.9481 99.5585 40.8207 98.4543C36.5462 97.3121 30.2382 101.071 26.4959 98.9053C22.6996 96.7094 22.8151 89.3423 19.7342 86.2659C16.6532 83.1895 9.2906 83.3004 7.09471 79.5041C4.92949 75.7618 8.68885 69.4539 7.54579 65.1794C6.44244 61.0492 0 57.4766 0 53C0 48.5234 6.44244 44.9481 7.54579 40.8207C8.68885 36.5462 4.92949 30.2382 7.09471 26.4959C9.2906 22.6996 16.6578 22.8151 19.7342 19.7342C22.8106 16.6532 22.6996 9.2906 26.4959 7.09471C30.2382 4.92949 36.5462 8.68885 40.8207 7.54579C44.9508 6.44244 48.5243 0 53 0C57.4757 0 61.0519 6.44244 65.1794 7.54579C69.4539 8.68885 75.7618 4.92949 79.5041 7.09471C83.3004 9.2915 83.185 16.6577 86.2659 19.7351C89.3468 22.8124 96.7094 22.6996 98.9053 26.4959C101.071 30.2382 97.3112 36.5462 98.4542 40.8207C99.5585 44.9481 106 48.5216 106 53Z" fill="#FFADE3"/>
<path fill-rule="evenodd" clip-rule="evenodd" d="M97.4882 64.9209C97.8146 63.701 98.517 62.5799 99.307 61.5546C99.9267 60.7502 100.647 59.9484 101.34 59.1765C101.527 58.9679 101.713 58.7614 101.893 58.5577C102.765 57.5761 103.55 56.6397 104.12 55.6957C104.687 54.757 105 53.8742 105 53C105 52.1261 104.687 51.2435 104.12 50.3048C103.55 49.3608 102.765 48.4243 101.893 47.4427C101.713 47.2391 101.527 47.0327 101.34 46.8241C100.647 46.0521 99.9268 45.2501 99.3069 44.4455C98.517 43.4201 97.8146 42.299 97.4882 41.0791C97.1538 39.8288 97.1902 38.4843 97.3548 37.1802C97.489 36.1166 97.7193 35.0111 97.9392 33.955C97.9881 33.7201 98.0365 33.4877 98.0833 33.2588C98.3463 31.9697 98.5602 30.7738 98.5878 29.6864C98.6153 28.6042 98.4547 27.7139 98.0397 26.9967C97.6158 26.2638 96.9147 25.6704 95.9583 25.1485C94.9971 24.6241 93.8504 24.2097 92.6021 23.7948C92.3649 23.716 92.1235 23.637 91.8794 23.5571C90.8695 23.2266 89.8161 22.8818 88.8478 22.4792C87.6418 21.9776 86.4647 21.347 85.5592 20.4426C84.6534 19.5378 84.022 18.3609 83.5202 17.1549C83.1167 16.1852 82.7714 15.13 82.4405 14.1185C82.3612 13.8759 82.2826 13.6358 82.2042 13.3999C81.7894 12.1513 81.3752 11.0041 80.8509 10.0425C80.3293 9.08566 79.7361 8.38433 79.0033 7.96027C78.2861 7.54532 77.3958 7.38466 76.3136 7.41216C75.2262 7.43979 74.0303 7.6537 72.7413 7.91675C72.5122 7.96348 72.2798 8.0119 72.0448 8.06082C70.9887 8.28077 69.8834 8.51097 68.8199 8.64518C67.5157 8.80977 66.1713 8.8462 64.921 8.51185C63.7011 8.18572 62.5798 7.48342 61.5543 6.69353C60.7491 6.07337 59.9465 5.35286 59.174 4.65936C58.9657 4.47243 58.7597 4.28746 58.5564 4.10694C57.5745 3.23524 56.6379 2.44976 55.694 1.87999C54.7554 1.31341 53.8731 1 53 1C52.127 1 51.2449 1.31339 50.3065 1.87995C49.3628 2.4497 48.4265 3.23516 47.4448 4.10688C47.2419 4.28699 47.0364 4.47152 46.8287 4.65802C46.0558 5.35194 45.2527 6.07297 44.4469 6.69357C43.4211 7.48349 42.2996 8.18573 41.079 8.51185C39.8287 8.8462 38.4843 8.80977 37.1802 8.64519C36.1166 8.51097 35.0113 8.28077 33.9552 8.06083C33.7203 8.0119 33.4878 7.96349 33.2588 7.91675C31.9697 7.6537 30.7738 7.43979 29.6864 7.41216C28.6042 7.38466 27.7139 7.54532 26.9967 7.96027C26.2637 8.38425 25.6702 9.08541 25.1482 10.0418C24.6236 11.003 24.2091 12.1498 23.794 13.3981C23.715 13.6355 23.6359 13.8773 23.5559 14.1217C23.2254 15.1313 22.8806 16.1844 22.478 17.1523C21.9765 18.3582 21.3459 19.5353 20.4418 20.4408C19.5373 21.3466 18.3603 21.978 17.1544 22.4798C16.1847 22.8834 15.1294 23.2287 14.1179 23.5596C13.8753 23.6389 13.6353 23.7175 13.3995 23.7958C12.1508 24.2106 11.0037 24.6248 10.0421 25.1491C9.08535 25.6707 8.38419 26.2639 7.96033 26.9966C7.54539 27.7138 7.38466 28.6042 7.41216 29.6864C7.43979 30.7738 7.6537 31.9697 7.91675 33.2588C7.96349 33.4878 8.0119 33.7203 8.06083 33.9552C8.28077 35.0113 8.51097 36.1166 8.64519 37.1802C8.80976 38.4843 8.8462 39.8286 8.51187 41.0789C8.18574 42.2989 7.48342 43.4202 6.69351 44.4457C6.07341 45.2507 5.35297 46.0532 4.65954 46.8256C4.47254 47.0339 4.2875 47.24 4.10692 47.4434C3.23523 48.4251 2.44976 49.3617 1.88 50.3056C1.31343 51.2443 1 52.1267 1 53C1 53.8733 1.31342 54.7556 1.87996 55.694C2.4497 56.6377 3.23515 57.574 4.10687 58.5556C4.28705 58.7585 4.47168 58.9641 4.65827 59.1719C5.3521 59.9447 6.07304 60.7476 6.69355 61.5533C7.48347 62.5789 8.18573 63.7005 8.51185 64.921C8.8462 66.1713 8.80977 67.5157 8.64518 68.8199C8.51097 69.8834 8.28077 70.9887 8.06082 72.0448C8.0119 72.2798 7.96348 72.5122 7.91675 72.7413C7.6537 74.0303 7.43979 75.2262 7.41216 76.3136C7.38466 77.3958 7.54532 78.2861 7.96027 79.0033C8.38425 79.7363 9.08541 80.3298 10.0418 80.8518C11.003 81.3764 12.1498 81.791 13.3981 82.206C13.6356 82.285 13.8774 82.3642 14.1218 82.4442C15.1313 82.7747 16.1844 83.1195 17.1523 83.522C18.3582 84.0236 19.5353 84.6541 20.4408 85.5583C21.3466 86.4628 21.978 87.6397 22.4798 88.8456C22.8834 89.8154 23.2287 90.8707 23.5596 91.8822C23.6389 92.1248 23.7175 92.3648 23.7958 92.6005C24.2106 93.8492 24.6248 94.9964 25.1491 95.9579C25.6707 96.9147 26.2639 97.6159 26.9966 98.0397C27.7138 98.4547 28.6042 98.6154 29.6865 98.588C30.7739 98.5604 31.9698 98.3466 33.2588 98.0836C33.4881 98.0369 33.7208 97.9884 33.956 97.9394C35.0118 97.7196 36.1169 97.4895 37.1801 97.3552C38.4843 97.1906 39.8286 97.1541 41.0788 97.4882C42.2987 97.8145 43.4202 98.517 44.4457 99.3069C45.2506 99.9269 46.0529 100.647 46.8251 101.34C47.0336 101.528 47.2398 101.713 47.4433 101.893C48.4251 102.765 49.3616 103.55 50.3056 104.12C51.2442 104.687 52.1266 105 53 105C53.8734 105 54.7556 104.687 55.694 104.12C56.6377 103.55 57.574 102.765 58.5556 101.893C58.7587 101.713 58.9645 101.528 59.1725 101.342C59.9451 100.648 60.7478 99.9273 61.5533 99.3069C62.579 98.5169 63.7005 97.8145 64.9211 97.4882C66.1713 97.1541 67.5158 97.1906 68.8199 97.3552C69.8831 97.4895 70.9882 97.7196 72.044 97.9394C72.2792 97.9884 72.5119 98.0368 72.7412 98.0836C74.0302 98.3466 75.2261 98.5604 76.3135 98.588C77.3958 98.6154 78.2861 98.4547 79.0033 98.0398C79.7363 97.6158 80.3298 96.9146 80.8518 95.9582C81.3764 94.997 81.791 93.8503 82.206 92.602C82.285 92.3645 82.3642 92.1226 82.4442 91.8782C82.7747 90.8687 83.1195 89.8157 83.522 88.8477C84.0236 87.6418 84.6541 86.4647 85.5583 85.5593C86.4628 84.6534 87.6397 84.0221 88.8456 83.5202C89.8153 83.1167 90.8705 82.7714 91.8819 82.4405C92.1246 82.3612 92.3647 82.2826 92.6005 82.2042C93.8492 81.7894 94.9964 81.3753 95.9579 80.851C96.9146 80.3293 97.6158 79.7362 98.0397 79.0034C98.4546 78.2862 98.6153 77.3958 98.5878 76.3136C98.5602 75.2262 98.3463 74.0303 98.0833 72.7413C98.0365 72.5123 97.9881 72.2799 97.9392 72.0451C97.7193 70.9889 97.489 69.8835 97.3548 68.8199C97.1902 67.5157 97.1538 66.1712 97.4882 64.9209ZM7.54579 65.1794C7.05371 63.3374 5.49964 61.6063 3.92874 59.8564C1.97736 57.6827 0 55.4801 0 53C0 50.5194 1.97823 48.3155 3.93003 46.1411C5.50049 44.3915 7.05384 42.661 7.54579 40.8207C8.06455 38.8808 7.57359 36.5221 7.08494 34.1744C6.49687 31.3491 5.91213 28.5398 7.09471 26.4959C8.30063 24.4111 11.0662 23.506 13.8241 22.6034C16.0882 21.8624 18.3472 21.1231 19.7342 19.7342C21.1199 18.3464 21.859 16.0898 22.5997 13.828C23.5034 11.0686 24.4096 8.30146 26.4959 7.09471C28.5398 5.91213 31.3491 6.49686 34.1744 7.08494C36.5221 7.57359 38.8808 8.06455 40.8207 7.54579C42.6628 7.05368 44.3941 5.49949 46.1442 3.92851C48.3179 1.9772 50.5205 0 53 0C55.48 0 57.6839 1.97808 59.8584 3.9298C61.6082 5.50034 63.339 7.05382 65.1794 7.54579C67.1193 8.06455 69.478 7.57359 71.8256 7.08494C74.6509 6.49686 77.4602 5.91213 79.5041 7.09471C81.5889 8.30114 82.494 11.0667 83.3966 13.8247C84.1376 16.0887 84.8769 18.3477 86.2659 19.7351C87.6539 21.1214 89.9109 21.8603 92.173 22.6009C94.9321 23.5042 97.6987 24.4099 98.9053 26.4959C100.088 28.5398 99.5031 31.3491 98.9151 34.1744C98.4264 36.5221 97.9355 38.8808 98.4542 40.8207C98.9465 42.6606 100.499 44.3905 102.069 46.1395C104.021 48.3139 106 50.518 106 53C106 55.4826 104.021 57.6867 102.069 59.8611C100.499 61.6099 98.9464 63.3395 98.4542 65.1794C97.9355 67.1193 98.4264 69.478 98.9151 71.8256C99.5031 74.6509 100.088 77.4602 98.9053 79.5041C97.6994 81.5889 94.9339 82.494 92.1759 83.3966C89.9118 84.1376 87.6528 84.8769 86.2659 86.2659C84.8801 87.6537 84.1411 89.9102 83.4003 92.172C82.4966 94.9314 81.5904 97.6986 79.5041 98.9053C77.46 100.088 74.6503 99.5033 71.8247 98.9153C69.4774 98.4268 67.119 97.936 65.1794 98.4543C63.3375 98.9467 61.6066 100.501 59.8569 102.071C57.6831 104.023 55.4803 106 53 106C50.5192 106 48.3152 104.022 46.1406 102.07C44.3911 100.5 42.6608 98.9466 40.8207 98.4543C38.881 97.936 36.5227 98.4268 34.1753 98.9153C31.3497 99.5033 28.54 100.088 26.4959 98.9053C24.4111 97.6994 23.506 94.9339 22.6034 92.1759C21.8624 89.9118 21.1231 87.6528 19.7342 86.2659C18.3464 84.8801 16.0898 84.1411 13.828 83.4003C11.0686 82.4966 8.30146 81.5904 7.09471 79.5041C5.91213 77.4602 6.49686 74.6509 7.08494 71.8256C7.57359 69.478 8.06455 67.1193 7.54579 65.1794Z" fill="#FFADE3"/>
<path d="M98.4542 65.1794L97.4882 64.9209L97.4882 64.921L98.4542 65.1794ZM98.9053 79.5041L98.0397 79.0033L98.0397 79.0034L98.9053 79.5041ZM86.2659 86.2659L86.9735 86.9725L86.9735 86.9725L86.2659 86.2659ZM79.5041 98.9053L79.0034 98.0397L79.0033 98.0398L79.5041 98.9053ZM65.1794 98.4543L64.9212 97.4881L64.9211 97.4882L65.1794 98.4543ZM40.8207 98.4543L41.0791 97.4882L41.0788 97.4881L40.8207 98.4543ZM26.4959 98.9053L26.9967 98.0398L26.9966 98.0397L26.4959 98.9053ZM7.09471 79.5041L7.96033 79.0034L7.96027 79.0033L7.09471 79.5041ZM7.54579 65.1794L6.57967 65.4375L6.57974 65.4377L7.54579 65.1794ZM7.54579 40.8207L6.57974 40.5623L6.57972 40.5624L7.54579 40.8207ZM7.09471 26.4959L7.96027 26.9967L7.96033 26.9966L7.09471 26.4959ZM19.7342 19.7342L20.4418 20.4408L20.4418 20.4408L19.7342 19.7342ZM26.4959 7.09471L26.9966 7.96033L26.9967 7.96027L26.4959 7.09471ZM40.8207 7.54579L40.5626 6.57967L40.5623 6.57974L40.8207 7.54579ZM65.1794 7.54579L65.4377 6.57974L65.4376 6.57972L65.1794 7.54579ZM79.5041 7.09471L80.0049 6.22917L80.0049 6.22915L79.5041 7.09471ZM98.9053 26.4959L98.0397 26.9966L98.0397 26.9967L98.9053 26.4959ZM98.4542 40.8207L97.4882 41.079L97.4882 41.0791L98.4542 40.8207ZM97.4882 64.9209L96.5222 64.6625L96.5221 64.6626L97.4882 64.9209ZM99.307 61.5546L100.099 62.165L100.099 62.165L99.307 61.5546ZM101.34 59.1765L102.084 59.8446L102.084 59.8446L101.34 59.1765ZM101.893 58.5577L101.146 57.8937L101.146 57.8937L101.893 58.5577ZM104.12 55.6957L104.976 56.2123L104.976 56.2123L104.12 55.6957ZM104.12 50.3048L103.264 50.8215L103.264 50.8215L104.12 50.3048ZM101.893 47.4427L102.641 46.7787L102.641 46.7787L101.893 47.4427ZM101.34 46.8241L100.596 47.4922L100.596 47.4922L101.34 46.8241ZM99.3069 44.4455L100.099 43.8352L100.099 43.8352L99.3069 44.4455ZM97.4882 41.0791L96.5221 41.3375L96.5222 41.3376L97.4882 41.0791ZM97.3548 37.1802L96.3627 37.055L96.3627 37.055L97.3548 37.1802ZM97.9392 33.955L96.9602 33.7511L96.9602 33.7511L97.9392 33.955ZM98.0833 33.2588L99.0631 33.4587L99.0631 33.4587L98.0833 33.2588ZM98.5878 29.6864L99.5875 29.7118L99.5875 29.7118L98.5878 29.6864ZM98.0397 26.9967L97.1741 27.4974L97.1742 27.4975L98.0397 26.9967ZM95.9583 25.1485L95.4793 26.0264L95.4793 26.0264L95.9583 25.1485ZM92.6021 23.7948L92.2867 24.7438L92.2867 24.7438L92.6021 23.7948ZM91.8794 23.5571L91.5684 24.5075L91.5684 24.5075L91.8794 23.5571ZM88.8478 22.4792L88.4638 23.4025L88.4638 23.4025L88.8478 22.4792ZM85.5592 20.4426L84.8525 21.1501L84.8525 21.1501L85.5592 20.4426ZM83.5202 17.1549L82.5969 17.5391L82.5969 17.5391L83.5202 17.1549ZM82.4405 14.1185L83.391 13.8076L83.391 13.8076L82.4405 14.1185ZM82.2042 13.3999L81.2552 13.7152L81.2552 13.7152L82.2042 13.3999ZM80.8509 10.0425L79.973 10.5212L79.973 10.5212L80.8509 10.0425ZM79.0033 7.96027L79.5041 7.09473L79.5041 7.09471L79.0033 7.96027ZM76.3136 7.41216L76.339 8.41183L76.3136 7.41216ZM72.7413 7.91675L72.5413 6.93694L72.5413 6.93694L72.7413 7.91675ZM72.0448 8.06082L71.841 7.08183L71.841 7.08183L72.0448 8.06082ZM68.8199 8.64518L68.6947 7.65305L68.6947 7.65305L68.8199 8.64518ZM64.921 8.51185L65.1794 7.54579L65.1793 7.54578L64.921 8.51185ZM61.5543 6.69353L62.1645 5.90128L62.1645 5.90128L61.5543 6.69353ZM59.174 4.65936L59.842 3.91522L59.842 3.91522L59.174 4.65936ZM58.5564 4.10694L57.8924 4.85474L57.8924 4.85475L58.5564 4.10694ZM55.694 1.87999L55.1773 2.73612L55.1773 2.73612L55.694 1.87999ZM50.3065 1.87995L50.8233 2.73602L50.8233 2.73602L50.3065 1.87995ZM47.4448 4.10688L48.1087 4.85463L48.1087 4.85463L47.4448 4.10688ZM46.8287 4.65802L46.1606 3.91393L46.1606 3.91393L46.8287 4.65802ZM44.4469 6.69357L43.8367 5.90128L43.8367 5.90128L44.4469 6.69357ZM41.079 8.51185L40.8209 7.54574L40.8207 7.54579L41.079 8.51185ZM37.1802 8.64519L37.055 9.63732L37.055 9.63732L37.1802 8.64519ZM33.9552 8.06083L34.1591 7.08183L34.1591 7.08183L33.9552 8.06083ZM33.2588 7.91675L33.4587 6.93694L33.4587 6.93694L33.2588 7.91675ZM29.6864 7.41216L29.661 8.41183L29.661 8.41183L29.6864 7.41216ZM26.9967 7.96027L27.4974 8.82589L27.4975 8.82583L26.9967 7.96027ZM25.1482 10.0418L24.2704 9.56276L24.2704 9.56276L25.1482 10.0418ZM23.794 13.3981L22.8451 13.0826L22.8451 13.0826L23.794 13.3981ZM23.5559 14.1217L22.6055 13.8106L22.6055 13.8106L23.5559 14.1217ZM22.478 17.1523L23.4014 17.5363L23.4014 17.5363L22.478 17.1523ZM20.4418 20.4408L19.7342 19.7342L19.7342 19.7342L20.4418 20.4408ZM17.1544 22.4798L17.5386 23.4031L17.5386 23.4031L17.1544 22.4798ZM14.1179 23.5596L13.8069 22.6091L13.8069 22.6091L14.1179 23.5596ZM13.3995 23.7958L13.0842 22.8468L13.0842 22.8468L13.3995 23.7958ZM10.0421 25.1491L10.5208 26.027L10.5208 26.027L10.0421 25.1491ZM7.96033 26.9966L8.82589 27.4974L8.82595 27.4973L7.96033 26.9966ZM7.41216 29.6864L8.41183 29.661L8.41183 29.661L7.41216 29.6864ZM7.91675 33.2588L6.93694 33.4587L6.93694 33.4587L7.91675 33.2588ZM8.06083 33.9552L7.08183 34.1591L7.08183 34.1591L8.06083 33.9552ZM8.64519 37.1802L9.63732 37.055L9.63732 37.055L8.64519 37.1802ZM8.51187 41.0789L7.54581 40.8206L7.54579 40.8207L8.51187 41.0789ZM6.69351 44.4457L5.90128 43.8354L5.90128 43.8354L6.69351 44.4457ZM4.65954 46.8256L3.91542 46.1575L3.91542 46.1575L4.65954 46.8256ZM4.10692 47.4434L3.35914 46.7794L3.35914 46.7794L4.10692 47.4434ZM1.88 50.3056L1.02387 49.7889L1.02387 49.7889L1.88 50.3056ZM1.87996 55.694L2.73604 55.1771L2.73604 55.1771L1.87996 55.694ZM4.10687 58.5556L3.35914 59.2196L3.35914 59.2196L4.10687 58.5556ZM4.65827 59.1719L3.9142 59.84L3.9142 59.84L4.65827 59.1719ZM6.69355 61.5533L7.48582 60.9431L7.48582 60.9431L6.69355 61.5533ZM8.51185 64.921L7.54574 65.1792L7.54579 65.1794L8.51185 64.921ZM8.64518 68.8199L7.65305 68.6947L7.65305 68.6947L8.64518 68.8199ZM8.06082 72.0448L7.08183 71.841L7.08183 71.841L8.06082 72.0448ZM7.91675 72.7413L6.93694 72.5413L6.93694 72.5413L7.91675 72.7413ZM7.41216 76.3136L8.41183 76.339L7.41216 76.3136ZM7.96027 79.0033L8.82589 78.5026L8.82583 78.5025L7.96027 79.0033ZM10.0418 80.8518L9.56276 81.7296L9.56276 81.7296L10.0418 80.8518ZM13.3981 82.206L13.7136 81.2571L13.7136 81.2571L13.3981 82.206ZM14.1218 82.4442L13.8107 83.3945L13.8107 83.3945L14.1218 82.4442ZM17.1523 83.522L17.5363 82.5987L17.5363 82.5987L17.1523 83.522ZM20.4408 85.5583L19.7342 86.2659L19.7342 86.2659L20.4408 85.5583ZM22.4798 88.8456L21.5566 89.2299L21.5566 89.2299L22.4798 88.8456ZM23.5596 91.8822L22.6092 92.1932L22.6092 92.1932L23.5596 91.8822ZM23.7958 92.6005L22.8468 92.9158L22.8468 92.9158L23.7958 92.6005ZM25.1491 95.9579L26.027 95.4792L26.027 95.4792L25.1491 95.9579ZM26.9966 98.0397L27.4974 97.1741L27.4973 97.1741L26.9966 98.0397ZM29.6865 98.588L29.6611 97.5883L29.6611 97.5883L29.6865 98.588ZM33.2588 98.0836L33.0589 97.1038L33.0589 97.1038L33.2588 98.0836ZM33.956 97.9394L34.1598 98.9184L34.1598 98.9184L33.956 97.9394ZM37.1801 97.3552L37.0549 96.3631L37.0549 96.3631L37.1801 97.3552ZM41.0788 97.4882L41.3373 96.5221L41.337 96.522L41.0788 97.4882ZM44.4457 99.3069L43.8354 100.099L43.8354 100.099L44.4457 99.3069ZM46.8251 101.34L46.1571 102.085L46.1571 102.085L46.8251 101.34ZM47.4433 101.893L46.7794 102.641L46.7794 102.641L47.4433 101.893ZM50.3056 104.12L50.8223 103.264L50.8223 103.264L50.3056 104.12ZM55.694 104.12L55.1772 103.264L55.1772 103.264L55.694 104.12ZM58.5556 101.893L57.8917 101.146L57.8916 101.146L58.5556 101.893ZM59.1725 101.342L59.8406 102.086L59.8406 102.086L59.1725 101.342ZM61.5533 99.3069L60.9431 98.5146L60.9431 98.5146L61.5533 99.3069ZM64.9211 97.4882L64.6629 96.5221L64.6628 96.5221L64.9211 97.4882ZM68.8199 97.3552L68.9451 96.3631L68.9451 96.3631L68.8199 97.3552ZM72.044 97.9394L72.2479 96.9604L72.2479 96.9604L72.044 97.9394ZM72.7412 98.0836L72.5413 99.0634L72.5413 99.0634L72.7412 98.0836ZM76.3135 98.588L76.3389 97.5883L76.3389 97.5883L76.3135 98.588ZM79.0033 98.0398L78.5026 97.1742L78.5025 97.1742L79.0033 98.0398ZM80.8518 95.9582L81.7296 96.4373L81.7296 96.4373L80.8518 95.9582ZM82.206 92.602L81.2571 92.2864L81.2571 92.2864L82.206 92.602ZM82.4442 91.8782L81.4938 91.5671L81.4938 91.5671L82.4442 91.8782ZM83.522 88.8477L82.5987 88.4637L82.5987 88.4637L83.522 88.8477ZM85.5583 85.5593L86.2659 86.2659L86.2659 86.2659L85.5583 85.5593ZM88.8456 83.5202L89.2298 84.4434L89.2298 84.4434L88.8456 83.5202ZM91.8819 82.4405L92.1929 83.391L92.1929 83.391L91.8819 82.4405ZM92.6005 82.2042L92.2852 81.2552L92.2852 81.2552L92.6005 82.2042ZM95.9579 80.851L95.4792 79.973L95.4792 79.973L95.9579 80.851ZM98.0397 79.0034L97.1741 78.5026L97.1741 78.5027L98.0397 79.0034ZM98.5878 76.3136L99.5875 76.2882L99.5875 76.2882L98.5878 76.3136ZM98.0833 72.7413L97.1035 72.9412L97.1035 72.9412L98.0833 72.7413ZM97.9392 72.0451L96.9602 72.2489L96.9602 72.249L97.9392 72.0451ZM97.3548 68.8199L96.3627 68.9451L96.3627 68.9451L97.3548 68.8199ZM3.92874 59.8564L4.67287 59.1884L4.67287 59.1884L3.92874 59.8564ZM3.93003 46.1411L3.18585 45.4731L3.18585 45.4731L3.93003 46.1411ZM7.08494 34.1744L8.06396 33.9706L8.06396 33.9706L7.08494 34.1744ZM13.8241 22.6034L13.5131 21.653L13.5131 21.653L13.8241 22.6034ZM22.5997 13.828L23.55 14.1393L23.55 14.1393L22.5997 13.828ZM34.1744 7.08494L33.9706 8.06396L33.9706 8.06396L34.1744 7.08494ZM46.1442 3.92851L46.8122 4.67267L46.8122 4.67267L46.1442 3.92851ZM59.8584 3.9298L59.1904 4.674L59.1904 4.674L59.8584 3.9298ZM71.8256 7.08494L71.6218 6.10592L71.6218 6.10592L71.8256 7.08494ZM83.3966 13.8247L82.4462 14.1357L82.4462 14.1357L83.3966 13.8247ZM92.173 22.6009L91.8619 23.5513L91.8619 23.5513L92.173 22.6009ZM98.9151 34.1744L99.8941 34.3782L99.8941 34.3782L98.9151 34.1744ZM102.069 46.1395L102.814 45.4715L102.814 45.4714L102.069 46.1395ZM102.069 59.8611L101.325 59.1931L101.325 59.1931L102.069 59.8611ZM98.9151 71.8256L99.8941 71.6218L99.8941 71.6218L98.9151 71.8256ZM92.1759 83.3966L92.4869 84.347L92.4869 84.347L92.1759 83.3966ZM83.4003 92.172L82.45 91.8608L82.45 91.8608L83.4003 92.172ZM71.8247 98.9153L72.0284 97.9363L72.0284 97.9363L71.8247 98.9153ZM59.8569 102.071L59.1889 101.327L59.1889 101.327L59.8569 102.071ZM46.1406 102.07L46.8085 101.326L46.8085 101.326L46.1406 102.07ZM34.1753 98.9153L33.9716 97.9363L33.9716 97.9363L34.1753 98.9153ZM22.6034 92.1759L21.653 92.4869L21.653 92.4869L22.6034 92.1759ZM13.828 83.4003L14.1393 82.45L14.1393 82.45L13.828 83.4003ZM7.08494 71.8256L6.10592 71.6218L6.10592 71.6218L7.08494 71.8256ZM105 53C105 53.8742 104.687 54.757 104.12 55.6957C103.55 56.6397 102.765 57.5761 101.893 58.5577C101.043 59.515 100.094 60.5327 99.307 61.5546C98.517 62.5799 97.8146 63.701 97.4882 64.9209L99.4202 65.4378C99.646 64.594 100.163 63.7207 100.891 62.7753C101.622 61.8265 102.491 60.8973 103.389 59.8856C104.266 58.8982 105.16 57.8436 105.832 56.729C106.508 55.609 107 54.3655 107 53H105ZM97.4882 64.921C97.1538 66.1713 97.1902 67.5157 97.3548 68.8199C97.5189 70.12 97.8264 71.4826 98.0833 72.7413C98.3463 74.0303 98.5602 75.2262 98.5878 76.3136C98.6153 77.3958 98.4547 78.2861 98.0397 79.0033L99.7709 80.0049C100.439 78.8509 100.62 77.5494 100.587 76.2628C100.555 74.9813 100.306 73.6314 100.043 72.3414C99.7734 71.021 99.4907 69.7712 99.3391 68.5695C99.1879 67.3717 99.1831 66.3246 99.4203 65.4377L97.4882 64.921ZM98.0397 79.0034C97.6158 79.7362 96.9146 80.3293 95.9579 80.851C94.9964 81.3753 93.8492 81.7894 92.6005 82.2043C91.3817 82.6092 90.0479 83.0199 88.8456 83.5202C87.6397 84.0221 86.4628 84.6534 85.5583 85.5593L86.9735 86.9725C87.6072 86.3379 88.5048 85.8283 89.6141 85.3667C90.727 84.9035 91.949 84.5282 93.231 84.1023C94.4832 83.6863 95.7818 83.225 96.9153 82.6069C98.0536 81.9862 99.0968 81.1702 99.7709 80.0048L98.0397 79.0034ZM85.5583 85.5593C84.6541 86.4647 84.0236 87.6418 83.522 88.8477C83.022 90.05 82.6112 91.3836 82.206 92.602C81.791 93.8503 81.3764 94.997 80.8518 95.9582C80.3298 96.9146 79.7364 97.6157 79.0034 98.0397L80.0048 99.771C81.1699 99.097 81.9863 98.0543 82.6073 96.9164C83.2258 95.7832 83.6876 94.485 84.1039 93.233C84.5301 91.9512 84.9056 90.7292 85.3687 89.6158C85.8302 88.5061 86.3394 87.6075 86.9735 86.9725L85.5583 85.5593ZM79.0033 98.0398C78.2861 98.4547 77.3958 98.6154 76.3135 98.588C75.2261 98.5604 74.0302 98.3466 72.7412 98.0836C71.4825 97.8268 70.1199 97.5194 68.8199 97.3552C67.5158 97.1906 66.1715 97.1541 64.9212 97.4881L65.4375 99.4204C66.3245 99.1834 67.3716 99.1883 68.5694 99.3395C69.7713 99.4912 71.021 99.7739 72.3414 100.043C73.6315 100.306 74.9814 100.555 76.2628 100.587C77.5494 100.62 78.851 100.439 80.0049 99.7709L79.0033 98.0398ZM64.9211 97.4882C63.7005 97.8145 62.579 98.5169 61.5533 99.3069C60.5309 100.094 59.513 101.043 58.5556 101.893C57.574 102.765 56.6377 103.55 55.694 104.12C54.7556 104.687 53.8734 105 53 105V107C54.365 107 55.608 106.508 56.7276 105.832C57.8418 105.16 58.8962 104.266 59.8836 103.389C60.8952 102.491 61.8246 101.622 62.7737 100.891C63.7193 100.163 64.5931 99.6461 65.4377 99.4203L64.9211 97.4882ZM53 105C52.1266 105 51.2442 104.687 50.3056 104.12C49.3616 103.55 48.4251 102.765 47.4433 101.893C46.4858 101.043 45.4678 100.094 44.4457 99.3069C43.4202 98.517 42.299 97.8146 41.0791 97.4882L40.5622 99.4203C41.4061 99.646 42.2796 100.163 43.2252 100.891C44.1742 101.622 45.1037 102.491 46.1155 103.389C47.1031 104.266 48.1577 105.16 49.2721 105.832C50.3919 106.508 51.6351 107 53 107V105ZM41.0788 97.4881C39.8286 97.1541 38.4843 97.1906 37.1801 97.3552C35.8801 97.5194 34.5175 97.8268 33.2588 98.0836C31.9698 98.3466 30.7739 98.5604 29.6865 98.588C28.6042 98.6154 27.7139 98.4547 26.9967 98.0398L25.9951 99.7709C27.149 100.439 28.4506 100.62 29.7372 100.587C31.0186 100.555 32.3685 100.306 33.6586 100.043C34.979 99.7739 36.2288 99.4912 37.4306 99.3395C38.6284 99.1883 39.6755 99.1834 40.5625 99.4204L41.0788 97.4881ZM26.9966 98.0397C26.2639 97.6159 25.6707 96.9147 25.1491 95.9579C24.6248 94.9964 24.2106 93.8492 23.7958 92.6005C23.3909 91.3817 22.9802 90.0479 22.4798 88.8456C21.978 87.6397 21.3466 86.4628 20.4408 85.5583L19.0276 86.9735C19.6622 87.6072 20.1717 88.5048 20.6334 89.6141C21.0965 90.727 21.4719 91.9491 21.8978 93.2311C22.3137 94.4832 22.7751 95.7818 23.3931 96.9154C24.0138 98.0537 24.8298 99.0969 25.9952 99.771L26.9966 98.0397ZM20.4408 85.5583C19.5353 84.6541 18.3582 84.0236 17.1523 83.522C15.9501 83.022 14.6165 82.6112 13.3981 82.206C12.1498 81.791 11.003 81.3764 10.0418 80.8518C9.08542 80.3298 8.38431 79.7364 7.96033 79.0034L6.22908 80.0048C6.90305 81.1699 7.94573 81.9863 9.08369 82.6073C10.2169 83.2258 11.5151 83.6876 12.767 84.1039C14.0489 84.5301 15.2709 84.9056 16.3843 85.3687C17.494 85.8302 18.3926 86.3394 19.0276 86.9735L20.4408 85.5583ZM7.96027 79.0033C7.54532 78.2861 7.38466 77.3958 7.41216 76.3136C7.43979 75.2262 7.6537 74.0303 7.91675 72.7413C8.17361 71.4826 8.48112 70.12 8.64518 68.8199C8.80977 67.5157 8.8462 66.1713 8.51185 64.921L6.57974 65.4377C6.81692 66.3246 6.81207 67.3717 6.66092 68.5695C6.50926 69.7712 6.22658 71.021 5.95713 72.3414C5.69387 73.6314 5.44536 74.9813 5.4128 76.2628C5.38011 77.5494 5.56148 78.8509 6.22915 80.0049L7.96027 79.0033ZM8.51191 64.9213C8.18582 63.7006 7.48352 62.579 6.69355 61.5533C5.90616 60.5309 4.95708 59.513 4.10687 58.5556C3.23515 57.574 2.4497 56.6377 1.87996 55.694C1.31342 54.7555 1 53.8733 1 53H-1C-1 54.365 -0.508111 55.6081 0.167785 56.7276C0.840478 57.8419 1.7346 58.8962 2.61141 59.8836C3.50973 60.8952 4.37813 61.8246 5.10902 62.7736C5.83732 63.7193 6.35409 64.593 6.57967 65.4375L8.51191 64.9213ZM1 53C1 52.1267 1.31343 51.2443 1.88 50.3056C2.44976 49.3617 3.23523 48.4251 4.10692 47.4434C4.9571 46.4858 5.90618 45.4678 6.69351 44.4457C7.48342 43.4202 8.18574 42.2989 8.51187 41.0789L6.57972 40.5624C6.35416 41.4062 5.83743 42.2796 5.10906 43.2252C4.37812 44.1742 3.5097 45.1037 2.61135 46.1155C1.73452 47.103 0.840416 48.1577 0.167739 49.2721C-0.508128 50.3918 -1 51.6351 -1 53H1ZM8.51185 41.079C8.8462 39.8287 8.80977 38.4843 8.64518 37.1802C8.48112 35.8801 8.17361 34.5175 7.91675 33.2588C7.6537 31.9697 7.43979 30.7738 7.41216 29.6864C7.38466 28.6042 7.54532 27.7139 7.96027 26.9967L6.22915 25.9951C5.56148 27.1491 5.38011 28.4506 5.4128 29.7372C5.44536 31.0187 5.69387 32.3686 5.95713 33.6586C6.22658 34.979 6.50926 36.2288 6.66092 37.4306C6.81207 38.6283 6.81692 39.6754 6.57974 40.5623L8.51185 41.079ZM7.96033 26.9966C8.38419 26.2639 9.08535 25.6707 10.0421 25.1491C11.0037 24.6248 12.1508 24.2106 13.3995 23.7958C14.6183 23.3909 15.9521 22.9802 17.1544 22.4798C18.3603 21.978 19.5373 21.3466 20.4418 20.4408L19.0265 19.0276C18.3929 19.6622 17.4953 20.1717 16.386 20.6334C15.2731 21.0965 14.051 21.4719 12.769 21.8978C11.5168 22.3137 10.2182 22.7751 9.08468 23.3931C7.94636 24.0138 6.90317 24.8298 6.22908 25.9952L7.96033 26.9966ZM20.4418 20.4408C21.3459 19.5353 21.9765 18.3582 22.478 17.1523C22.978 15.9501 23.3889 14.6165 23.794 13.3981C24.2091 12.1498 24.6236 11.003 25.1482 10.0418C25.6702 9.08541 26.2636 8.38431 26.9966 7.96033L25.9952 6.22908C24.8301 6.90305 24.0137 7.94574 23.3927 9.08369C22.7742 10.2169 22.3124 11.5151 21.8962 12.767C21.4699 14.0489 21.0944 15.2709 20.6314 16.3843C20.1698 17.494 19.6606 18.3926 19.0265 19.0276L20.4418 20.4408ZM26.9967 7.96027C27.7139 7.54532 28.6042 7.38466 29.6864 7.41216C30.7738 7.43979 31.9697 7.6537 33.2588 7.91675C34.5175 8.17361 35.8801 8.48112 37.1802 8.64518C38.4843 8.80977 39.8287 8.8462 41.079 8.51185L40.5623 6.57974C39.6754 6.81692 38.6283 6.81207 37.4306 6.66092C36.2288 6.50926 34.979 6.22658 33.6586 5.95713C32.3686 5.69387 31.0187 5.44536 29.7372 5.4128C28.4506 5.38011 27.1491 5.56148 25.9951 6.22915L26.9967 7.96027ZM41.0788 8.51191C42.2994 8.18582 43.4211 7.48354 44.4469 6.69357C45.4693 5.90618 46.4873 4.95711 47.4448 4.10688C48.4265 3.23516 49.3628 2.4497 50.3065 1.87995C51.2449 1.31339 52.127 1 53 1V-1C51.6352 -1 50.3923 -0.508085 49.2728 0.167795C48.1586 0.840478 47.1042 1.73459 46.1168 2.61139C45.1052 3.50969 44.1756 4.37811 43.2266 5.109C42.2808 5.83731 41.407 6.35409 40.5626 6.57967L41.0788 8.51191ZM53 1C53.8731 1 54.7554 1.31341 55.694 1.87999C56.6379 2.44976 57.5745 3.23524 58.5564 4.10694C59.514 4.95714 60.532 5.9062 61.5543 6.69353C62.5798 7.48343 63.7012 8.18575 64.9211 8.51187L65.4376 6.57972C64.5939 6.35416 63.7204 5.83741 62.7747 5.10904C61.8257 4.3781 60.896 3.50967 59.8842 2.61133C58.8966 1.73451 57.842 0.840416 56.7276 0.167748C55.6079 -0.508102 54.3648 -1 53 -1V1ZM64.921 8.51185C66.1713 8.8462 67.5157 8.80977 68.8199 8.64518C70.12 8.48112 71.4826 8.17361 72.7413 7.91675C74.0303 7.6537 75.2262 7.43979 76.3136 7.41216C77.3958 7.38466 78.2861 7.54532 79.0033 7.96027L80.0049 6.22915C78.8509 5.56148 77.5494 5.38011 76.2628 5.4128C74.9813 5.44536 73.6314 5.69387 72.3414 5.95713C71.021 6.22658 69.7712 6.50926 68.5695 6.66092C67.3717 6.81207 66.3246 6.81692 65.4377 6.57974L64.921 8.51185ZM79.0032 7.96024C79.7361 8.38433 80.3293 9.08566 80.8509 10.0425C81.3752 11.0041 81.7894 12.1513 82.2043 13.3999C82.6092 14.6188 83.0198 15.9525 83.5202 17.1549C84.022 18.3609 84.6534 19.5378 85.5592 20.4426L86.9726 19.0275C86.3379 18.3936 85.8283 17.4958 85.3667 16.3865C84.9035 15.2735 84.5281 14.0514 84.1023 12.7694C83.6863 11.5173 83.225 10.2187 82.6069 9.08509C81.9862 7.94672 81.1702 6.90348 80.0049 6.22917L79.0032 7.96024ZM85.5592 20.4426C86.4647 21.347 87.6418 21.9776 88.8478 22.4792C90.0501 22.9791 91.3836 23.3898 92.6021 23.7948C93.8504 24.2097 94.9971 24.6241 95.9583 25.1485C96.9147 25.6704 97.6157 26.2637 98.0397 26.9966L99.7709 25.9952C99.0969 24.83 98.0542 24.0138 96.9162 23.3929C95.783 22.7746 94.4848 22.313 93.2329 21.8969C91.9511 21.4709 90.7291 21.0955 89.6157 20.6325C88.5061 20.171 87.6075 19.6618 86.9726 19.0275L85.5592 20.4426ZM98.0397 26.9967C98.4547 27.7139 98.6153 28.6042 98.5878 29.6864C98.5602 30.7738 98.3463 31.9697 98.0833 33.2588C97.8264 34.5175 97.5189 35.8801 97.3548 37.1802C97.1902 38.4843 97.1538 39.8287 97.4882 41.079L99.4203 40.5623C99.1831 39.6754 99.1879 38.6283 99.3391 37.4306C99.4907 36.2288 99.7734 34.979 100.043 33.6586C100.306 32.3686 100.555 31.0187 100.587 29.7372C100.62 28.4506 100.439 27.1491 99.7709 25.9951L98.0397 26.9967ZM97.4882 41.0791C97.8146 42.299 98.517 43.4201 99.3069 44.4455C100.094 45.4675 101.043 46.4853 101.893 47.4427C102.765 48.4243 103.55 49.3608 104.12 50.3048C104.687 51.2435 105 52.1261 105 53H107C107 51.6347 106.508 50.3913 105.832 49.2714C105.16 48.1568 104.266 47.1023 103.389 46.1148C102.491 45.1031 101.622 44.1737 100.891 43.2249C100.163 42.2794 99.646 41.406 99.4202 40.5622L97.4882 41.0791ZM98.5148 60.9443C97.6939 62.0097 96.8988 63.2546 96.5222 64.6625L98.4542 65.1794C98.7303 64.1474 99.34 63.1502 100.099 62.165L98.5148 60.9443ZM100.596 58.5084C99.9078 59.2746 99.1616 60.1048 98.5148 60.9443L100.099 62.165C100.692 61.3956 101.386 60.6221 102.084 59.8446L100.596 58.5084ZM101.146 57.8937C100.967 58.095 100.783 58.2994 100.596 58.5084L102.084 59.8446C102.271 59.6363 102.458 59.4278 102.641 59.2216L101.146 57.8937ZM103.264 55.179C102.746 56.0376 102.015 56.9149 101.146 57.8937L102.641 59.2216C103.515 58.2373 104.355 57.2417 104.976 56.2123L103.264 55.179ZM104 53C104 53.6286 103.776 54.3311 103.264 55.179L104.976 56.2123C105.597 55.1829 106 54.1197 106 53H104ZM103.264 50.8215C103.776 51.6694 104 52.3717 104 53H106C106 51.8805 105.597 50.8175 104.976 49.7881L103.264 50.8215ZM101.146 48.1067C102.015 49.0856 102.746 49.9629 103.264 50.8215L104.976 49.7881C104.355 48.7587 103.515 47.7631 102.641 46.7787L101.146 48.1067ZM100.596 47.4922C100.784 47.7011 100.967 47.9054 101.146 48.1067L102.641 46.7787C102.458 46.5727 102.271 46.3642 102.084 46.156L100.596 47.4922ZM98.5148 45.0558C99.1617 45.8955 99.9079 46.7259 100.596 47.4922L102.084 46.156C101.386 45.3784 100.692 44.6047 100.099 43.8352L98.5148 45.0558ZM96.5222 41.3376C96.8988 42.7454 97.6939 43.9903 98.5148 45.0558L100.099 43.8352C99.34 42.8499 98.7303 41.8527 98.4542 40.8207L96.5222 41.3376ZM96.3627 37.055C96.1914 38.4125 96.1392 39.9056 96.5221 41.3375L98.4542 40.8208C98.1685 39.7521 98.1891 38.5562 98.347 37.3054L96.3627 37.055ZM96.9602 33.7511C96.7419 34.7996 96.5028 35.9448 96.3627 37.055L98.347 37.3054C98.4753 36.2883 98.6967 35.2226 98.9182 34.1589L96.9602 33.7511ZM97.1035 33.0588C97.0572 33.2855 97.0092 33.5159 96.9602 33.7511L98.9182 34.1589C98.9671 33.9244 99.0159 33.69 99.0631 33.4587L97.1035 33.0588ZM97.5882 29.661C97.563 30.6513 97.3664 31.7701 97.1035 33.0588L99.0631 33.4587C99.3262 32.1694 99.5574 30.8964 99.5875 29.7118L97.5882 29.661ZM97.1742 27.4975C97.4628 27.9964 97.6131 28.6811 97.5882 29.661L99.5875 29.7118C99.6176 28.5272 99.4465 27.4314 98.9053 26.4959L97.1742 27.4975ZM95.4793 26.0264C96.3447 26.4986 96.8751 26.9805 97.1741 27.4974L98.9054 26.496C98.3564 25.5471 97.4846 24.8422 96.4372 24.2707L95.4793 26.0264ZM92.2867 24.7438C93.5334 25.1581 94.6042 25.5489 95.4793 26.0264L96.4372 24.2707C95.39 23.6993 94.1674 23.2613 92.9175 22.8459L92.2867 24.7438ZM91.5684 24.5075C91.8128 24.5875 92.0521 24.6658 92.2867 24.7438L92.9175 22.8459C92.6778 22.7662 92.4341 22.6864 92.1905 22.6067L91.5684 24.5075ZM88.4638 23.4025C89.4744 23.8228 90.5658 24.1794 91.5684 24.5075L92.1905 22.6067C91.1732 22.2738 90.1577 21.9409 89.2317 21.5558L88.4638 23.4025ZM84.8525 21.1501C85.8932 22.1895 87.2095 22.8809 88.4638 23.4025L89.2317 21.5558C88.0741 21.0744 87.0362 20.5045 86.2659 19.735L84.8525 21.1501ZM82.5969 17.5391C83.119 18.7936 83.8112 20.11 84.8525 21.1501L86.2659 19.7351C85.4956 18.9656 84.9251 17.9282 84.4434 16.7707L82.5969 17.5391ZM81.4901 14.4295C81.8186 15.4335 82.1757 16.5269 82.5969 17.5391L84.4434 16.7707C84.0576 15.8435 83.7243 14.8264 83.391 13.8076L81.4901 14.4295ZM81.2552 13.7152C81.3328 13.9485 81.4106 14.1864 81.4901 14.4295L83.391 13.8076C83.3117 13.5653 83.2324 13.323 83.1532 13.0847L81.2552 13.7152ZM79.973 10.5212C80.4503 11.3967 80.8409 12.468 81.2552 13.7152L83.1533 13.0847C82.7379 11.8345 82.3002 10.6115 81.7289 9.56378L79.973 10.5212ZM78.5024 8.8258C79.0191 9.1248 79.5008 9.65526 79.973 10.5212L81.7289 9.56379C81.1577 8.51606 80.4531 7.64385 79.5041 7.09473L78.5024 8.8258ZM76.339 8.41183C77.3189 8.38694 78.0036 8.53719 78.5025 8.82583L79.5041 7.09471C78.5686 6.55346 77.4728 6.38238 76.2882 6.41248L76.339 8.41183ZM72.9412 8.89655C74.23 8.63356 75.3487 8.437 76.339 8.41183L76.2882 6.41248C75.1037 6.44258 73.8306 6.67384 72.5413 6.93694L72.9412 8.89655ZM72.2487 9.03982C72.484 8.99082 72.7145 8.94282 72.9412 8.89655L72.5413 6.93694C72.31 6.98415 72.0755 7.03298 71.841 7.08183L72.2487 9.03982ZM68.9451 9.63732C70.0552 9.49722 71.2003 9.25817 72.2487 9.03982L71.841 7.08183C70.7772 7.30336 69.7116 7.52472 68.6947 7.65305L68.9451 9.63732ZM64.6627 9.47791C66.0946 9.86082 67.5875 9.80863 68.9451 9.63732L68.6947 7.65305C67.4439 7.8109 66.2481 7.83158 65.1794 7.54579L64.6627 9.47791ZM60.9441 7.48578C62.0097 8.30655 63.2549 9.10154 64.6628 9.47792L65.1793 7.54578C64.1473 7.2699 63.1499 6.66028 62.1645 5.90128L60.9441 7.48578ZM58.5059 5.4035C59.2728 6.09191 60.1037 6.83856 60.9441 7.48578L62.1645 5.90128C61.3944 5.30817 60.6202 4.6138 59.842 3.91522L58.5059 5.4035ZM57.8924 4.85475C58.0934 5.03312 58.2973 5.21623 58.5059 5.4035L59.842 3.91522C59.6341 3.72862 59.426 3.54179 59.2203 3.35913L57.8924 4.85475ZM55.1773 2.73612C56.0358 3.25438 56.9133 3.98544 57.8924 4.85474L59.2203 3.35914C58.2357 2.48504 57.24 1.64514 56.2108 1.02387L55.1773 2.73612ZM53 2C53.6274 2 54.3292 2.22424 55.1773 2.73612L56.2108 1.02387C55.1815 0.40257 54.1188 0 53 0V2ZM50.8233 2.73602C51.6711 2.22421 52.3727 2 53 2V0C51.8812 0 50.8187 0.402569 49.7896 1.02387L50.8233 2.73602ZM48.1087 4.85463C49.0878 3.98528 49.965 3.25425 50.8233 2.73602L49.7896 1.02387C48.7606 1.64514 47.7651 2.48504 46.7808 3.35914L48.1087 4.85463ZM47.4968 5.40211C47.7048 5.21528 47.9083 5.0326 48.1087 4.85463L46.7808 3.35914C46.5755 3.54137 46.3679 3.72776 46.1606 3.91393L47.4968 5.40211ZM45.057 7.48586C45.8981 6.83816 46.7295 6.09094 47.4968 5.40211L46.1606 3.91393C45.3821 4.61293 44.6074 5.30779 43.8367 5.90128L45.057 7.48586ZM41.3371 9.47796C42.7457 9.10162 43.9911 8.30673 45.057 7.48586L43.8367 5.90128C42.8512 6.66025 41.8535 7.26984 40.8209 7.54574L41.3371 9.47796ZM37.055 9.63732C38.4125 9.80863 39.9054 9.86082 41.3373 9.4779L40.8207 7.54579C39.752 7.83158 38.5562 7.8109 37.3054 7.65305L37.055 9.63732ZM33.7513 9.03982C34.7998 9.25818 35.9449 9.49723 37.055 9.63732L37.3054 7.65305C36.2884 7.52472 35.2228 7.30336 34.1591 7.08183L33.7513 9.03982ZM33.0588 8.89655C33.2855 8.94282 33.516 8.99082 33.7513 9.03982L34.1591 7.08183C33.9245 7.03298 33.6901 6.98415 33.4587 6.93694L33.0588 8.89655ZM29.661 8.41183C30.6513 8.437 31.7701 8.63356 33.0588 8.89655L33.4587 6.93694C32.1694 6.67384 30.8964 6.44258 29.7118 6.41248L29.661 8.41183ZM27.4975 8.82583C27.9964 8.53719 28.6811 8.38694 29.661 8.41183L29.7118 6.41248C28.5273 6.38238 27.4314 6.55346 26.4959 7.09471L27.4975 8.82583ZM26.026 10.5209C26.4984 9.65542 26.9804 9.12494 27.4974 8.82589L26.496 7.09464C25.5471 7.64355 24.8421 8.51541 24.2704 9.56276L26.026 10.5209ZM24.7429 13.7136C25.1574 12.4669 25.5484 11.396 26.026 10.5209L24.2704 9.56276C23.6989 10.61 23.2607 11.8327 22.8451 13.0826L24.7429 13.7136ZM24.5062 14.4328C24.5864 14.1881 24.6648 13.9485 24.7429 13.7136L22.8451 13.0826C22.7653 13.3226 22.6854 13.5666 22.6055 13.8106L24.5062 14.4328ZM23.4014 17.5363C23.8215 16.5261 24.1781 15.4351 24.5062 14.4328L22.6055 13.8106C22.2726 14.8275 21.9397 15.8426 21.5547 16.7683L23.4014 17.5363ZM21.1494 21.1473C22.1885 20.1067 22.8797 18.7905 23.4014 17.5363L21.5547 16.7683C21.0732 17.9259 20.5033 18.9639 19.7342 19.7342L21.1494 21.1473ZM17.5386 23.4031C18.793 22.8811 20.1095 22.1888 21.1494 21.1473L19.7342 19.7342C18.965 20.5045 17.9276 21.0749 16.7702 21.5566L17.5386 23.4031ZM14.4288 24.51C15.4329 24.1815 16.5264 23.8243 17.5386 23.4031L16.7702 21.5566C15.8429 21.9425 14.8258 22.2758 13.8069 22.6091L14.4288 24.51ZM13.7148 24.7448C13.948 24.6673 14.1858 24.5895 14.4288 24.51L13.8069 22.6091C13.5648 22.6884 13.3225 22.7676 13.0842 22.8468L13.7148 24.7448ZM10.5208 26.027C11.3963 25.5497 12.4675 25.1591 13.7148 24.7448L13.0842 22.8468C11.8341 23.2621 10.611 23.6999 9.56339 24.2711L10.5208 26.027ZM8.82595 27.4973C9.12475 26.9808 9.65499 26.4991 10.5208 26.027L9.56339 24.2711C8.51572 24.8423 7.64363 25.5469 7.09471 26.4959L8.82595 27.4973ZM8.41183 29.661C8.38694 28.6812 8.53724 27.9963 8.82589 27.4974L7.09477 26.4958C6.55353 27.4313 6.38238 28.5272 6.41248 29.7118L8.41183 29.661ZM8.89655 33.0588C8.63356 31.7701 8.437 30.6513 8.41183 29.661L6.41248 29.7118C6.44258 30.8964 6.67384 32.1694 6.93694 33.4587L8.89655 33.0588ZM9.03982 33.7513C8.99082 33.516 8.94282 33.2855 8.89655 33.0588L6.93694 33.4587C6.98415 33.6901 7.03298 33.9245 7.08183 34.1591L9.03982 33.7513ZM9.63732 37.055C9.49723 35.9449 9.25818 34.7998 9.03982 33.7513L7.08183 34.1591C7.30336 35.2228 7.52472 36.2884 7.65305 37.3054L9.63732 37.055ZM9.47793 41.3373C9.86081 39.9054 9.80863 38.4125 9.63732 37.055L7.65305 37.3054C7.8109 38.5561 7.83158 39.7519 7.54581 40.8206L9.47793 41.3373ZM7.48574 45.0559C8.30654 43.9903 9.10156 42.7452 9.47795 41.3372L7.54579 40.8207C7.26992 41.8527 6.6603 42.8501 5.90128 43.8354L7.48574 45.0559ZM5.40366 47.4936C6.092 46.7269 6.83858 45.8961 7.48574 45.0559L5.90128 43.8354C5.30824 44.6054 4.61394 45.3795 3.91542 46.1575L5.40366 47.4936ZM4.85471 48.1073C5.03314 47.9063 5.21632 47.7023 5.40366 47.4936L3.91542 46.1575C3.72876 46.3654 3.54186 46.5736 3.35914 46.7794L4.85471 48.1073ZM2.73613 50.8224C3.25438 49.9638 3.98542 49.0864 4.85471 48.1073L3.35914 46.7794C2.48504 47.7639 1.64514 48.7596 1.02387 49.7889L2.73613 50.8224ZM2 53C2 52.3724 2.2243 51.6704 2.73613 50.8224L1.02387 49.7889C0.40257 50.8182 0 51.881 0 53H2ZM2.73604 55.1771C2.22426 54.3294 2 53.6276 2 53H0C0 54.1191 0.402569 55.1817 1.02387 56.2108L2.73604 55.1771ZM4.85459 57.8916C3.98526 56.9126 3.25425 56.0355 2.73604 55.1771L1.02387 56.2108C1.64514 57.2399 2.48504 58.2353 3.35914 59.2196L4.85459 57.8916ZM5.40235 58.5038C5.21543 58.2957 5.03265 58.0921 4.85459 57.8916L3.35914 59.2196C3.54146 59.4249 3.72794 59.6326 3.9142 59.84L5.40235 58.5038ZM7.48582 60.9431C6.8382 60.1022 6.09108 59.2709 5.40235 58.5038L3.9142 59.84C4.61312 60.6184 5.30787 61.393 5.90128 62.1635L7.48582 60.9431ZM9.47796 64.6629C9.10161 63.2544 8.3067 62.009 7.48582 60.9431L5.90128 62.1635C6.66025 63.1489 7.26984 64.1466 7.54574 65.1792L9.47796 64.6629ZM9.63732 68.9451C9.80863 67.5875 9.86082 66.0946 9.47791 64.6627L7.54579 65.1794C7.83158 66.2481 7.8109 67.4439 7.65305 68.6947L9.63732 68.9451ZM9.03982 72.2487C9.25817 71.2003 9.49722 70.0552 9.63732 68.9451L7.65305 68.6947C7.52472 69.7116 7.30336 70.7772 7.08183 71.841L9.03982 72.2487ZM8.89655 72.9412C8.94282 72.7145 8.99082 72.484 9.03982 72.2487L7.08183 71.841C7.03298 72.0755 6.98415 72.31 6.93694 72.5413L8.89655 72.9412ZM8.41183 76.339C8.437 75.3487 8.63356 74.23 8.89655 72.9412L6.93694 72.5413C6.67384 73.8306 6.44258 75.1037 6.41248 76.2882L8.41183 76.339ZM8.82583 78.5025C8.53719 78.0036 8.38694 77.3189 8.41183 76.339L6.41248 76.2882C6.38238 77.4728 6.55346 78.5686 7.09471 79.5041L8.82583 78.5025ZM10.5209 79.974C9.65543 79.5017 9.12495 79.0196 8.82589 78.5026L7.09464 79.504C7.64355 80.4529 8.5154 81.1579 9.56276 81.7296L10.5209 79.974ZM13.7136 81.2571C12.4669 80.8426 11.396 80.4516 10.5209 79.974L9.56276 81.7296C10.61 82.3011 11.8327 82.7393 13.0826 83.1549L13.7136 81.2571ZM14.433 81.4938C14.1881 81.4137 13.9485 81.3352 13.7136 81.2571L13.0825 83.1549C13.3226 83.2348 13.5667 83.3147 13.8107 83.3945L14.433 81.4938ZM17.5363 82.5987C16.5261 82.1785 15.4352 81.8219 14.433 81.4938L13.8107 83.3945C14.8275 83.7275 15.8426 84.0604 16.7683 84.4453L17.5363 82.5987ZM21.1473 84.8506C20.1067 83.8115 18.7905 83.1203 17.5363 82.5987L16.7683 84.4453C17.9259 84.9268 18.9639 85.4967 19.7342 86.2659L21.1473 84.8506ZM23.4031 88.4614C22.8811 87.207 22.1888 85.8905 21.1473 84.8506L19.7342 86.2659C20.5045 87.0351 21.0749 88.0724 21.5566 89.2299L23.4031 88.4614ZM24.51 91.5713C24.1815 90.5671 23.8243 89.4737 23.4031 88.4614L21.5566 89.2299C21.9425 90.1571 22.2758 91.1743 22.6092 92.1932L24.51 91.5713ZM24.7448 92.2853C24.6673 92.0521 24.5895 91.8142 24.51 91.5713L22.6092 92.1932C22.6884 92.4353 22.7676 92.6775 22.8468 92.9158L24.7448 92.2853ZM26.027 95.4792C25.5497 94.6038 25.1591 93.5325 24.7448 92.2853L22.8468 92.9158C23.2621 94.166 23.6999 95.389 24.2711 96.4366L26.027 95.4792ZM27.4973 97.1741C26.9808 96.8753 26.4991 96.3451 26.027 95.4792L24.2711 96.4366C24.8423 97.4843 25.5469 98.3564 26.4959 98.9053L27.4973 97.1741ZM29.6611 97.5883C28.6813 97.6132 27.9964 97.4628 27.4974 97.1741L26.4958 98.9053C27.4313 99.4465 28.5272 99.6177 29.7118 99.5877L29.6611 97.5883ZM33.0589 97.1038C31.7702 97.3667 30.6514 97.5632 29.6611 97.5883L29.7118 99.5877C30.8964 99.5577 32.1694 99.3265 33.4587 99.0634L33.0589 97.1038ZM33.7521 96.9604C33.5166 97.0095 33.2859 97.0575 33.0589 97.1038L33.4587 99.0634C33.6903 99.0162 33.925 98.9673 34.1598 98.9184L33.7521 96.9604ZM37.0549 96.3631C35.9451 96.5032 34.8004 96.7421 33.7521 96.9604L34.1598 98.9184C35.2233 98.697 36.2887 98.4757 37.3054 98.3474L37.0549 96.3631ZM41.337 96.522C39.9052 96.1395 38.4123 96.1918 37.0549 96.3631L37.3054 98.3474C38.5562 98.1895 39.752 98.1687 40.8207 98.4543L41.337 96.522ZM45.0559 98.5147C43.9903 97.6939 42.745 96.8988 41.3373 96.5221L40.8204 98.4542C41.8524 98.7303 42.8501 99.3401 43.8354 100.099L45.0559 98.5147ZM47.4932 100.596C46.7266 99.9081 45.8959 99.1618 45.0559 98.5147L43.8354 100.099C44.6052 100.692 45.3792 101.386 46.1571 102.085L47.4932 100.596ZM48.1073 101.146C47.9062 100.967 47.702 100.784 47.4932 100.596L46.1571 102.085C46.3652 102.271 46.5735 102.458 46.7794 102.641L48.1073 101.146ZM50.8223 103.264C49.9637 102.746 49.0863 102.015 48.1073 101.146L46.7794 102.641C47.7639 103.515 48.7596 104.355 49.7889 104.976L50.8223 103.264ZM53 104C52.3723 104 51.6703 103.776 50.8223 103.264L49.7889 104.976C50.8182 105.597 51.881 106 53 106V104ZM55.1772 103.264C54.3295 103.776 53.6277 104 53 104V106C54.1191 106 55.1817 105.597 56.2108 104.976L55.1772 103.264ZM57.8916 101.146C56.9127 102.015 56.0356 102.746 55.1772 103.264L56.2108 104.976C57.2399 104.355 58.2353 103.515 59.2196 102.641L57.8916 101.146ZM58.5044 100.598C58.2961 100.785 58.0923 100.968 57.8917 101.146L59.2196 102.641C59.4251 102.459 59.633 102.272 59.8406 102.086L58.5044 100.598ZM60.9431 98.5146C60.1024 99.1621 59.2713 99.909 58.5044 100.598L59.8406 102.086C60.6188 101.387 61.3931 100.692 62.1635 100.099L60.9431 98.5146ZM64.6628 96.5221C63.2543 96.8987 62.0089 97.6937 60.9431 98.5146L62.1635 100.099C63.149 99.3401 64.1467 98.7303 65.1794 98.4543L64.6628 96.5221ZM68.9451 96.3631C67.5877 96.1918 66.0947 96.1395 64.6629 96.5221L65.1792 98.4543C66.248 98.1687 67.4439 98.1895 68.6947 98.3474L68.9451 96.3631ZM72.2479 96.9604C71.1996 96.7422 70.0549 96.5032 68.9451 96.3631L68.6947 98.3474C69.7114 98.4757 70.7767 98.697 71.8402 98.9184L72.2479 96.9604ZM72.9411 97.1038C72.7142 97.0575 72.4834 97.0095 72.2479 96.9604L71.8402 98.9184C72.075 98.9673 72.3097 99.0162 72.5413 99.0634L72.9411 97.1038ZM76.3389 97.5883C75.3486 97.5632 74.2298 97.3667 72.9411 97.1038L72.5413 99.0634C73.8306 99.3265 75.1037 99.5577 76.2882 99.5877L76.3389 97.5883ZM78.5025 97.1742C78.0035 97.4629 77.3188 97.6132 76.3389 97.5883L76.2882 99.5877C77.4728 99.6177 78.5686 99.4466 79.5041 98.9053L78.5025 97.1742ZM79.974 95.4791C79.5017 96.3446 79.0196 96.8751 78.5026 97.1742L79.504 98.9054C80.4529 98.3565 81.1579 97.4846 81.7296 96.4373L79.974 95.4791ZM81.2571 92.2864C80.8426 93.5331 80.4516 94.604 79.974 95.4791L81.7296 96.4373C82.3011 95.39 82.7393 94.1674 83.1549 92.9175L81.2571 92.2864ZM81.4938 91.5671C81.4137 91.8119 81.3352 92.0515 81.2571 92.2864L83.1549 92.9175C83.2348 92.6774 83.3147 92.4334 83.3946 92.1893L81.4938 91.5671ZM82.5987 88.4637C82.1786 89.4739 81.8219 90.5649 81.4938 91.5671L83.3946 92.1893C83.7275 91.1725 84.0604 90.1574 84.4453 89.2317L82.5987 88.4637ZM84.8506 84.8527C83.8115 85.8933 83.1203 87.2095 82.5987 88.4637L84.4453 89.2318C84.9268 88.0741 85.4967 87.0362 86.2659 86.2659L84.8506 84.8527ZM88.4614 82.597C87.207 83.119 85.8905 83.8113 84.8506 84.8527L86.2659 86.2659C87.0351 85.4956 88.0724 84.9251 89.2298 84.4434L88.4614 82.597ZM91.571 81.4901C90.5669 81.8186 89.4736 82.1757 88.4614 82.597L89.2298 84.4434C90.157 84.0576 91.1741 83.7243 92.1929 83.391L91.571 81.4901ZM92.2852 81.2552C92.0519 81.3328 91.814 81.4106 91.571 81.4901L92.1929 83.391C92.4351 83.3117 92.6774 83.2324 92.9158 83.1532L92.2852 81.2552ZM95.4792 79.973C94.6037 80.4503 93.5325 80.8409 92.2852 81.2552L92.9158 83.1533C94.1659 82.7379 95.389 82.3002 96.4366 81.7289L95.4792 79.973ZM97.1741 78.5027C96.8753 79.0192 96.345 79.5009 95.4792 79.973L96.4366 81.7289C97.4843 81.1577 98.3564 80.4531 98.9053 79.5041L97.1741 78.5027ZM97.5882 76.339C97.6131 77.3188 97.4628 78.0037 97.1741 78.5026L98.9052 79.5042C99.4465 78.5687 99.6176 77.4728 99.5875 76.2882L97.5882 76.339ZM97.1035 72.9412C97.3664 74.23 97.563 75.3487 97.5882 76.339L99.5875 76.2882C99.5574 75.1037 99.3262 73.8306 99.0631 72.5413L97.1035 72.9412ZM96.9602 72.249C97.0092 72.4841 97.0572 72.7146 97.1035 72.9412L99.0631 72.5413C99.0159 72.31 98.9671 72.0756 98.9182 71.8411L96.9602 72.249ZM96.3627 68.9451C96.5028 70.0552 96.7419 71.2004 96.9602 72.2489L98.9182 71.8412C98.6967 70.7774 98.4753 69.7117 98.347 68.6947L96.3627 68.9451ZM96.5221 64.6626C96.1392 66.0945 96.1914 67.5875 96.3627 68.9451L98.347 68.6947C98.1891 67.4439 98.1685 66.248 98.4542 65.1792L96.5221 64.6626ZM8.51191 64.9213C8.22038 63.83 7.62932 62.8211 6.94833 61.8921C6.26728 60.9631 5.45107 60.0552 4.67287 59.1884L3.1846 60.5244C3.97731 61.4074 4.72358 62.2401 5.33531 63.0746C5.9471 63.9091 6.37913 64.6868 6.57967 65.4375L8.51191 64.9213ZM4.67287 59.1884C3.68533 58.0883 2.75863 57.0528 2.07029 55.997C1.38569 54.9469 1 53.9686 1 53H-1C-1 54.5115 -0.397013 55.8746 0.394908 57.0892C1.18309 58.2982 2.22076 59.4508 3.1846 60.5244L4.67287 59.1884ZM1 53C1 52.0312 1.38589 51.0525 2.07079 50.0019C2.75942 48.9456 3.68646 47.9095 4.6742 46.8091L3.18585 45.4731C2.22179 46.5471 1.18382 47.7002 0.395382 48.9096C-0.396774 50.1247 -1 51.4882 -1 53H1ZM4.6742 46.8091C5.45218 45.9424 6.26808 45.0347 6.94884 44.1061C7.62954 43.1776 8.22038 42.1693 8.51187 41.0789L6.57972 40.5624C6.37926 41.3123 5.94744 42.0894 5.33586 42.9237C4.72434 43.7578 3.97833 44.5902 3.18585 45.4731L4.6742 46.8091ZM8.51185 41.079C8.81583 39.9422 8.81286 38.7303 8.6876 37.5453C8.56242 36.361 8.30612 35.1341 8.06396 33.9706L6.10592 34.3782C6.35241 35.5624 6.58591 36.6887 6.69868 37.7556C6.81138 38.8218 6.79451 39.7592 6.57974 40.5623L8.51185 41.079ZM8.06396 33.9706C7.76627 32.5404 7.4913 31.2089 7.42433 29.9874C7.35765 28.7712 7.50647 27.7811 7.96027 26.9967L6.22915 25.9951C5.50036 27.2547 5.35026 28.6912 5.42733 30.0969C5.5041 31.4973 5.81554 32.9831 6.10592 34.3782L8.06396 33.9706ZM7.96033 26.9966C8.42639 26.1909 9.22714 25.5553 10.3284 24.9989C11.4348 24.4398 12.7392 24.0107 14.1352 23.5538L13.5131 21.653C12.151 22.0988 10.6938 22.5734 9.42642 23.2138C8.15392 23.8568 6.96894 24.7161 6.22908 25.9952L7.96033 26.9966ZM14.1352 23.5538C15.257 23.1867 16.4371 22.8014 17.5122 22.3265C18.5875 21.8515 19.6246 21.2591 20.4418 20.4408L19.0265 19.0276C18.4568 19.5982 17.671 20.0699 16.704 20.4971C15.7368 20.9243 14.6554 21.2792 13.5131 21.653L14.1352 23.5538ZM20.4418 20.4408C21.2579 19.6234 21.8492 18.5871 22.3236 17.5128C22.7979 16.4387 23.183 15.26 23.55 14.1393L21.6494 13.5168C21.2757 14.6579 20.9209 15.7383 20.494 16.7049C20.0673 17.6712 19.5962 18.4571 19.0265 19.0276L20.4418 20.4408ZM23.55 14.1393C24.0074 12.7426 24.4372 11.4373 24.9968 10.3303C25.5538 9.2283 26.1901 8.42685 26.9966 7.96033L25.9952 6.22908C24.7155 6.96932 23.8555 8.15482 23.2119 9.42799C22.5709 10.696 22.0957 12.154 21.6494 13.5168L23.55 14.1393ZM26.9967 7.96027C27.7811 7.50647 28.7712 7.35765 29.9874 7.42433C31.2089 7.4913 32.5404 7.76627 33.9706 8.06396L34.3782 6.10592C32.9831 5.81554 31.4973 5.5041 30.0969 5.42733C28.6912 5.35026 27.2547 5.50036 25.9951 6.22915L26.9967 7.96027ZM33.9706 8.06396C35.1341 8.30612 36.361 8.56242 37.5453 8.6876C38.7303 8.81286 39.9422 8.81583 41.079 8.51185L40.5623 6.57974C39.7592 6.79451 38.8218 6.81138 37.7556 6.69868C36.6887 6.58591 35.5624 6.35241 34.3782 6.10592L33.9706 8.06396ZM41.0788 8.51191C42.1701 8.22037 43.1791 7.62928 44.1082 6.94825C45.0373 6.26717 45.9453 5.4509 46.8122 4.67267L45.4762 3.18435C44.5931 3.9771 43.7603 4.72342 42.9257 5.33521C42.0911 5.94705 41.3133 6.37911 40.5626 6.57967L41.0788 8.51191ZM46.8122 4.67267C47.9123 3.68517 48.9479 2.75851 50.0036 2.07021C51.0536 1.38563 52.0318 1 53 1V-1C51.4888 -1 50.1259 -0.39703 48.9113 0.394823C47.7025 1.18295 46.5499 2.22055 45.4762 3.18436L46.8122 4.67267ZM53 1C53.9685 1 54.9471 1.38583 55.9977 2.07071C57.0539 2.7593 58.09 3.6863 59.1904 4.674L60.5263 3.1856C59.4523 2.22158 58.2992 1.18368 57.0899 0.395297C55.8749 -0.39679 54.5115 -1 53 -1V1ZM59.1904 4.674C60.0573 5.45202 60.965 6.26796 61.8937 6.94876C62.8223 7.6295 63.8307 8.22037 64.9211 8.51187L65.4376 6.57972C64.6877 6.37924 63.9105 5.94739 63.0761 5.33575C62.2419 4.72419 61.4093 3.97812 60.5263 3.1856L59.1904 4.674ZM64.921 8.51185C66.0578 8.81583 67.2697 8.81286 68.4547 8.6876C69.639 8.56242 70.8659 8.30612 72.0294 8.06396L71.6218 6.10592C70.4376 6.35241 69.3114 6.58591 68.2445 6.69868C67.1782 6.81138 66.2408 6.79451 65.4377 6.57974L64.921 8.51185ZM72.0294 8.06396C73.4596 7.76627 74.7911 7.4913 76.0126 7.42433C77.2288 7.35765 78.219 7.50647 79.0033 7.96027L80.0049 6.22915C78.7453 5.50036 77.3088 5.35026 75.9031 5.42733C74.5027 5.5041 73.0169 5.81554 71.6218 6.10592L72.0294 8.06396ZM79.0032 7.96024C79.8091 8.42656 80.4447 9.2275 81.0012 10.3288C81.5602 11.4353 81.9894 12.7398 82.4462 14.1357L84.347 13.5136C83.9013 12.1516 83.4266 10.6943 82.7862 9.42688C82.1433 8.15432 81.2839 6.96928 80.0049 6.22917L79.0032 7.96024ZM82.4462 14.1357C82.8134 15.2575 83.1986 16.4376 83.6735 17.5127C84.1485 18.588 84.7409 19.6253 85.5592 20.4426L86.9726 19.0275C86.4019 18.4575 85.9301 17.6716 85.503 16.7046C85.0758 15.7373 84.7209 14.6559 84.347 13.5136L82.4462 14.1357ZM85.5592 20.4426C86.3766 21.2591 87.4132 21.8505 88.4877 22.3249C89.562 22.7993 90.741 23.1843 91.8619 23.5513L92.4841 21.6505C91.3429 21.2769 90.2623 20.9222 89.2956 20.4954C88.3291 20.0686 87.5431 19.5974 86.9726 19.0275L85.5592 20.4426ZM91.8619 23.5513C93.2583 24.0084 94.5634 24.4379 95.6702 24.9974C96.772 25.5542 97.5732 26.1902 98.0397 26.9966L99.7709 25.9952C99.0307 24.7156 97.8454 23.8558 96.5724 23.2124C95.3045 22.5716 93.8467 22.0966 92.4841 21.6505L91.8619 23.5513ZM98.0397 26.9967C98.4935 27.7811 98.6424 28.7712 98.5757 29.9874C98.5087 31.2089 98.2337 32.5404 97.9361 33.9706L99.8941 34.3782C100.184 32.9831 100.496 31.4973 100.573 30.0969C100.65 28.6912 100.5 27.2547 99.7709 25.9951L98.0397 26.9967ZM97.9361 33.9706C97.6939 35.1341 97.4376 36.361 97.3124 37.5453C97.1871 38.7303 97.1842 39.9422 97.4882 41.079L99.4203 40.5623C99.2055 39.7592 99.1886 38.8218 99.3013 37.7556C99.4141 36.6887 99.6476 35.5624 99.8941 34.3782L97.9361 33.9706ZM97.4882 41.0791C97.7798 42.1693 98.3706 43.1772 99.0512 44.1055C99.7318 45.0338 100.547 45.9411 101.325 46.8075L102.814 45.4714C102.021 44.5889 101.275 43.7567 100.664 42.9229C100.053 42.0889 99.6208 41.312 99.4202 40.5622L97.4882 41.0791ZM101.325 46.8075C102.313 47.9079 103.24 48.944 103.929 50.0005C104.614 51.0513 105 52.0304 105 53H107C107 51.4876 106.397 50.1237 105.604 48.9083C104.816 47.6986 103.778 46.5455 102.814 45.4715L101.325 46.8075ZM105 53C105 53.9699 104.614 54.9493 103.929 56C103.24 57.0566 102.313 58.0927 101.325 59.1931L102.813 60.5292C103.778 59.4552 104.816 58.302 105.604 57.0923C106.397 55.8767 107 54.5127 107 53H105ZM101.325 59.1931C100.547 60.0594 99.7317 60.9666 99.0511 61.8948C98.3706 62.8229 97.7798 63.8308 97.4882 64.9209L99.4202 65.4378C99.6208 64.6881 100.053 63.9113 100.664 63.0774C101.275 62.2437 102.021 61.4116 102.813 60.5292L101.325 59.1931ZM97.4882 64.921C97.1842 66.0578 97.1871 67.2697 97.3124 68.4547C97.4376 69.639 97.6939 70.8659 97.9361 72.0294L99.8941 71.6218C99.6476 70.4376 99.4141 69.3114 99.3013 68.2445C99.1886 67.1782 99.2055 66.2408 99.4203 65.4377L97.4882 64.921ZM97.9361 72.0294C98.2337 73.4596 98.5087 74.7911 98.5757 76.0126C98.6424 77.2288 98.4935 78.2189 98.0397 79.0033L99.7709 80.0049C100.5 78.7453 100.65 77.3088 100.573 75.9031C100.496 74.5027 100.184 73.0169 99.8941 71.6218L97.9361 72.0294ZM98.0397 79.0034C97.5736 79.8091 96.7729 80.4447 95.6716 81.0011C94.5653 81.5602 93.2608 81.9894 91.8648 82.4462L92.4869 84.347C93.849 83.9013 95.3062 83.4266 96.5736 82.7862C97.8461 82.1432 99.0311 81.2839 99.7709 80.0048L98.0397 79.0034ZM91.8648 82.4462C90.743 82.8134 89.5629 83.1986 88.4879 83.6735C87.4126 84.1485 86.3754 84.7409 85.5583 85.5593L86.9735 86.9725C87.5433 86.4019 88.3291 85.9301 89.296 85.503C90.2632 85.0757 91.3447 84.7208 92.4869 84.347L91.8648 82.4462ZM85.5583 85.5593C84.7421 86.3766 84.1509 87.4129 83.6764 88.4872C83.2021 89.5613 82.817 90.7401 82.45 91.8608L84.3507 92.4833C84.7244 91.3422 85.0792 90.2617 85.506 89.2952C85.9327 88.3288 86.4039 87.543 86.9735 86.9725L85.5583 85.5593ZM82.45 91.8608C81.9926 93.2574 81.5628 94.5627 81.0032 95.6698C80.4462 96.7717 79.8099 97.5732 79.0034 98.0397L80.0048 99.771C81.2845 99.0307 82.1445 97.8452 82.7881 96.5721C83.4291 95.304 83.9043 93.846 84.3507 92.4833L82.45 91.8608ZM79.0033 98.0398C78.2188 98.4936 77.2285 98.6425 76.0122 98.5758C74.7905 98.5089 73.4588 98.2339 72.0284 97.9363L71.621 99.8943C73.0162 100.185 74.5022 100.496 75.9027 100.573C77.3086 100.65 78.7452 100.5 80.0049 99.7709L79.0033 98.0398ZM72.0284 97.9363C70.8651 97.6942 69.6384 97.438 68.4543 97.3128C67.2695 97.1875 66.0578 97.1845 64.9212 97.4881L65.4375 99.4204C66.2406 99.2058 67.1779 99.189 68.244 99.3017C69.3108 99.4145 70.4369 99.6479 71.621 99.8943L72.0284 97.9363ZM64.9211 97.4882C63.83 97.7799 62.8212 98.371 61.8924 99.0519C60.9634 99.7329 60.0557 100.549 59.1889 101.327L60.5249 102.815C61.4079 102.023 62.2404 101.277 63.0748 100.665C63.9093 100.053 64.6869 99.621 65.4377 99.4203L64.9211 97.4882ZM59.1889 101.327C58.0888 102.315 57.0531 103.241 55.9973 103.93C54.9471 104.614 53.9687 105 53 105V107C54.5116 107 55.8747 106.397 57.0895 105.605C58.2985 104.817 59.4512 103.779 60.5249 102.815L59.1889 101.327ZM53 105C52.0311 105 51.0522 104.614 50.0016 103.929C48.9452 103.241 47.909 102.313 46.8085 101.326L45.4726 102.814C46.5467 103.778 47.6999 104.816 48.9094 105.605C50.1246 106.397 51.4881 107 53 107V105ZM46.8085 101.326C45.9419 100.548 45.0344 99.7321 44.1059 99.0514C43.1775 98.3707 42.1693 97.7799 41.0791 97.4882L40.5622 99.4203C41.3121 99.6209 42.0892 100.053 42.9234 100.664C43.7574 101.276 44.5898 102.022 45.4726 102.814L46.8085 101.326ZM41.0788 97.4881C39.9423 97.1845 38.7306 97.1875 37.5458 97.3128C36.3616 97.438 35.1349 97.6942 33.9716 97.9363L34.3791 99.8943C35.5631 99.6479 36.6892 99.4145 37.756 99.3017C38.8221 99.189 39.7595 99.2058 40.5625 99.4204L41.0788 97.4881ZM33.9716 97.9363C32.5412 98.2339 31.2095 98.5089 29.9878 98.5758C28.7715 98.6425 27.7812 98.4936 26.9967 98.0398L25.9951 99.7709C27.2548 100.5 28.6914 100.65 30.0973 100.573C31.4979 100.496 32.9838 100.185 34.3791 99.8943L33.9716 97.9363ZM26.9966 98.0397C26.1909 97.5737 25.5553 96.7729 24.9989 95.6717C24.4398 94.5653 24.0107 93.2608 23.5538 91.8649L21.653 92.4869C22.0988 93.849 22.5734 95.3063 23.2138 96.5736C23.8568 97.8461 24.7161 99.0311 25.9952 99.771L26.9966 98.0397ZM23.5538 91.8649C23.1867 90.743 22.8014 89.563 22.3265 88.4879C21.8515 87.4126 21.2591 86.3754 20.4408 85.5583L19.0276 86.9735C19.5982 87.5433 20.0699 88.3291 20.4971 89.296C20.9243 90.2632 21.2792 91.3447 21.653 92.4869L23.5538 91.8649ZM20.4408 85.5583C19.6234 84.7421 18.5871 84.1509 17.5128 83.6764C16.4387 83.2021 15.26 82.817 14.1393 82.45L13.5168 84.3507C14.6579 84.7244 15.7383 85.0792 16.7049 85.506C17.6712 85.9327 18.4571 86.4039 19.0276 86.9735L20.4408 85.5583ZM14.1393 82.45C12.7426 81.9926 11.4374 81.5628 10.3303 81.0032C9.2283 80.4462 8.42685 79.8099 7.96033 79.0034L6.22908 80.0048C6.96932 81.2845 8.15482 82.1445 9.42798 82.7881C10.696 83.4291 12.154 83.9043 13.5168 84.3507L14.1393 82.45ZM7.96027 79.0033C7.50647 78.219 7.35765 77.2288 7.42433 76.0126C7.4913 74.7911 7.76627 73.4596 8.06396 72.0294L6.10592 71.6218C5.81554 73.0169 5.5041 74.5027 5.42733 75.9031C5.35026 77.3088 5.50036 78.7453 6.22915 80.0049L7.96027 79.0033ZM8.06396 72.0294C8.30612 70.8659 8.56242 69.639 8.6876 68.4547C8.81286 67.2697 8.81583 66.0578 8.51185 64.921L6.57974 65.4377C6.79451 66.2408 6.81138 67.1782 6.69868 68.2445C6.58591 69.3114 6.35241 70.4376 6.10592 71.6218L8.06396 72.0294Z" fill="#1A1A1A" mask="url(#path-1-inside-1_2663_2745)"/>
<path d="M75.8463 54.1704C75.8463 54.1704 65.188 65.226 52.606 64.7196C40.024 64.2131 30.2852 52.3354 30.2852 52.3354C30.2852 52.3354 40.9449 41.2832 53.5262 41.7862C66.1075 42.2891 75.8463 54.1704 75.8463 54.1704Z" fill="white"/>
<path d="M62.0972 53.8105C62.0258 55.5785 61.4327 57.2857 60.3927 58.716C59.3528 60.1464 57.9128 61.2358 56.2548 61.8464C54.5968 62.4571 52.7953 62.5616 51.078 62.1467C49.3607 61.7317 47.8048 60.8161 46.607 59.5155C45.4093 58.2149 44.6234 56.5877 44.3488 54.8397C44.0742 53.0918 44.3233 51.3015 45.0644 49.6953C45.8056 48.0891 47.0055 46.739 48.5126 45.8159C50.0197 44.8928 51.7662 44.4381 53.5313 44.5092C54.7035 44.5564 55.8549 44.8345 56.9198 45.3275C57.9847 45.8205 58.9422 46.5188 59.7377 47.3825C60.5331 48.2463 61.1509 49.2585 61.5557 50.3614C61.9606 51.4643 62.1446 52.6363 62.0972 53.8105Z" fill="#7DD3B2"/>
<path fill-rule="evenodd" clip-rule="evenodd" d="M58.7751 57.5399C59.5826 56.4293 60.0434 55.1034 60.0988 53.7298C60.1356 52.8177 59.9927 51.9073 59.6782 51.0506C59.3638 50.1939 58.884 49.4079 58.2665 48.7374C57.649 48.0669 56.9058 47.5249 56.0796 47.1424C55.2533 46.7599 54.3601 46.5442 53.4508 46.5076C52.0817 46.4524 50.7267 46.8051 49.5573 47.5214C48.3877 48.2378 47.456 49.2857 46.8804 50.5332C46.3048 51.7807 46.1113 53.1715 46.3246 54.5294C46.5379 55.8873 47.1483 57.1509 48.0782 58.1606C49.0081 59.1703 50.2155 59.8807 51.5477 60.2026C52.8798 60.5244 54.2773 60.4434 55.5636 59.9697C56.8499 59.4959 57.9676 58.6506 58.7751 57.5399ZM60.3927 58.716C61.4327 57.2857 62.0258 55.5785 62.0972 53.8105C62.1446 52.6363 61.9606 51.4643 61.5557 50.3614C61.1509 49.2585 60.5331 48.2463 59.7377 47.3825C58.9422 46.5188 57.9847 45.8205 56.9198 45.3275C55.8549 44.8345 54.7035 44.5564 53.5313 44.5092C51.7662 44.4381 50.0197 44.8928 48.5126 45.8159C47.0055 46.739 45.8056 48.0891 45.0644 49.6953C44.3233 51.3015 44.0742 53.0918 44.3488 54.8397C44.6234 56.5877 45.4093 58.2149 46.607 59.5155C47.8048 60.8161 49.3607 61.7317 51.078 62.1467C52.7953 62.5616 54.5968 62.4571 56.2548 61.8464C57.9128 61.2358 59.3528 60.1464 60.3927 58.716Z" fill="#1A1A1A"/>
<path d="M30.2852 52.3354L75.8463 54.1704C75.8463 54.1704 71.8869 41.8007 54.5668 40.355C37.2467 38.9093 30.2852 52.3354 30.2852 52.3354Z" fill="#1A1A1A"/>
<path fill-rule="evenodd" clip-rule="evenodd" d="M75.8463 54.1704C75.8463 54.1704 75.5871 53.3596 74.9111 52.1302C72.9452 48.5548 67.455 41.4308 54.5668 40.355C41.4298 39.2585 34.252 46.7171 31.5512 50.3838C30.6912 51.5514 30.2852 52.3354 30.2852 52.3354L75.8463 54.1704ZM34.0166 50.4831L72.5241 52.034C71.9694 51.1781 71.2291 50.196 70.2616 49.1924C67.4268 46.2514 62.5527 43.0285 54.4004 42.3481C46.3371 41.675 40.7653 44.4493 37.1927 47.3543C35.8705 48.4295 34.8177 49.5272 34.0166 50.4831Z" fill="#1A1A1A"/>
<path d="M67.1625 59.6525C67.8595 61.4403 68.5565 63.2278 69.2536 65.0151C69.3383 65.2333 69.5442 65.3848 69.7858 65.3181C69.9959 65.2606 70.1737 65.0039 70.0883 64.7843C69.3917 62.997 68.6947 61.2097 67.9973 59.4224C67.9125 59.2042 67.7066 59.0527 67.465 59.1194C67.255 59.1762 67.0771 59.4329 67.1625 59.6525Z" fill="#26103D"/>
<path fill-rule="evenodd" clip-rule="evenodd" d="M70.0532 57.4978C69.9902 57.5034 69.9285 57.5228 69.8728 57.5553C69.8079 57.5933 69.7546 57.6473 69.7173 57.7112C69.7755 57.6705 69.8348 57.6312 69.895 57.5932C69.9379 57.5661 69.9813 57.5397 70.0252 57.514C70.0345 57.5086 70.0438 57.5032 70.0532 57.4978ZM71.9576 61.6725L72.7062 61.2359L71.9753 61.7005C71.9693 61.6918 71.9636 61.6828 71.9583 61.6736C71.9581 61.6732 71.9578 61.6729 71.9576 61.6725ZM72.3704 61.8869C72.3773 61.8863 72.3841 61.8855 72.391 61.8845C72.4473 61.8768 72.5016 61.8581 72.5507 61.8293C72.5998 61.8006 72.6428 61.7624 72.6772 61.717C72.6877 61.7031 72.6974 61.6886 72.7062 61.6735C72.6912 61.684 72.6761 61.6944 72.6609 61.7047C72.6174 61.7344 72.5733 61.7633 72.5286 61.7915C72.4857 61.8185 72.4423 61.8449 72.3983 61.8706C72.3955 61.8723 72.3926 61.874 72.3898 61.8757C72.3833 61.8794 72.3768 61.8831 72.3704 61.8869ZM70.4482 57.6842L69.7174 58.1488L70.4659 57.7121L70.4653 57.7111C70.4599 57.7019 70.4542 57.6929 70.4482 57.6842Z" fill="#1A1A1A"/>
<path d="M63.408 62.0487C63.7099 63.9477 64.3549 65.7757 65.3114 67.4429C65.5915 67.9269 66.3373 67.4906 66.0593 67.0052C65.1436 65.4016 64.5282 63.6439 64.2435 61.8186C64.207 61.5865 63.9178 61.4581 63.7105 61.5156C63.4641 61.5858 63.3716 61.8165 63.408 62.0487Z" fill="#26103D"/>
<path fill-rule="evenodd" clip-rule="evenodd" d="M61.0326 63.2208C60.9687 62.7047 60.1452 62.7134 60.1704 63.2608C60.171 63.2738 60.1717 63.2867 60.1723 63.2996C60.1723 63.2995 60.1723 63.2998 60.1723 63.2996C60.1804 63.4645 60.1915 63.6295 60.2055 63.7937C60.4918 63.6898 60.7762 63.6191 61.0541 63.576C61.0467 63.4711 61.0407 63.366 61.036 63.2608C61.0354 63.2472 61.0342 63.2338 61.0326 63.2208C61.0326 63.2209 61.0326 63.2208 61.0326 63.2208ZM62.0115 67.6095C61.8542 67.6616 61.698 67.7038 61.5442 67.7373L60.6086 66.1343C60.6106 66.1422 60.6127 66.15 60.6148 66.1579L61.5421 67.7378C61.4132 67.7658 61.286 67.7876 61.1613 67.8038C61.2181 67.9448 61.2773 68.0849 61.3388 68.2241C61.339 68.2244 61.3391 68.2248 61.3392 68.2251C61.352 68.2539 61.3648 68.2826 61.3777 68.3113C61.4736 68.5217 61.7839 68.5758 61.9701 68.467C62.1609 68.3551 62.2099 68.1524 62.1569 67.9605C62.1566 67.9592 62.1562 67.9579 62.1558 67.9566C62.1479 67.9286 62.1378 67.9008 62.1256 67.8736C62.0866 67.7859 62.0485 67.6979 62.0115 67.6095Z" fill="#1A1A1A"/>
<path d="M55.4318 64.3815L56.3331 68.8077C56.38 69.0371 56.651 69.1696 56.8653 69.1107C57.1041 69.0455 57.2154 68.8077 57.1678 68.5769L56.2665 64.1493C56.2203 63.9192 55.9486 63.7867 55.7343 63.8463C55.6247 63.8785 55.532 63.9521 55.4755 64.0516C55.4191 64.151 55.4034 64.2686 55.4318 64.3794V64.3815Z" fill="#26103D"/>
<path fill-rule="evenodd" clip-rule="evenodd" d="M51.4395 69.4892C51.4434 69.7023 51.6759 69.8789 51.8747 69.8789C52.076 69.8789 52.2079 69.7578 52.2709 69.5946C52.1358 69.5898 52.0037 69.5793 51.8747 69.5636C51.7254 69.5455 51.5802 69.5204 51.4395 69.4892ZM52.8764 64.9875C52.8716 64.774 52.6398 64.5977 52.4406 64.5977C52.2399 64.5977 52.1081 64.7186 52.0451 64.8819C52.18 64.8868 52.3118 64.8973 52.4406 64.9129C52.5901 64.9311 52.7354 64.9562 52.8764 64.9875ZM51.4559 69.3373L52.3082 69.4454L51.4561 69.3352C51.456 69.3359 51.456 69.3366 51.4559 69.3373ZM52.0077 65.0319L52.8598 65.1417C52.8599 65.1412 52.86 65.1406 52.86 65.1401L52.0077 65.0319ZM52.0302 64.9253C52.0305 64.9244 52.0308 64.9236 52.031 64.9227L52.8741 65.0319L52.0302 64.9253Z" fill="#1A1A1A"/>
<path fill-rule="evenodd" clip-rule="evenodd" d="M46.6843 65.4379C46.6827 65.4416 46.6811 65.4454 46.6795 65.4491L48.0084 64.1224L48.3322 64.3987C48.4442 64.2258 48.4478 64.0004 48.2929 63.8426C48.2922 63.8419 48.2915 63.8412 48.2908 63.8405H47.6781L48.0084 64.1224L46.6843 65.4379Z" fill="#1A1A1A"/>
<path d="M43.6862 62.0632C42.4128 63.1867 41.4565 64.6258 40.9131 66.2361C40.8382 66.4578 41 66.7096 41.2157 66.7692C41.3264 66.7977 41.4438 66.782 41.5432 66.7255C41.6426 66.669 41.7162 66.576 41.7486 66.4662C42.2524 65.0016 43.1317 63.6953 44.2983 62.6783C44.4748 62.524 44.4559 62.2231 44.2983 62.0653C44.2162 61.9858 44.1065 61.9414 43.9923 61.9414C43.8781 61.9414 43.7684 61.9858 43.6862 62.0653V62.0632Z" fill="#26103D"/>
<path fill-rule="evenodd" clip-rule="evenodd" d="M40.5206 60.1182L40.3946 60.2694C40.5075 60.347 40.6189 60.4311 40.7282 60.522C40.837 60.6124 40.9437 60.7097 41.0479 60.814C41.0492 60.8153 41.0505 60.8166 41.0518 60.8179C41.0532 60.8193 41.0545 60.8207 41.0559 60.822C41.0557 60.8218 41.0561 60.8222 41.0559 60.822L41.1327 60.7312C41.1498 60.7107 41.1653 60.6891 41.1791 60.6668C41.179 60.6669 41.1792 60.6666 41.1791 60.6668C41.2855 60.4939 41.2882 60.2739 41.1327 60.1182C40.9786 59.9638 40.6711 59.9372 40.5206 60.1182ZM38.2473 64.1953C38.1346 64.1179 38.0236 64.0341 37.9147 63.9436C37.9144 63.9433 37.914 63.943 37.9137 63.9428C37.8048 63.8522 37.6981 63.755 37.594 63.6507C37.591 63.6477 37.588 63.6447 37.5851 63.6417L37.5092 63.7328C37.4922 63.7532 37.4768 63.7747 37.4631 63.7969C37.4629 63.7972 37.4627 63.7975 37.4625 63.7978C37.3561 63.9712 37.3537 64.1907 37.5092 64.3465C37.6626 64.5009 37.9707 64.5268 38.1213 64.3465L38.2473 64.1953Z" fill="#1A1A1A"/>
<path fill-rule="evenodd" clip-rule="evenodd" d="M33.9493 61.8113C33.7625 61.8558 33.5708 61.8077 33.4619 61.6207C33.354 61.4363 33.4016 61.1199 33.6166 61.0273C33.6479 61.0141 33.679 61.0006 33.7101 60.9871C33.7119 60.9863 33.7137 60.9855 33.7155 60.9847C33.8218 60.9381 33.9272 60.8897 34.0315 60.8393C34.1029 60.945 34.1801 61.0495 34.2632 61.1523C34.2635 61.1526 34.2638 61.153 34.2641 61.1534C34.3658 61.279 34.4766 61.4019 34.5968 61.5208C34.4188 61.6111 34.2379 61.6964 34.0543 61.7765C34.0213 61.7906 33.9877 61.8019 33.9538 61.8102C33.9523 61.8106 33.9508 61.811 33.9493 61.8113ZM37.7497 59.049C37.8797 58.898 38.0055 58.7429 38.1269 58.5841C38.1277 58.5831 38.1284 58.5821 38.1292 58.5812C38.1501 58.5537 38.1709 58.5262 38.1916 58.4986C38.3316 58.312 38.221 58.0131 38.0361 57.9051C37.8458 57.7933 37.6508 57.85 37.5095 57.9865C37.5091 57.9869 37.5088 57.9872 37.5084 57.9876C37.4853 58.01 37.4636 58.0345 37.4437 58.0609C37.3715 58.1551 37.2977 58.2478 37.2222 58.3391C37.337 58.4657 37.4451 58.5993 37.5458 58.7394C37.5463 58.7401 37.5469 58.7408 37.5474 58.7416C37.6187 58.8408 37.6862 58.9434 37.7497 59.049Z" fill="#1A1A1A"/>
<path fill-rule="evenodd" clip-rule="evenodd" d="M30.2852 52.3354C30.2852 52.3354 40.024 64.2131 52.606 64.7196C65.188 65.226 75.8463 54.1704 75.8463 54.1704C75.8463 54.1704 66.1075 42.2891 53.5262 41.7862C40.9449 41.2832 30.2852 52.3354 30.2852 52.3354ZM33.0888 52.4484C33.1947 52.5581 33.3069 52.6729 33.4251 52.7925C34.4838 53.8625 36.0228 55.2962 37.9342 56.7428C41.7946 59.6642 46.9809 62.4915 52.6864 62.7212C58.392 62.9508 63.7878 60.5497 67.8695 57.9483C69.8905 56.6602 71.5392 55.355 72.6801 54.3736C72.8077 54.2639 72.9288 54.1584 73.0431 54.0575C72.9371 53.9476 72.8247 53.8324 72.7061 53.7126C71.6475 52.6423 70.1085 51.2083 68.1972 49.7616C64.3369 46.8397 59.1511 44.0126 53.4463 43.7846C47.7407 43.5565 42.3445 45.9578 38.2624 48.5589C36.2412 49.8468 34.5923 51.1518 33.4512 52.1328C33.3239 52.2423 33.203 52.3477 33.0888 52.4484Z" fill="#1A1A1A"/>
<path fill-rule="evenodd" clip-rule="evenodd" d="M67.9588 59.342C67.8591 59.1689 67.6756 59.0613 67.465 59.1194C67.255 59.1762 67.0771 59.4329 67.1625 59.6525L67.6175 60.8193C67.7061 60.775 67.7972 60.7331 67.8908 60.6937C67.8933 60.6927 67.8959 60.6916 67.8984 60.6905C68.0645 60.6211 68.2386 60.5599 68.4209 60.5081C68.2797 60.1462 68.1385 59.7843 67.9973 59.4224C67.9865 59.3946 67.9734 59.3674 67.9588 59.342C67.9589 59.3422 67.9587 59.3419 67.9588 59.342ZM69.6336 63.6179C69.7745 63.9793 69.9154 64.3407 70.0562 64.7021C70.0564 64.7024 70.0565 64.7028 70.0567 64.7032C70.0672 64.7302 70.0778 64.7573 70.0883 64.7843C70.1737 65.0039 69.9959 65.2606 69.7858 65.3181C69.5749 65.3763 69.3913 65.2683 69.2916 65.0948C69.2915 65.0947 69.2917 65.0949 69.2916 65.0948C69.2772 65.0696 69.2643 65.0427 69.2536 65.0151L68.8302 63.9294C69.0124 63.8776 69.1864 63.8163 69.3524 63.7469C69.3533 63.7465 69.3543 63.7461 69.3553 63.7457C69.4507 63.7057 69.5435 63.663 69.6336 63.6179Z" fill="#1A1A1A"/>
<path d="M69.7174 58.1488C70.4643 59.3239 71.2113 60.4989 71.9583 61.6736C71.987 61.7228 72.025 61.7658 72.0703 61.8003C72.1156 61.8347 72.1673 61.8599 72.2223 61.8744C72.2773 61.8888 72.3346 61.8923 72.391 61.8845C72.4473 61.8768 72.5016 61.8581 72.5507 61.8293C72.5998 61.8006 72.6428 61.7624 72.6772 61.717C72.7116 61.6717 72.7367 61.6199 72.7511 61.5648C72.7656 61.5097 72.769 61.4523 72.7613 61.3959C72.7536 61.3394 72.7349 61.2851 72.7062 61.2359L70.4653 57.7111C70.4073 57.6117 70.3124 57.5395 70.2013 57.5103C70.0901 57.4811 69.972 57.4973 69.8728 57.5553C69.7736 57.6134 69.7015 57.7085 69.6724 57.8198C69.6432 57.9311 69.6594 58.0494 69.7174 58.1488Z" fill="#26103D"/>
<path fill-rule="evenodd" clip-rule="evenodd" d="M64.2586 61.9135C64.2534 61.8819 64.2484 61.8503 64.2435 61.8186C64.207 61.5865 63.9178 61.4581 63.7105 61.5156C63.4991 61.5758 63.401 61.7541 63.4004 61.9502C63.4004 61.9499 63.4004 61.9504 63.4004 61.9502C63.4003 61.9825 63.4029 62.0159 63.408 62.0487C63.4661 62.414 63.5369 62.7767 63.6201 63.1361C63.7719 63.06 63.9331 62.9899 64.1025 62.9282L65.0475 66.3336C64.9526 66.3599 64.8584 66.3829 64.7649 66.4027C64.9326 66.7529 65.1133 67.0972 65.3068 67.4349C65.307 67.4352 65.3072 67.4356 65.3074 67.4359C65.3087 67.4382 65.31 67.4406 65.3114 67.4429C65.5902 67.9248 66.3307 67.4945 66.063 67.0117C66.0624 67.0108 66.0619 67.0098 66.0614 67.0089C66.0607 67.0077 66.06 67.0064 66.0593 67.0052C65.8974 66.7217 65.7449 66.4333 65.6019 66.1406C65.4325 66.2122 65.2579 66.2738 65.0791 66.3247L64.1116 62.9249C64.2162 62.887 64.3239 62.8524 64.4346 62.8214C64.3669 62.5215 64.3083 62.2194 64.2589 61.9153C64.2588 61.9147 64.2587 61.9141 64.2586 61.9135Z" fill="#1A1A1A"/>
<path d="M60.1704 63.2608C60.2514 65.0055 60.661 66.7191 61.3777 68.3113C61.4736 68.5217 61.7839 68.5758 61.9701 68.467C62.19 68.338 62.2216 68.0882 62.1256 67.8736C61.4772 66.4179 61.1075 64.8532 61.036 63.2608C61.0108 62.7046 60.1445 62.6997 60.1704 63.2608Z" fill="#26103D"/>
<path fill-rule="evenodd" clip-rule="evenodd" d="M56.2665 64.1493C56.2203 63.9192 55.9486 63.7867 55.7343 63.8463C55.6247 63.8785 55.532 63.9521 55.4755 64.0516C55.4292 64.1332 55.4103 64.227 55.4208 64.3192C55.4208 64.32 55.4209 64.3207 55.421 64.3214C55.4211 64.3222 55.4212 64.3229 55.4213 64.3237C55.4294 64.3212 55.4376 64.3188 55.4458 64.3164C55.4538 64.314 55.4618 64.3117 55.4698 64.3094C55.4929 64.3027 55.5162 64.2961 55.5397 64.2896C55.5423 64.2889 55.545 64.2882 55.5477 64.2874C55.628 64.2655 55.7079 64.2459 55.7875 64.2286C55.8043 64.225 55.821 64.2215 55.8378 64.218L55.859 64.2945L55.4318 64.3815H55.8832L57.0727 68.6564L56.3489 68.8044C56.3435 68.805 56.3382 68.8056 56.3328 68.8062L56.3331 68.8077C56.38 69.0371 56.651 69.1696 56.8653 69.1107C57.0838 69.051 57.1955 68.8469 57.1766 68.6359C57.1765 68.6357 57.1766 68.6362 57.1766 68.6359C57.1765 68.6355 57.1764 68.6343 57.1764 68.6338C57.1716 68.6353 57.1668 68.6367 57.162 68.6381L57.1448 68.6416L55.8918 64.3815H56.3138L56.2787 64.209L55.8658 64.2931L55.8433 64.2169C55.9808 64.1887 56.1171 64.1674 56.2519 64.1522C56.2518 64.1523 56.2521 64.1522 56.2519 64.1522C56.2567 64.1517 56.262 64.1511 56.2668 64.1506L56.2665 64.1493ZM57.0727 68.6564L56.3489 68.8044C56.4855 68.7891 56.6237 68.7674 56.763 68.7387C56.7628 68.7387 56.7632 68.7386 56.763 68.7387C56.8661 68.7174 56.9704 68.6923 57.0746 68.6633L57.0727 68.6564ZM57.1448 68.6416L57.1538 68.6406C57.1509 68.6414 57.1481 68.6422 57.1453 68.6431L57.1448 68.6416Z" fill="#1A1A1A"/>
<path d="M52.0077 65.0319C51.821 66.5026 51.6324 67.9738 51.4419 69.4454C51.4118 69.6776 51.6625 69.8789 51.8747 69.8789C52.1338 69.8789 52.2781 69.6783 52.3082 69.4454C52.4949 67.9738 52.6836 66.5026 52.8741 65.0319C52.9035 64.799 52.6534 64.5977 52.4406 64.5977C52.1821 64.5977 52.0378 64.7983 52.0077 65.0319Z" fill="#26103D"/>
<path d="M47.6781 63.8426C46.7598 64.9157 46.2311 66.2685 46.1781 67.6809C46.1757 67.7394 46.1852 67.7977 46.2059 67.8524C46.2266 67.9071 46.2581 67.957 46.2986 67.9992C46.339 68.0414 46.3876 68.0749 46.4413 68.0978C46.495 68.1208 46.5528 68.1326 46.6112 68.1326C46.6696 68.1326 46.7274 68.1208 46.7811 68.0978C46.8348 68.0749 46.8834 68.0414 46.9238 67.9992C46.9643 67.957 46.9958 67.9071 47.0165 67.8524C47.0372 67.7977 47.0467 67.7394 47.0443 67.6809C47.0874 66.4959 47.5264 65.3597 48.2908 64.4542C48.4421 64.2761 48.4652 64.0158 48.2908 63.8405C48.1354 63.6847 47.8307 63.6616 47.6781 63.8405V63.8426Z" fill="#26103D"/>
<path fill-rule="evenodd" clip-rule="evenodd" d="M44.2983 62.0653C44.2976 62.0646 44.2969 62.0639 44.2961 62.0632C44.2142 61.985 44.1054 61.9414 43.9923 61.9414C43.8977 61.9414 43.8062 61.9719 43.7309 62.0275C43.7306 62.0277 43.7302 62.028 43.7298 62.0283C43.7154 62.039 43.7016 62.0506 43.6884 62.0632C43.688 62.0635 43.6876 62.0639 43.6873 62.0643C43.6869 62.0646 43.6866 62.065 43.6862 62.0653V62.0632C43.6859 62.0635 43.6855 62.0638 43.6851 62.0641C43.6847 62.0645 43.6843 62.0649 43.6839 62.0653C43.5986 62.1405 43.5148 62.2172 43.4324 62.2952C42.8732 62.8251 42.3808 63.4181 41.9644 64.0608C41.9349 64.1062 41.9059 64.1519 41.8772 64.1978C41.7427 64.4133 41.6165 64.6341 41.4991 64.8598C41.4636 64.9281 41.4289 64.9968 41.395 65.0659C41.2684 65.324 41.1532 65.5881 41.0497 65.8576C41.0489 65.8594 41.0482 65.8613 41.0475 65.8631C41.0067 65.9695 40.9677 66.0768 40.9306 66.1848C40.9264 66.1971 40.9222 66.2094 40.918 66.2217C40.9164 66.2265 40.9147 66.2313 40.9131 66.2361C40.8382 66.4578 41 66.7096 41.2157 66.7692C41.3264 66.7977 41.4438 66.782 41.5432 66.7255C41.6282 66.6772 41.6943 66.6023 41.7319 66.5129C41.7319 66.5131 41.732 66.5128 41.7319 66.5129C41.7382 66.4979 41.7439 66.482 41.7486 66.4662C41.7596 66.4341 41.7708 66.4021 41.7823 66.3701C42.2446 65.0748 43.0019 63.9068 43.9923 62.958C44.0547 62.8982 44.1181 62.8393 44.1824 62.7812C44.2078 62.7582 44.2335 62.7353 44.2592 62.7126C44.2688 62.7042 44.2784 62.6957 44.2881 62.6873C44.2915 62.6843 44.2949 62.6813 44.2983 62.6783C44.4748 62.524 44.4559 62.2231 44.2983 62.0653Z" fill="#1A1A1A"/>
<path d="M40.5206 60.1182L37.5092 63.7328C37.3594 63.913 37.3335 64.1705 37.5092 64.3465C37.6626 64.5009 37.9707 64.5268 38.1213 64.3465L41.1327 60.7312C41.2825 60.5517 41.3084 60.2942 41.1327 60.1182C40.9786 59.9638 40.6711 59.9372 40.5206 60.1182Z" fill="#26103D"/>
<path d="M37.4437 58.0609C36.4454 59.3644 35.1268 60.3864 33.6166 61.0273C33.4016 61.1199 33.354 61.4363 33.4619 61.6207C33.5914 61.8431 33.8379 61.869 34.0543 61.7765C35.6937 61.0615 37.1195 59.9319 38.1916 58.4986C38.3316 58.312 38.221 58.0131 38.0361 57.9051C37.8141 57.7747 37.5858 57.8736 37.4437 58.0609Z" fill="#26103D"/>
<path d="M34.4953 55.2584L29.6214 57.4512C29.4078 57.5473 29.3566 57.858 29.4659 58.0446C29.594 58.2648 29.844 58.2964 30.0583 58.2003L34.9323 56.0076C35.1459 55.9115 35.197 55.6007 35.0878 55.4141C34.9596 55.1939 34.7096 55.1623 34.4953 55.2584Z" fill="#26103D"/>
<path fill-rule="evenodd" clip-rule="evenodd" d="M29.4659 58.0446C29.5772 58.2359 29.7805 58.2849 29.9724 58.2314C29.9724 58.2314 29.9724 58.2314 29.9724 58.2314C30.0014 58.2233 30.0302 58.2129 30.0583 58.2003L30.7447 57.8915C30.658 57.7394 30.5821 57.5865 30.5159 57.4336C30.5155 57.4326 30.5151 57.4316 30.5146 57.4306C30.4679 57.3223 30.4261 57.2139 30.389 57.1058L29.6214 57.4512C29.4078 57.5473 29.3566 57.858 29.4659 58.0446ZM33.809 55.5672C33.8956 55.7193 33.9716 55.8722 34.0377 56.0251C34.0382 56.0261 34.0386 56.0271 34.039 56.0282C34.0858 56.1365 34.1276 56.2448 34.1647 56.3529L34.9323 56.0076C35.1459 55.9115 35.197 55.6007 35.0878 55.4141C34.9765 55.2228 34.7732 55.1739 34.5813 55.2273C34.5812 55.2273 34.5813 55.2273 34.5813 55.2273C34.5522 55.2354 34.5234 55.2458 34.4953 55.2584L33.809 55.5672Z" fill="#1A1A1A"/>
<path d="M13.6237 55.0427C13.1917 55.1063 12.8617 55.3152 12.6336 55.6692C12.4054 56.0199 12.3022 56.4685 12.3239 57.015C12.3392 57.3991 12.4102 57.7263 12.5371 57.9966C12.6639 58.2669 12.8296 58.4709 13.0341 58.6087C13.2386 58.7466 13.4684 58.8121 13.7235 58.8052C13.9355 58.7968 14.1174 58.7415 14.2692 58.6393C14.4209 58.5337 14.5481 58.3943 14.6506 58.2211C14.7499 58.048 14.8319 57.8573 14.8966 57.6491C14.9613 57.4408 15.0143 57.2314 15.0557 57.0208L15.2562 56.0575C15.3304 55.6698 15.4366 55.2957 15.5748 54.9353C15.713 54.5716 15.8923 54.2444 16.113 53.9537C16.3335 53.6596 16.6044 53.4233 16.9257 53.2447C17.2469 53.0661 17.6278 52.968 18.0683 52.9505C18.6644 52.9268 19.1954 53.0583 19.6612 53.3449C20.1237 53.6317 20.4939 54.0581 20.7718 54.6243C21.0463 55.1872 21.1997 55.876 21.2321 56.6907C21.2636 57.4822 21.1684 58.1743 20.9465 58.7669C20.7244 59.3562 20.3848 59.8241 19.9276 60.1707C19.4702 60.5139 18.9042 60.7122 18.2297 60.7656L18.1576 58.9524C18.5109 58.9118 18.8013 58.7908 19.0288 58.5894C19.2563 58.3879 19.4219 58.1309 19.5256 57.8183C19.6291 57.5024 19.6732 57.1524 19.658 56.7682C19.642 56.3675 19.5685 56.0188 19.4373 55.7222C19.3026 55.4224 19.1242 55.1906 18.9021 55.027C18.6767 54.8634 18.4182 54.7858 18.1266 54.7941C17.8618 54.8079 17.6463 54.8944 17.4802 55.0536C17.3107 55.213 17.1735 55.4324 17.0685 55.7118C16.9601 55.9881 16.8667 56.3103 16.7885 56.6783L16.5364 57.8476C16.3545 58.694 16.0546 59.3693 15.6368 59.8736C15.2156 60.3746 14.6406 60.6396 13.912 60.6685C13.3126 60.6924 12.7812 60.551 12.3179 60.2443C11.8545 59.9343 11.4874 59.5028 11.2166 58.9497C10.9426 58.3967 10.7914 57.7642 10.7631 57.0521C10.7344 56.3302 10.8351 55.6926 11.0652 55.1395C11.2918 54.5831 11.6209 54.1405 12.0523 53.8116C12.4804 53.4828 12.9807 53.302 13.5532 53.2693L13.6237 55.0427Z" fill="#1A1A1A"/>
<path d="M22.5623 47.0001C22.3614 47.7389 22.0344 48.3352 21.5812 48.789C21.1258 49.2388 20.5758 49.5306 19.9315 49.6645C19.2839 49.7975 18.5747 49.7592 17.804 49.5496C17.046 49.3434 16.4199 49.0186 15.9257 48.5751C15.4291 48.1275 15.0919 47.5995 14.9138 46.9912C14.7326 46.3821 14.7376 45.7257 14.929 45.0221C15.0525 44.5679 15.2426 44.1594 15.4993 43.7964C15.7537 43.4294 16.075 43.1321 16.4632 42.9045C16.8522 42.6737 17.3062 42.5326 17.825 42.4814C18.3407 42.4293 18.9215 42.4911 19.5676 42.6668L20.1001 42.8116L18.4575 48.8515L17.287 48.5331L18.4768 44.1579C18.1433 44.0707 17.8279 44.0622 17.5306 44.1324C17.2301 44.2018 16.9703 44.3424 16.7513 44.5542C16.5331 44.7628 16.3788 45.0334 16.2883 45.366C16.1918 45.721 16.1933 46.0563 16.293 46.372C16.3894 46.6867 16.5563 46.9571 16.7937 47.1831C17.0287 47.405 17.3105 47.5623 17.6391 47.6551L18.6609 47.933C19.0895 48.0496 19.4786 48.0712 19.8282 47.998C20.1747 47.9239 20.4677 47.7683 20.7074 47.5313C20.9438 47.2933 21.1134 46.9856 21.216 46.6082C21.2847 46.3556 21.3117 46.1173 21.297 45.8935C21.2791 45.6688 21.2203 45.4622 21.1204 45.2736C21.0206 45.085 20.8772 44.9241 20.6902 44.7908L21.3134 43.2188C21.7142 43.4377 22.0353 43.7346 22.2768 44.1094C22.5161 44.4802 22.6632 44.9117 22.7182 45.4041C22.77 45.8957 22.718 46.4277 22.5623 47.0001Z" fill="#1A1A1A"/>
<path d="M26.5336 38.5381C26.1267 39.1867 25.6406 39.6622 25.0751 39.9648C24.5086 40.2629 23.8977 40.3824 23.2422 40.3233C22.5839 40.2625 21.9164 40.0198 21.2398 39.5953C20.5744 39.1779 20.0696 38.6852 19.7256 38.1172C19.3805 37.5447 19.2111 36.9416 19.2174 36.3078C19.221 35.6722 19.4165 35.0456 19.804 34.4279C20.0541 34.0292 20.3547 33.6935 20.7057 33.4208C21.0558 33.1435 21.4496 32.9523 21.8871 32.8473C22.3265 32.7395 22.8018 32.7364 23.3132 32.8381C23.8217 32.938 24.3596 33.1659 24.9267 33.5216L25.3942 33.8149L22.068 39.1172L21.0404 38.4725L23.4498 34.6316C23.1561 34.4513 22.8567 34.3515 22.5518 34.3324C22.2441 34.3115 21.9547 34.3706 21.6836 34.5096C21.4142 34.6458 21.188 34.8599 21.0048 35.1519C20.8093 35.4636 20.7134 35.7849 20.717 36.1158C20.7179 36.445 20.7991 36.7522 20.9605 37.0374C21.121 37.318 21.3449 37.5505 21.6323 37.7347L22.5294 38.2974C22.9056 38.5334 23.2717 38.6672 23.6275 38.6987C23.9805 38.7285 24.3061 38.6647 24.6043 38.5075C24.8997 38.3485 25.1513 38.1033 25.3591 37.772C25.4983 37.5502 25.5933 37.3301 25.6443 37.1116C25.6924 36.8914 25.6961 36.6766 25.6554 36.4671C25.6146 36.2577 25.5241 36.062 25.3839 35.8802L26.4369 34.5571C26.7568 34.8829 26.9779 35.2603 27.1001 35.6891C27.2213 36.1133 27.2367 36.569 27.1463 37.0562C27.0531 37.5415 26.8489 38.0355 26.5336 38.5381Z" fill="#1A1A1A"/>
<path d="M36.3925 28.7286L29.2727 20.9033L31.0474 20.017L36.0315 25.8914L36.116 25.8492L34.5256 18.2801L36.1401 17.4738L41.2421 23.2948L41.3222 23.2548L39.6183 15.7368L41.393 14.8506L43.3712 25.2435L41.7433 26.0565L36.7278 20.5757L36.6567 20.6112L38.0204 27.9156L36.3925 28.7286Z" fill="#1A1A1A"/>
<path d="M48.4699 19.9817L48.94 24.4313L47.1503 24.6204L46.0805 14.495L47.8307 14.3101L48.2345 18.1318L48.3235 18.1224C48.4562 17.6751 48.6957 17.3082 49.042 17.0217C49.3913 16.7315 49.856 16.5557 50.4361 16.4944C50.9635 16.4387 51.435 16.5005 51.8505 16.6799C52.2661 16.8593 52.6034 17.1503 52.8626 17.5529C53.1251 17.9551 53.2887 18.4627 53.3535 19.0758L53.8643 23.9111L52.0746 24.1002L51.593 19.5417C51.539 19.0308 51.3652 18.6476 51.0715 18.392C50.7809 18.1328 50.3999 18.028 49.9285 18.0778C49.6121 18.1113 49.336 18.2104 49.1001 18.3753C48.8672 18.5366 48.6934 18.7532 48.5788 19.0253C48.4676 19.297 48.4313 19.6158 48.4699 19.9817Z" fill="#1A1A1A"/>
<path d="M58.6934 24.8308C58.2181 24.7397 57.8063 24.5729 57.458 24.3306C57.1134 24.0857 56.8627 23.7744 56.7056 23.3967C56.5518 23.0196 56.5221 22.5853 56.6163 22.0937C56.6975 21.6706 56.8427 21.3356 57.052 21.0889C57.2613 20.8422 57.517 20.6618 57.819 20.5476C58.121 20.4334 58.4494 20.3664 58.8041 20.3467C59.1628 20.3244 59.5281 20.3286 59.9002 20.3595C60.3483 20.3982 60.7126 20.4258 60.9929 20.4425C61.2738 20.4558 61.4836 20.4353 61.6223 20.3809C61.7648 20.3239 61.8523 20.2107 61.8848 20.0415L61.8904 20.0122C61.9609 19.6444 61.9065 19.3386 61.7271 19.095C61.5477 18.8513 61.253 18.6902 60.8428 18.6115C60.4099 18.5285 60.0484 18.5571 59.7583 18.6972C59.4714 18.8379 59.2594 19.0284 59.1222 19.2687L57.5168 18.7178C57.7344 18.2871 58.0223 17.9475 58.3805 17.6989C58.7392 17.4471 59.1497 17.2862 59.612 17.2163C60.0749 17.143 60.5684 17.1567 61.0924 17.2572C61.4538 17.3265 61.8053 17.4378 62.1472 17.5911C62.489 17.7444 62.7893 17.9471 63.048 18.1992C63.3074 18.448 63.4948 18.7556 63.6101 19.122C63.7288 19.489 63.7403 19.9215 63.6448 20.4195L62.6822 25.4388L60.9831 25.113L61.1806 24.0827L61.122 24.0715C60.9747 24.2592 60.7859 24.4255 60.5556 24.5703C60.3292 24.7125 60.0589 24.8109 59.7448 24.8654C59.4345 24.9172 59.084 24.9057 58.6934 24.8308ZM59.4014 23.62C59.7562 23.6881 60.0773 23.6771 60.3645 23.5871C60.6524 23.4938 60.8888 23.3434 61.0737 23.1359C61.2619 22.929 61.3825 22.6872 61.4355 22.4105L61.605 21.5267C61.5409 21.5617 61.4384 21.5859 61.2975 21.5994C61.1598 21.6135 61.0067 21.6195 60.8384 21.6176C60.67 21.6157 60.5039 21.6109 60.34 21.6031C60.1761 21.5953 60.0341 21.5883 59.9138 21.5821C59.6432 21.5673 59.396 21.5806 59.1721 21.6221C58.9481 21.6635 58.7619 21.7459 58.6134 21.8693C58.4655 21.9894 58.3697 22.1634 58.326 22.3912C58.2635 22.7167 58.3352 22.9853 58.541 23.1969C58.7468 23.4084 59.0336 23.5495 59.4014 23.62Z" fill="#1A1A1A"/>
<path d="M72.548 21.5821L71.9393 22.834L67.9914 20.9141L68.6002 19.6623L72.548 21.5821ZM70.375 18.491L71.9935 19.278L68.8582 25.7251C68.7524 25.9427 68.704 26.1256 68.7131 26.2737C68.7265 26.4203 68.7783 26.5413 68.8683 26.6367C68.9582 26.732 69.0703 26.8123 69.2044 26.8775C69.3058 26.9268 69.4018 26.9643 69.4925 26.99C69.5862 27.0171 69.6583 27.0356 69.7088 27.0454L69.3662 28.4433C69.2653 28.4311 69.1256 28.4037 68.9473 28.3612C68.7719 28.3202 68.568 28.2468 68.3356 28.1412C67.9245 27.956 67.589 27.7173 67.3294 27.4252C67.0712 27.1301 66.9163 26.7931 66.8647 26.4142C66.816 26.0367 66.8976 25.6341 67.1093 25.2063L70.375 18.491Z" fill="#1A1A1A"/>
<path d="M85.6516 29.3881L77.9846 36.0878L76.7709 34.6989L84.438 27.9992L85.6516 29.3881Z" fill="#1A1A1A"/>
<path d="M83.9584 47.9471L83.053 44.6178L92.878 41.9458L93.8017 45.3423C94.0669 46.3178 94.0981 47.2092 93.8952 48.0166C93.6964 48.8264 93.2821 49.5195 92.6523 50.0961C92.0226 50.6726 91.1976 51.0997 90.1773 51.3771C89.1539 51.6554 88.2226 51.7043 87.3835 51.5238C86.5453 51.3465 85.8325 50.9547 85.2452 50.3484C84.6587 49.7454 84.2298 48.945 83.9584 47.9471ZM85.077 45.9788L85.4749 47.442C85.661 48.1264 85.941 48.6634 86.3148 49.0529C86.6919 49.4415 87.1612 49.6831 87.7227 49.7777C88.2875 49.8714 88.9456 49.8161 89.6972 49.6117C90.4488 49.4073 91.0411 49.1225 91.4743 48.7575C91.9106 48.3915 92.1905 47.9496 92.3141 47.4316C92.4418 46.916 92.4152 46.3256 92.2343 45.6604L91.822 44.1444L85.077 45.9788Z" fill="#1A1A1A"/>
<path d="M84.7975 58.5163C84.8349 57.7715 85.0312 57.1342 85.3864 56.6045C85.7416 56.0748 86.2214 55.6742 86.8258 55.4026C87.43 55.1343 88.126 55.02 88.9138 55.0596C89.7016 55.0992 90.3843 55.2829 90.9619 55.6106C91.5392 55.9416 91.9781 56.3885 92.2783 56.9512C92.5785 57.5138 92.7099 58.1676 92.6725 58.9124C92.635 59.6572 92.4387 60.2944 92.0835 60.8241C91.7283 61.3538 91.247 61.7527 90.6394 62.0208C90.0318 62.2923 89.334 62.4081 88.5462 62.3685C87.7583 62.3289 87.0774 62.1437 86.5033 61.8128C85.9291 61.4852 85.4919 61.0401 85.1916 60.4774C84.8914 59.9148 84.76 59.261 84.7975 58.5163ZM86.2369 58.5986C86.2166 59.0025 86.3105 59.3457 86.5186 59.6283C86.7301 59.911 87.0211 60.1281 87.3919 60.2795C87.7624 60.4342 88.1794 60.5232 88.6428 60.5465C89.1095 60.57 89.535 60.5233 89.9192 60.4066C90.3065 60.2933 90.6196 60.1067 90.8583 59.8465C91.0971 59.5864 91.2266 59.2545 91.2469 58.8506C91.2677 58.4368 91.1725 58.0869 90.9612 57.8008C90.7498 57.5181 90.4571 57.2993 90.0833 57.1444C89.7126 56.993 89.2939 56.9056 88.8271 56.8821C88.3637 56.8588 87.94 56.9039 87.5559 57.0173C87.1717 57.134 86.8603 57.3224 86.6215 57.5826C86.3859 57.8461 86.2577 58.1848 86.2369 58.5986Z" fill="#1A1A1A"/>
</svg>
