<svg width="51" height="49" viewBox="0 0 51 49" fill="none" xmlns="http://www.w3.org/2000/svg">
<path d="M27.0611 20.6705C22.605 16.2609 18.8879 10.2678 19.8356 4.07672C19.932 3.4483 20.1206 2.76099 20.6592 2.42269C21.5813 1.84672 22.7357 2.67428 23.4243 3.51575C27.2035 8.13311 28.0174 14.4238 28.6856 20.3536C29.2211 13.7868 29.9932 6.66535 34.5435 1.90132C35.5705 0.825402 37.2208 -0.125255 38.4566 0.705506C39.6132 1.48274 39.4804 3.20314 39.1495 4.55955C37.7041 10.4675 35.0306 16.0051 31.3029 20.8118C35.4987 16.7437 40.1454 12.4614 45.9529 11.8191C47.1545 11.6863 48.492 11.7634 49.3852 12.577C50.4143 13.5148 50.4947 15.1796 49.9046 16.4396C49.3145 17.6997 48.1975 18.6279 47.0538 19.4212C42.6466 22.4629 37.4333 24.1239 32.0783 24.1927C37.578 24.6731 42.8217 26.7324 47.1781 30.1226C48.7726 31.3676 50.3576 33.4863 49.3199 35.2217C48.718 36.228 47.4554 36.6134 46.2924 36.7622C39.1955 37.6893 32.2282 32.875 28.9362 26.5223C32.1928 31.8323 35.5362 37.5491 35.3616 43.7755C35.3145 45.4767 34.8145 47.423 33.2713 48.1381C32.0794 48.6916 30.609 48.2794 29.6066 47.4294C28.6043 46.5794 27.9864 45.3685 27.4777 44.1567C25.2432 38.7884 24.6833 32.8704 25.8713 27.1785C24.945 32.6202 23.9437 38.246 20.8648 42.8259C19.7543 44.4746 17.8288 46.104 15.9858 45.3578C14.0121 44.5592 13.9135 41.8078 14.3847 39.732C15.6545 34.1884 18.5481 29.1489 22.6961 25.2568C16.8404 28.4621 9.7381 29.325 3.29124 27.6014C2.34563 27.3498 1.31004 26.959 0.905234 26.0662C0.39227 24.9367 1.17512 23.6264 2.12501 22.8288C4.94471 20.4618 9.03239 20.4896 12.681 20.9789C16.2843 21.4619 19.8361 22.2717 23.2926 23.3983C17.4026 21.2187 11.3637 18.4063 7.80081 13.2397C7.1315 12.2676 6.57358 10.9134 7.29323 9.97877C7.90044 9.18869 9.07735 9.17691 10.0626 9.33643C16.9646 10.4209 22.287 15.7844 27.0847 20.8611L27.0611 20.6705Z" fill="#F26722"/>
<path fill-rule="evenodd" clip-rule="evenodd" d="M30.6846 20.4476C30.6827 20.4705 30.6809 20.4933 30.679 20.5162L29.0603 20.5412L29.7345 25.9887L30.6411 25.4766C31.083 26.1972 31.5345 26.9365 31.9839 27.6938C35.2873 32.3833 40.7455 35.4699 46.0333 34.7791L46.0386 34.7784C46.5125 34.7178 46.9067 34.6195 47.1975 34.489C47.4795 34.3624 47.5713 34.2488 47.6034 34.1951C47.6369 34.1392 47.7444 33.9586 47.459 33.4058C47.1659 32.8382 46.5986 32.2078 45.9484 31.6999C41.8965 28.5471 37.0195 26.632 31.9042 26.1851L32.0526 22.1929C32.2415 22.1904 32.4301 22.1859 32.6186 22.1792L30.6846 20.4476ZM36.9394 15.8138C34.9434 17.3223 33.0826 19.0863 31.3029 20.8118C32.8476 18.82 34.2113 16.7026 35.3816 14.4854C37.0354 11.3521 38.303 8.01934 39.1495 4.55955C39.4804 3.20314 39.6132 1.48274 38.4566 0.705506C37.2208 -0.125255 35.5705 0.825402 34.5435 1.90132C31.7223 4.85504 30.3535 8.71494 29.5929 12.787C29.1777 15.0097 28.9438 17.2957 28.7539 19.532C28.7306 19.8067 28.7079 20.0806 28.6856 20.3536C28.6481 20.0205 28.6101 19.6862 28.5711 19.3511C28.3178 17.1728 28.024 14.9617 27.5522 12.8168C26.8048 9.41893 25.6109 6.18727 23.4243 3.51575C22.7357 2.67428 21.5813 1.84672 20.6592 2.42269C20.1206 2.76099 19.932 3.4483 19.8356 4.07672C19.3946 6.95811 19.9639 9.7966 21.1479 12.4525C22.4319 15.3327 24.4386 17.9981 26.6635 20.2708C26.7554 20.3647 26.8476 20.4578 26.9402 20.5503C26.9479 20.5581 26.9557 20.5658 26.9634 20.5735C26.9959 20.6059 27.0285 20.6383 27.0611 20.6705L27.0847 20.8611C27.0501 20.8246 27.0156 20.788 26.981 20.7514C26.961 20.7303 26.9409 20.7091 26.9209 20.6879C26.8855 20.6505 26.8502 20.6132 26.8148 20.5758C26.8115 20.5724 26.8083 20.569 26.8051 20.5656C26.7641 20.5224 26.7232 20.4792 26.6822 20.436C24.4528 18.0858 22.1051 15.7017 19.5354 13.7331C16.6957 11.5577 13.5848 9.88987 10.0626 9.33643C9.07735 9.17691 7.90044 9.18869 7.29323 9.97877C6.57358 10.9134 7.1315 12.2676 7.80081 13.2397C9.49122 15.691 11.739 17.6123 14.2637 19.1876C17.0604 20.9325 20.1971 22.2528 23.2926 23.3983C20.118 22.3636 16.8629 21.5961 13.5614 21.1035C13.2683 21.0598 12.9748 21.0182 12.681 20.9789C9.03239 20.4896 4.94471 20.4618 2.12501 22.8288C1.17512 23.6264 0.39227 24.9367 0.905234 26.0662C1.31004 26.959 2.34563 27.3498 3.29124 27.6014C8.16982 28.9057 13.4237 28.7289 18.2287 27.1767C19.7524 26.6845 21.2309 26.054 22.638 25.2886C22.6536 25.2801 22.6692 25.2716 22.6848 25.263C22.6851 25.2629 22.6854 25.2627 22.6858 25.2625C22.6892 25.2606 22.6926 25.2587 22.6961 25.2568C22.6919 25.2607 22.6878 25.2646 22.6837 25.2685C22.6833 25.2688 22.683 25.2691 22.6827 25.2694C22.6738 25.2778 22.6649 25.2861 22.6561 25.2944C21.4803 26.402 20.4057 27.6019 19.4409 28.8795C17.0198 32.0856 15.2898 35.7807 14.3847 39.732C13.9135 41.8078 14.0121 44.5592 15.9858 45.3578C17.8288 46.104 19.7543 44.4746 20.8648 42.8259C22.0177 41.111 22.8793 39.2494 23.5547 37.3057C24.4678 34.6779 25.0407 31.9002 25.5331 29.1321C25.1493 31.9152 25.1755 34.7308 25.6032 37.4901C25.9561 39.7673 26.5825 42.0061 27.4777 44.1567C27.9864 45.3685 28.6043 46.5794 29.6066 47.4294C30.609 48.2794 32.0794 48.6916 33.2713 48.1381C34.8145 47.423 35.3145 45.4767 35.3616 43.7755C35.4475 40.7126 34.6821 37.7729 33.4944 34.9443C32.6009 32.8164 31.4685 30.7514 30.2799 28.744C31.5996 30.6379 33.2517 32.3226 35.1201 33.6606C38.3893 36.0016 42.3206 37.2811 46.2924 36.7622C47.4554 36.6134 48.718 36.228 49.3199 35.2217C50.3576 33.4863 48.7726 31.3676 47.1781 30.1226C44.5038 28.0414 41.4952 26.4618 38.2982 25.4411C36.2873 24.7991 34.2019 24.3782 32.0783 24.1927C34.2092 24.1653 36.3177 23.8858 38.3618 23.3675C41.4547 22.5834 44.4004 21.2525 47.0538 19.4212C48.1975 18.6279 49.3145 17.6997 49.9046 16.4396C50.4947 15.1796 50.4143 13.5148 49.3852 12.577C48.492 11.7634 47.1545 11.6863 45.9529 11.8191C42.6087 12.189 39.6494 13.7658 36.9394 15.8138ZM46.1728 13.8069C47.2761 13.6851 47.8266 13.8626 48.0383 14.0555C48.1225 14.1323 48.2303 14.2946 48.2638 14.6032C48.298 14.9189 48.2378 15.2829 48.0933 15.5915C47.7421 16.3416 47.0112 17.0165 45.9156 17.7767C42.0333 20.4555 37.4755 21.9773 32.772 22.1733C37.0275 18.0511 41.1822 14.359 46.1728 13.8069ZM28.5727 29.7889C31.2999 34.4046 33.4963 38.9428 33.3624 43.7195C33.343 44.42 33.2299 45.0737 33.0274 45.5669C32.8298 46.0482 32.6096 46.2404 32.4304 46.3235L32.4289 46.3241C32.161 46.4486 31.5144 46.4249 30.9002 45.904C30.2813 45.3792 29.8122 44.5506 29.3229 43.3852C27.4883 38.9762 26.8674 34.1691 27.5069 29.4597C27.5697 29.1058 27.6308 28.7538 27.6909 28.4043C27.9661 28.8743 28.2604 29.3365 28.5727 29.7889ZM27.2368 27.3993L29.3721 26.1933L25.6311 22.2348C20.7497 17.0695 15.8741 12.2741 9.75214 11.3122L9.74293 11.3107C9.44152 11.2619 9.19276 11.2479 9.00653 11.2591C9.08068 11.4907 9.23043 11.7893 9.44773 12.105C12.6245 16.711 18.1146 19.3496 23.9867 21.5227L22.7914 24.9588L24.0646 26.7153C24.04 26.7384 24.0155 26.7614 23.9911 26.7846L27.2368 27.3993ZM23.8907 26.8799C20.1262 30.4765 17.4981 35.0992 16.3347 40.1765C16.1393 41.0383 16.0899 41.9431 16.2285 42.6262C16.3638 43.293 16.5944 43.4466 16.736 43.5039C16.872 43.5589 17.1342 43.6031 17.6565 43.2837C18.1925 42.9559 18.7579 42.3735 19.205 41.7101C21.6712 38.0416 22.7068 33.5798 23.5598 28.8016C23.6497 28.1591 23.7599 27.5182 23.8907 26.8799ZM19.8057 24.4466C17.3781 23.7918 14.9094 23.2955 12.4153 22.9611C8.7854 22.4744 5.51057 22.5982 3.41108 24.3605C3.11905 24.6057 2.89921 24.8968 2.79694 25.1291C2.77344 25.1824 2.75995 25.2225 2.75231 25.251C2.77797 25.271 2.8175 25.2982 2.87647 25.3314C3.08223 25.4472 3.38365 25.5564 3.80546 25.6686L3.80781 25.6693C9.06455 27.0747 14.8096 26.6149 19.8057 24.4466ZM2.74336 25.2957C2.74429 25.3038 2.74384 25.3083 2.74338 25.3085C2.74292 25.3087 2.74245 25.3046 2.74336 25.2957ZM26.2256 16.7908C23.1999 13.0907 21.2483 8.8337 21.7731 4.66291C21.8088 4.70199 21.8434 4.74197 21.8765 4.78236C24.5113 8.00146 25.5648 12.204 26.2256 16.7908ZM30.9046 17.9836C33.847 13.7865 35.9861 9.0739 37.2067 4.08428C37.3487 3.50208 37.4081 2.98633 37.3709 2.61526C37.3604 2.51098 37.3455 2.44115 37.3321 2.3961C37.2893 2.40434 37.2274 2.42127 37.1417 2.45434C36.7965 2.5875 36.3644 2.8903 35.9902 3.28226C32.5123 6.92355 31.475 12.2388 30.9046 17.9836ZM37.3113 2.34069C37.3029 2.3316 37.2997 2.32528 37.3003 2.3244C37.3008 2.32351 37.305 2.32806 37.3113 2.34069ZM37.3886 2.38905C37.4058 2.38857 37.4129 2.39073 37.4121 2.39193C37.4114 2.39313 37.4028 2.39337 37.3886 2.38905Z" fill="#26103D"/>
<path d="M25.5102 31.4511C29.4149 31.4511 32.5803 28.2867 32.5803 24.3832C32.5803 20.4797 29.4149 17.3153 25.5102 17.3153C21.6055 17.3153 18.4401 20.4797 18.4401 24.3832C18.4401 28.2867 21.6055 31.4511 25.5102 31.4511Z" fill="white"/>
<path fill-rule="evenodd" clip-rule="evenodd" d="M25.5102 29.4511C28.3109 29.4511 30.5803 27.1815 30.5803 24.3832C30.5803 21.5849 28.3109 19.3153 25.5102 19.3153C22.7094 19.3153 20.4401 21.5849 20.4401 24.3832C20.4401 27.1815 22.7094 29.4511 25.5102 29.4511ZM32.5803 24.3832C32.5803 28.2867 29.4149 31.4511 25.5102 31.4511C21.6055 31.4511 18.4401 28.2867 18.4401 24.3832C18.4401 20.4797 21.6055 17.3153 25.5102 17.3153C29.4149 17.3153 32.5803 20.4797 32.5803 24.3832Z" fill="#26103D"/>
</svg>
