<svg width="33" height="33" viewBox="0 0 33 33" fill="none" xmlns="http://www.w3.org/2000/svg">
<path d="M16.2522 32.9271C25.0888 32.9271 32.2522 25.7637 32.2522 16.9271C32.2522 8.09057 25.0888 0.927124 16.2522 0.927124C7.41566 0.927124 0.25222 8.09057 0.25222 16.9271C0.25222 25.7637 7.41566 32.9271 16.2522 32.9271Z" fill="#FED33D"/>
<path fill-rule="evenodd" clip-rule="evenodd" d="M16.2522 31.9271C24.5365 31.9271 31.2522 25.2114 31.2522 16.9271C31.2522 8.64285 24.5365 1.92712 16.2522 1.92712C7.96795 1.92712 1.25222 8.64285 1.25222 16.9271C1.25222 25.2114 7.96795 31.9271 16.2522 31.9271ZM32.2522 16.9271C32.2522 25.7637 25.0888 32.9271 16.2522 32.9271C7.41566 32.9271 0.25222 25.7637 0.25222 16.9271C0.25222 8.09057 7.41566 0.927124 16.2522 0.927124C25.0888 0.927124 32.2522 8.09057 32.2522 16.9271Z" fill="#26103D"/>
<path d="M24.2124 13.6289C26.0126 9.72583 23.4502 7.16584 19.5471 8.96367C18.0606 4.93057 14.4366 4.93057 12.9501 8.96367C9.04702 7.16347 6.48703 9.72583 8.28486 13.6289C4.25176 15.1154 4.25176 18.7394 8.28486 20.2259C6.48466 24.129 9.04702 26.689 12.9501 24.8912C14.4366 28.9243 18.0606 28.9243 19.5471 24.8912C23.4502 26.6914 26.0102 24.129 24.2124 20.2259C28.2486 18.7402 28.2486 15.1146 24.2124 13.6289Z" fill="#F8DCD8"/>
<path fill-rule="evenodd" clip-rule="evenodd" d="M22.8508 14.1933L23.3043 13.2101C24.1124 11.4579 23.7989 10.353 23.3115 9.86567C22.8237 9.37806 21.7177 9.06483 19.9655 9.87195L18.983 10.3245L18.6088 9.3095C17.9416 7.49909 16.9382 6.93884 16.2486 6.93884C15.5591 6.93884 14.5556 7.49909 13.8884 9.3095L13.5141 10.325L12.5313 9.87174C10.7791 9.06361 9.67417 9.37708 9.18686 9.86455C8.69925 10.3523 8.38602 11.4583 9.19314 13.2105L9.64572 14.1931L8.63069 14.5672C6.82028 15.2345 6.26003 16.2379 6.26003 16.9274C6.26003 17.617 6.82028 18.6204 8.63069 19.2877L9.64623 19.662L9.19293 20.6448C8.3848 22.3969 8.69827 23.5019 9.18574 23.9892C9.67351 24.4768 10.7795 24.79 12.5317 23.9829L13.5143 23.5303L13.8884 24.5453C14.5556 26.3557 15.5591 26.916 16.2486 26.916C16.9382 26.916 17.9416 26.3557 18.6088 24.5453L18.9831 23.5298L19.966 23.9831C21.7181 24.7912 22.823 24.4778 23.3104 23.9903C23.798 23.5025 24.1112 22.3965 23.3041 20.6443L22.8513 19.6613L23.8669 19.2875C25.679 18.6205 26.2395 17.6168 26.2395 16.9274C26.2395 16.2381 25.679 15.2344 23.8669 14.5673L22.8508 14.1933ZM24.2124 13.6289C24.5441 13.751 24.8485 13.8875 25.1257 14.0362C27.9442 15.5475 27.9442 18.3074 25.1257 19.8187C24.8485 19.9673 24.5441 20.1038 24.2124 20.2259C24.3602 20.547 24.4786 20.859 24.5692 21.1602C25.4894 24.2198 23.5406 26.1701 20.4812 25.2485C20.18 25.1578 19.8681 25.0392 19.5471 24.8912C19.4249 25.2228 19.2882 25.5272 19.1394 25.8043C17.6278 28.6199 14.8694 28.6199 13.3578 25.8043C13.209 25.5272 13.0723 25.2228 12.9501 24.8912C12.629 25.039 12.3171 25.1574 12.0159 25.248C8.95619 26.1682 7.00593 24.2194 7.92755 21.16C8.01827 20.8589 8.13681 20.5469 8.28486 20.2259C7.95319 20.1037 7.6488 19.967 7.37168 19.8182C4.55615 18.3066 4.55615 15.5482 7.37169 14.0366C7.6488 13.8878 7.9532 13.7511 8.28486 13.6289C8.13698 13.3078 8.01859 12.9959 7.928 12.6947C7.00783 9.635 8.95661 7.68474 12.016 8.60636C12.3172 8.69708 12.6291 8.81562 12.9501 8.96367C13.0723 8.632 13.209 8.32761 13.3578 8.05049C14.8694 5.23496 17.6278 5.23496 19.1394 8.0505C19.2882 8.32761 19.4249 8.63201 19.5471 8.96367C19.8682 8.81579 20.1801 8.6974 20.4814 8.60681C23.541 7.68664 25.4913 9.63542 24.5697 12.6948C24.4789 12.996 24.3604 13.3079 24.2124 13.6289Z" fill="#26103D"/>
</svg>
