<svg width="14" height="15" viewBox="0 0 14 15" fill="none" xmlns="http://www.w3.org/2000/svg">
<path d="M13 0.5H0.996875C0.446875 0.5 0 0.953125 0 1.50938V13.4906C0 14.0469 0.446875 14.5 0.996875 14.5H13C13.55 14.5 14 14.0469 14 13.4906V1.50938C14 0.953125 13.55 0.5 13 0.5ZM4.23125 12.5H2.15625V5.81875H4.23438V12.5H4.23125ZM3.19375 4.90625C2.52812 4.90625 1.99063 4.36562 1.99063 3.70312C1.99063 3.04063 2.52812 2.5 3.19375 2.5C3.85625 2.5 4.39687 3.04063 4.39687 3.70312C4.39687 4.36875 3.85938 4.90625 3.19375 4.90625ZM12.0094 12.5H9.93437V9.25C9.93437 8.475 9.91875 7.47813 8.85625 7.47813C7.775 7.47813 7.60938 8.32188 7.60938 9.19375V12.5H5.53438V5.81875H7.525V6.73125H7.55312C7.83125 6.20625 8.50938 5.65312 9.51875 5.65312C11.6187 5.65312 12.0094 7.0375 12.0094 8.8375V12.5Z" fill="#1A1A1A"/>
</svg>
