<svg width="16" height="17" viewBox="0 0 16 17" fill="none" xmlns="http://www.w3.org/2000/svg">
<path d="M3.2439 8.29722C3.2439 8.44789 3.30919 8.59856 3.4247 8.70905L6.73943 12.0188C6.85997 12.1343 6.99055 12.1895 7.1362 12.1895C7.4526 12.1895 7.68363 11.9635 7.68363 11.6572C7.68363 11.4964 7.62336 11.3608 7.51789 11.2604L6.38787 10.1153L4.9314 8.78439L6.1016 8.8547H12.1887C12.5201 8.8547 12.7512 8.62367 12.7512 8.29722C12.7512 7.96575 12.5201 7.73472 12.1887 7.73472H6.1016L4.93642 7.80504L6.38787 6.47412L7.51789 5.32903C7.62336 5.22859 7.68363 5.09298 7.68363 4.93227C7.68363 4.62591 7.4526 4.3999 7.1362 4.3999C6.99055 4.3999 6.85495 4.45515 6.72436 4.58071L3.4247 7.88037C3.30919 7.99086 3.2439 8.14153 3.2439 8.29722Z" fill="#1A1A1A"/>
</svg>
