<svg width="28" height="28" viewBox="0 0 28 28" fill="none" xmlns="http://www.w3.org/2000/svg">
<path d="M2.43359 12.9863C2.43359 11.1846 3.33008 9.48828 4.80664 8.49512C4.80664 8.46875 4.80664 8.43359 4.80664 8.40723C4.80664 6.32422 6.51172 4.87402 8.63867 4.87402C9.28906 4.87402 9.95703 5.00586 10.6074 5.30469C11.3896 4.44336 12.5322 3.93359 13.877 3.93359C15.1074 3.93359 16.2324 4.46094 16.9355 5.33105C17.1816 5.27832 17.4277 5.24316 17.6035 5.24316C19.5723 5.24316 21.3301 6.5791 21.7871 8.6709C24.0723 9.12793 25.5664 10.8418 25.5664 13.0654C25.5664 14.1992 25.25 15.1572 24.6787 15.8955C24.7314 16.502 24.7754 17.1787 24.7754 18.1016C24.7754 20.7031 23.7031 23.375 21.5059 23.375C19.9854 23.375 19.0449 21.9248 18.8428 20.4307C18.6143 20.4395 18.3857 20.457 18.1748 20.457C17.0586 20.457 16.083 20.0615 15.4502 19.376C14.7646 19.543 14.0791 19.6221 13.4639 19.6221C11.7764 19.6221 10.3174 19.0596 9.35059 18.1895C8.90234 18.2773 8.42773 18.3213 7.92676 18.3213C4.63086 18.3213 2.43359 16.1943 2.43359 12.9863ZM9.49121 8.16992C9.51758 7.57227 9.64062 7.01855 9.84277 6.51758C9.43848 6.35938 9.02539 6.28906 8.62988 6.28906C7.25 6.28906 6.22168 7.15918 6.22168 8.40723C6.22168 9.53223 7.02148 10.3496 8.32227 10.3496C8.7002 10.3496 9.02539 10.6748 9.02539 11.0615C9.02539 11.4482 8.7002 11.7646 8.32227 11.7646C6.81934 11.7646 5.69434 11.0879 5.1582 10.0068C4.33203 10.7539 3.84863 11.835 3.84863 12.9775C3.84863 15.3418 5.49219 16.915 7.95312 16.915C10.3525 16.915 11.9521 15.5527 11.9521 13.5137C11.9521 12.8457 11.7412 12.3008 11.3721 11.9404C10.9678 11.5713 10.7129 11.457 10.7129 11.0176C10.7129 10.6572 10.9941 10.4111 11.3984 10.4111C11.7061 10.4111 11.8906 10.5078 12.2158 10.7715C12.4971 11.0088 12.7256 11.3076 12.9102 11.6504C14.2461 11.334 14.7559 10.5078 14.7559 9.18945C14.7559 8.80273 15.0723 8.48633 15.459 8.48633C15.8457 8.48633 16.1709 8.80273 16.1709 9.18945C16.1709 11.1406 15.2832 12.4854 13.3057 12.9951C13.332 13.1709 13.3408 13.3555 13.3408 13.54C13.3408 15.3506 12.4795 16.7832 11.0293 17.5918C11.7412 17.9785 12.6816 18.207 13.6133 18.207C13.9912 18.207 14.3955 18.1719 14.7734 18.084C14.7207 17.8555 14.6855 17.6006 14.6855 17.3369C14.6855 13.3115 20.4863 13.8828 20.4863 9.75195C20.4863 7.8623 18.9922 6.67578 17.4189 6.6582C17.1025 6.6582 16.7773 6.70215 16.4873 6.78125C16.3203 6.83398 16.2236 6.8252 16.1533 6.69336C15.793 5.88477 14.8965 5.33984 13.8682 5.33984C12.1631 5.33984 10.9502 6.56152 10.8887 8.23145C10.8711 8.67969 10.5723 8.93457 10.1855 8.93457C9.78125 8.93457 9.47363 8.62695 9.49121 8.16992ZM19.8271 16.792C19.8271 16.4053 20.1436 16.0537 20.5391 16.0889C22.7012 16.2559 24.1514 15.043 24.1514 13.0654C24.1514 11.5098 23.2725 10.3848 21.8926 10.0947C21.6289 14.7881 16.1006 14.1729 16.1006 17.3105C16.1006 18.6729 17.252 19.2178 19.001 19.2178C19.2207 19.2178 19.5547 19.209 19.8008 19.209C19.9238 19.2002 19.9766 19.2617 19.9766 19.3584C19.9766 20.5098 20.416 21.96 21.5059 21.96C22.5605 21.96 23.3691 20.2197 23.3691 18.084C23.3691 17.6885 23.3516 17.3369 23.3252 16.9941C22.5518 17.3896 21.6113 17.5654 20.5391 17.4951C20.1436 17.4688 19.8271 17.1875 19.8271 16.792Z" fill="white"/>
</svg>
