<svg width="28" height="28" viewBox="0 0 28 28" fill="none" xmlns="http://www.w3.org/2000/svg">
<path d="M5.5 12.0137C5.5 8.14648 8.64648 5 12.5137 5C16.3809 5 19.5273 8.14648 19.5273 12.0137C19.5273 13.6133 18.9912 15.0811 18.0859 16.2588L22.3838 20.583C22.5684 20.7676 22.6738 21.0225 22.6738 21.3037C22.6738 21.8926 22.2607 22.3408 21.6631 22.3408C21.3818 22.3408 21.1182 22.2441 20.916 22.042L16.5918 17.709C15.4404 18.5352 14.043 19.0273 12.5137 19.0273C8.64648 19.0273 5.5 15.8809 5.5 12.0137ZM7.00293 12.0137C7.00293 15.0547 9.47266 17.5244 12.5137 17.5244C15.5547 17.5244 18.0244 15.0547 18.0244 12.0137C18.0244 8.97266 15.5547 6.50293 12.5137 6.50293C9.47266 6.50293 7.00293 8.97266 7.00293 12.0137Z" fill="white"/>
</svg>
