<svg width="28" height="28" viewBox="0 0 28 28" fill="none" xmlns="http://www.w3.org/2000/svg">
<path d="M4 14.2461V12.9541C4 10.6426 5.27441 9.40332 7.68262 9.40332H10.7852C13.3955 9.12207 16.6914 8.15527 19.2754 6.62598C19.4951 5.63281 20.2949 5 21.3936 5C22.7031 5 23.5732 5.87012 23.5732 7.1709V19.9678C23.5732 21.2686 22.7031 22.1387 21.3936 22.1387C20.3213 22.1387 19.5303 21.541 19.293 20.5918C17.0957 19.3174 14.6523 18.4648 12.2441 18.0166L12.8594 21.2158C13.0879 22.3848 12.5605 23.1846 11.6992 23.457C10.8467 23.7207 9.59863 23.624 8.87793 22.0156L6.95312 17.7529C5.01953 17.5156 4 16.3027 4 14.2461ZM20.6465 19.9678C20.6465 20.4248 20.9365 20.7236 21.3936 20.7236C21.8506 20.7236 22.1582 20.4248 22.1582 19.9678V7.1709C22.1582 6.71387 21.8506 6.41504 21.3936 6.41504C20.9365 6.41504 20.6465 6.71387 20.6465 7.1709V19.9678ZM10.9697 16.4082C13.9229 16.751 16.7266 17.5684 19.2227 18.9922V8.20801C16.7881 9.59668 13.9492 10.4404 10.9697 10.7832V16.4082ZM7.68262 16.3818H9.5459V10.8184H7.68262C6.07422 10.8184 5.41504 11.4336 5.41504 12.9541V14.2461C5.41504 15.7578 6.07422 16.3818 7.68262 16.3818ZM10.2754 21.7607C10.4775 22.1826 10.8643 22.2793 11.1631 22.1738C11.4443 22.0771 11.6465 21.8223 11.5762 21.4268L10.8643 17.8057C10.8203 17.8057 10.7764 17.7969 10.7324 17.7969H8.4209L10.2754 21.7607Z" fill="white"/>
</svg>
