<svg width="28" height="28" viewBox="0 0 28 28" fill="none" xmlns="http://www.w3.org/2000/svg">
<path d="M4.59528 20.6241C4.17341 20.0616 4.28766 19.5518 4.63923 19.2706C5.12262 18.9014 5.74665 19.1827 6.41462 18.6817C7.17926 18.1104 6.69587 16.6339 8.06696 15.6055C8.63825 15.1749 9.27985 14.9727 9.91266 14.9991C10.0709 14.1554 10.5455 13.4083 11.3629 12.5821C14.1754 9.74325 20.4859 5.44539 21.0045 5.07625C22.5513 3.9952 24.4498 5.87606 23.3424 7.41414C22.9644 7.94149 18.6578 14.2432 15.8365 17.0557C15.0191 17.8819 14.272 18.3477 13.4283 18.4972C13.5601 19.7364 12.98 20.9581 11.7847 21.8458C9.65778 23.4278 6.23005 22.8302 4.59528 20.6241ZM21.6812 6.3243C21.3384 6.57039 16.2935 10.0421 13.2613 12.7315C14.3248 13.1358 15.274 14.0938 15.6783 15.1661C18.3765 12.1602 21.8834 7.045 22.0855 6.74618C22.314 6.42098 21.98 6.10457 21.6812 6.3243ZM12.6461 16.6075C12.7779 16.7833 12.8922 16.9591 12.9888 17.1348C13.5601 17.0645 14.0787 16.7921 14.7379 16.1593C14.606 15.1046 13.3052 13.8038 12.2593 13.6807C11.6617 14.2872 11.3541 14.8321 11.2838 15.3858C11.7759 15.6495 12.2418 16.0626 12.6461 16.6075ZM6.38825 20.4835C7.61872 21.7843 9.66657 21.793 10.9937 20.7472C12.1802 19.8331 12.4791 18.4708 11.6177 17.3546C10.8531 16.3702 9.7193 16.1329 8.90192 16.7833C7.91755 17.5479 8.20758 18.7872 7.35505 19.6309C6.97712 20.0089 6.48493 20.044 6.36188 20.1583C6.28278 20.2374 6.27399 20.3604 6.38825 20.4835Z" fill="white"/>
</svg>
