<svg width="33" height="32" viewBox="0 0 33 32" fill="none" xmlns="http://www.w3.org/2000/svg">
<g clip-path="url(#clip0_2861_45651)">
<path d="M27.9577 0.379197H8.18652V31.625H32.2016V4.62307C30.5423 2.96374 29.607 2.02847 27.9477 0.369141L27.9577 0.379197Z" fill="white"/>
<path fill-rule="evenodd" clip-rule="evenodd" d="M7.80957 0.00219727H27.9579V0.359186L28.2145 0.102597L32.5789 4.46698V32.0022H7.80957V0.00219727ZM27.8017 0.75644L31.8247 4.7794V31.248H8.56381V0.75644H27.8017Z" fill="#1A1A1A"/>
<path d="M27.958 0.381104V4.67526H32.2019L27.958 0.381104Z" fill="white"/>
<path fill-rule="evenodd" clip-rule="evenodd" d="M27.8149 0.032201C27.9564 -0.0259087 28.1189 0.00717228 28.2264 0.115949L32.4703 4.4101C32.5772 4.51831 32.6087 4.68016 32.55 4.82054C32.4914 4.96091 32.3542 5.05232 32.202 5.05232H27.9582C27.7499 5.05232 27.5811 4.88347 27.5811 4.67519V0.381039C27.5811 0.228103 27.6734 0.0903106 27.8149 0.032201ZM28.3353 1.29913V4.29807H31.2991L28.3353 1.29913Z" fill="#1A1A1A"/>
<path d="M18.0301 5.14624H0.380859V10.2047H18.0301V5.14624Z" fill="#81CAFF"/>
<path fill-rule="evenodd" clip-rule="evenodd" d="M0.00390625 4.76904H18.4074V10.5817H0.00390625V4.76904ZM0.758149 5.52329V9.8275H17.6532V5.52329H0.758149Z" fill="#1A1A1A"/>
</g>
<defs>
<clipPath id="clip0_2861_45651">
<rect width="32.5833" height="32" fill="white"/>
</clipPath>
</defs>
</svg>
