<svg width="148" height="44" viewBox="0 0 148 44" fill="none" xmlns="http://www.w3.org/2000/svg">
<path d="M29.1067 9.01562C25.8238 9.01562 22.9867 10.7724 21.4873 13.0761C19.9472 10.4602 17.1911 9.01562 13.7868 9.01562C10.8281 9.01562 8.51799 10.2259 7.1806 11.9829V9.24974H0.25V31.0365H7.1806V19.2062C7.1806 16.3558 8.88272 14.7942 11.5171 14.7942C14.1516 14.7942 15.8537 16.3558 15.8537 19.2062V31.0365H22.7437V19.2062C22.7437 16.3558 24.4458 14.7942 27.0803 14.7942C29.7147 14.7942 31.4168 16.3558 31.4168 19.2062V31.0365H38.3068V18.308C38.3068 12.4515 34.6997 9.01562 29.1067 9.01562Z" fill="white"/>
<path d="M58.7321 12.3343C57.5162 10.4211 55.125 8.9375 51.7611 8.9375C46.2087 8.9375 41.791 13.2324 41.791 20.1042C41.791 26.9759 46.2087 31.3488 51.7208 31.3488C55.0846 31.3488 57.4758 29.8652 58.7321 27.952V31.0365H65.6627V9.24978H58.7321V12.3343ZM53.7876 25.5314C51.1938 25.5314 48.8431 23.5791 48.8431 20.1042C48.8431 16.6292 51.1938 14.7551 53.7876 14.7551C56.422 14.7551 58.7321 16.6683 58.7321 20.1432C58.7321 23.6182 56.422 25.5314 53.7876 25.5314Z" fill="white"/>
<path d="M84.4693 9.01562C81.4298 9.01562 78.998 10.304 77.62 12.139V9.24974H70.6895V31.0365H77.62V19.2062C77.62 16.2387 79.3222 14.599 81.9566 14.599C84.591 14.599 86.2931 16.2387 86.2931 19.2062V31.0365H93.1832V18.308C93.1832 12.4515 89.6976 9.01562 84.4693 9.01562Z" fill="white"/>
<path d="M135.9 8.9375C129.294 8.9375 124.146 13.2324 124.146 20.1432C124.146 27.0541 129.172 31.3488 135.819 31.3488C142.466 31.3488 147.653 27.0541 147.653 20.1432C147.653 13.2324 142.547 8.9375 135.9 8.9375ZM135.819 25.5702C133.306 25.5702 131.199 23.8134 131.199 20.1432C131.199 16.434 133.387 14.7161 135.9 14.7161C138.332 14.7161 140.601 16.434 140.601 20.1432C140.601 23.8134 138.291 25.5702 135.819 25.5702Z" fill="white"/>
<path d="M108.301 31.2316C114.948 31.2316 120.136 26.9369 120.136 20.0261C120.136 13.1152 115.029 8.82031 108.382 8.82031C101.776 8.82031 96.6289 13.1152 96.6289 20.0261C96.6289 26.9369 101.655 31.2316 108.301 31.2316ZM108.382 14.5989C110.814 14.5989 113.084 16.3168 113.084 20.0261C113.084 23.6962 110.773 25.4531 108.301 25.4531C105.788 25.4531 103.681 23.6962 103.681 20.0261C103.681 16.3168 105.87 14.5989 108.382 14.5989Z" fill="#F5C05C"/>
<path d="M108.626 38.2201C106.195 38.2201 103.925 36.5021 103.925 32.793H96.873C96.8731 39.7037 101.98 43.9986 108.626 43.9986C115.232 43.9986 120.38 39.7037 120.38 32.793H113.328C113.328 36.5021 111.139 38.2201 108.626 38.2201Z" fill="#F5C05C"/>
<path d="M122.282 0C121.065 4.64247 119.155 9.60951 113.189 8.69151C114.727 4.39702 117.724 1.38619 122.282 0Z" fill="#98C28F"/>
</svg>
