<svg width="334" height="178" viewBox="0 0 334 178" fill="none" xmlns="http://www.w3.org/2000/svg">
<path d="M333.675 172.109C223.069 172.021 110.919 172.021 0.324646 172.109C0.14701 172.109 0 171.898 0 171.642C0 171.387 0.14701 171.175 0.324646 171.175C110.913 171.087 223.069 171.087 333.675 171.175C333.853 171.175 334 171.387 334 171.642C334 171.898 333.853 172.109 333.675 172.109Z" fill="#1A1A1A"/>
<path d="M168.414 47.386C169.62 52.5712 169.397 58.9696 169.397 58.9696L164.706 60.7926C164.706 60.7926 161.83 72.6297 179.956 69.0019C183.477 68.2957 193.673 60.5451 193.673 60.5451L185.612 58.2392C185.612 58.2392 184.84 46.5107 184.532 40.6797C180.293 42.6536 173.498 45.7924 168.414 47.386Z" fill="white"/>
<path d="M173.774 70.0149C170.276 70.0149 167.696 69.1638 166.074 67.4737C163.457 64.7453 164.355 60.8821 164.397 60.7191C164.421 60.6165 164.494 60.5319 164.59 60.4957L169.083 58.7512C169.107 57.6043 169.161 52.0208 168.1 47.4634C168.063 47.3004 168.154 47.1374 168.317 47.0831C173.575 45.4412 180.883 42.0307 184.392 40.3949C184.489 40.3527 184.603 40.3587 184.694 40.413C184.784 40.4674 184.845 40.5639 184.851 40.6726C185.128 45.9905 185.809 56.3488 185.918 58.0027L193.763 60.2482C193.877 60.2845 193.968 60.375 193.992 60.4957C194.016 60.6165 193.968 60.7372 193.871 60.8096C193.455 61.1295 183.578 68.6145 180.027 69.3208C177.699 69.7856 175.613 70.021 173.78 70.021L173.774 70.0149ZM164.988 61.033C164.856 61.7633 164.452 64.86 166.544 67.0391C168.859 69.4475 173.352 70.0029 179.9 68.693C182.861 68.1014 190.862 62.2523 192.973 60.6828L185.532 58.552C185.399 58.5158 185.309 58.4011 185.303 58.2623C185.297 58.1476 184.567 47.0771 184.248 41.1736C180.648 42.8517 173.864 45.9845 168.799 47.6022C169.927 52.715 169.728 58.9203 169.728 58.9806C169.728 59.1074 169.643 59.2221 169.523 59.2704L164.994 61.033H164.988Z" fill="#1A1A1A"/>
<path d="M157.308 14.7453C155.649 15.1437 153.997 13.4656 153.967 11.691C153.937 9.91632 155.179 8.31067 156.705 7.53199C158.23 6.75331 159.991 6.66277 161.709 6.41528C161.064 4.69494 161.878 2.62449 163.307 1.52589C164.736 0.421252 166.618 0.161692 168.378 0.378998C169.53 0.517832 170.694 0.867936 171.604 1.62247C172.515 2.37097 173.136 3.58426 173.088 4.87603C174.625 2.93838 177.104 1.63454 179.437 2.19592C181.777 2.75729 183.538 5.61245 183.712 7.58028C184.852 6.1859 186.335 5.03297 188.09 5.12955C191.563 5.31667 192.347 8.27445 190.785 12.0773C192.637 11.1658 195.392 11.9626 196.273 14.6548C196.93 16.6588 196.194 19.846 194.801 21.4154C194.56 21.6871 194.21 21.9527 193.782 22.1941C193.24 25.17 192.564 28.2847 191.539 32.2143C190.797 35.0514 189.519 38.1963 188.018 40.7859C187.312 42.0052 186.763 42.5907 185.34 43.2547C185.262 42.0233 183.978 41.4136 183.779 40.1883C183.531 38.6792 184.502 37.3572 183.598 36.0172C181.867 33.4759 180.691 30.6872 180.143 27.826C179.69 25.4778 179.672 23.003 180.782 20.8359C181.174 20.0633 181.741 19.339 182.422 18.7172C182.114 18.1075 181.879 17.4858 181.686 16.8761C180.667 18.6267 179.926 19.8279 177.375 20.6669C175.512 21.2766 173.305 20.5341 172.678 18.7595C172.28 20.5522 169.5 23.0814 167.745 23.2625C165.997 23.4376 165.339 22.6348 164.634 20.9506C163.078 22.3269 161.914 23.7334 160.335 24.337C157.911 25.2545 154.914 23.7394 154.112 21.1861C153.31 18.6327 154.853 15.5361 157.32 14.7514L157.308 14.7453Z" fill="#FFBC01"/>
<path d="M185.333 43.5686C185.279 43.5686 185.218 43.5565 185.17 43.5263C185.08 43.472 185.019 43.3754 185.013 43.2728C184.977 42.7295 184.652 42.307 184.302 41.8603C183.94 41.3895 183.566 40.9066 183.458 40.2365C183.349 39.5846 183.452 38.987 183.548 38.4076C183.681 37.5987 183.801 36.8985 183.325 36.1983C181.564 33.6027 180.383 30.8079 179.816 27.8863C179.261 25.007 179.478 22.6589 180.485 20.6911C180.859 19.9607 181.389 19.2544 182.023 18.6448C181.872 18.3249 181.733 17.9929 181.601 17.6367C180.75 19.0552 179.858 20.184 177.464 20.9687C175.601 21.5784 173.635 20.9567 172.713 19.5683C171.856 21.3732 169.438 23.4074 167.768 23.5764C165.995 23.7575 165.205 22.9909 164.512 21.4818C164.247 21.7233 163.993 21.9647 163.746 22.2001C162.685 23.2082 161.69 24.1559 160.436 24.6328C159.23 25.0915 157.807 25.001 156.546 24.3853C155.22 23.7394 154.219 22.6046 153.797 21.2766C153.073 18.9707 154.116 16.2967 156.046 15.0109C155.714 14.9083 155.389 14.7333 155.081 14.4979C154.219 13.8278 153.67 12.7594 153.652 11.7031C153.616 9.67486 155.087 8.00885 156.565 7.25432C157.861 6.59636 159.314 6.40924 160.719 6.23419C160.912 6.21004 161.105 6.18589 161.298 6.16175C160.87 4.48366 161.612 2.44944 163.119 1.28444C164.464 0.246197 166.345 -0.182379 168.425 0.0711445C169.83 0.246197 170.97 0.686845 171.814 1.38102C172.652 2.06915 173.201 3.04099 173.364 4.08527C175.106 2.25024 177.452 1.39913 179.52 1.8941C181.691 2.41322 183.446 4.78548 183.928 6.868C185.255 5.43136 186.66 4.74323 188.113 4.8217C189.572 4.90017 190.675 5.46154 191.297 6.44546C192.062 7.65875 192.074 9.45152 191.339 11.5461C192.213 11.3167 193.184 11.3831 194.058 11.7513C195.252 12.2584 196.151 13.2544 196.579 14.5703C197.26 16.6528 196.543 19.9546 195.041 21.6448C194.8 21.9164 194.474 22.17 194.07 22.4114C193.491 25.5744 192.786 28.7254 191.851 32.3049C191.092 35.2144 189.795 38.3653 188.294 40.9549C187.588 42.1742 187.009 42.8382 185.472 43.5565C185.429 43.5746 185.381 43.5867 185.339 43.5867L185.333 43.5686ZM181.673 16.5502C181.673 16.5502 181.697 16.5502 181.709 16.5502C181.836 16.5623 181.938 16.6528 181.98 16.7735C182.191 17.4436 182.427 18.0291 182.698 18.5723C182.764 18.6991 182.734 18.856 182.626 18.9526C181.968 19.5502 181.426 20.2504 181.052 20.9808C180.117 22.8158 179.918 25.0312 180.443 27.7656C180.992 30.6026 182.137 33.319 183.85 35.8361C184.465 36.7476 184.32 37.6409 184.175 38.5102C184.085 39.0414 183.994 39.5846 184.085 40.1339C184.169 40.641 184.477 41.0454 184.808 41.468C185.116 41.8603 185.43 42.2708 185.574 42.7778C186.684 42.1983 187.148 41.6309 187.739 40.6229C189.21 38.0816 190.483 34.991 191.23 32.1359C192.171 28.5141 192.882 25.339 193.467 22.1398C193.485 22.0432 193.54 21.9647 193.624 21.9164C194.022 21.6931 194.348 21.4456 194.565 21.2042C195.909 19.6891 196.579 16.6166 195.97 14.7574C195.602 13.6226 194.83 12.7594 193.811 12.3308C192.864 11.9324 191.785 11.9445 190.929 12.367C190.808 12.4274 190.669 12.4033 190.567 12.3127C190.47 12.2222 190.44 12.0773 190.489 11.9566C191.387 9.77145 191.477 7.93642 190.748 6.77745C190.235 5.96255 189.337 5.51587 188.071 5.44947C186.666 5.371 185.285 6.15571 183.958 7.78551C183.874 7.88813 183.741 7.92434 183.615 7.88813C183.488 7.85191 183.403 7.74326 183.391 7.61046C183.235 5.84786 181.625 3.04703 179.357 2.50377C177.319 2.01483 174.956 3.02289 173.334 5.06918C173.249 5.17784 173.104 5.22009 172.972 5.1718C172.845 5.12351 172.761 4.99675 172.761 4.85791C172.803 3.7412 172.278 2.58827 171.398 1.85788C170.65 1.23615 169.619 0.843789 168.335 0.686845C166.423 0.45143 164.711 0.837752 163.499 1.77338C162.088 2.86594 161.443 4.80962 162.003 6.30058C162.04 6.39113 162.028 6.49375 161.979 6.57825C161.931 6.66276 161.847 6.71709 161.75 6.7352C161.431 6.78349 161.111 6.8197 160.792 6.86196C159.381 7.04305 158.042 7.20603 156.848 7.81569C155.552 8.47968 154.255 9.92839 154.285 11.6849C154.303 12.5542 154.756 13.4355 155.467 13.9848C156.022 14.4133 156.649 14.5703 157.234 14.4315C157.403 14.3892 157.572 14.4918 157.614 14.6548C157.662 14.8238 157.566 14.9928 157.403 15.0472C155.111 15.7715 153.652 18.6991 154.4 21.0774C154.768 22.2424 155.648 23.2323 156.818 23.8058C157.927 24.343 159.157 24.4275 160.201 24.0291C161.334 23.6006 162.245 22.7313 163.3 21.7293C163.65 21.3973 164.017 21.0472 164.409 20.7031C164.488 20.6367 164.59 20.6066 164.693 20.6307C164.795 20.6549 164.874 20.7213 164.916 20.8178C165.585 22.4114 166.146 23.0935 167.696 22.9305C169.33 22.7676 171.977 20.341 172.345 18.681C172.375 18.5422 172.495 18.4395 172.64 18.4335C172.785 18.4214 172.912 18.512 172.96 18.6448C173.551 20.3168 175.655 20.8782 177.259 20.353C179.749 19.5381 180.437 18.349 181.396 16.7071C181.456 16.6105 181.558 16.5502 181.673 16.5502Z" fill="#1A1A1A"/>
<path d="M159.997 24.7005C159.997 24.61 159.997 24.5194 159.997 24.4228C160.105 24.3927 160.208 24.3564 160.316 24.3202C161.902 23.7166 163.066 22.3162 164.615 20.9339C165.321 22.6119 165.978 23.4208 167.727 23.2458C169.476 23.0707 172.261 20.5355 172.659 18.7427C173.286 20.5174 175.499 21.2598 177.357 20.6502C179.907 19.8111 180.649 18.6099 181.668 16.8594C182.223 18.6099 183.127 20.4751 185.039 21.8453C185.738 22.3464 186.498 22.6904 187.282 22.9017C187.312 23.2458 187.342 23.5778 187.378 23.8977C187.511 25.0748 187.818 27.6402 187.547 30.2297C189.531 28.5818 191.177 28.8595 192.407 30.103C193.637 31.3464 193.541 33.3203 192.335 34.5517C191.129 35.7771 189.012 36.2479 187.149 35.8495C186.667 38.9884 185.949 45.2721 183.766 48.0488C181.451 51.0006 177.357 52.896 173.118 52.9624C168.885 53.0348 164.621 51.2782 162.035 48.405C159.104 45.1393 158.447 40.8234 158.694 36.7791C158.941 32.7348 159.978 28.7448 159.991 24.6884L159.997 24.7005Z" fill="white"/>
<path d="M172.876 53.2973C168.625 53.2973 164.404 51.5226 161.805 48.6373C159.231 45.77 158.079 41.7801 158.387 36.776C158.495 35.0013 158.76 33.2146 159.014 31.4822C159.339 29.2608 159.677 26.967 159.683 24.7034C159.683 24.6129 159.683 24.5163 159.683 24.4257C159.683 24.2869 159.779 24.1601 159.912 24.1239C160.009 24.0937 160.111 24.0636 160.208 24.0273C161.341 23.5988 162.252 22.7295 163.307 21.7275C163.657 21.3955 164.024 21.0454 164.416 20.7014C164.495 20.635 164.597 20.6048 164.7 20.6289C164.802 20.6531 164.881 20.7195 164.923 20.816C165.592 22.4096 166.147 23.0917 167.703 22.9287C169.337 22.7658 171.984 20.3392 172.352 18.6792C172.382 18.5404 172.502 18.4378 172.647 18.4317C172.792 18.4196 172.919 18.5102 172.967 18.643C173.558 20.315 175.662 20.8764 177.266 20.3513C179.756 19.5364 180.444 18.3472 181.403 16.7053C181.469 16.5967 181.589 16.5363 181.716 16.5484C181.843 16.5605 181.945 16.651 181.987 16.7717C182.428 18.154 183.242 20.1641 185.244 21.5947C185.877 22.0474 186.594 22.3855 187.384 22.6028C187.511 22.639 187.607 22.7537 187.619 22.8865C187.649 23.2728 187.68 23.5867 187.716 23.8704V23.9489C187.848 25.0535 188.102 27.2386 187.945 29.5566C189.651 28.4157 191.304 28.5244 192.654 29.8946C193.987 31.2407 193.951 33.3957 192.582 34.79C191.412 35.9852 189.38 36.5466 187.438 36.2387C187.402 36.4681 187.366 36.7156 187.33 36.9752C186.817 40.4521 186.052 45.7036 184.044 48.263C181.662 51.2993 177.489 53.2309 173.148 53.2973C173.063 53.2973 172.979 53.2973 172.894 53.2973H172.876ZM160.316 24.6672C160.316 24.6672 160.316 24.6974 160.316 24.7094C160.31 27.0213 159.966 29.3393 159.641 31.5787C159.388 33.293 159.128 35.0677 159.02 36.8182C158.724 41.6473 159.822 45.4803 162.276 48.2087C164.802 51.0216 168.957 52.7238 173.111 52.6574C177.266 52.591 181.252 50.75 183.513 47.8646C185.412 45.438 186.202 40.0839 186.673 36.8786C186.727 36.4923 186.781 36.1361 186.829 35.8162C186.841 35.7317 186.89 35.6532 186.962 35.5989C187.034 35.5506 187.125 35.5325 187.209 35.5506C189.042 35.9369 191.008 35.454 192.099 34.3373C193.221 33.1904 193.257 31.4339 192.178 30.3413C190.906 29.0556 189.416 29.1039 187.752 30.4862C187.649 30.5707 187.511 30.5827 187.396 30.5224C187.282 30.462 187.215 30.3353 187.227 30.2085C187.493 27.7095 187.209 25.2225 187.071 24.0213V23.9428C187.034 23.7074 187.01 23.4539 186.986 23.1581C186.208 22.9167 185.491 22.5666 184.858 22.1138C183.012 20.7919 182.108 19.0353 181.595 17.6289C180.745 19.0414 179.853 20.1762 177.459 20.9609C175.596 21.5706 173.63 20.9488 172.707 19.5605C171.851 21.3653 169.433 23.3996 167.763 23.5686C165.99 23.7497 165.2 22.9831 164.507 21.474C164.242 21.7155 163.988 21.9569 163.741 22.1923C162.68 23.2004 161.685 24.1481 160.431 24.6249C160.394 24.637 160.352 24.6551 160.316 24.6672Z" fill="#1A1A1A"/>
<path d="M163.751 30.5772C163.697 30.0762 164.077 29.6235 164.601 29.5692C165.126 29.5088 165.602 29.8649 165.657 30.366C165.711 30.867 165.331 31.3197 164.806 31.374C164.282 31.4344 163.806 31.0782 163.751 30.5772Z" fill="#1A1A1A"/>
<path d="M177.115 31.3029C177.06 30.8019 177.44 30.3492 177.965 30.2949C178.489 30.2405 178.966 30.5906 179.02 31.0916C179.074 31.5927 178.694 32.0454 178.17 32.0997C177.645 32.1601 177.169 31.8039 177.115 31.3029Z" fill="#1A1A1A"/>
<path d="M173.14 46.9719C172.73 46.9719 172.314 46.9176 171.916 46.8149C171.748 46.7667 171.645 46.5916 171.687 46.4226C171.729 46.2536 171.91 46.151 172.079 46.1932C173.653 46.6097 175.42 46.0604 176.475 44.823C176.589 44.6902 176.794 44.6721 176.927 44.7868C177.06 44.9014 177.078 45.1067 176.963 45.2395C176.023 46.3441 174.582 46.9719 173.14 46.9719Z" fill="#1A1A1A"/>
<path d="M170.867 41.9514C170.234 41.9514 169.559 41.8247 168.853 41.5711C168.479 41.4383 168.057 41.2512 167.756 40.9011C167.364 40.4484 167.225 39.7844 167.376 39.0782C167.484 38.5771 167.708 38.1244 167.919 37.6898L168.015 37.4906C169.167 35.1304 169.77 32.4926 169.752 29.8668C169.752 29.6917 169.89 29.5469 170.071 29.5469C170.246 29.5469 170.391 29.6917 170.391 29.8668C170.403 32.5892 169.782 35.3296 168.588 37.7743L168.491 37.9735C168.286 38.39 168.087 38.7884 167.997 39.211C167.888 39.712 167.979 40.1888 168.232 40.4846C168.443 40.7261 168.769 40.8649 169.064 40.9736C169.927 41.2814 170.723 41.384 171.44 41.2754C172.254 41.1486 172.978 40.72 173.37 40.1285C173.466 39.9836 173.665 39.9413 173.816 40.044C173.961 40.1405 174.003 40.3397 173.9 40.4906C173.4 41.2391 172.538 41.7583 171.537 41.9092C171.319 41.9454 171.09 41.9575 170.861 41.9575L170.867 41.9514Z" fill="#1A1A1A"/>
<path d="M187.335 32.6231C187.335 32.6231 187.305 32.6231 187.293 32.6231C187.118 32.5989 186.997 32.442 187.015 32.2609C187.16 31.1563 187.214 30.5647 187.311 29.5023C187.329 29.3273 187.48 29.1945 187.661 29.2126C187.836 29.2307 187.968 29.3876 187.95 29.5627C187.854 30.6372 187.799 31.2287 187.649 32.3454C187.624 32.5084 187.492 32.6231 187.329 32.6231H187.335Z" fill="#1A1A1A"/>
<path d="M156.57 22.0066C156.57 22.0066 156.516 21.9946 156.492 21.9765C155.588 21.0469 155.256 19.5921 155.666 18.3607C155.684 18.3064 155.744 18.2762 155.799 18.2943C155.853 18.3124 155.883 18.3728 155.865 18.4271C155.479 19.5861 155.787 20.9503 156.637 21.8256C156.679 21.8678 156.679 21.9342 156.637 21.9765C156.619 21.9946 156.589 22.0066 156.564 22.0066H156.57Z" fill="#1A1A1A"/>
<path d="M191.913 20.7578C191.913 20.7578 191.852 20.7458 191.834 20.7216C191.798 20.6794 191.798 20.6069 191.846 20.5707C193.372 19.2246 193.969 16.9369 193.3 15.0113C193.282 14.957 193.312 14.8966 193.366 14.8725C193.42 14.8543 193.481 14.8845 193.505 14.9389C194.204 16.9429 193.583 19.3212 191.991 20.7276C191.973 20.7458 191.943 20.7518 191.919 20.7518L191.913 20.7578Z" fill="#1A1A1A"/>
<path d="M108.266 87.5149C106.282 77.6576 105.245 60.08 102.489 50.265C99.9026 47.7056 97.2194 43.613 96.1762 39.8947C95.7541 38.3796 95.7662 37.7639 96.7792 36.7498C97.5148 36.0073 98.8112 36.2548 99.6313 36.7618C99.2574 35.8081 98.353 34.9449 99.5348 33.9791C100.065 33.5445 100.819 33.3151 101.398 33.6894C101.097 31.7638 103.249 30.635 104.443 32.4882C103.533 30.1099 102.7 27.9791 101.754 25.7818C101.169 24.4237 100.608 22.7939 101.458 22.2446C102.55 21.5383 103.647 23.0595 104.859 25.3472C106.921 29.2587 107.603 30.5626 109.888 34.0878C112.035 37.4077 113.771 43.5164 112.101 45.7619C112.204 49.7459 121.315 74.6757 124.872 80.1868C126.169 82.1969 124.48 83.5008 123.594 85.7281C122.527 88.4143 118.384 97.8007 111.993 93.0864C110.184 91.7523 108.381 88.1004 108.26 87.5088L108.266 87.5149Z" fill="white"/>
<path d="M115.484 94.715C114.272 94.715 113.041 94.2562 111.811 93.3508C109.912 91.9503 108.091 88.2441 107.958 87.5801C107.132 83.4814 106.475 78.1031 105.782 72.4049C104.811 64.4128 103.804 56.1492 102.212 50.4328C99.8481 48.0787 96.99 43.9559 95.8745 39.984C95.4162 38.3603 95.4524 37.6359 96.5558 36.5252C97.1648 35.9095 98.1115 35.8492 98.9617 36.1087C98.606 35.4085 98.3045 34.5695 99.3356 33.7304C99.7697 33.3803 100.427 33.0845 101.06 33.2113C101.102 32.3602 101.579 31.6298 102.326 31.3401C102.712 31.1892 103.201 31.165 103.683 31.3763C103.008 29.6258 102.278 27.7847 101.47 25.9074C100.795 24.344 100.252 22.6478 101.295 21.9718C101.627 21.7544 101.983 21.6941 102.344 21.7907C103.177 22.008 103.991 22.9919 105.148 25.1951L105.197 25.2796C107.223 29.1247 107.91 30.4165 110.165 33.9115C112.252 37.1409 114.139 43.3402 112.438 45.8513C112.686 49.8956 121.531 74.3968 125.155 80.0045C126.193 81.6102 125.487 82.8597 124.745 84.1817C124.456 84.7008 124.148 85.232 123.913 85.8416C122.804 88.6425 120.404 93.4956 116.84 94.5158C116.394 94.6425 115.948 94.7089 115.496 94.7089L115.484 94.715ZM98.0271 36.6097C97.6352 36.6097 97.2673 36.7184 97.0081 36.9779C96.1036 37.8894 96.0855 38.3723 96.4895 39.809C97.5809 43.7024 100.409 47.7527 102.718 50.0344C102.761 50.0706 102.785 50.125 102.803 50.1733C104.425 55.9379 105.438 64.268 106.415 72.3204C107.108 78.0005 107.759 83.3667 108.579 87.4412C108.688 87.9724 110.449 91.5459 112.185 92.8256C113.711 93.9483 115.212 94.3105 116.647 93.9001C119.946 92.9524 122.231 88.2984 123.298 85.6062C123.558 84.9603 123.883 84.3808 124.173 83.8678C124.902 82.57 125.433 81.6343 124.607 80.3547C121.121 74.9582 111.89 50.0646 111.781 45.7607C111.781 45.6883 111.799 45.6219 111.842 45.5615C113.349 43.5394 111.854 37.7204 109.616 34.2556C107.343 30.7425 106.662 29.4386 104.624 25.5754L104.576 25.4909C103.93 24.2655 102.978 22.6176 102.176 22.4064C101.989 22.3581 101.814 22.3883 101.633 22.509C100.903 22.9798 101.766 24.9899 102.049 25.6539C103.05 27.9839 103.936 30.2596 104.744 32.3723C104.805 32.5232 104.738 32.6982 104.588 32.7707C104.443 32.8431 104.262 32.7948 104.172 32.662C103.737 31.9859 103.128 31.7143 102.543 31.9377C102.043 32.1308 101.567 32.7405 101.711 33.6338C101.729 33.7606 101.675 33.8813 101.573 33.9538C101.47 34.0202 101.331 34.0262 101.223 33.9538C100.771 33.664 100.15 33.8813 99.7336 34.2254C99.0401 34.7928 99.221 35.2274 99.625 36.0182C99.7275 36.2174 99.8361 36.4286 99.9205 36.646C99.9687 36.7727 99.9325 36.9176 99.83 37.0081C99.7215 37.0987 99.5768 37.1047 99.4562 37.0383C99.0341 36.7787 98.5035 36.6097 98.0151 36.6097H98.0271Z" fill="#1A1A1A"/>
<path d="M101.212 42.5212C100.923 42.5212 100.615 42.4306 100.338 42.2495C99.9581 42.002 99.6868 41.6338 99.4456 41.3139L98.3361 39.8229C98.2336 39.6781 98.2577 39.4789 98.4024 39.3763C98.5411 39.2736 98.7461 39.2978 98.8486 39.4427L99.9581 40.9336C100.175 41.2234 100.398 41.5252 100.688 41.7123C100.959 41.8873 101.273 41.9296 101.49 41.8209C101.749 41.6821 101.858 41.332 101.845 41.0604C101.827 40.6982 101.659 40.3481 101.49 40.0161C100.857 38.7787 100.676 38.5674 100.151 37.9275C99.9521 37.6921 99.7109 37.3903 99.3792 36.9678C99.2707 36.8289 99.2948 36.6297 99.4335 36.5211C99.5722 36.4124 99.7712 36.4366 99.8797 36.5754C100.205 36.9919 100.447 37.2877 100.639 37.5231C101.182 38.1811 101.387 38.4286 102.05 39.7264C102.243 40.1006 102.454 40.5473 102.473 41.0362C102.497 41.6278 102.225 42.159 101.773 42.3944C101.598 42.4849 101.405 42.5272 101.2 42.5272L101.212 42.5212Z" fill="#1A1A1A"/>
<path d="M103.907 41.8598C103.503 41.8598 103.13 41.6485 102.804 41.4252C102.49 41.2139 102.183 40.9906 101.881 40.7612C101.743 40.6526 101.713 40.4534 101.821 40.3145C101.93 40.1757 102.129 40.1455 102.267 40.2542C102.557 40.4775 102.858 40.6888 103.16 40.894C103.455 41.0932 103.763 41.2683 104.028 41.2019C104.354 41.1173 104.523 40.6526 104.523 40.2421C104.523 39.6022 103.944 38.0026 101.218 33.9825L101.14 33.8678C101.043 33.7229 101.079 33.5237 101.224 33.4211C101.369 33.3245 101.568 33.3607 101.67 33.5056L101.749 33.6143C104.046 36.9946 105.162 39.1556 105.168 40.23C105.168 40.888 104.872 41.6365 104.197 41.8115C104.1 41.8357 104.004 41.8477 103.914 41.8477L103.907 41.8598Z" fill="#1A1A1A"/>
<path d="M105.678 44.7053C105.54 44.7053 105.413 44.6147 105.371 44.4699C104.882 42.7375 105.913 41.3008 106.667 40.2445C106.969 39.8219 107.385 39.2424 107.294 39.0915C107.005 38.6026 105.401 38.1197 104.635 37.8843C104.201 37.7515 104.008 37.6911 103.899 37.6247C103.091 37.1539 102.826 36.6106 102.748 36.2364C102.681 35.9104 102.73 35.5845 102.886 35.3732C103.097 35.0774 103.809 34.4859 104.279 34.4376C105.226 34.335 107.481 34.9265 108.832 35.2766C109.061 35.337 109.254 35.3853 109.405 35.4275C109.99 35.5724 111.847 36.7012 111.907 37.5342C111.919 37.7092 111.786 37.8662 111.612 37.8782C111.437 37.8903 111.28 37.7575 111.268 37.5825C111.244 37.2384 109.881 36.2062 109.248 36.0493C109.091 36.013 108.892 35.9587 108.669 35.8983C107.451 35.5784 105.172 34.9869 104.346 35.0774C104.147 35.1016 103.586 35.506 103.405 35.7535C103.375 35.8018 103.339 35.9346 103.375 36.1096C103.417 36.3088 103.586 36.7012 104.219 37.0754C104.279 37.1056 104.569 37.1962 104.822 37.2746C106.136 37.673 107.457 38.1197 107.843 38.7656C108.15 39.2787 107.728 39.8702 107.192 40.6187C106.474 41.6207 105.588 42.8642 105.992 44.2948C106.04 44.4638 105.944 44.6449 105.769 44.6872C105.739 44.6932 105.708 44.6992 105.684 44.6992L105.678 44.7053Z" fill="#1A1A1A"/>
<path d="M105.793 35.2098C105.661 35.2098 105.534 35.1253 105.492 34.9865C105.377 34.6303 104.937 33.8879 104.581 33.2903C104.394 32.9764 104.219 32.6806 104.099 32.4573C104.014 32.3003 104.075 32.1072 104.231 32.0226C104.388 31.9381 104.581 31.9985 104.666 32.1554C104.78 32.3667 104.949 32.6565 105.136 32.9643C105.528 33.6223 105.968 34.3647 106.107 34.7933C106.161 34.9623 106.071 35.1434 105.902 35.1977C105.872 35.2098 105.835 35.2158 105.805 35.2158L105.793 35.2098Z" fill="#1A1A1A"/>
<path d="M105.377 41.0106C105.208 41.0106 105.045 40.9744 104.9 40.902C104.744 40.8235 104.677 40.6303 104.756 40.4734C104.834 40.3164 105.027 40.25 105.184 40.3285C105.347 40.407 105.654 40.3768 105.895 40.1655C106.257 39.8396 106.317 39.242 106.058 38.5237C105.998 38.3546 106.082 38.1736 106.251 38.1132C106.42 38.0528 106.601 38.1373 106.661 38.3064C107.156 39.6947 106.589 40.4009 106.323 40.6364C106.058 40.8778 105.714 41.0046 105.389 41.0046L105.377 41.0106Z" fill="#1A1A1A"/>
<path d="M225.786 101.625C223.266 88.3689 223.248 74.1414 212.581 65.2319C207.461 60.9522 195.323 59.1051 188.208 58.6523C187.774 65.5458 181.039 67.1876 176.727 66.91C169.528 66.4452 168.249 65.0327 166.416 59.5578C164.8 60.2037 155.08 60.6926 148.767 66.3365C137.045 76.8155 122.718 75.8437 123.707 76.4895C124.599 77.069 121.397 91.6949 112.461 93.4937C107.764 94.4354 133.933 98.3167 151.878 93.5601C151.203 102.959 154.58 130.381 156.527 140.939C175.244 154.007 213.738 139.231 213.738 139.231C213.738 139.231 210.796 130.556 210.796 124.013C210.796 120.766 218.4 127.955 219.907 128.22C220.407 128.311 221.975 127.194 222.174 126.723C223.44 123.76 228.108 113.812 225.792 101.619L225.786 101.625Z" fill="#1A1A1A"/>
<path d="M177.638 146.65C176.155 146.65 174.726 146.601 173.339 146.499C166.381 145.992 160.658 144.211 156.341 141.199C156.275 141.151 156.226 141.078 156.208 140.994C154.255 130.4 150.998 103.635 151.529 93.977C135.393 98.1058 113.095 95.5223 111.726 94.0917C111.599 93.9589 111.557 93.7959 111.605 93.639C111.696 93.3493 112.058 93.2406 112.395 93.1742C116.894 92.2748 119.728 88.0916 121.319 84.7415C123.122 80.9447 123.719 77.2746 123.496 76.7253C123.315 76.5805 123.339 76.3994 123.352 76.3451C123.424 76.0251 123.683 75.9949 125.106 75.832C129.05 75.3732 139.53 74.1599 148.556 66.0954C153.555 61.6226 160.52 60.367 164.264 59.697C165.223 59.5219 165.983 59.3891 166.302 59.2563C166.387 59.2262 166.477 59.2262 166.555 59.2624C166.634 59.2986 166.694 59.365 166.724 59.4495C168.521 64.8218 169.661 66.1256 176.752 66.5844C177.946 66.6629 181.021 66.681 183.771 65.184C186.315 63.8017 187.702 61.5924 187.889 58.6286C187.889 58.5441 187.931 58.4656 187.998 58.4113C188.064 58.3569 188.148 58.3268 188.227 58.3328C196.518 58.864 207.926 60.9284 212.78 64.9908C221.536 72.3068 223.224 83.3652 224.852 94.0555C225.232 96.5304 225.618 99.0898 226.094 101.571C228.325 113.305 224.201 122.824 222.651 126.41C222.579 126.573 222.519 126.724 222.458 126.857C222.217 127.418 220.523 128.661 219.841 128.541C219.293 128.444 218.267 127.714 216.645 126.531C214.915 125.269 212.015 123.15 211.273 123.537C211.164 123.591 211.104 123.754 211.104 124.02C211.104 130.43 213.998 139.044 214.028 139.134C214.083 139.297 213.998 139.472 213.842 139.539C213.745 139.575 204.049 143.269 192.194 145.31C186.96 146.209 182.082 146.662 177.626 146.662L177.638 146.65ZM156.817 140.746C166.399 147.35 181.274 146.529 192.086 144.664C202.753 142.829 211.653 139.654 213.335 139.032C212.823 137.45 210.471 129.851 210.471 124.008C210.471 123.356 210.748 123.072 210.989 122.957C212.002 122.438 214.131 123.893 217.031 126.006C218.261 126.899 219.528 127.828 219.962 127.901C220.306 127.949 221.717 126.977 221.879 126.591C221.94 126.458 222 126.307 222.072 126.138C223.604 122.601 227.668 113.215 225.473 101.673C224.997 99.1803 224.605 96.6149 224.231 94.134C222.543 83.0755 220.951 72.6267 212.382 65.4677C207.703 61.5562 196.675 59.54 188.51 58.9787C188.227 61.9787 186.701 64.3147 184.084 65.7393C181.184 67.3148 177.97 67.2967 176.716 67.2182C169.576 66.7594 168.057 65.3288 166.224 59.9505C165.802 60.0652 165.175 60.1799 164.379 60.3187C160.7 60.9827 153.851 62.2141 148.984 66.5663C139.813 74.7696 129.182 76.001 125.185 76.4597C124.775 76.508 124.383 76.5503 124.129 76.5925C124.208 76.9245 124.22 77.5644 123.979 78.8199C123.11 83.3773 119.601 92.3774 112.528 93.7959C112.51 93.7959 112.492 93.802 112.474 93.808C115.302 94.9972 136.334 97.3392 151.794 93.2406C151.897 93.2165 151.999 93.2406 152.078 93.301C152.156 93.3674 152.198 93.47 152.192 93.5726C151.535 102.748 154.827 129.917 156.811 140.74L156.817 140.746Z" fill="#1A1A1A"/>
<path d="M206.475 113.523C206.342 113.523 206.215 113.439 206.173 113.306C202.356 101.728 200.191 94.4002 200.191 78.5309C200.191 78.3558 200.336 78.2109 200.511 78.2109C200.686 78.2109 200.831 78.3558 200.831 78.5309C200.831 94.3097 202.977 101.589 206.776 113.107C206.83 113.276 206.74 113.457 206.571 113.511C206.535 113.523 206.505 113.529 206.468 113.529L206.475 113.523Z" fill="#1A1A1A"/>
<path d="M151.88 93.873C151.802 93.873 151.73 93.8488 151.669 93.7885C151.482 93.6194 151.476 93.4384 151.44 91.0963C151.416 89.3578 151.374 86.4483 151.211 82.0358C151.205 81.8608 151.344 81.7099 151.519 81.7038C151.7 81.6918 151.844 81.8366 151.85 82.0117C152.013 86.4363 152.055 89.3458 152.079 91.0902C152.098 92.3458 152.11 93.1909 152.152 93.3901C152.224 93.5048 152.212 93.6617 152.116 93.7704C152.055 93.8428 151.965 93.879 151.874 93.879L151.88 93.873Z" fill="#1A1A1A"/>
<path d="M172.05 87.4104C164.862 87.4104 158.338 86.7766 154.895 85.0201C154.84 84.9959 154.822 84.9295 154.846 84.8752C154.871 84.8209 154.937 84.8028 154.991 84.8269C162.094 88.4487 182.505 87.2656 194.493 85.5814C194.547 85.5754 194.607 85.6116 194.613 85.672C194.619 85.7323 194.583 85.7867 194.523 85.7927C188.294 86.668 179.792 87.4044 172.05 87.4044V87.4104Z" fill="white"/>
<path d="M179.719 97.5158C170.18 97.5158 161.461 95.9947 154.919 94.3951C154.864 94.383 154.828 94.3226 154.84 94.2683C154.852 94.214 154.913 94.1778 154.967 94.1898C165.001 96.6466 180.19 98.9102 195.56 95.7653C195.62 95.7532 195.674 95.7894 195.686 95.8498C195.699 95.9102 195.662 95.9645 195.602 95.9766C190.217 97.0812 184.851 97.5218 179.719 97.5218V97.5158Z" fill="white"/>
<path d="M224.799 119.178C224.762 119.178 224.726 119.16 224.708 119.124C221.271 113.329 215.676 110.407 210.448 111.681C210.393 111.693 210.333 111.663 210.321 111.602C210.309 111.548 210.339 111.488 210.399 111.476C215.718 110.172 221.41 113.136 224.895 119.015C224.925 119.063 224.907 119.13 224.859 119.16C224.841 119.172 224.823 119.172 224.805 119.172L224.799 119.178Z" fill="white"/>
<path d="M223.441 121.543C223.441 121.543 223.399 121.537 223.375 121.519C222.736 121.036 222.296 120.354 221.867 119.69C221.717 119.461 221.566 119.219 221.403 118.996C220.426 117.62 219.094 116.533 217.544 115.851C217.49 115.827 217.466 115.766 217.49 115.712C217.514 115.658 217.574 115.634 217.628 115.658C219.208 116.352 220.577 117.463 221.572 118.875C221.735 119.105 221.892 119.346 222.042 119.575C222.458 120.221 222.893 120.885 223.502 121.35C223.55 121.386 223.556 121.453 223.52 121.501C223.502 121.531 223.465 121.543 223.435 121.543H223.441Z" fill="white"/>
<path d="M123.714 86.6282C123.714 86.6282 123.684 86.6282 123.672 86.6222C123.617 86.5981 123.593 86.5377 123.611 86.4834C124.793 83.592 125.372 80.4169 125.288 77.2961C125.288 77.2358 125.33 77.1875 125.39 77.1875C125.451 77.1875 125.499 77.2298 125.499 77.2901C125.583 80.4411 124.998 83.6463 123.804 86.5618C123.786 86.6041 123.75 86.6282 123.708 86.6282H123.714Z" fill="white"/>
<path d="M127.742 80.7942C127.742 80.7942 127.724 80.7942 127.718 80.7942C127.657 80.7821 127.627 80.7218 127.639 80.6674C127.893 79.5568 127.965 78.4159 127.85 77.2871C127.85 77.2268 127.887 77.1785 127.947 77.1724C128.007 77.1664 128.055 77.2087 128.061 77.269C128.176 78.428 128.104 79.587 127.85 80.7218C127.838 80.7701 127.796 80.8063 127.748 80.8063L127.742 80.7942Z" fill="white"/>
<path d="M207.42 114.211C207.282 114.211 207.149 114.114 207.113 113.975C204.526 104.462 202.765 94.6774 201.867 84.8986C201.849 84.7236 201.981 84.5666 202.156 84.5485C202.331 84.5304 202.488 84.6632 202.506 84.8383C203.398 94.5808 205.153 104.329 207.734 113.806C207.782 113.975 207.68 114.15 207.511 114.199C207.481 114.205 207.457 114.211 207.426 114.211H207.42Z" fill="white"/>
<path d="M151.107 95.6539C150.932 95.6539 150.787 95.503 150.793 95.328L150.956 84.517C150.956 84.342 151.107 84.2031 151.282 84.2031C151.456 84.2031 151.601 84.354 151.595 84.5291L151.432 95.3401C151.432 95.5151 151.288 95.6539 151.113 95.6539H151.107Z" fill="white"/>
<path d="M208.934 116.716C210.327 115.376 212.974 115.883 214.722 116.716C215.585 117.127 222.495 123.525 219.968 128.879C217.798 133.485 216.363 135.224 204.858 152.246C204.429 152.88 203.983 153.532 203.338 153.936C201.276 155.216 198.581 153.242 197.688 150.978C195.795 146.191 198.315 140.904 200.637 136.31C202.988 131.656 207.541 118.062 208.94 116.722L208.934 116.716Z" fill="white"/>
<path d="M201.916 154.654C201.555 154.654 201.181 154.594 200.801 154.467C199.366 153.99 197.997 152.638 197.388 151.093C195.38 146.004 198.25 140.318 200.349 136.159C201.38 134.113 202.857 130.292 204.286 126.591C206.523 120.797 207.94 117.223 208.712 116.481C210.147 115.098 212.83 115.454 214.862 116.42C215.936 116.933 222.876 123.452 220.259 129.006C218.529 132.67 217.256 134.541 211.136 143.553C209.532 145.913 207.536 148.847 205.124 152.421C204.702 153.048 204.226 153.755 203.508 154.201C203.026 154.503 202.489 154.654 201.922 154.654H201.916ZM211.347 116.215C210.479 116.215 209.695 116.426 209.152 116.945C208.429 117.646 206.626 122.312 204.877 126.827C203.442 130.539 201.959 134.378 200.915 136.449C198.871 140.493 196.073 146.034 197.979 150.857C198.522 152.233 199.74 153.441 201 153.863C201.549 154.044 202.369 154.159 203.165 153.664C203.768 153.29 204.202 152.644 204.594 152.07C207.006 148.497 209.001 145.563 210.605 143.203C216.702 134.233 217.974 132.362 219.68 128.746C222.165 123.483 215.134 117.271 214.585 117.012C213.608 116.547 212.42 116.221 211.353 116.221L211.347 116.215Z" fill="#1A1A1A"/>
<path d="M159.681 171.816C159.681 171.816 159.663 171.816 159.657 171.816C159.482 171.804 159.35 171.647 159.362 171.472C159.778 166.051 159.115 157.715 158.469 149.651C158.174 145.926 157.89 142.413 157.716 139.202C157.704 139.027 157.842 138.876 158.017 138.864C158.192 138.852 158.343 138.991 158.355 139.166C158.53 142.371 158.813 145.878 159.108 149.603C159.754 157.691 160.417 166.057 160.001 171.526C159.989 171.695 159.85 171.822 159.681 171.822V171.816Z" fill="#1A1A1A"/>
<path d="M287.551 83.035C287.418 88.8781 290.988 94.848 296.505 96.7736C299.508 97.8239 302.8 97.673 305.876 98.4758C308.951 99.2786 312.086 101.597 312.111 104.784C312.123 106.896 310.923 111.695 317.248 114.502C322.464 116.82 321.222 129.357 305.062 134.633C300.111 136.251 303.301 132.182 298.157 131.392C293.074 130.607 288.467 127.734 284.958 123.967C281.455 120.2 278.97 115.589 277.041 110.82C274.816 105.327 273.26 99.2605 274.635 93.4959C276.01 87.7312 281.087 82.5219 287.551 83.035Z" fill="#1A1A1A"/>
<path d="M303.205 135.334C302.138 135.334 301.746 134.755 301.33 133.928C300.89 133.052 300.395 132.062 298.11 131.712C293.31 130.97 288.559 128.302 284.73 124.191C281.618 120.847 279.007 116.513 276.746 110.942C273.912 103.945 273.14 98.38 274.322 93.4242C275.04 90.4121 276.692 87.6596 278.971 85.6736C281.474 83.4946 284.452 82.4684 287.57 82.7159C287.739 82.7279 287.865 82.8728 287.865 83.0418C287.727 89.0057 291.405 94.6556 296.603 96.4726C298.243 97.046 300.022 97.2573 301.734 97.4685C303.127 97.6376 304.562 97.8126 305.949 98.1687C309.048 98.9776 312.401 101.398 312.419 104.785C312.419 105.062 312.401 105.376 312.383 105.714C312.256 108.008 312.039 111.847 317.369 114.213C319.317 115.076 320.439 117.298 320.3 120.002C320.059 124.692 315.946 131.417 305.153 134.942C304.315 135.213 303.688 135.334 303.199 135.334H303.205ZM286.677 83.3255C280.642 83.3255 276.161 88.4745 274.949 93.5751C273.798 98.3981 274.557 103.837 277.343 110.706C279.568 116.205 282.143 120.473 285.2 123.757C288.933 127.765 293.551 130.366 298.213 131.085C300.824 131.489 301.451 132.732 301.909 133.644C302.379 134.58 302.639 135.099 304.972 134.338C315.458 130.916 319.45 124.463 319.679 119.978C319.806 117.539 318.829 115.559 317.128 114.805C311.394 112.257 311.623 108.141 311.762 105.684C311.78 105.34 311.798 105.05 311.798 104.791C311.78 101.742 308.674 99.545 305.804 98.7905C304.46 98.4404 303.049 98.2714 301.674 98.1023C299.925 97.8911 298.11 97.6738 296.404 97.0762C291.037 95.2049 287.22 89.4584 287.232 83.3376C287.045 83.3255 286.864 83.3255 286.683 83.3255H286.677Z" fill="#1A1A1A"/>
<path d="M255.966 69.6797C257.667 77.9856 259.313 86.9253 255.918 94.688C254.815 97.2112 253.211 99.511 252.3 102.113C251.221 105.203 251.191 108.565 251.48 111.831C252.035 118 253.886 124.326 258.222 128.745C262.557 133.163 269.799 135.089 275.147 131.974C279.839 129.24 281.979 123.36 281.684 117.934C281.388 112.507 279.079 107.419 276.637 102.565C270.776 90.9032 263.938 79.7361 255.972 69.6797H255.966Z" fill="#1A1A1A"/>
<path d="M267.96 110.195C268.111 105.771 267.568 103.29 267.387 99.9757C269.172 99.0823 271.101 98.4606 273.073 98.1407C273.96 97.9958 274.955 97.9415 275.636 98.4787C276.064 98.8167 278.084 97.03 278.295 97.5189C279.736 100.899 279.857 105.716 281.298 109.097C281.407 109.356 286.453 108.885 286.568 109.151C287.038 110.249 286.646 119.413 286.297 119.648C267.839 131.932 258.945 114.36 258.945 114.36C258.945 114.36 262.292 112.308 267.96 110.195Z" fill="white"/>
<path d="M273.869 124.325C272.537 124.325 271.228 124.156 269.956 123.824C262.449 121.844 258.698 114.577 258.662 114.504C258.59 114.353 258.638 114.172 258.783 114.088C258.819 114.07 262.141 112.042 267.653 109.971C267.737 107.164 267.532 105.13 267.339 103.168C267.237 102.16 267.134 101.116 267.074 99.9992C267.068 99.8724 267.134 99.7517 267.249 99.6974C269.07 98.7859 271.011 98.1581 273.025 97.8322C273.906 97.6933 275.009 97.6088 275.805 98.2064C275.998 98.1944 276.541 97.8744 276.872 97.6813C277.578 97.2648 277.994 97.0354 278.319 97.144C278.446 97.1863 278.543 97.2768 278.597 97.3976C279.333 99.1179 279.73 101.219 280.116 103.253C280.49 105.202 280.87 107.213 281.545 108.848C281.913 108.891 283.059 108.848 283.921 108.812C286.568 108.704 286.743 108.74 286.87 109.036C287.201 109.82 287.105 113.605 287.063 114.746C286.894 119.647 286.605 119.84 286.478 119.925C282.064 122.865 277.837 124.344 273.875 124.344L273.869 124.325ZM259.374 114.474C260.115 115.772 263.697 121.513 270.125 123.203C274.979 124.482 280.333 123.203 286.056 119.418C286.363 118.482 286.659 110.792 286.315 109.398C285.929 109.355 284.796 109.398 283.939 109.44C281.304 109.549 281.129 109.512 281.003 109.217C280.267 107.496 279.869 105.396 279.483 103.361C279.109 101.412 278.729 99.4016 278.054 97.7658C277.849 97.8322 277.463 98.0616 277.186 98.2245C276.42 98.6712 275.817 99.0274 275.437 98.7255C274.834 98.2487 273.881 98.3332 273.122 98.4539C271.24 98.7557 269.425 99.3352 267.719 100.168C267.779 101.188 267.87 102.118 267.966 103.102C268.171 105.136 268.376 107.243 268.274 110.207C268.274 110.333 268.189 110.448 268.063 110.496C263.377 112.241 260.254 113.967 259.362 114.48L259.374 114.474Z" fill="#1A1A1A"/>
<path d="M254.053 71.7215C254.595 75.8202 255.421 80.124 254.366 84.2045C253.787 86.4319 253.842 97.75 262.917 100.973C267.686 102.67 273.161 102.319 278.082 99.3315C281.416 97.3033 285.468 91.0135 284.66 84.7659C287.422 85.5325 290.153 83.6673 290.184 81.1804C290.202 79.7498 288.622 77.951 286.958 78.0355C285.667 78.0958 285.51 78.1139 284.534 78.8624C283.864 75.9349 283.454 72.9469 283.509 69.5786C280.373 66.1199 275.338 64.3512 270.309 63.5967C268.645 63.3492 266.939 63.1923 265.25 63.4035C260.42 64.0072 253.504 67.5142 254.059 71.7215H254.053Z" fill="white"/>
<path d="M268.791 102.318C266.789 102.318 264.775 101.974 262.803 101.274C253.74 98.0507 253.348 86.8474 254.054 84.125C254.971 80.5998 254.446 76.8694 253.939 73.2658C253.867 72.7647 253.801 72.2637 253.734 71.7627C253.578 70.5856 253.945 69.4086 254.826 68.2677C256.978 65.4729 261.778 63.5111 265.203 63.0826C267.066 62.8471 268.936 63.0644 270.353 63.2757C274.507 63.8974 280.205 65.4608 283.745 69.3603C283.799 69.4206 283.829 69.4991 283.829 69.5836C283.781 72.475 284.071 75.2638 284.74 78.3121C285.457 77.8111 285.777 77.7749 286.947 77.7145C287.767 77.6722 288.641 78.0405 289.341 78.7225C290.07 79.4288 290.517 80.3705 290.504 81.1854C290.486 82.3866 289.889 83.5214 288.852 84.3001C287.779 85.1089 286.38 85.4228 285.029 85.1814C285.626 91.5497 281.532 97.6161 278.246 99.6081C275.279 101.407 272.047 102.324 268.791 102.324V102.318ZM254.368 71.6782C254.434 72.1732 254.506 72.6742 254.573 73.1752C255.085 76.8453 255.616 80.6361 254.669 84.282C254.271 85.8152 253.771 97.3807 263.014 100.664C267.989 102.433 273.283 101.86 277.908 99.0527C281.044 97.1513 285.138 90.9822 284.336 84.8011C284.324 84.6924 284.36 84.5898 284.444 84.5174C284.523 84.4449 284.637 84.4208 284.74 84.451C286.03 84.8132 287.423 84.5596 288.46 83.781C289.335 83.123 289.841 82.1753 289.859 81.1733C289.865 80.5274 289.497 79.7668 288.888 79.1813C288.31 78.6199 287.61 78.3242 286.965 78.3543C285.705 78.4147 285.626 78.4207 284.716 79.1149C284.631 79.1813 284.517 79.1994 284.414 79.1632C284.312 79.127 284.233 79.0425 284.209 78.9338C283.468 75.6863 283.136 72.7466 283.178 69.6983C279.765 66.0041 274.272 64.5132 270.25 63.9095C268.875 63.7043 267.066 63.493 265.276 63.7164C261.983 64.1268 257.376 65.9981 255.326 68.654C254.554 69.6561 254.229 70.6702 254.362 71.6722L254.368 71.6782Z" fill="#1A1A1A"/>
<path d="M273.863 88.2911C272.542 88.2911 271.258 87.8021 270.184 86.8846C268.936 85.8162 268.128 84.283 267.905 82.5747C267.447 79.0314 269.69 75.8141 272.898 75.4036C274.46 75.2044 276.009 75.6813 277.269 76.7618C278.518 77.8302 279.326 79.3634 279.549 81.0717C279.772 82.78 279.374 84.4641 278.439 85.8162C277.499 87.1804 276.118 88.0376 274.556 88.2428C274.321 88.273 274.092 88.2851 273.863 88.2851V88.2911ZM273.597 76.0012C273.392 76.0012 273.193 76.0133 272.988 76.0435C270.13 76.4117 268.14 79.3091 268.55 82.4963C268.749 84.0476 269.479 85.4359 270.606 86.4017C271.728 87.3615 273.103 87.7901 274.478 87.615C275.858 87.4339 277.077 86.6734 277.915 85.4601C278.759 84.2407 279.115 82.7136 278.916 81.1622C278.717 79.6109 277.987 78.2226 276.859 77.2568C275.907 76.4419 274.767 76.0073 273.597 76.0073V76.0012Z" fill="#1A1A1A"/>
<path d="M257.472 89.0432C254.536 89.0432 251.937 86.6166 251.509 83.3329C251.05 79.7896 253.293 76.5723 256.501 76.1618C259.709 75.7453 262.694 78.2926 263.152 81.8299C263.611 85.3732 261.367 88.5905 258.16 89.001C257.93 89.0311 257.701 89.0432 257.472 89.0432ZM257.189 76.7533C256.99 76.7533 256.785 76.7654 256.586 76.7896C253.728 77.1578 251.732 80.0552 252.148 83.2484C252.558 86.4355 255.223 88.7354 258.081 88.3611C260.939 87.9929 262.929 85.0955 262.519 81.9023C262.139 78.9385 259.812 76.7473 257.195 76.7473L257.189 76.7533Z" fill="#1A1A1A"/>
<path d="M278.301 60.1554C284.066 60.1554 288.739 55.4773 288.739 49.7066C288.739 43.9359 284.066 39.2578 278.301 39.2578C272.536 39.2578 267.863 43.9359 267.863 49.7066C267.863 55.4773 272.536 60.1554 278.301 60.1554Z" fill="#1A1A1A"/>
<path d="M284.168 79.2897C281.521 75.179 279.898 72.2151 279.03 67.2111C269.256 73.0059 259.97 73.9053 250.611 73.5492C250.413 71.9556 250.75 68.4304 251.407 66.9153C253.029 63.209 255.055 60.0037 260.705 57.4745C264.667 55.6999 269.997 54.5228 274.285 55.1445C278.542 55.7602 282.208 58.0661 285.187 60.8307C287.556 63.034 289.564 66.6437 290.27 70.2171C290.873 73.2775 290.125 75.5291 288.756 78.6438C287.991 78.2273 287.267 77.8108 286.375 77.9798C285.482 78.1488 284.909 78.6076 284.168 79.2836V79.2897Z" fill="#1A1A1A"/>
<path d="M269.984 94.9542C269.285 94.9542 268.64 94.7369 268.133 94.3143C267.994 94.1996 267.976 94.0004 268.091 93.8616C268.205 93.7228 268.404 93.7047 268.543 93.8194C269.218 94.3868 270.231 94.4652 271.244 94.0427C272.372 93.5719 273.301 92.6604 273.855 91.4712C273.928 91.3083 274.121 91.2419 274.284 91.3143C274.446 91.3867 274.513 91.5799 274.44 91.7429C273.819 93.0709 272.77 94.097 271.498 94.6282C270.991 94.8395 270.479 94.9481 269.99 94.9481L269.984 94.9542Z" fill="#1A1A1A"/>
<path d="M273.457 82.1038C273.391 81.5907 272.897 81.2345 272.36 81.3009C271.817 81.3734 271.437 81.8442 271.504 82.3573C271.57 82.8704 272.064 83.2265 272.601 83.1601C273.138 83.0937 273.524 82.6168 273.457 82.1038Z" fill="#1A1A1A"/>
<path d="M258.856 82.8733C258.789 82.3602 258.295 82.0041 257.758 82.0705C257.222 82.1369 256.836 82.6137 256.902 83.1268C256.968 83.6399 257.463 84.0021 257.999 83.9296C258.536 83.8572 258.922 83.3864 258.856 82.8733Z" fill="#1A1A1A"/>
<path d="M264.336 88.8223C264.299 88.8223 264.257 88.8163 264.221 88.8042L262.888 88.2971C262.732 88.2368 262.436 88.1221 262.322 87.8323C262.183 87.4762 262.418 87.1623 262.551 86.9873C263.558 85.6351 263.895 83.8786 263.449 82.291C263.401 82.122 263.503 81.9409 263.672 81.8987C263.841 81.8504 264.022 81.953 264.064 82.122C264.565 83.8967 264.191 85.8585 263.063 87.3736C262.973 87.5003 262.925 87.5788 262.925 87.615C262.931 87.615 262.979 87.6513 263.118 87.7056L264.45 88.2126C264.613 88.273 264.697 88.4601 264.637 88.6231C264.589 88.7499 264.468 88.8283 264.336 88.8283V88.8223Z" fill="#1A1A1A"/>
<path d="M262.599 80.8711C262.424 80.8711 262.28 80.7322 262.28 80.5572C262.261 79.6578 263.142 79.03 264.022 78.8066C265.457 78.4384 267.091 78.8187 268.177 79.7664C268.309 79.8811 268.321 80.0863 268.207 80.2191C268.092 80.3519 267.887 80.364 267.755 80.2493C266.82 79.4344 265.415 79.1145 264.179 79.4284C263.546 79.5914 262.913 80.026 262.919 80.5511C262.919 80.7262 262.78 80.8711 262.605 80.8771L262.599 80.8711Z" fill="#1A1A1A"/>
<path d="M278.886 79.316C278.711 79.316 278.566 79.1711 278.566 78.9961C278.566 78.821 278.711 78.6761 278.886 78.6761L283.716 78.6641C283.891 78.6641 284.035 78.8089 284.035 78.984C284.035 79.159 283.891 79.3039 283.716 79.3039L278.886 79.316Z" fill="#1A1A1A"/>
<path d="M284.602 82.664C284.427 82.664 284.282 82.5191 284.288 82.338C284.3 81.1549 284.065 79.9537 283.601 78.8611C283.534 78.6982 283.607 78.511 283.77 78.4386C283.932 78.3722 284.119 78.4446 284.192 78.6076C284.686 79.7786 284.939 81.0704 284.927 82.338C284.927 82.5131 284.783 82.6579 284.608 82.6579L284.602 82.664Z" fill="#1A1A1A"/>
<path d="M319.998 147.992C315.729 136.3 313.365 124.765 303.289 116.344C298.453 112.3 292.617 109.432 285.893 109.004C285.483 115.523 277.922 119.815 273.864 120.298C271.657 120.563 263.462 121.656 263.462 111.98C260.791 113.048 251.891 114.141 248.327 125.115C246.868 129.6 244.257 146.779 235.64 156.733C233.608 159.081 231.727 143.441 228.797 144.479C225.926 145.499 222.616 147.214 222.399 150.256C222.23 152.628 224.184 154.693 226.367 155.634C231.058 157.65 232.812 167.429 237.871 168.141C243.13 168.884 251.517 170.821 257.873 150.938C261.117 154.185 263.215 157.68 266.857 159.642C277.355 165.304 312.28 171.667 317.966 172.675C318.436 172.759 319.51 172.373 319.703 171.932C320.897 169.131 324.026 159.002 320.004 147.986L319.998 147.992Z" fill="#F26722"/>
<path d="M318.105 173.013C318.033 173.013 317.972 173.013 317.912 172.995C311.195 171.8 277.15 165.565 266.707 159.927C264.186 158.569 262.395 156.492 260.502 154.301C259.718 153.395 258.91 152.454 258.018 151.536C255.31 159.806 252.024 164.979 247.978 167.345C244.444 169.416 241.068 168.921 238.36 168.528C238.179 168.504 238.004 168.474 237.83 168.45C234.971 168.045 233.138 164.943 231.366 161.943C229.876 159.42 228.333 156.818 226.246 155.919C224.039 154.971 221.899 152.84 222.086 150.226C222.267 147.667 224.431 145.687 228.694 144.172C229.002 144.063 229.315 144.081 229.623 144.238C230.968 144.908 231.999 148.216 232.994 151.416C233.663 153.57 234.586 156.516 235.201 156.643C235.261 156.655 235.345 156.583 235.4 156.516C242.262 148.585 245.331 135.86 246.983 129.021C247.405 127.282 247.737 125.906 248.026 125.007C251.15 115.397 258.434 113.2 261.931 112.137C262.498 111.968 262.992 111.818 263.348 111.673C263.444 111.63 263.559 111.649 263.643 111.703C263.734 111.763 263.782 111.86 263.782 111.968C263.782 114.902 264.554 117.075 266.079 118.427C268.528 120.6 272.32 120.148 273.749 119.973H273.822C277.705 119.502 285.164 115.313 285.568 108.968C285.568 108.884 285.61 108.805 285.676 108.751C285.743 108.697 285.821 108.667 285.906 108.673C292.165 109.077 298.08 111.57 303.489 116.091C311.876 123.099 314.933 132.172 318.177 141.776C318.853 143.768 319.546 145.832 320.294 147.872C323.942 157.856 321.819 167.768 319.986 172.054C319.751 172.603 318.72 173.001 318.093 173.001L318.105 173.013ZM257.873 150.619C257.957 150.619 258.036 150.649 258.102 150.715C259.157 151.772 260.086 152.846 260.984 153.884C262.841 156.033 264.59 158.061 267.008 159.365C277.367 164.955 311.321 171.178 318.021 172.367C318.401 172.434 319.293 172.078 319.401 171.812C319.6 171.353 324.177 160.367 319.691 148.102C318.943 146.049 318.244 143.985 317.568 141.987C314.354 132.468 311.321 123.48 303.073 116.586C297.863 112.234 292.177 109.795 286.171 109.337C285.815 112.952 283.415 115.578 281.431 117.154C279.14 118.977 276.179 120.335 273.894 120.606H273.822C272.314 120.793 268.317 121.276 265.651 118.91C264.065 117.504 263.221 115.319 263.143 112.427C262.841 112.53 262.492 112.638 262.106 112.753C258.452 113.858 251.644 115.916 248.623 125.206C248.34 126.081 248.008 127.445 247.592 129.172C245.928 136.059 242.834 148.886 235.87 156.933C235.562 157.289 235.255 157.313 235.056 157.271C234.121 157.078 233.458 155.092 232.373 151.609C231.504 148.826 230.425 145.361 229.321 144.812C229.171 144.739 229.038 144.727 228.893 144.776C224.896 146.2 222.87 147.999 222.707 150.275C222.544 152.568 224.552 154.506 226.481 155.333C228.761 156.311 230.353 159.009 231.896 161.617C233.675 164.617 235.351 167.454 237.902 167.816C238.077 167.84 238.258 167.864 238.439 167.895C243.636 168.655 251.493 169.796 257.553 150.836C257.589 150.727 257.674 150.649 257.782 150.625C257.807 150.619 257.831 150.619 257.855 150.619H257.873Z" fill="#1A1A1A"/>
<path d="M307.468 159.273C297.881 158.736 288.239 158.078 278.591 157.414C277.729 157.269 273.435 156.659 272.38 156.502C271.482 156.369 270.626 156.037 269.805 155.657C266.935 154.329 260.779 151.727 259.41 152.5C256.244 153.43 253.38 155.717 251.137 158.615C249.877 160.239 248.846 162.931 249.37 163.396C249.702 163.691 250.202 163.812 250.57 163.504C252.06 160.305 254.719 157.667 257.933 156.2C256.437 157.045 255.05 158.072 253.802 159.243C252.536 160.432 251.372 161.868 251.089 163.589C251.065 163.721 251.053 163.866 251.125 163.987C251.3 164.271 251.734 164.108 251.999 163.903C252.512 163.504 259.109 158.138 260.339 158.283C258.698 158.905 252.856 163.649 252.831 164.15C252.819 164.392 252.868 164.645 253.018 164.832C253.223 165.092 253.591 165.17 253.917 165.116C254.242 165.062 254.538 164.893 254.815 164.723C256.703 163.577 258.427 162.14 260.465 161.289C261.484 160.866 262.726 160.619 263.631 161.253C261.816 161.941 260.116 162.943 258.686 164.259C258.457 164.47 258.27 164.717 258.12 164.983C257.897 165.387 257.643 165.967 257.957 166.299C258.463 166.842 258.897 166.571 259.332 166.311C261.08 165.158 262.865 164.204 264.734 163.462C265.313 163.233 266.007 163.027 266.531 163.365C266.984 163.655 269.184 165.025 273.707 165.261C275.25 165.339 276.74 165.744 278.669 166.275C304.085 173.289 311.677 176.084 317.839 173.434C319.045 172.915 319.449 172.281 319.051 170.21C317.978 164.681 316.929 161.536 307.486 159.279L307.468 159.273Z" fill="white"/>
<path d="M312.659 174.748C307.793 174.748 300.859 172.805 287.816 169.159C285.066 168.392 281.955 167.517 278.566 166.581C276.769 166.086 275.22 165.658 273.676 165.579C269.449 165.362 267.14 164.149 266.344 163.636C265.94 163.376 265.325 163.563 264.836 163.762C263.015 164.487 261.267 165.41 259.494 166.581L259.446 166.611C259.023 166.859 258.378 167.239 257.709 166.521C257.19 165.972 257.673 165.114 257.83 164.831C257.998 164.523 258.215 164.251 258.463 164.028C259.705 162.887 261.158 161.957 262.798 161.245C262.069 161.088 261.224 161.324 260.579 161.589C259.253 162.145 258.023 162.978 256.835 163.78C256.232 164.191 255.605 164.613 254.971 165C254.664 165.187 254.338 165.374 253.958 165.434C253.482 165.513 253.018 165.362 252.758 165.036C252.572 164.807 252.487 164.493 252.499 164.137C252.499 164.046 252.578 163.907 252.722 163.72C252.62 163.805 252.511 163.889 252.403 163.974C252.294 164.058 252.216 164.118 252.18 164.155C251.95 164.336 251.589 164.505 251.263 164.45C251.082 164.414 250.931 164.318 250.835 164.155C250.757 164.028 250.738 163.895 250.738 163.774C250.292 164.124 249.641 164.07 249.153 163.636C248.314 162.893 249.816 159.79 250.883 158.42C253.331 155.263 256.232 153.114 259.289 152.203C260.929 151.376 267.272 154.134 269.938 155.366C270.607 155.674 271.493 156.048 272.428 156.181C272.705 156.223 273.212 156.295 273.827 156.386C275.479 156.627 277.969 156.984 278.633 157.092C288.057 157.738 297.801 158.408 307.491 158.951C307.51 158.951 307.528 158.951 307.546 158.957C317.181 161.257 318.261 164.541 319.346 170.137C319.75 172.219 319.412 173.088 317.947 173.716C316.349 174.404 314.685 174.742 312.665 174.742L312.659 174.748ZM265.861 162.863C266.145 162.863 266.428 162.923 266.687 163.092C267.441 163.575 269.636 164.722 273.712 164.933C275.328 165.018 276.908 165.452 278.741 165.96C282.13 166.895 285.247 167.764 287.997 168.537C306.304 173.662 312.466 175.388 317.7 173.137C318.689 172.708 319.117 172.286 318.725 170.269C317.658 164.782 316.675 161.813 307.431 159.597C297.741 159.054 288.003 158.384 278.578 157.738C278.566 157.738 278.56 157.738 278.548 157.738C277.915 157.635 275.401 157.267 273.736 157.032C273.127 156.941 272.621 156.869 272.337 156.827C271.318 156.676 270.378 156.283 269.672 155.957C265.373 153.971 260.579 152.221 259.566 152.788C259.548 152.8 259.524 152.806 259.5 152.819C256.606 153.67 253.723 155.8 251.39 158.819C250.063 160.533 249.346 162.845 249.587 163.165C249.78 163.334 250.081 163.442 250.316 163.298C251.842 160.08 254.561 157.388 257.799 155.915C257.956 155.843 258.137 155.909 258.215 156.06C258.294 156.211 258.24 156.398 258.089 156.483C256.618 157.316 255.249 158.324 254.019 159.483C252.463 160.949 251.631 162.271 251.402 163.648C251.378 163.78 251.39 163.817 251.396 163.823C251.432 163.835 251.619 163.792 251.8 163.648C251.836 163.617 251.914 163.557 252.017 163.473C259.102 157.817 260.055 157.925 260.368 157.961C260.513 157.98 260.633 158.094 260.652 158.239C260.67 158.384 260.585 158.529 260.447 158.577C258.897 159.163 253.572 163.485 253.15 164.209C253.15 164.384 253.193 164.535 253.265 164.632C253.398 164.795 253.663 164.837 253.862 164.801C254.127 164.758 254.387 164.607 254.652 164.45C255.273 164.07 255.888 163.654 256.485 163.249C257.697 162.428 258.951 161.571 260.344 160.998C261.339 160.581 262.744 160.249 263.811 160.998C263.908 161.064 263.962 161.185 263.944 161.3C263.932 161.42 263.853 161.517 263.739 161.559C261.882 162.265 260.254 163.255 258.897 164.499C258.698 164.68 258.529 164.897 258.39 165.145C258.131 165.609 258.053 165.947 258.179 166.086C258.487 166.418 258.68 166.322 259.126 166.062L259.156 166.044C260.953 164.861 262.738 163.913 264.601 163.171C264.981 163.02 265.427 162.875 265.861 162.875V162.863Z" fill="#1A1A1A"/>
<path d="M244.015 171.664C251.968 171.833 259.928 172.008 267.881 172.177L267.911 168.121L241.344 167.469L244.009 171.664H244.015Z" fill="#1A1A1A"/>
<path d="M176.191 134.609L228.078 134.899L245.963 171.666L194.564 171.539L176.191 134.609Z" fill="white"/>
<path d="M245.963 171.983L194.564 171.857C194.443 171.857 194.335 171.79 194.281 171.682L175.908 134.758C175.859 134.655 175.865 134.54 175.92 134.444C175.98 134.347 176.083 134.293 176.191 134.293L228.078 134.577C228.199 134.577 228.313 134.649 228.361 134.758L246.246 171.525C246.294 171.621 246.288 171.742 246.228 171.833C246.168 171.923 246.065 171.983 245.957 171.983H245.963ZM194.757 171.217L245.444 171.344L227.873 135.217L176.704 134.933L194.757 171.217Z" fill="#1A1A1A"/>
<path d="M209.013 149.595C207.542 149.45 205.932 149.842 205.329 151.2C204.726 152.559 205.19 154.255 206.282 155.251C207.373 156.247 208.989 156.573 210.436 156.247C211.214 156.072 211.986 155.691 212.438 155.027C212.752 154.569 212.884 154.001 212.884 153.446C212.896 151.623 212.064 149.891 209.013 149.595Z" fill="white"/>
<path d="M209.332 156.682C208.102 156.682 206.921 156.259 206.07 155.481C204.84 154.358 204.406 152.499 205.039 151.062C205.618 149.752 207.119 149.082 209.043 149.269C212.504 149.607 213.216 151.726 213.204 153.446C213.204 154.116 213.023 154.726 212.703 155.203C212.136 156.036 211.196 156.398 210.508 156.555C210.116 156.646 209.724 156.688 209.332 156.688V156.682ZM208.458 149.885C207.596 149.885 206.173 150.084 205.624 151.328C205.1 152.517 205.467 154.068 206.498 155.01C207.469 155.897 208.953 156.247 210.364 155.927C211.178 155.746 211.823 155.36 212.173 154.841C212.492 154.37 212.564 153.821 212.564 153.44C212.577 151.303 211.407 150.144 208.983 149.909C208.856 149.897 208.675 149.885 208.458 149.885Z" fill="#1A1A1A"/>
<path d="M301.744 159.256C301.612 159.256 301.485 159.172 301.443 159.039C297.831 148.095 295.793 141.172 295.793 126.171C295.793 125.996 295.938 125.852 296.113 125.852C296.287 125.852 296.432 125.996 296.432 126.171C296.432 141.081 298.464 147.962 302.052 158.84C302.106 159.009 302.016 159.19 301.847 159.244C301.811 159.256 301.781 159.262 301.744 159.262V159.256Z" fill="#1A1A1A"/>
<path d="M257.873 151.267C257.77 151.267 257.674 151.219 257.607 151.128C252.958 144.428 254.212 139.52 255.43 134.776C256.039 132.397 256.673 129.941 256.57 127.255C256.564 127.08 256.703 126.929 256.878 126.923C257.058 126.911 257.203 127.055 257.209 127.23C257.312 130.013 256.673 132.512 256.051 134.933C254.815 139.75 253.652 144.301 258.132 150.76C258.234 150.905 258.198 151.104 258.053 151.207C257.999 151.243 257.933 151.267 257.873 151.267Z" fill="#1A1A1A"/>
<path d="M273.043 134.787C268.334 134.787 263.618 134.358 259.042 133.212C258.987 133.199 258.951 133.139 258.963 133.085C258.975 133.03 259.036 132.994 259.09 133.006C270.703 135.922 283.239 134.165 294.292 132.614C294.346 132.608 294.407 132.644 294.413 132.704C294.419 132.765 294.383 132.819 294.322 132.825C287.599 133.767 280.327 134.787 273.043 134.787Z" fill="#1A1A1A"/>
<path d="M277.288 143.854C270.366 143.854 263.444 143.033 256.745 141.391C256.691 141.379 256.654 141.319 256.666 141.264C256.678 141.21 256.739 141.174 256.793 141.186C269.088 144.192 282.149 144.446 294.546 141.904C294.606 141.892 294.66 141.928 294.673 141.989C294.685 142.049 294.648 142.103 294.588 142.116C288.914 143.281 283.101 143.86 277.288 143.86V143.854Z" fill="#1A1A1A"/>
<path d="M320.793 162.259C320.793 162.259 320.733 162.247 320.715 162.223C316.368 157.098 309.282 154.521 302.662 155.65C302.607 155.662 302.547 155.619 302.541 155.565C302.529 155.505 302.571 155.45 302.626 155.444C309.319 154.304 316.482 156.911 320.872 162.09C320.908 162.133 320.902 162.205 320.86 162.241C320.842 162.259 320.818 162.265 320.793 162.265V162.259Z" fill="#1A1A1A"/>
<path d="M320.003 157.532C320.003 157.532 319.979 157.532 319.961 157.526C319.255 157.242 318.683 156.729 318.134 156.234C317.941 156.059 317.742 155.884 317.537 155.715C316.301 154.701 314.817 154.043 313.238 153.813C313.177 153.807 313.141 153.753 313.147 153.693C313.153 153.632 313.213 153.596 313.268 153.602C314.884 153.844 316.403 154.514 317.67 155.552C317.875 155.721 318.074 155.902 318.273 156.077C318.815 156.56 319.37 157.061 320.039 157.327C320.094 157.351 320.118 157.411 320.1 157.465C320.081 157.508 320.045 157.532 320.003 157.532Z" fill="#1A1A1A"/>
<path d="M68.1659 85.4474C66.96 90.6326 66.9479 97.852 66.9479 97.852L69.987 99.0894C69.987 99.0894 72.8632 110.927 54.7375 107.299C51.216 106.593 41.0195 98.842 41.0195 98.842L49.0814 96.5361C49.0814 96.5361 49.8533 84.8076 50.1608 78.9766C54.3998 80.9504 63.0828 83.8539 68.1659 85.4414V85.4474Z" fill="white"/>
<path d="M60.9194 108.322C59.0863 108.322 57.006 108.086 54.6725 107.622C51.1209 106.909 41.244 99.4243 40.8279 99.1104C40.7314 99.038 40.6832 98.9172 40.7073 98.7965C40.7314 98.6758 40.8159 98.5792 40.9365 98.549L48.7813 96.3035C48.8898 94.6496 49.5652 84.2913 49.8486 78.9734C49.8486 78.8647 49.9149 78.7681 50.0054 78.7138C50.0958 78.6595 50.2104 78.6534 50.3068 78.6957C54.3288 80.573 62.4992 83.3436 68.2698 85.1485C68.4326 85.1968 68.523 85.3658 68.4869 85.5288C67.4196 90.1224 67.293 96.4122 67.2749 97.6496L70.1149 98.8086C70.2114 98.8448 70.2838 98.9293 70.3079 99.0319C70.3501 99.1949 71.2485 103.058 68.6316 105.787C67.0095 107.483 64.4288 108.328 60.9315 108.328L60.9194 108.322ZM41.7324 98.9836C43.8428 100.553 51.8384 106.402 54.8051 106.994C61.3535 108.304 65.8458 107.748 68.1613 105.34C70.2536 103.161 69.8436 100.058 69.7109 99.3277L66.8287 98.1506C66.7081 98.1023 66.6297 97.9816 66.6297 97.8548C66.6297 97.7824 66.6598 90.8045 67.7934 85.6676C62.2218 83.9171 54.57 81.3215 50.4636 79.4683C50.144 85.3718 49.4144 96.4484 49.4084 96.5631C49.4024 96.6959 49.3059 96.8106 49.1793 96.8528L41.7384 98.9836H41.7324Z" fill="#1A1A1A"/>
<path d="M59.3029 41.9359C51.1867 41.6159 43.2876 46.8494 43.9027 51.111C40.0255 49.9701 35.5875 57.4068 35.7443 60.8898C35.9433 65.3627 44.6564 80.1214 46.5136 82.4695C47.3879 83.5741 48.015 84.0751 49.5225 84.5339C49.426 83.3025 50.6079 82.5117 50.626 81.2743C50.6501 79.7471 48.5999 77.0851 50.2099 77.1213C57.8859 77.3085 56.897 79.0469 71.4712 64.8556C73.3284 63.0447 74.5464 58.6745 74.9564 55.3726C75.3544 52.1613 73.057 42.4791 59.3029 41.9359Z" fill="#1A1A1A"/>
<path d="M49.5221 84.8462C49.4919 84.8462 49.4618 84.8462 49.4317 84.8341C47.8036 84.3452 47.1403 83.7717 46.266 82.6671C44.3425 80.2344 35.6293 65.4093 35.4303 60.9002C35.3097 58.2443 37.6071 53.8499 40.1457 51.8519C41.3094 50.9404 42.4792 50.548 43.5525 50.6989C43.5284 49.4736 44.1133 48.1637 45.259 46.89C47.7011 44.1737 53.146 41.3668 59.3206 41.6083C65.0309 41.8316 69.5352 43.7029 72.3451 47.0168C75.0887 50.2522 75.4625 53.9163 75.2816 55.4012C74.8475 58.9022 73.5692 63.2544 71.6999 65.0713C58.585 77.8441 58.0001 77.8139 52.3923 77.5181C51.7532 77.4819 51.0235 77.4457 50.2095 77.4276C50.0768 77.4215 49.9743 77.4457 49.9502 77.4819C49.8115 77.6811 50.1432 78.5262 50.3663 79.0876C50.6617 79.8361 50.9693 80.6087 50.9572 81.2667C50.9451 81.9427 50.6437 82.4799 50.3482 82.993C50.0708 83.488 49.8055 83.9528 49.8477 84.4961C49.8537 84.5987 49.8115 84.7073 49.7271 84.7677C49.6668 84.816 49.6005 84.8401 49.5281 84.8401L49.5221 84.8462ZM43.0882 51.3086C42.1054 51.3086 41.1888 51.8458 40.5376 52.3589C37.9387 54.3931 35.967 58.6849 36.0635 60.8761C36.2564 65.2705 44.861 79.8723 46.7604 82.2687C47.49 83.1862 48.0267 83.6812 49.2086 84.0916C49.2809 83.5665 49.5342 83.1198 49.7754 82.6852C50.0407 82.2204 50.2879 81.7797 50.3 81.2606C50.312 80.7355 50.0165 79.987 49.7573 79.329C49.3955 78.4055 49.0759 77.6087 49.4136 77.1258C49.5703 76.8964 49.8417 76.7877 50.2155 76.7938C51.0416 76.8119 51.7712 76.8541 52.4164 76.8843C57.7709 77.168 58.3317 77.1922 71.2416 64.6186C73.0024 62.9043 74.2083 58.7151 74.6304 55.3288C74.8053 53.9404 74.4435 50.4997 71.8446 47.4333C69.1131 44.216 64.8862 42.4715 59.2844 42.2481C53.3088 42.0127 48.0689 44.7109 45.7233 47.3186C44.5656 48.6043 44.047 49.8961 44.2158 51.0551C44.2339 51.1637 44.1917 51.2724 44.1073 51.3448C44.0229 51.4172 43.9143 51.4414 43.8058 51.4112C43.5646 51.3388 43.3174 51.3086 43.0822 51.3086H43.0882Z" fill="#1A1A1A"/>
<path d="M71.9428 62.5496C71.9307 62.459 69.163 62.8152 66.8294 59.4892C66.3712 61.2518 66.13 63.0989 62.5181 62.9238C60.7634 62.8393 58.1887 59.9781 57.5374 58.2638C57.5374 58.2638 61.3784 57.3402 44.6818 64.6924C44.7059 65.0365 44.7179 65.3685 44.73 65.6884C44.7662 66.8715 44.8265 69.4551 45.4717 71.9782C43.2708 70.6321 41.6849 71.1392 40.6418 72.5517C39.5986 73.9642 39.9845 75.9018 41.3533 76.9461C42.7221 77.9904 44.8868 78.1473 46.6716 77.4894C47.6002 80.5256 49.2102 86.6403 51.7608 89.079C54.4743 91.6686 58.7977 92.9543 63.0005 92.4171C67.2033 91.8798 71.1709 89.5317 73.3176 86.3204C75.7536 82.6685 75.7838 78.3042 74.9577 74.3324C74.1316 70.3605 72.5397 66.5637 71.9428 62.5496Z" fill="white"/>
<path d="M61.0828 92.8506C57.4347 92.8506 53.9012 91.5648 51.5315 89.3012C49.1798 87.0557 47.6663 81.9672 46.6654 78.5989C46.593 78.3514 46.5207 78.11 46.4543 77.8866C44.579 78.4661 42.4867 78.2005 41.1541 77.1864C39.5984 75.9973 39.2547 73.8725 40.3823 72.3514C41.5219 70.8061 43.1439 70.462 44.9951 71.3433C44.5067 69.0737 44.4464 66.8765 44.4102 65.7658V65.6873C44.3981 65.4036 44.3861 65.0776 44.362 64.6974C44.3559 64.5646 44.4283 64.4378 44.5549 64.3835C53.5334 60.4297 56.3674 58.9508 57.2598 58.4076C57.2598 58.3955 57.2478 58.3774 57.2417 58.3653C57.2116 58.2808 57.2176 58.1842 57.2598 58.0997C57.302 58.0212 57.3804 57.9609 57.4709 57.9367C57.6277 57.9005 58.104 57.7858 58.2306 58.148C58.2789 58.2929 58.2909 58.4136 58.0678 58.6188C58.918 60.2486 61.1129 62.5243 62.542 62.5907C65.6896 62.7416 66.0453 61.3291 66.4554 59.6993C66.4795 59.5967 66.5036 59.5001 66.5337 59.3975C66.5639 59.2768 66.6664 59.1862 66.787 59.1621C66.9076 59.1379 67.0342 59.1923 67.1066 59.2949C68.3789 61.1058 69.9647 62.0776 71.8159 62.1983C71.9847 62.2104 72.238 62.2225 72.2742 62.4941C72.6058 64.7336 73.2691 66.961 73.9083 69.1099C74.4087 70.7819 74.9213 72.5143 75.2831 74.2588C76.3021 79.1663 75.7353 83.2831 73.5947 86.4883C71.3938 89.7841 67.3538 92.1745 63.0545 92.7238C62.4033 92.8083 61.7521 92.8506 61.1009 92.8506H61.0828ZM46.6654 77.1623C46.7136 77.1623 46.7618 77.1743 46.8101 77.1985C46.8885 77.2347 46.9488 77.3072 46.9729 77.3917C47.0694 77.7055 47.1719 78.0496 47.2804 78.4239C48.203 81.5265 49.7466 86.7177 51.9777 88.8425C54.6308 91.3777 58.8397 92.6212 62.958 92.096C67.0825 91.5709 70.9476 89.2831 73.046 86.1382C75.0841 83.0839 75.6207 79.1301 74.6379 74.3977C74.2821 72.6834 73.7696 70.963 73.2751 69.303C72.654 67.2084 72.0089 65.0475 71.6591 62.8442C69.8381 62.6993 68.2643 61.8181 66.9679 60.2184C66.5579 61.7879 65.9127 63.4116 62.4937 63.2486C60.8114 63.1702 58.4899 60.804 57.5191 59.0052C57.1573 59.2285 56.6146 59.5182 55.8308 59.9166C53.6721 61.0092 50.03 62.6812 45.0072 64.8966C45.0253 65.1923 45.0373 65.4459 45.0433 65.6813V65.7597C45.0795 66.961 45.1579 69.466 45.773 71.8986C45.8031 72.0254 45.7549 72.1582 45.6524 72.2367C45.5499 72.3151 45.4051 72.3212 45.2966 72.2548C43.4515 71.126 41.9681 71.289 40.8948 72.7437C39.9783 73.9872 40.2677 75.7196 41.54 76.6914C42.7821 77.6331 44.7961 77.8383 46.5508 77.1864C46.587 77.1744 46.6232 77.1683 46.6593 77.1683L46.6654 77.1623Z" fill="#1A1A1A"/>
<path d="M69.0585 68.8972C69.0404 68.3962 68.6002 68.0038 68.0756 68.0159C67.545 68.034 67.129 68.4505 67.1471 68.9515C67.1651 69.4525 67.6053 69.8449 68.1299 69.8328C68.6605 69.8147 69.0766 69.3982 69.0585 68.8972Z" fill="#1A1A1A"/>
<path d="M55.9433 71.5222C55.9252 71.0212 55.485 70.6288 54.9604 70.6409C54.4298 70.659 54.0137 71.0755 54.0318 71.5765C54.0499 72.0775 54.4901 72.4699 55.0147 72.4578C55.5453 72.4397 55.9614 72.0232 55.9433 71.5222Z" fill="#1A1A1A"/>
<path d="M61.3952 86.5189C60.1953 86.5189 58.9954 86.0964 58.0909 85.2996C57.9582 85.1849 57.9462 84.9796 58.0607 84.8469C58.1753 84.7141 58.3803 84.702 58.513 84.8167C59.737 85.8911 61.5641 86.1809 63.0595 85.541C63.2223 85.4686 63.4092 85.5471 63.4816 85.71C63.5479 85.873 63.4755 86.0601 63.3127 86.1326C62.7037 86.3921 62.0525 86.5189 61.3952 86.5189Z" fill="#1A1A1A"/>
<path d="M63.0118 81.2155C63.0118 81.2155 62.9877 81.2155 62.9757 81.2155C61.9626 81.2095 61.034 80.8171 60.4311 80.1471C60.3105 80.0143 60.3225 79.8151 60.4552 79.6944C60.5878 79.5736 60.7868 79.5857 60.9074 79.7185C61.3838 80.2497 62.1616 80.5696 62.9817 80.5757C63.7053 80.5757 64.4831 80.3704 65.2911 79.9358C65.5685 79.7909 65.876 79.6038 66.0448 79.3322C66.2559 79.0062 66.274 78.5233 66.0991 78.0404C65.9484 77.636 65.7011 77.2738 65.4358 76.8875L65.3092 76.7004C63.7776 74.4488 62.7706 71.8291 62.3908 69.1309C62.3666 68.9558 62.4872 68.7928 62.6621 68.7687C62.837 68.7446 62.9998 68.8653 63.0239 69.0403C63.3857 71.642 64.3565 74.1651 65.8338 76.3382L65.9604 76.5193C66.2378 76.9177 66.5212 77.3342 66.6961 77.8171C66.9433 78.4992 66.9011 79.1752 66.5815 79.6763C66.3283 80.0686 65.9363 80.3101 65.5866 80.4972C64.6942 80.968 63.8319 81.2095 63.0118 81.2095V81.2155Z" fill="#1A1A1A"/>
<path d="M45.971 74.306C45.8323 74.306 45.7057 74.2155 45.6635 74.0706C45.356 72.9901 45.2173 72.4106 44.9701 71.3603C44.9279 71.1913 45.0364 71.0162 45.2052 70.974C45.3741 70.9317 45.5489 71.0404 45.5911 71.2094C45.8384 72.2537 45.9771 72.8271 46.2785 73.8955C46.3268 74.0646 46.2303 74.2456 46.0554 74.2879C46.0253 74.2939 45.9951 74.3 45.971 74.3V74.306Z" fill="#1A1A1A"/>
<path d="M45.9595 143.515C48.0338 125.31 47.9735 107.31 46.4841 96.9453C39.3689 97.4041 27.2308 99.2512 22.1115 103.525C11.4446 112.44 11.4266 126.668 8.90607 139.918C6.59061 152.111 5.52935 164.129 8.7915 168.324C9.10506 168.723 11.4989 170.31 11.9994 170.226C13.5069 169.96 23.8963 159.065 23.8963 162.312C23.8963 168.856 23.0762 171.493 23.0762 171.493H41.0573C41.0573 171.493 45.254 149.721 45.9595 143.515Z" fill="#EF87BF"/>
<path d="M41.0575 171.818H23.0764C22.9739 171.818 22.8775 171.769 22.8172 171.685C22.7569 171.6 22.7388 171.498 22.7689 171.401C22.775 171.377 23.5769 168.715 23.5769 162.317C23.5769 162.172 23.5468 162.069 23.5046 162.045C22.7267 161.689 18.7772 165.123 16.4195 167.182C14.0317 169.258 12.6569 170.441 12.0539 170.544C11.3363 170.671 8.80981 168.878 8.53846 168.528C4.95673 163.916 6.59082 150.395 8.59273 139.868C9.06306 137.387 9.455 134.827 9.83488 132.352C11.4629 121.662 13.1513 110.604 21.9067 103.288C26.7667 99.2253 38.1692 97.167 46.4602 96.6297C46.623 96.6177 46.7738 96.7384 46.7979 96.9014C48.426 108.195 48.2209 126.503 46.2793 143.55C45.5799 149.695 41.4132 171.335 41.371 171.552C41.3409 171.703 41.2082 171.812 41.0575 171.812V171.818ZM23.4925 171.172H40.7922C41.2685 168.691 44.9829 149.23 45.6402 143.477C47.5637 126.63 47.7808 108.551 46.207 97.2877C38.0365 97.843 27.0019 99.8591 22.3167 103.777C13.7483 110.936 12.1503 121.385 10.468 132.443C10.0881 134.924 9.6962 137.489 9.22587 139.982C6.39183 154.898 6.33153 164.634 9.051 168.129C9.35249 168.522 11.5474 169.91 11.9574 169.91C12.4036 169.832 14.3151 168.166 16.0034 166.693C20.0012 163.216 22.6966 160.97 23.7759 161.459C23.9809 161.55 24.2221 161.773 24.2221 162.311C24.2221 167.459 23.7216 170.194 23.4925 171.172Z" fill="#1A1A1A"/>
<path d="M100.246 162.033C105.811 161.351 110.804 140.623 102.362 139.18C101.199 138.981 96.2843 119.218 86.3893 106.759C81.1192 100.125 69.8795 98.5014 68.2635 97.8555C75.5235 110.423 64.0547 171.492 64.0547 171.492L79.0751 171.522C79.0751 171.522 82.4819 149.025 83.1211 143.84C83.6035 146.78 87.3902 153.438 91.6714 158.526C93.2633 160.422 94.6984 160.053 95.6933 161.049C96.845 162.202 98.9676 162.19 100.246 162.033Z" fill="#EF87BF"/>
<path d="M79.082 171.849L64.0616 171.819C63.9651 171.819 63.8747 171.776 63.8144 171.704C63.7541 171.631 63.73 171.535 63.7481 171.438C63.8626 170.829 75.1143 110.339 67.9991 98.019C67.9328 97.8982 67.9448 97.7534 68.0353 97.6507C68.1257 97.5481 68.2705 97.5119 68.3971 97.5602C68.6624 97.6689 69.2654 97.8137 70.0251 98.0008C73.6792 98.9003 82.2477 101.013 86.6495 106.56C93.4813 115.168 98.0097 127.398 100.44 133.971C101.314 136.337 102.14 138.571 102.466 138.873C105.589 139.434 107.314 142.639 107.193 147.667C107.042 153.951 103.931 161.907 100.289 162.348C99.0468 162.498 96.7615 162.565 95.4711 161.273C95.1154 160.917 94.6752 160.754 94.1627 160.561C93.3908 160.271 92.4261 159.915 91.4311 158.732C87.8675 154.5 84.4666 148.911 83.2366 145.452C82.2838 152.502 79.4257 171.366 79.3955 171.571C79.3714 171.728 79.2388 171.843 79.082 171.843V171.849ZM64.4415 171.179L78.8046 171.209C79.1966 168.631 82.2175 148.621 82.8084 143.804C82.8265 143.647 82.9592 143.526 83.122 143.52C83.2848 143.52 83.4174 143.629 83.4416 143.786C83.936 146.786 87.8193 153.444 91.9196 158.321C92.8059 159.378 93.6441 159.692 94.3858 159.963C94.9405 160.168 95.4651 160.368 95.9234 160.82C97.063 161.961 99.3001 161.828 100.211 161.714C103.195 161.352 106.391 154.253 106.548 147.649C106.602 145.422 106.295 140.176 102.309 139.494C101.809 139.41 101.447 138.547 99.8368 134.188C97.4188 127.651 92.9145 115.482 86.143 106.953C81.8738 101.574 73.4561 99.5039 69.8623 98.6166C69.4945 98.526 69.1689 98.4475 68.8976 98.3751C71.5989 104.116 71.7014 117.915 69.199 139.416C67.4323 154.615 64.8877 168.704 64.4355 171.167L64.4415 171.179Z" fill="#1A1A1A"/>
<path d="M27.1451 158.145C27.1451 158.145 27.0909 158.145 27.0668 158.133C26.8979 158.091 26.7954 157.915 26.8376 157.74C28.3149 152.042 29.2074 146.151 30.4495 137.99C31.2937 132.436 32.3429 125.531 33.8684 116.772C33.8986 116.597 34.0614 116.482 34.2363 116.513C34.4111 116.543 34.5257 116.712 34.4955 116.881C32.97 125.633 31.9208 132.539 31.0826 138.086C29.8405 146.265 28.942 152.169 27.4587 157.903C27.4225 158.048 27.2899 158.145 27.1512 158.145H27.1451Z" fill="#1A1A1A"/>
<path d="M83.1266 144.159C83.0362 144.159 82.9518 144.123 82.8854 144.051C82.795 143.954 82.7829 143.815 82.8372 143.701C82.9638 143.175 83.41 137.827 83.8804 132.177C84.1698 128.67 84.5014 124.692 84.809 121.276C84.8271 121.101 84.9838 120.968 85.1587 120.986C85.3336 121.004 85.4662 121.155 85.4481 121.336C85.1466 124.753 84.815 128.725 84.5195 132.232C83.5487 143.894 83.5186 143.918 83.3377 144.081C83.2774 144.135 83.199 144.165 83.1266 144.165V144.159Z" fill="#1A1A1A"/>
<path d="M8.32098 157.93C8.32098 157.93 8.26671 157.918 8.24259 157.9C8.20039 157.858 8.20039 157.791 8.24259 157.749C12.355 153.657 19.0481 151.598 25.3071 152.498C25.3674 152.504 25.4036 152.558 25.3975 152.618C25.3915 152.679 25.3372 152.715 25.2769 152.709C19.0843 151.815 12.4575 153.85 8.39334 157.9C8.37525 157.918 8.3451 157.93 8.32098 157.93Z" fill="#1A1A1A"/>
<path d="M8.82838 159.896C8.78617 159.896 8.74396 159.872 8.7319 159.829C8.70778 159.775 8.7319 159.715 8.7922 159.691C9.49769 159.407 10.0946 158.876 10.6615 158.363C10.8665 158.175 11.0835 157.988 11.2946 157.807C12.6332 156.709 14.2372 155.996 15.9496 155.743C16.0099 155.737 16.0642 155.773 16.0702 155.833C16.0763 155.894 16.0401 155.948 15.9798 155.954C14.3095 156.202 12.7357 156.902 11.4272 157.97C11.2162 158.145 11.0052 158.332 10.8001 158.52C10.2152 159.045 9.61226 159.588 8.86456 159.884C8.8525 159.884 8.84044 159.89 8.82235 159.89L8.82838 159.896Z" fill="#1A1A1A"/>
<path d="M60.6242 112.197C57.3198 112.197 54.0155 111.443 51.0548 109.976C51.0005 109.952 50.9825 109.885 51.0066 109.831C51.0307 109.777 51.097 109.758 51.1513 109.783C55.0948 111.732 59.6594 112.414 64.0069 111.708C66.3103 111.334 67.9263 110.585 68.9514 109.426C68.9876 109.384 69.06 109.378 69.1022 109.414C69.1444 109.451 69.1504 109.523 69.1142 109.565C68.053 110.767 66.3948 111.533 64.0492 111.913C62.9216 112.095 61.7819 112.185 60.6363 112.185L60.6242 112.197Z" fill="#1A1A1A"/>
<path d="M124.329 122.597C127.874 119.047 126.391 116.597 130.359 111.901C132.011 109.945 133.609 108.249 135.074 106.703C135.84 105.894 136.533 104.844 137.329 105.514C138.276 106.311 137.239 108.466 136.768 109.16C134.947 111.84 135.086 112.727 135.171 113.717C138.3 111.303 143.154 108.08 146.911 106.86C147.194 106.77 147.918 106.818 148.099 107.065C148.352 107.41 148.111 108.291 147.562 108.683C145.325 110.277 142.033 112.577 139.795 114.164C143.841 111.593 149.16 108.339 150.01 109.401C150.275 109.733 150.131 110.645 149.558 111.055C147.128 112.818 143.932 115.015 141.502 116.778C143.582 114.997 150.028 111.2 150.541 112.558C151.053 113.923 145.096 117.677 142.581 119.204C144.613 117.937 149.377 114.955 149.914 116.216C150.318 117.17 148.888 118.039 148.412 118.414C144.619 121.359 140.145 125.398 135.997 126.877C135.008 127.233 133.5 127.39 132.656 128.011C131.758 128.663 131.275 129.442 130.546 130.275C110.153 153.527 103.689 161.428 100.016 160.643C96.9352 159.986 99.2266 147.4 102.368 139.184C104.038 139.245 116.816 130.124 124.335 122.597H124.329Z" fill="white"/>
<path d="M100.511 161.012C100.318 161.012 100.131 160.994 99.9442 160.952C99.4799 160.855 99.1 160.541 98.8227 160.034C97.1705 156.992 99.2086 146.543 102.061 139.064C102.109 138.938 102.236 138.853 102.374 138.859H102.386C103.918 138.859 116.351 130.119 124.1 122.368C125.812 120.654 126.307 119.235 126.874 117.587C127.44 115.945 128.086 114.092 130.112 111.69C131.71 109.794 133.259 108.146 134.839 106.48C134.954 106.36 135.062 106.239 135.171 106.118C135.816 105.4 136.618 104.501 137.528 105.273C138.722 106.281 137.432 108.738 137.022 109.342C135.629 111.394 135.424 112.336 135.436 113.102C138.722 110.615 143.293 107.7 146.796 106.559C147.122 106.456 148.038 106.468 148.34 106.879C148.485 107.072 148.533 107.362 148.485 107.694C148.424 108.086 148.189 108.623 147.731 108.949C147.285 109.269 146.796 109.613 146.278 109.975C148.587 108.817 149.775 108.623 150.245 109.209C150.414 109.42 150.48 109.734 150.426 110.102C150.36 110.603 150.101 111.056 149.733 111.322C149.274 111.654 148.78 112.01 148.274 112.372C149.13 112.046 149.853 111.883 150.294 111.992C150.625 112.076 150.77 112.287 150.83 112.45C150.945 112.752 151.222 113.501 148.225 115.819C148.846 115.613 149.353 115.541 149.703 115.65C149.938 115.722 150.113 115.879 150.209 116.096C150.667 117.171 149.455 118.052 148.81 118.523C148.732 118.577 148.665 118.632 148.611 118.674C147.888 119.235 147.152 119.827 146.368 120.454C143.154 123.038 139.512 125.966 136.111 127.185C135.762 127.312 135.364 127.408 134.942 127.511C134.164 127.704 133.362 127.903 132.849 128.277C132.24 128.724 131.836 129.219 131.372 129.793C131.191 130.016 130.998 130.251 130.793 130.493C128.875 132.678 127.085 134.724 125.408 136.644C109.851 154.421 104.075 161.024 100.523 161.024L100.511 161.012ZM102.597 139.475C99.8296 146.797 97.876 156.95 99.3895 159.733C99.5764 160.077 99.7995 160.276 100.083 160.33C103.23 160.994 109.134 154.252 124.92 136.209C126.596 134.29 128.393 132.243 130.305 130.058C130.504 129.829 130.69 129.599 130.871 129.382C131.348 128.797 131.794 128.247 132.469 127.752C133.078 127.306 133.947 127.088 134.785 126.883C135.189 126.78 135.575 126.69 135.894 126.575C139.193 125.398 142.792 122.501 145.97 119.947C146.754 119.32 147.496 118.722 148.219 118.155C148.28 118.106 148.352 118.052 148.436 117.992C148.943 117.623 149.883 116.941 149.624 116.338C149.612 116.308 149.594 116.277 149.516 116.253C148.671 115.988 145.874 117.569 143.998 118.704C143.606 118.951 143.19 119.205 142.75 119.471C142.599 119.561 142.406 119.513 142.31 119.362C142.22 119.211 142.262 119.018 142.412 118.921L142.467 118.885C142.841 118.65 143.214 118.42 143.582 118.197C150.45 113.899 150.287 112.776 150.239 112.656C150.239 112.644 150.227 112.613 150.143 112.595C149.317 112.384 146.537 113.76 144.233 115.209C143.341 115.837 142.473 116.458 141.689 117.02C141.55 117.122 141.357 117.092 141.249 116.959C141.14 116.827 141.164 116.627 141.291 116.519C141.864 116.03 142.792 115.36 143.854 114.69C144.348 114.34 144.849 113.99 145.337 113.646C146.718 112.674 148.147 111.666 149.359 110.79C149.63 110.597 149.763 110.253 149.799 110C149.829 109.794 149.799 109.643 149.751 109.595C149.685 109.511 149.196 109.173 146.235 110.7C144.306 111.696 141.978 113.145 139.952 114.43C139.808 114.521 139.615 114.485 139.518 114.34C139.422 114.195 139.458 114.002 139.597 113.899C140.712 113.108 142.087 112.136 143.468 111.165C144.855 110.187 146.241 109.215 147.363 108.412C147.64 108.213 147.809 107.851 147.851 107.579C147.882 107.386 147.851 107.277 147.827 107.247C147.731 107.15 147.2 107.096 147.001 107.163C143.395 108.334 138.626 111.442 135.358 113.965C135.267 114.038 135.14 114.05 135.032 114.008C134.923 113.959 134.851 113.857 134.845 113.742V113.652C134.749 112.631 134.664 111.672 136.497 108.973C136.974 108.273 137.824 106.354 137.118 105.756C136.744 105.442 136.425 105.678 135.647 106.541C135.532 106.668 135.418 106.794 135.303 106.921C133.736 108.581 132.192 110.223 130.6 112.106C128.646 114.418 128.049 116.139 127.477 117.798C126.91 119.446 126.367 121.004 124.552 122.821C117.684 129.696 105.196 138.901 102.591 139.475H102.597Z" fill="#1A1A1A"/>
<path d="M134.959 122.127C134.869 122.127 134.778 122.09 134.712 122.012C134.597 121.879 134.615 121.674 134.754 121.559C136.207 120.34 136.744 118.185 136.032 116.428C135.894 116.09 135.725 115.776 135.538 115.438C135.285 114.974 135.019 114.497 134.869 113.966C134.82 113.796 134.917 113.615 135.086 113.567C135.255 113.519 135.436 113.615 135.484 113.784C135.616 114.249 135.852 114.672 136.099 115.124C136.286 115.463 136.479 115.813 136.623 116.181C137.437 118.185 136.822 120.654 135.164 122.048C135.104 122.096 135.032 122.121 134.959 122.121V122.127Z" fill="#1A1A1A"/>
<path d="M94.9153 158.744C94.8611 158.744 94.8188 158.708 94.8128 158.654C93.9505 153.137 94.7224 147.288 96.9775 142.181C97.0017 142.127 97.062 142.102 97.1162 142.127C97.1705 142.151 97.1946 142.211 97.1705 142.265C94.9274 147.336 94.1676 153.143 95.0178 158.618C95.0239 158.678 94.9877 158.732 94.9274 158.738C94.9274 158.738 94.9153 158.738 94.9093 158.738L94.9153 158.744Z" fill="#1A1A1A"/>
<path d="M92.427 157.846C92.3787 157.846 92.3365 157.816 92.3245 157.768C91.7456 155.812 91.6853 153.723 92.1436 151.737C92.1556 151.677 92.2159 151.647 92.2702 151.659C92.3305 151.671 92.3607 151.731 92.3486 151.786C91.8964 153.735 91.9567 155.788 92.5235 157.707C92.5416 157.762 92.5054 157.822 92.4511 157.84C92.439 157.84 92.433 157.84 92.4209 157.84L92.427 157.846Z" fill="#1A1A1A"/>
<path d="M23.8178 157.742C33.8334 159.438 43.9455 161.014 54.0515 162.589C54.9741 162.644 59.5447 163.018 60.6783 163.102C61.6371 163.175 62.5958 163.036 63.5365 162.837C66.8047 162.143 73.7691 160.899 75.0053 162.016C78.0503 163.718 80.4804 166.748 82.1145 170.261C83.031 172.235 83.4652 175.253 82.82 175.61C82.4099 175.833 81.8672 175.845 81.5597 175.441C80.7698 171.789 78.6413 168.445 75.6746 166.181C77.0192 167.4 78.2132 168.783 79.2262 170.292C80.2513 171.819 81.1195 173.575 81.011 175.41C81.005 175.555 80.9809 175.706 80.8844 175.809C80.6432 176.062 80.2271 175.791 80.004 175.513C79.5699 174.976 74.0164 167.901 72.7139 167.756C74.2576 168.777 79.1779 175.042 79.0875 175.573C79.0453 175.827 78.9367 176.074 78.7378 176.237C78.4664 176.455 78.0684 176.455 77.7428 176.322C77.4172 176.189 77.1579 175.948 76.9047 175.706C75.2284 174.082 73.7812 172.193 71.8758 170.841C70.9231 170.165 69.699 169.622 68.6197 170.062C70.3321 171.197 71.8517 172.634 73.0154 174.318C73.2023 174.589 73.341 174.885 73.4315 175.199C73.5702 175.664 73.6908 176.322 73.2928 176.593C72.6416 177.034 72.2617 176.654 71.8698 176.286C70.3382 174.686 68.7161 173.286 66.9614 172.078C66.4188 171.704 65.7494 171.33 65.1284 171.559C64.5917 171.752 61.9989 172.652 57.2775 171.831C55.6675 171.553 54.0334 171.62 51.923 171.716C24.053 172.996 15.5629 174.107 9.82855 169.929C8.707 169.115 8.43565 168.36 9.3341 166.32C11.734 160.863 13.549 157.863 23.8238 157.748L23.8178 157.742Z" fill="white"/>
<path d="M72.7441 177.11C72.2798 177.11 71.9361 176.784 71.6768 176.543L71.6467 176.519C70.0789 174.883 68.487 173.518 66.7745 172.341C66.3102 172.022 65.7193 171.683 65.2309 171.859C64.2902 172.197 61.619 172.909 57.2172 172.148C55.6012 171.871 53.9008 171.949 51.929 172.04C48.2146 172.209 44.7957 172.378 41.7808 172.529C21.5205 173.537 14.6947 173.875 9.63563 170.186C8.28494 169.203 8.14022 168.231 9.03867 166.19C11.4627 160.673 13.35 157.547 23.8179 157.426C23.8359 157.426 23.854 157.426 23.8721 157.426C34.0385 159.146 44.2289 160.734 54.0877 162.267C54.7872 162.309 57.3077 162.508 59.1528 162.659C59.8281 162.714 60.395 162.756 60.7025 162.78C61.7034 162.858 62.7044 162.683 63.4702 162.52C66.5092 161.875 73.7029 160.51 75.1862 161.748C78.1227 163.396 80.6191 166.293 82.4039 170.126C83.1938 171.822 83.9657 175.347 82.9768 175.891C82.3678 176.229 81.6803 176.126 81.3065 175.637C81.2824 175.776 81.2281 175.915 81.1135 176.036C80.9809 176.174 80.806 176.241 80.6191 176.235C80.2814 176.223 79.9498 175.963 79.7568 175.722C79.7206 175.679 79.6543 175.595 79.5639 175.48C79.4372 175.317 79.3106 175.16 79.184 175.009C79.3468 175.311 79.4192 175.517 79.395 175.637C79.3287 176.005 79.1659 176.301 78.9247 176.494C78.581 176.766 78.0805 176.814 77.6102 176.621C77.2363 176.47 76.9409 176.199 76.6695 175.939C76.1027 175.39 75.56 174.81 75.0354 174.249C73.9983 173.138 72.925 171.991 71.6828 171.104C71.0618 170.663 70.2236 170.205 69.4096 170.223C70.9532 171.345 72.2557 172.655 73.2747 174.134C73.4737 174.424 73.6305 174.756 73.739 175.106C73.8355 175.432 74.1249 176.416 73.4737 176.857C73.2024 177.038 72.9612 177.11 72.7501 177.11H72.7441ZM65.5203 171.164C66.1113 171.164 66.6781 171.496 67.1363 171.81C68.885 173.011 70.507 174.406 72.0929 176.06L72.111 176.072C72.515 176.452 72.7019 176.597 73.1059 176.319C73.2747 176.205 73.2808 175.836 73.1119 175.281C73.0275 174.991 72.9009 174.726 72.7381 174.49C71.6286 172.885 70.1814 171.478 68.4267 170.319C68.3302 170.253 68.276 170.138 68.288 170.017C68.3001 169.897 68.3785 169.8 68.487 169.752C69.7593 169.239 71.1221 169.909 72.0507 170.567C73.3471 171.49 74.4445 172.661 75.4997 173.796C76.0183 174.352 76.561 174.931 77.1157 175.468C77.3509 175.698 77.5861 175.909 77.8514 176.018C78.1047 176.12 78.37 176.108 78.5267 175.981C78.6353 175.897 78.7137 175.746 78.7559 175.559C78.5147 174.78 73.9802 168.985 72.5331 168.025C72.4125 167.947 72.3582 167.79 72.4064 167.651C72.4547 167.512 72.5934 167.428 72.7441 167.44C73.0757 167.476 74.0827 167.585 80.0583 175.076C80.1488 175.191 80.2151 175.269 80.2452 175.311C80.402 175.504 80.595 175.601 80.6492 175.589C80.6553 175.577 80.6794 175.541 80.6854 175.39C80.7698 173.917 80.2211 172.347 78.9549 170.47C77.9539 168.985 76.7781 167.621 75.4515 166.42C75.3249 166.305 75.3128 166.112 75.4214 165.979C75.5299 165.846 75.7228 165.828 75.8615 165.931C78.8523 168.213 81.0351 171.623 81.8492 175.299C82.0602 175.51 82.41 175.468 82.6632 175.335C82.9949 175.076 82.7718 172.45 81.819 170.404C80.1126 166.74 77.6343 163.86 74.8425 162.303C74.8244 162.291 74.8003 162.279 74.7822 162.261C73.8657 161.434 68.5051 162.116 63.5968 163.16C62.7948 163.329 61.7336 163.516 60.6482 163.432C60.3407 163.408 59.7739 163.365 59.0985 163.311C57.3499 163.172 54.7028 162.961 54.0335 162.919C54.0214 162.919 54.0154 162.919 54.0033 162.919C44.1505 161.386 33.9601 159.798 23.7937 158.078C13.7239 158.198 12.0054 161.035 9.62357 166.456C8.74321 168.46 9.08088 169.003 10.0155 169.679C14.8937 173.235 21.6652 172.897 41.7567 171.895C44.7716 171.744 48.1966 171.575 51.9109 171.406C53.9189 171.315 55.6555 171.231 57.3378 171.527C61.5889 172.263 64.1335 171.593 65.0259 171.267C65.1947 171.207 65.3636 171.182 65.5264 171.182L65.5203 171.164Z" fill="#1A1A1A"/>
</svg>
