<svg width="64" height="32" viewBox="0 0 64 32" fill="none" xmlns="http://www.w3.org/2000/svg">
<path d="M37.3789 6.54458C37.3789 3.21007 34.9698 0 31.999 0C29.0283 0 26.6191 3.21007 26.6191 6.54458C26.6191 15.6642 31.999 31.9986 31.999 31.9986C31.999 31.9986 37.3789 15.409 37.3789 6.54458Z" fill="#F26722"/>
<path fill-rule="evenodd" clip-rule="evenodd" d="M31.4726 30.3342C31.7976 31.3869 31.999 31.9986 31.999 31.9986C31.999 31.9986 32.1978 31.3856 32.519 30.3324C33.8685 25.9063 37.3789 13.705 37.3789 6.54458C37.3789 3.21007 34.9698 0 31.999 0C29.0283 0 26.6191 3.21007 26.6191 6.54458C26.6191 13.8995 30.1184 25.947 31.4726 30.3342ZM31.993 28.6056C32.48 26.957 33.1002 24.7703 33.7202 22.3478C35.0657 17.0902 36.3789 10.8371 36.3789 6.54458C36.3789 5.10834 35.8564 3.69132 35.0216 2.64583C34.1859 1.59921 33.1059 1 31.999 1C30.8921 1 29.8122 1.59921 28.9765 2.64583C28.1417 3.69132 27.6191 5.10834 27.6191 6.54458C27.6191 10.9653 28.9328 17.2196 30.2775 22.4421C30.8926 24.8309 31.5079 26.9807 31.993 28.6056Z" fill="#1A1A1A"/>
<path d="M32.002 32H63.9975C63.9968 29.0297 60.7871 26.6211 57.4529 26.6211C48.4047 26.6211 32.2545 31.917 32.002 32Z" fill="#F26722"/>
<path d="M0 32C0.000710601 29.0297 3.21044 26.6211 6.54458 26.6211C15.3395 26.6211 31.7389 31.917 31.9955 32H0Z" fill="#F26722"/>
<path d="M53.8016 17.7999C56.1597 15.4418 56.7277 11.4691 54.6249 9.36946C52.522 7.26983 48.5525 7.83782 46.1945 10.1927C39.7456 16.6416 31.998 31.9963 31.998 31.9963C31.998 31.9963 47.5314 24.07 53.8016 17.7999Z" fill="#F26722"/>
<path fill-rule="evenodd" clip-rule="evenodd" d="M32.8029 30.447C32.2882 31.4212 31.998 31.9963 31.998 31.9963C31.998 31.9963 32.5721 31.7034 33.5441 31.1856C37.628 29.01 48.7368 22.8646 53.8016 17.7999C56.1597 15.4418 56.7277 11.4691 54.6249 9.36946C52.522 7.26983 48.5525 7.83782 46.1945 10.1927C40.9936 15.3936 34.948 26.3869 32.8029 30.447ZM34.3934 29.5925C35.9033 28.7711 37.8877 27.6636 40.0388 26.3891C44.7078 23.6226 50.0582 20.1291 53.0945 17.0928C54.1104 16.0769 54.7432 14.7054 54.8923 13.3763C55.0416 12.0458 54.7016 10.8592 53.9183 10.0771C53.1344 9.29441 51.9472 8.95515 50.6169 9.1044C49.288 9.2535 47.9172 9.88567 46.9013 10.9001C46.9012 10.9002 46.9011 10.9002 46.9011 10.9003M46.9011 10.9003C43.7751 14.0264 40.2813 19.3777 37.539 24.0213C36.2847 26.1453 35.1995 28.1005 34.3934 29.5925" fill="#1A1A1A"/>
<path d="M17.8057 10.199C15.4476 7.84087 11.4749 7.27288 9.37532 9.3757C7.27569 11.4785 7.84367 15.448 10.1986 17.8061C16.6474 24.255 32.0021 32.0025 32.0021 32.0025C32.0021 32.0025 24.0759 16.4691 17.8057 10.199Z" fill="#F26722"/>
<path fill-rule="evenodd" clip-rule="evenodd" d="M30.4529 31.1976C31.4271 31.7124 32.0021 32.0025 32.0021 32.0025C32.0021 32.0025 31.7092 31.4285 31.1914 30.4565C29.0158 26.3726 22.8705 15.2637 17.8057 10.199C15.4476 7.84087 11.4749 7.27288 9.37532 9.3757C7.27569 11.4785 7.84367 15.448 10.1986 17.8061C15.3994 23.007 26.3928 29.0526 30.4529 31.1976ZM29.5984 29.6072C28.777 28.0972 27.6694 26.1128 26.3949 23.9618C23.6285 19.2928 20.1349 13.9424 17.0986 10.9061C16.0828 9.89021 14.7113 9.25735 13.3821 9.10826C12.0516 8.95901 10.8651 9.29896 10.083 10.0823C9.30027 10.8662 8.96101 12.0534 9.11026 13.3837C9.25935 14.7125 9.89141 16.0831 10.9057 17.099C14.0318 20.2251 19.3834 23.7192 24.0272 26.4616C26.1512 27.7159 28.1064 28.8011 29.5984 29.6072Z" fill="#1A1A1A"/>
<path fill-rule="evenodd" clip-rule="evenodd" d="M0 32C0.0007106 29.0297 3.21044 26.6211 6.54458 26.6211C13.705 26.6211 25.9063 30.1315 30.3324 31.4811C31.3426 31.7891 31.9478 31.9846 31.9955 32H28.5819C26.936 31.5141 24.7587 30.8968 22.3478 30.2798C17.0902 28.9343 10.8371 27.6211 6.54458 27.6211C5.10834 27.6211 3.69132 28.1436 2.64582 28.9785C1.59952 29.8139 1.00036 30.8934 1 32H0Z" fill="#1A1A1A"/>
<path d="M32.002 32C32.0492 31.9845 32.6533 31.7864 33.6633 31.4746C38.0505 30.1203 50.098 26.6211 57.4529 26.6211C60.7871 26.6211 63.9968 29.0297 63.9975 32H62.9975C62.9972 30.8934 62.398 29.8139 61.3517 28.9785C60.3062 28.1436 58.8892 27.6211 57.4529 27.6211C53.0322 27.6211 46.7779 28.9348 41.5554 30.2795C39.1666 30.8945 37.0168 31.5099 35.3919 31.995C35.3976 31.9966 35.4033 31.9983 35.4089 32H32.002Z" fill="#1A1A1A"/>
</svg>
