<svg width="220" height="342" viewBox="0 0 220 342" fill="none" xmlns="http://www.w3.org/2000/svg">
<path d="M220 57.3658C169.926 45.4088 115.084 62.7511 81.7934 105.924C36.5805 164.523 47.6774 248.771 106.555 293.769C118.386 302.806 120.587 319.692 111.507 331.466C102.428 343.241 85.4618 345.431 73.6313 336.486C-8.81577 273.415 -24.4064 155.396 38.965 73.2478C82.8939 16.2919 153.419 -8.53506 220 2.60056" fill="#FFBC01"/>
<path fill-rule="evenodd" clip-rule="evenodd" d="M220 57.3658C219.833 57.326 219.667 57.2866 219.5 57.2475C169.562 45.5245 114.973 62.8948 81.7934 105.924C36.5805 164.523 47.6774 248.771 106.555 293.769C118.386 302.806 120.587 319.692 111.507 331.466C102.428 343.241 85.4618 345.431 73.6313 336.486C-8.81579 273.415 -24.4064 155.396 38.965 73.2478L39.7568 73.8586C-23.2749 155.566 -7.76966 272.954 74.2364 335.69C85.6331 344.305 101.975 342.191 110.715 330.855C119.457 319.519 117.338 303.263 105.948 294.564C46.6309 249.229 35.4498 164.352 81.0017 105.314C114.381 62.0256 169.259 44.5183 219.5 56.2205L219.5 3.53113C153.364 -7.40746 83.3761 17.3041 39.7568 73.8586L38.965 73.2478C82.8939 16.2919 153.419 -8.53506 220 2.60056L220 57.3658Z" fill="#1A1A1A"/>
</svg>
