<svg width="220" height="342" viewBox="0 0 220 342" fill="none" xmlns="http://www.w3.org/2000/svg">
<path d="M1.93499e-06 57.3658C50.0735 45.4088 104.916 62.7511 138.207 105.924C183.419 164.523 172.323 248.771 113.445 293.769C101.614 302.806 99.4134 319.692 108.493 331.466C117.572 343.241 134.538 345.431 146.369 336.486C228.816 273.415 244.406 155.396 181.035 73.2478C137.106 16.2919 66.5813 -8.53506 2.30732e-06 2.60056" fill="#EF87BF"/>
<path fill-rule="evenodd" clip-rule="evenodd" d="M1.93499e-06 57.3658C0.166616 57.326 0.333283 57.2866 0.500002 57.2475C50.4382 45.5245 105.027 62.8947 138.207 105.924C183.419 164.523 172.323 248.771 113.445 293.769C101.614 302.806 99.4134 319.692 108.493 331.466C117.572 343.241 134.538 345.431 146.369 336.486C228.816 273.415 244.406 155.396 181.035 73.2478L180.243 73.8586C243.275 155.566 227.77 272.954 145.764 335.69C134.367 344.305 118.025 342.191 109.285 330.855C100.543 319.519 102.662 303.263 114.052 294.564C173.369 249.229 184.55 164.352 138.998 105.314C105.619 62.0256 50.7412 44.5183 0.500002 56.2205L0.500002 3.53113C66.6364 -7.40747 136.624 17.3041 180.243 73.8586L181.035 73.2478C137.106 16.2919 66.5813 -8.53506 2.30732e-06 2.60056L1.93499e-06 57.3658Z" fill="#1A1A1A"/>
</svg>
