<svg width="483" height="391" viewBox="0 0 483 391" fill="none" xmlns="http://www.w3.org/2000/svg">
<path fill-rule="evenodd" clip-rule="evenodd" d="M0 272.595V0H449.252C453.997 8.62807 458.308 17.6109 462.144 26.9322C478.021 65.5099 484.05 105.684 481.396 144.665C481.291 146.208 479.998 147.407 478.433 147.407H405.72C402.959 147.407 400.72 149.646 400.72 152.407V166.458C400.72 168.115 399.377 169.458 397.72 169.458H383.669C382.012 169.458 380.669 168.115 380.669 166.458V152.407C380.669 149.646 378.43 147.407 375.669 147.407H317.516C314.755 147.407 312.516 149.646 312.516 152.407V169.458H295.465C293.808 169.458 292.465 168.115 292.465 166.458V152.407C292.465 149.646 290.226 147.407 287.465 147.407H251.363C248.602 147.407 246.363 149.646 246.363 152.407V166.458C246.363 169.219 248.602 171.458 251.363 171.458H265.414C267.071 171.458 268.414 172.801 268.414 174.458V191.509H251.363C248.602 191.509 246.363 193.748 246.363 196.509V232.611C246.363 235.372 248.602 237.611 251.363 237.611H265.414C267.071 237.611 268.414 238.954 268.414 240.611V254.662C268.414 256.319 267.071 257.662 265.414 257.662H207.261C205.604 257.662 204.261 256.319 204.261 254.662V240.611C204.261 237.85 202.023 235.611 199.261 235.611H185.21C182.449 235.611 180.21 237.85 180.21 240.611V276.685C180.21 278.341 178.867 279.685 177.21 279.685H163.159C161.502 279.685 160.159 278.341 160.159 276.685V262.634C160.159 259.872 157.921 257.634 155.159 257.634H141.108C139.451 257.634 138.108 256.29 138.108 254.634V240.583C138.108 237.821 135.87 235.583 133.108 235.583H97.0062C94.2447 235.583 92.0062 237.821 92.0062 240.583V254.634C92.0062 257.395 94.2448 259.634 97.0062 259.634H111.057C112.714 259.634 114.057 260.977 114.057 262.634V279.685H97.0062C94.2447 279.685 92.0062 281.923 92.0062 284.685V298.736C92.0062 301.497 94.2448 303.736 97.0062 303.736H114.057V320.787C114.057 323.548 116.296 325.787 119.057 325.787H133.108C134.765 325.787 136.108 327.13 136.108 328.787V345.838L119.057 345.838C116.296 345.838 114.057 348.076 114.057 350.838V367.525C114.057 367.726 113.894 367.889 113.694 367.889C113.643 367.889 113.594 367.878 113.549 367.858C68.226 348.021 28.4268 315.455 0 272.595ZM292.465 369.917H310.842C311.767 369.917 312.516 370.666 312.516 371.591C312.516 372.285 312.089 372.904 311.446 373.145C306.405 375.042 301.34 376.773 296.258 378.342C294.374 378.923 292.465 377.505 292.465 375.504V369.917ZM290.465 347.866V367.917H251.363C249.706 367.917 248.363 366.574 248.363 364.917V350.866C248.363 349.209 249.706 347.866 251.363 347.866H290.465ZM292.465 328.815V345.866H309.516C311.173 345.866 312.516 344.523 312.516 342.866V328.815C312.516 327.158 311.173 325.815 309.516 325.815H295.465C293.808 325.815 292.465 327.158 292.465 328.815ZM224.312 372.917V387.02C224.312 388.653 223.011 389.976 221.398 389.99C216.608 390.032 211.83 389.942 207.067 389.723C205.497 389.651 204.261 388.346 204.261 386.756V372.917C204.261 371.26 205.604 369.917 207.261 369.917H221.312C222.969 369.917 224.312 371.26 224.312 372.917ZM180.21 369.889V383.628C180.21 385.463 178.587 386.852 176.801 386.56C171.994 385.773 167.215 384.855 162.469 383.806C161.119 383.507 160.159 382.302 160.159 380.905V369.889H180.21ZM199.261 367.889H182.21V350.866C182.21 349.209 183.553 347.866 185.21 347.866H202.261V364.889C202.261 366.545 200.918 367.889 199.261 367.889ZM141.108 367.889H158.159V347.838H138.108L138.108 364.889C138.108 366.545 139.451 367.889 141.108 367.889ZM116.057 301.736V281.685H133.108C134.765 281.685 136.108 283.028 136.108 284.685V298.736C136.108 300.392 134.765 301.736 133.108 301.736H116.057ZM314.516 188.509V171.458H331.567C333.224 171.458 334.567 172.801 334.567 174.458V188.509C334.567 190.166 333.224 191.509 331.567 191.509H317.516C315.859 191.509 314.516 190.166 314.516 188.509ZM270.414 210.56V193.509H287.465C289.122 193.509 290.465 194.852 290.465 196.509V210.56C290.465 212.217 289.122 213.56 287.465 213.56H273.414C271.757 213.56 270.414 212.217 270.414 210.56ZM177.21 345.838L160.159 345.838V306.736C160.159 305.079 161.502 303.736 163.159 303.736H177.21C179.972 303.736 182.21 301.497 182.21 298.736V284.713C182.21 283.056 183.553 281.713 185.21 281.713H243.363C245.02 281.713 246.363 283.056 246.363 284.713V301.764H185.21C182.449 301.764 180.21 304.003 180.21 306.764V342.838C180.21 344.494 178.867 345.838 177.21 345.838ZM248.363 320.815V303.764H265.414C267.071 303.764 268.414 305.107 268.414 306.764V320.815C268.414 322.472 267.071 323.815 265.414 323.815H251.363C249.706 323.815 248.363 322.472 248.363 320.815ZM221.312 345.866H204.261V328.815C204.261 327.158 205.604 325.815 207.261 325.815H221.312C222.969 325.815 224.312 327.158 224.312 328.815V342.866C224.312 344.523 222.969 345.866 221.312 345.866ZM446.822 215.532H466.58C464.365 221.721 461.919 227.825 459.25 233.831C458.776 234.897 457.712 235.583 456.535 235.583H449.822C448.165 235.583 446.822 234.24 446.822 232.583V215.532ZM444.822 193.481V213.532H427.771C426.114 213.532 424.771 212.189 424.771 210.532V196.481C424.771 194.824 426.114 193.481 427.771 193.481H444.822ZM446.822 174.43V191.481H463.873C465.53 191.481 466.873 190.138 466.873 188.481V174.43C466.873 172.773 465.53 171.43 463.873 171.43H449.822C448.165 171.43 446.822 172.773 446.822 174.43ZM378.669 328.787V334.5C378.669 335.435 378.235 336.313 377.495 336.871C373.621 339.793 369.652 342.616 365.589 345.338C365.102 345.664 364.527 345.838 363.936 345.838H361.618C359.961 345.838 358.618 344.494 358.618 342.838V328.787C358.618 327.13 359.961 325.787 361.618 325.787H375.669C377.326 325.787 378.669 327.13 378.669 328.787ZM400.72 196.509V210.56C400.72 212.217 399.377 213.56 397.72 213.56H383.669C382.012 213.56 380.669 212.217 380.669 210.56V196.509C380.669 194.852 382.012 193.509 383.669 193.509H397.72C399.377 193.509 400.72 194.852 400.72 196.509ZM419.771 257.634H405.72C404.063 257.634 402.72 256.29 402.72 254.634V240.583C402.72 238.926 404.063 237.583 405.72 237.583H419.771C421.428 237.583 422.771 238.926 422.771 240.583V254.634C422.771 256.29 421.428 257.634 419.771 257.634ZM361.618 237.583H375.669C377.326 237.583 378.669 238.926 378.669 240.583V254.634C378.669 256.29 377.326 257.634 375.669 257.634H361.618C359.961 257.634 358.618 256.29 358.618 254.634V240.583C358.618 238.926 359.961 237.583 361.618 237.583ZM361.618 281.685H375.669C377.326 281.685 378.669 283.028 378.669 284.685V298.736C378.669 300.392 377.326 301.736 375.669 301.736H361.618C359.961 301.736 358.618 300.392 358.618 298.736V284.685C358.618 283.028 359.961 281.685 361.618 281.685ZM334.567 218.532V232.583C334.567 234.24 333.224 235.583 331.567 235.583H317.516C315.859 235.583 314.516 234.24 314.516 232.583V218.532C314.516 216.875 315.859 215.532 317.516 215.532H331.567C333.224 215.532 334.567 216.875 334.567 218.532ZM292.465 276.685V262.634C292.465 260.977 293.808 259.634 295.465 259.634H309.516C311.173 259.634 312.516 260.977 312.516 262.634V279.685H295.465C293.808 279.685 292.465 278.341 292.465 276.685ZM314.516 298.736V281.685H331.567C333.224 281.685 334.567 283.028 334.567 284.685V298.736C334.567 300.392 333.224 301.736 331.567 301.736H317.516C315.859 301.736 314.516 300.392 314.516 298.736ZM177.21 213.532H163.159C160.398 213.532 158.159 215.77 158.159 218.532V232.583C158.159 235.344 160.398 237.583 163.159 237.583H177.21C179.972 237.583 182.21 235.344 182.21 232.583V218.532C182.21 215.77 179.972 213.532 177.21 213.532Z" fill="#7DD3B2"/>
<path fill-rule="evenodd" clip-rule="evenodd" d="M0 274.397C28.4773 316.804 68.0945 349.055 113.148 368.775C113.32 368.85 113.506 368.889 113.694 368.889C114.447 368.889 115.057 368.278 115.057 367.525V350.838C115.057 348.628 116.848 346.838 119.057 346.838L137.108 346.838L137.108 364.889C137.108 367.098 138.899 368.889 141.108 368.889H159.159V380.905C159.159 382.764 160.439 384.381 162.253 384.782C167.017 385.835 171.814 386.757 176.64 387.547C179.046 387.94 181.21 386.067 181.21 383.628V368.889H199.261C201.47 368.889 203.261 367.098 203.261 364.889V346.866H221.312C223.521 346.866 225.312 345.075 225.312 342.866V328.815C225.312 326.606 223.521 324.815 221.312 324.815H207.261C205.052 324.815 203.261 326.606 203.261 328.815V346.866H185.21C183.001 346.866 181.21 348.657 181.21 350.866V368.889H159.159V346.838L177.21 346.838C179.419 346.838 181.21 345.047 181.21 342.838V306.764C181.21 304.555 183.001 302.764 185.21 302.764H247.363V320.815C247.363 323.024 249.154 324.815 251.363 324.815H265.414C267.623 324.815 269.414 323.024 269.414 320.815V306.764C269.414 304.555 267.623 302.764 265.414 302.764H247.363V284.713C247.363 282.504 245.572 280.713 243.363 280.713H185.21C183.001 280.713 181.21 282.504 181.21 284.713V298.736C181.21 300.945 179.419 302.736 177.21 302.736H163.159C160.95 302.736 159.159 304.526 159.159 306.736V346.838H137.108V328.787C137.108 326.577 135.317 324.787 133.108 324.787H119.057C116.848 324.787 115.057 322.996 115.057 320.787V302.736H133.108C135.317 302.736 137.108 300.945 137.108 298.736V284.685C137.108 282.475 135.317 280.685 133.108 280.685H115.057V262.634C115.057 260.424 113.266 258.634 111.057 258.634H97.0062C94.797 258.634 93.0062 256.843 93.0062 254.634V240.583C93.0062 238.374 94.797 236.583 97.0062 236.583H133.108C135.317 236.583 137.108 238.374 137.108 240.583V254.634C137.108 256.843 138.899 258.634 141.108 258.634H155.159C157.368 258.634 159.159 260.424 159.159 262.634V276.685C159.159 278.894 160.95 280.685 163.159 280.685H177.21C179.419 280.685 181.21 278.894 181.21 276.685V240.611C181.21 238.402 183.001 236.611 185.21 236.611H199.261C201.47 236.611 203.261 238.402 203.261 240.611V254.662C203.261 256.871 205.052 258.662 207.261 258.662H265.414C267.623 258.662 269.414 256.871 269.414 254.662V240.611C269.414 238.402 267.623 236.611 265.414 236.611H251.363C249.154 236.611 247.363 234.82 247.363 232.611V196.509C247.363 194.3 249.154 192.509 251.363 192.509H269.414V210.56C269.414 212.769 271.205 214.56 273.414 214.56H287.465C289.674 214.56 291.465 212.769 291.465 210.56V196.509C291.465 194.3 289.674 192.509 287.465 192.509H269.414V174.458C269.414 172.249 267.623 170.458 265.414 170.458H251.363C249.154 170.458 247.363 168.667 247.363 166.458V152.407C247.363 150.198 249.154 148.407 251.363 148.407H287.465C289.674 148.407 291.465 150.198 291.465 152.407V166.458C291.465 168.667 293.256 170.458 295.465 170.458H313.516V188.509C313.516 190.718 315.307 192.509 317.516 192.509H331.567C333.776 192.509 335.567 190.718 335.567 188.509V174.458C335.567 172.249 333.776 170.458 331.567 170.458H313.516V152.407C313.516 150.198 315.307 148.407 317.516 148.407H375.669C377.878 148.407 379.669 150.198 379.669 152.407V166.458C379.669 168.667 381.46 170.458 383.669 170.458H397.72C399.929 170.458 401.72 168.667 401.72 166.458V152.407C401.72 150.198 403.511 148.407 405.72 148.407H478.433C480.515 148.407 482.252 146.81 482.393 144.733C485.057 105.602 479.005 65.2744 463.069 26.5516C459.289 17.3687 455.052 8.51299 450.393 0H449.252C453.997 8.62807 458.308 17.6109 462.144 26.9322C478.021 65.5099 484.05 105.684 481.396 144.665C481.291 146.208 479.998 147.407 478.433 147.407H405.72C402.959 147.407 400.72 149.646 400.72 152.407V166.458C400.72 168.115 399.377 169.458 397.72 169.458H383.669C382.012 169.458 380.669 168.115 380.669 166.458V152.407C380.669 149.646 378.43 147.407 375.669 147.407H317.516C314.755 147.407 312.516 149.646 312.516 152.407V169.458H295.465C293.808 169.458 292.465 168.115 292.465 166.458V152.407C292.465 149.646 290.226 147.407 287.465 147.407H251.363C248.602 147.407 246.363 149.646 246.363 152.407V166.458C246.363 169.219 248.602 171.458 251.363 171.458H265.414C267.071 171.458 268.414 172.801 268.414 174.458V191.509H251.363C248.602 191.509 246.363 193.748 246.363 196.509V232.611C246.363 235.372 248.602 237.611 251.363 237.611H265.414C267.071 237.611 268.414 238.954 268.414 240.611V254.662C268.414 256.319 267.071 257.662 265.414 257.662H207.261C205.604 257.662 204.261 256.319 204.261 254.662V240.611C204.261 237.85 202.023 235.611 199.261 235.611H185.21C182.449 235.611 180.21 237.85 180.21 240.611V276.685C180.21 278.341 178.867 279.685 177.21 279.685H163.159C161.502 279.685 160.159 278.341 160.159 276.685V262.634C160.159 259.872 157.921 257.634 155.159 257.634H141.108C139.451 257.634 138.108 256.29 138.108 254.634V240.583C138.108 237.821 135.87 235.583 133.108 235.583H97.0062C94.2447 235.583 92.0062 237.821 92.0062 240.583V254.634C92.0062 257.395 94.2448 259.634 97.0062 259.634H111.057C112.714 259.634 114.057 260.977 114.057 262.634V279.685H97.0062C94.2447 279.685 92.0062 281.923 92.0062 284.685V298.736C92.0062 301.497 94.2448 303.736 97.0062 303.736H114.057V320.787C114.057 323.548 116.296 325.787 119.057 325.787H133.108C134.765 325.787 136.108 327.13 136.108 328.787V345.838L119.057 345.838C116.296 345.838 114.057 348.076 114.057 350.838V367.525C114.057 367.726 113.894 367.889 113.694 367.889C113.643 367.889 113.594 367.878 113.549 367.858C68.226 348.021 28.4268 315.455 0 272.595V274.397ZM115.057 280.685V302.736H97.0062C94.797 302.736 93.0062 300.945 93.0062 298.736V284.685C93.0062 282.475 94.797 280.685 97.0062 280.685H115.057ZM310.842 369.917H292.465V375.504C292.465 377.505 294.374 378.923 296.258 378.342C301.34 376.773 306.405 375.042 311.446 373.145C312.089 372.904 312.516 372.285 312.516 371.591C312.516 370.666 311.767 369.917 310.842 369.917ZM290.465 367.917V347.866H251.363C249.706 347.866 248.363 349.209 248.363 350.866V364.917C248.363 366.574 249.706 367.917 251.363 367.917H290.465ZM291.465 368.917H251.363C249.154 368.917 247.363 367.126 247.363 364.917V350.866C247.363 348.657 249.154 346.866 251.363 346.866H291.465V368.917ZM291.465 375.504V368.917H310.842C312.319 368.917 313.516 370.114 313.516 371.591C313.516 372.698 312.834 373.692 311.798 374.081C306.739 375.985 301.655 377.723 296.553 379.298C294.012 380.082 291.465 378.163 291.465 375.504ZM309.516 346.866H291.465V328.815C291.465 326.606 293.256 324.815 295.465 324.815H309.516C311.725 324.815 313.516 326.606 313.516 328.815V342.866C313.516 345.075 311.725 346.866 309.516 346.866ZM292.465 345.866V328.815C292.465 327.158 293.808 325.815 295.465 325.815H309.516C311.173 325.815 312.516 327.158 312.516 328.815V342.866C312.516 344.523 311.173 345.866 309.516 345.866H292.465ZM224.312 387.02V372.917C224.312 371.26 222.969 369.917 221.312 369.917H207.261C205.604 369.917 204.261 371.26 204.261 372.917V386.756C204.261 388.346 205.497 389.651 207.067 389.723C211.83 389.942 216.608 390.032 221.398 389.99C223.011 389.976 224.312 388.653 224.312 387.02ZM180.21 383.628V369.889H160.159V380.905C160.159 382.302 161.119 383.507 162.469 383.806C167.215 384.855 171.994 385.773 176.801 386.56C178.587 386.852 180.21 385.463 180.21 383.628ZM182.21 367.889H199.261C200.918 367.889 202.261 366.545 202.261 364.889V347.866H185.21C183.553 347.866 182.21 349.209 182.21 350.866V367.889ZM158.159 367.889H141.108C139.451 367.889 138.108 366.545 138.108 364.889L138.108 347.838H158.159V367.889ZM116.057 281.685V301.736H133.108C134.765 301.736 136.108 300.392 136.108 298.736V284.685C136.108 283.028 134.765 281.685 133.108 281.685H116.057ZM314.516 171.458V188.509C314.516 190.166 315.859 191.509 317.516 191.509H331.567C333.224 191.509 334.567 190.166 334.567 188.509V174.458C334.567 172.801 333.224 171.458 331.567 171.458H314.516ZM270.414 193.509V210.56C270.414 212.217 271.757 213.56 273.414 213.56H287.465C289.122 213.56 290.465 212.217 290.465 210.56V196.509C290.465 194.852 289.122 193.509 287.465 193.509H270.414ZM160.159 345.838L177.21 345.838C178.867 345.838 180.21 344.494 180.21 342.838V306.764C180.21 304.003 182.449 301.764 185.21 301.764H246.363V284.713C246.363 283.056 245.02 281.713 243.363 281.713H185.21C183.553 281.713 182.21 283.056 182.21 284.713V298.736C182.21 301.497 179.972 303.736 177.21 303.736H163.159C161.502 303.736 160.159 305.079 160.159 306.736V345.838ZM248.363 303.764V320.815C248.363 322.472 249.706 323.815 251.363 323.815H265.414C267.071 323.815 268.414 322.472 268.414 320.815V306.764C268.414 305.107 267.071 303.764 265.414 303.764H248.363ZM204.261 345.866H221.312C222.969 345.866 224.312 344.523 224.312 342.866V328.815C224.312 327.158 222.969 325.815 221.312 325.815H207.261C205.604 325.815 204.261 327.158 204.261 328.815V345.866ZM466.58 215.532H446.822V232.583C446.822 234.24 448.165 235.583 449.822 235.583H456.535C457.712 235.583 458.776 234.897 459.25 233.831C461.919 227.825 464.365 221.721 466.58 215.532ZM444.822 213.532V193.481H427.771C426.114 193.481 424.771 194.824 424.771 196.481V210.532C424.771 212.189 426.114 213.532 427.771 213.532H444.822ZM445.822 214.532H427.771C425.562 214.532 423.771 212.741 423.771 210.532V196.481C423.771 194.272 425.562 192.481 427.771 192.481H445.822V214.532ZM445.822 232.583V214.532H467.575C467.739 214.532 467.873 214.665 467.873 214.83C467.873 214.864 467.867 214.897 467.856 214.929C465.544 221.464 462.978 227.905 460.163 234.238C459.527 235.669 458.102 236.583 456.535 236.583H449.822C447.613 236.583 445.822 234.792 445.822 232.583ZM463.873 192.481H445.822V174.43C445.822 172.221 447.613 170.43 449.822 170.43H463.873C466.082 170.43 467.873 172.221 467.873 174.43V188.481C467.873 190.69 466.082 192.481 463.873 192.481ZM446.822 191.481V174.43C446.822 172.773 448.165 171.43 449.822 171.43H463.873C465.53 171.43 466.873 172.773 466.873 174.43V188.481C466.873 190.138 465.53 191.481 463.873 191.481H446.822ZM378.669 334.5V328.787C378.669 327.13 377.326 325.787 375.669 325.787H361.618C359.961 325.787 358.618 327.13 358.618 328.787V342.838C358.618 344.494 359.961 345.838 361.618 345.838H363.936C364.527 345.838 365.102 345.664 365.589 345.338C369.652 342.616 373.621 339.793 377.495 336.871C378.235 336.313 378.669 335.435 378.669 334.5ZM400.72 210.56V196.509C400.72 194.852 399.377 193.509 397.72 193.509H383.669C382.012 193.509 380.669 194.852 380.669 196.509V210.56C380.669 212.217 382.012 213.56 383.669 213.56H397.72C399.377 213.56 400.72 212.217 400.72 210.56ZM405.72 257.634H419.771C421.428 257.634 422.771 256.29 422.771 254.634V240.583C422.771 238.926 421.428 237.583 419.771 237.583H405.72C404.063 237.583 402.72 238.926 402.72 240.583V254.634C402.72 256.29 404.063 257.634 405.72 257.634ZM375.669 237.583H361.618C359.961 237.583 358.618 238.926 358.618 240.583V254.634C358.618 256.29 359.961 257.634 361.618 257.634H375.669C377.326 257.634 378.669 256.29 378.669 254.634V240.583C378.669 238.926 377.326 237.583 375.669 237.583ZM375.669 281.685H361.618C359.961 281.685 358.618 283.028 358.618 284.685V298.736C358.618 300.392 359.961 301.736 361.618 301.736H375.669C377.326 301.736 378.669 300.392 378.669 298.736V284.685C378.669 283.028 377.326 281.685 375.669 281.685ZM334.567 232.583V218.532C334.567 216.875 333.224 215.532 331.567 215.532H317.516C315.859 215.532 314.516 216.875 314.516 218.532V232.583C314.516 234.24 315.859 235.583 317.516 235.583H331.567C333.224 235.583 334.567 234.24 334.567 232.583ZM292.465 262.634V276.685C292.465 278.341 293.808 279.685 295.465 279.685H312.516V262.634C312.516 260.977 311.173 259.634 309.516 259.634H295.465C293.808 259.634 292.465 260.977 292.465 262.634ZM313.516 298.736C313.516 300.945 315.307 302.736 317.516 302.736H331.567C333.776 302.736 335.567 300.945 335.567 298.736V284.685C335.567 282.475 333.776 280.685 331.567 280.685H313.516V262.634C313.516 260.424 311.725 258.634 309.516 258.634H295.465C293.256 258.634 291.465 260.424 291.465 262.634V276.685C291.465 278.894 293.256 280.685 295.465 280.685H313.516V298.736ZM314.516 281.685V298.736C314.516 300.392 315.859 301.736 317.516 301.736H331.567C333.224 301.736 334.567 300.392 334.567 298.736V284.685C334.567 283.028 333.224 281.685 331.567 281.685H314.516ZM163.159 213.532H177.21C179.972 213.532 182.21 215.77 182.21 218.532V232.583C182.21 235.344 179.972 237.583 177.21 237.583H163.159C160.398 237.583 158.159 235.344 158.159 232.583V218.532C158.159 215.77 160.398 213.532 163.159 213.532ZM225.312 387.02C225.312 389.192 223.578 390.971 221.406 390.99C216.599 391.032 211.802 390.942 207.021 390.722C204.908 390.624 203.261 388.871 203.261 386.756V372.917C203.261 370.708 205.052 368.917 207.261 368.917H221.312C223.521 368.917 225.312 370.708 225.312 372.917V387.02ZM379.669 334.5C379.669 335.745 379.091 336.92 378.097 337.67C374.208 340.602 370.224 343.437 366.145 346.169C365.492 346.606 364.723 346.838 363.936 346.838H361.618C359.409 346.838 357.618 345.047 357.618 342.838V328.787C357.618 326.577 359.409 324.787 361.618 324.787H375.669C377.878 324.787 379.669 326.577 379.669 328.787V334.5ZM401.72 196.509C401.72 194.3 399.929 192.509 397.72 192.509H383.669C381.46 192.509 379.669 194.3 379.669 196.509V210.56C379.669 212.769 381.46 214.56 383.669 214.56H397.72C399.929 214.56 401.72 212.769 401.72 210.56V196.509ZM419.771 258.634C421.98 258.634 423.771 256.843 423.771 254.634V240.583C423.771 238.374 421.98 236.583 419.771 236.583H405.72C403.511 236.583 401.72 238.374 401.72 240.583V254.634C401.72 256.843 403.511 258.634 405.72 258.634H419.771ZM361.618 236.583C359.409 236.583 357.618 238.374 357.618 240.583V254.634C357.618 256.843 359.409 258.634 361.618 258.634H375.669C377.878 258.634 379.669 256.843 379.669 254.634V240.583C379.669 238.374 377.878 236.583 375.669 236.583H361.618ZM361.618 280.685C359.409 280.685 357.618 282.475 357.618 284.685V298.736C357.618 300.945 359.409 302.736 361.618 302.736H375.669C377.878 302.736 379.669 300.945 379.669 298.736V284.685C379.669 282.475 377.878 280.685 375.669 280.685H361.618ZM335.567 218.532C335.567 216.323 333.776 214.532 331.567 214.532H317.516C315.307 214.532 313.516 216.323 313.516 218.532V232.583C313.516 234.792 315.307 236.583 317.516 236.583H331.567C333.776 236.583 335.567 234.792 335.567 232.583V218.532ZM177.21 214.532C179.419 214.532 181.21 216.323 181.21 218.532V232.583C181.21 234.792 179.419 236.583 177.21 236.583H163.159C160.95 236.583 159.159 234.792 159.159 232.583V218.532C159.159 216.323 160.95 214.532 163.159 214.532H177.21Z" fill="#1A1A1A"/>
</svg>
