<svg width="1072" height="320" viewBox="0 0 1072 320" fill="none" xmlns="http://www.w3.org/2000/svg">
<g clip-path="url(#clip0_3446_78974)">
<rect width="1072" height="320" fill="#F5F5F5"/>
<rect x="-11.5" y="-13.5" width="15" height="348" stroke="#CCE5E0"/>
<rect x="3.5" y="-13.5" width="15" height="348" stroke="#CCE5E0"/>
<rect x="18.5" y="-13.5" width="15" height="348" stroke="#CCE5E0"/>
<rect x="33.5" y="-13.5" width="15" height="348" stroke="#CCE5E0"/>
<rect x="48.5" y="-13.5" width="15" height="348" stroke="#CCE5E0"/>
<rect x="63.5" y="-13.5" width="15" height="348" stroke="#CCE5E0"/>
<rect x="78.5" y="-13.5" width="15" height="348" stroke="#CCE5E0"/>
<rect x="93.5" y="-13.5" width="15" height="348" stroke="#CCE5E0"/>
<rect x="108.5" y="-13.5" width="15" height="348" stroke="#CCE5E0"/>
<rect x="123.5" y="-13.5" width="15" height="348" stroke="#CCE5E0"/>
<rect x="138.5" y="-13.5" width="15" height="348" stroke="#CCE5E0"/>
<rect x="153.5" y="-13.5" width="15" height="348" stroke="#CCE5E0"/>
<rect x="168.5" y="-13.5" width="15" height="348" stroke="#CCE5E0"/>
<rect x="183.5" y="-13.5" width="15" height="348" stroke="#CCE5E0"/>
<rect x="198.5" y="-13.5" width="15" height="348" stroke="#CCE5E0"/>
<rect x="213.5" y="-13.5" width="15" height="348" stroke="#CCE5E0"/>
<rect x="228.5" y="-13.5" width="15" height="348" stroke="#CCE5E0"/>
<rect x="243.5" y="-13.5" width="15" height="348" stroke="#CCE5E0"/>
<rect x="258.5" y="-13.5" width="15" height="348" stroke="#CCE5E0"/>
<rect x="273.5" y="-13.5" width="15" height="348" stroke="#CCE5E0"/>
<rect x="288.5" y="-13.5" width="15" height="348" stroke="#CCE5E0"/>
<rect x="303.5" y="-13.5" width="15" height="348" stroke="#CCE5E0"/>
<rect x="318.5" y="-13.5" width="15" height="348" stroke="#CCE5E0"/>
<rect x="333.5" y="-13.5" width="15" height="348" stroke="#CCE5E0"/>
<rect x="348.5" y="-13.5" width="15" height="348" stroke="#CCE5E0"/>
<rect x="363.5" y="-13.5" width="15" height="348" stroke="#CCE5E0"/>
<rect x="378.5" y="-13.5" width="15" height="348" stroke="#CCE5E0"/>
<rect x="393.5" y="-13.5" width="15" height="348" stroke="#CCE5E0"/>
<rect x="408.5" y="-13.5" width="15" height="348" stroke="#CCE5E0"/>
<rect x="423.5" y="-13.5" width="15" height="348" stroke="#CCE5E0"/>
<rect x="438.5" y="-13.5" width="15" height="348" stroke="#CCE5E0"/>
<rect x="453.5" y="-13.5" width="15" height="348" stroke="#CCE5E0"/>
<rect x="468.5" y="-13.5" width="15" height="348" stroke="#CCE5E0"/>
<rect x="483.5" y="-13.5" width="15" height="348" stroke="#CCE5E0"/>
<rect x="498.5" y="-13.5" width="15" height="348" stroke="#CCE5E0"/>
<rect x="513.5" y="-13.5" width="15" height="348" stroke="#CCE5E0"/>
<rect x="528.5" y="-13.5" width="15" height="348" stroke="#CCE5E0"/>
<rect x="543.5" y="-13.5" width="15" height="348" stroke="#CCE5E0"/>
<rect x="558.5" y="-13.5" width="15" height="348" stroke="#CCE5E0"/>
<rect x="573.5" y="-13.5" width="15" height="348" stroke="#CCE5E0"/>
<rect x="588.5" y="-13.5" width="15" height="348" stroke="#CCE5E0"/>
<rect x="603.5" y="-13.5" width="15" height="348" stroke="#CCE5E0"/>
<rect x="618.5" y="-13.5" width="15" height="348" stroke="#CCE5E0"/>
<rect x="633.5" y="-13.5" width="15" height="348" stroke="#CCE5E0"/>
<rect x="648.5" y="-13.5" width="15" height="348" stroke="#CCE5E0"/>
<rect x="663.5" y="-13.5" width="15" height="348" stroke="#CCE5E0"/>
<rect x="678.5" y="-13.5" width="15" height="348" stroke="#CCE5E0"/>
<rect x="693.5" y="-13.5" width="15" height="348" stroke="#CCE5E0"/>
<rect x="708.5" y="-13.5" width="15" height="348" stroke="#CCE5E0"/>
<rect x="723.5" y="-13.5" width="15" height="348" stroke="#CCE5E0"/>
<rect x="738.5" y="-13.5" width="15" height="348" stroke="#CCE5E0"/>
<rect x="753.5" y="-13.5" width="15" height="348" stroke="#CCE5E0"/>
<rect x="768.5" y="-13.5" width="15" height="348" stroke="#CCE5E0"/>
<rect x="783.5" y="-13.5" width="15" height="348" stroke="#CCE5E0"/>
<rect x="798.5" y="-13.5" width="15" height="348" stroke="#CCE5E0"/>
<rect x="813.5" y="-13.5" width="15" height="348" stroke="#CCE5E0"/>
<rect x="828.5" y="-13.5" width="15" height="348" stroke="#CCE5E0"/>
<rect x="843.5" y="-13.5" width="15" height="348" stroke="#CCE5E0"/>
<rect x="858.5" y="-13.5" width="15" height="348" stroke="#CCE5E0"/>
<rect x="873.5" y="-13.5" width="15" height="348" stroke="#CCE5E0"/>
<rect x="888.5" y="-13.5" width="15" height="348" stroke="#CCE5E0"/>
<rect x="903.5" y="-13.5" width="15" height="348" stroke="#CCE5E0"/>
<rect x="918.5" y="-13.5" width="15" height="348" stroke="#CCE5E0"/>
<rect x="933.5" y="-13.5" width="15" height="348" stroke="#CCE5E0"/>
<rect x="948.5" y="-13.5" width="15" height="348" stroke="#CCE5E0"/>
<rect x="963.5" y="-13.5" width="15" height="348" stroke="#CCE5E0"/>
<rect x="978.5" y="-13.5" width="15" height="348" stroke="#CCE5E0"/>
<rect x="993.5" y="-13.5" width="15" height="348" stroke="#CCE5E0"/>
<rect x="1008.5" y="-13.5" width="15" height="348" stroke="#CCE5E0"/>
<rect x="1023.5" y="-13.5" width="15" height="348" stroke="#CCE5E0"/>
<rect x="1038.5" y="-13.5" width="15" height="348" stroke="#CCE5E0"/>
<rect x="1053.5" y="-13.5" width="15" height="348" stroke="#CCE5E0"/>
<rect x="1068.5" y="-13.5" width="15" height="348" stroke="#CCE5E0"/>
<rect x="-116.5" y="-13.5" width="1245" height="15" stroke="#CCE5E0"/>
<rect x="-116.5" y="1.5" width="1245" height="15" stroke="#CCE5E0"/>
<rect x="-116.5" y="16.5" width="1245" height="15" stroke="#CCE5E0"/>
<rect x="-116.5" y="31.5" width="1245" height="15" stroke="#CCE5E0"/>
<rect x="-116.5" y="46.5" width="1245" height="15" stroke="#CCE5E0"/>
<rect x="-116.5" y="61.5" width="1245" height="15" stroke="#CCE5E0"/>
<rect x="-116.5" y="76.5" width="1245" height="15" stroke="#CCE5E0"/>
<rect x="-116.5" y="91.5" width="1245" height="15" stroke="#CCE5E0"/>
<rect x="-116.5" y="106.5" width="1245" height="15" stroke="#CCE5E0"/>
<rect x="-116.5" y="121.5" width="1245" height="15" stroke="#CCE5E0"/>
<rect x="-116.5" y="136.5" width="1245" height="15" stroke="#CCE5E0"/>
<rect x="-116.5" y="151.5" width="1245" height="15" stroke="#CCE5E0"/>
<rect x="-116.5" y="166.5" width="1245" height="15" stroke="#CCE5E0"/>
<rect x="-116.5" y="181.5" width="1245" height="15" stroke="#CCE5E0"/>
<rect x="-116.5" y="196.5" width="1245" height="15" stroke="#CCE5E0"/>
<rect x="-116.5" y="211.5" width="1245" height="15" stroke="#CCE5E0"/>
<rect x="-116.5" y="226.5" width="1245" height="15" stroke="#CCE5E0"/>
<rect x="-116.5" y="241.5" width="1245" height="15" stroke="#CCE5E0"/>
<rect x="-116.5" y="256.5" width="1245" height="15" stroke="#CCE5E0"/>
<rect x="-116.5" y="271.5" width="1245" height="15" stroke="#CCE5E0"/>
<rect x="-116.5" y="286.5" width="1245" height="15" stroke="#CCE5E0"/>
<rect x="-116.5" y="301.5" width="1245" height="15" stroke="#CCE5E0"/>
<rect x="-116.5" y="316.5" width="1245" height="15" stroke="#CCE5E0"/>
<g clip-path="url(#clip1_3446_78974)">
<rect x="457" y="81" width="158" height="158" rx="79" fill="white"/>
<rect x="453.5" y="-13.5" width="15" height="348" stroke="#CCE5E0"/>
<rect x="468.5" y="-13.5" width="15" height="348" stroke="#CCE5E0"/>
<rect x="483.5" y="-13.5" width="15" height="348" stroke="#CCE5E0"/>
<rect x="498.5" y="-13.5" width="15" height="348" stroke="#CCE5E0"/>
<rect x="513.5" y="-13.5" width="15" height="348" stroke="#CCE5E0"/>
<rect x="528.5" y="-13.5" width="15" height="348" stroke="#CCE5E0"/>
<rect x="543.5" y="-13.5" width="15" height="348" stroke="#CCE5E0"/>
<rect x="558.5" y="-13.5" width="15" height="348" stroke="#CCE5E0"/>
<rect x="573.5" y="-13.5" width="15" height="348" stroke="#CCE5E0"/>
<rect x="588.5" y="-13.5" width="15" height="348" stroke="#CCE5E0"/>
<rect x="603.5" y="-13.5" width="15" height="348" stroke="#CCE5E0"/>
<rect x="-86.5" y="76.5" width="1245" height="15" stroke="#CCE5E0"/>
<rect x="-86.5" y="91.5" width="1245" height="15" stroke="#CCE5E0"/>
<rect x="-86.5" y="106.5" width="1245" height="15" stroke="#CCE5E0"/>
<rect x="-86.5" y="121.5" width="1245" height="15" stroke="#CCE5E0"/>
<rect x="-86.5" y="136.5" width="1245" height="15" stroke="#CCE5E0"/>
<rect x="-86.5" y="151.5" width="1245" height="15" stroke="#CCE5E0"/>
<rect x="-86.5" y="166.5" width="1245" height="15" stroke="#CCE5E0"/>
<rect x="-86.5" y="181.5" width="1245" height="15" stroke="#CCE5E0"/>
<rect x="-86.5" y="196.5" width="1245" height="15" stroke="#CCE5E0"/>
<rect x="-86.5" y="211.5" width="1245" height="15" stroke="#CCE5E0"/>
<rect x="-86.5" y="226.5" width="1245" height="15" stroke="#CCE5E0"/>
<rect x="528" y="151" width="16" height="16" fill="#4E9B8C"/>
<path d="M510.127 192.614V191.455L515.241 183.364H516.082V185.159H515.513L511.65 191.273V191.364H518.536V192.614H510.127ZM515.604 195V192.261V191.722V183.364H516.945V195H515.604ZM527.506 192.909L521.097 186.5L521.961 185.636L528.37 192.045L527.506 192.909ZM521.961 192.909L521.097 192.045L527.506 185.636L528.37 186.5L521.961 192.909ZM530.94 192.614V191.455L536.053 183.364H536.894V185.159H536.326L532.462 191.273V191.364H539.349V192.614H530.94ZM536.417 195V192.261V191.722V183.364H537.758V195H536.417ZM546.001 198.273V186.273H547.296V187.659H547.455C547.554 187.508 547.69 187.314 547.864 187.08C548.042 186.841 548.296 186.629 548.626 186.443C548.959 186.254 549.41 186.159 549.978 186.159C550.713 186.159 551.361 186.343 551.921 186.71C552.482 187.078 552.919 187.598 553.234 188.273C553.548 188.947 553.705 189.742 553.705 190.659C553.705 191.583 553.548 192.384 553.234 193.062C552.919 193.737 552.484 194.259 551.927 194.631C551.37 194.998 550.728 195.182 550.001 195.182C549.44 195.182 548.991 195.089 548.654 194.903C548.317 194.714 548.058 194.5 547.876 194.261C547.694 194.019 547.554 193.818 547.455 193.659H547.342V198.273H546.001ZM547.319 190.636C547.319 191.295 547.415 191.877 547.609 192.381C547.802 192.881 548.084 193.273 548.455 193.557C548.826 193.837 549.281 193.977 549.819 193.977C550.379 193.977 550.847 193.83 551.222 193.534C551.601 193.235 551.885 192.833 552.075 192.33C552.268 191.822 552.364 191.258 552.364 190.636C552.364 190.023 552.27 189.47 552.08 188.977C551.895 188.481 551.612 188.089 551.234 187.801C550.859 187.509 550.387 187.364 549.819 187.364C549.273 187.364 548.815 187.502 548.444 187.778C548.073 188.051 547.792 188.434 547.603 188.926C547.414 189.415 547.319 189.985 547.319 190.636ZM556.391 186.273L558.482 189.841L560.573 186.273H562.119L559.3 190.636L562.119 195H560.573L558.482 191.614L556.391 195H554.846L557.619 190.636L554.846 186.273H556.391Z" fill="#1A1A1A"/>
</g>
<rect x="457.5" y="81.5" width="157" height="157" rx="78.5" stroke="#4E9B8C"/>
</g>
<defs>
<clipPath id="clip0_3446_78974">
<rect width="1072" height="320" fill="white"/>
</clipPath>
<clipPath id="clip1_3446_78974">
<rect x="457" y="81" width="158" height="158" rx="79" fill="white"/>
</clipPath>
</defs>
</svg>
