<svg width="85" height="32" viewBox="0 0 85 32" fill="none" xmlns="http://www.w3.org/2000/svg">
<path fill-rule="evenodd" clip-rule="evenodd" d="M34.1406 20.1206C37.4607 17.8976 40.8713 15.7956 44.1996 13.582C44.029 16.721 43.7965 19.8572 43.6331 22.9972C40.3615 25.3845 37.1269 27.8155 33.8452 30.1895C33.9518 26.8339 34.0675 23.4772 34.1406 20.1206H34.1406Z" fill="#62C2AF"/>
<path fill-rule="evenodd" clip-rule="evenodd" d="M81.8606 0C82.5582 0.358741 83.2171 0.779522 83.8872 1.17928C83.8862 7.44109 83.9654 13.7029 83.8893 19.9639C83.8405 21.0049 84.1462 22.1201 85.0001 22.8339V23.3883C84.3868 23.7699 83.7918 24.1773 83.1917 24.5761C82.6485 23.7041 82.1581 22.8053 81.7012 21.8913C80.6179 22.8703 79.4767 23.8768 78.0226 24.3357C74.8953 25.3442 71.0665 24.1564 69.3261 21.4829C68.5585 20.2178 68.1382 18.7513 68.2214 17.2905C68.324 15.2095 69.3007 13.1821 70.8806 11.7223C71.9975 10.6785 73.4524 9.96102 75.007 9.71592C77.3768 9.25604 79.8218 10.1081 81.6756 11.482C81.6878 7.65398 81.7883 3.82717 81.8604 0M75.346 11.7386C73.2757 12.125 71.5253 13.6296 70.8531 15.5006C70.3464 16.8306 70.4297 18.3506 71.1089 19.6138C71.843 20.9725 73.2788 22.0048 74.896 22.2186C75.9906 22.335 77.1379 22.2405 78.135 21.773C79.8428 20.9992 81.1029 19.4316 81.4684 17.6884C81.6887 16.679 81.5435 15.617 81.1526 14.661C80.2439 12.5848 77.6811 11.3312 75.3459 11.7386L75.346 11.7386ZM0.507844 8.81402C0.531198 5.89161 0.536273 2.96921 0.583994 0.0466001C1.25513 0.433961 1.92323 0.824202 2.59639 1.20776C2.63395 4.76377 2.68472 8.32078 2.67863 11.8766C4.24834 10.558 6.25165 9.60858 8.38184 9.53038C9.60228 9.49412 10.835 9.74028 11.9366 10.2345C13.7582 11.0722 15.1542 12.6475 15.7808 14.4527C16.2072 15.6358 16.2286 16.9181 15.996 18.1403C15.333 21.4109 12.3499 24.1931 8.81768 24.6521C7.17081 24.8735 5.45484 24.5071 4.05886 23.6608C2.13986 22.5063 0.755012 20.5618 0.416862 18.439C0.372187 15.2312 0.510273 12.0226 0.508243 8.814M7.42068 11.7374C5.78294 12.0465 4.35239 13.0856 3.51667 14.4328C2.91965 15.3774 2.64652 16.4898 2.70034 17.5852C2.81812 19.3103 3.95225 20.9408 5.58686 21.7336C6.52809 22.2011 7.62973 22.2965 8.67446 22.1935C11.8646 21.7966 14.3258 18.6003 13.6374 15.6283C13.3917 14.2706 12.4677 13.0607 11.2239 12.3461C10.104 11.6858 8.7109 11.4511 7.42055 11.7374L7.42068 11.7374ZM53.1819 13.805C56.3588 11.4808 60.2527 10.0534 64.2562 9.68702C64.2298 10.2814 64.1872 10.8758 64.172 11.4712C62.3951 11.8185 60.6235 12.2364 58.952 12.911C56.9274 13.7153 55.0226 14.8879 53.6509 16.5214C53.5707 16.6101 53.5494 16.7265 53.5281 16.8363C53.0783 19.3895 53.192 21.9867 53.062 24.5627C52.3838 24.5417 51.7056 24.5178 51.0263 24.4959C51.0781 20.5735 50.9593 16.6511 50.9187 12.7297C51.6903 12.223 52.464 11.7183 53.2397 11.2174C53.2215 12.0799 53.2011 12.9424 53.1819 13.805L53.1819 13.805ZM19.0235 12.432C19.6795 12.12 20.3384 11.8147 20.9974 11.5075C24.4962 13.5035 28.0113 15.4757 31.5314 17.4383C34.883 15.5024 38.2732 13.6257 41.6432 11.7203C42.4707 11.4216 43.2383 12.0084 43.9734 12.2842C40.4025 14.9318 36.4323 17.0452 32.758 19.5574C32.6809 23.1296 32.6717 26.7046 32.4839 30.274C32.4595 30.5812 32.5062 30.9218 32.3153 31.1928C32.1163 31.4838 31.8503 31.7271 31.6269 32C31.2574 31.6995 30.8949 31.3932 30.5233 31.0945C30.4481 27.3543 30.2745 23.6133 30.2369 19.8723C30.1151 19.4019 29.645 19.131 29.25 18.8705C25.8293 16.7409 22.4319 14.5779 19.0235 12.4321V12.432Z" fill="#293141"/>
</svg>
