<svg width="1072" height="314" viewBox="0 0 1072 314" fill="none" xmlns="http://www.w3.org/2000/svg">
<g clip-path="url(#clip0_3032_59654)">
<rect width="1072" height="314" rx="8" fill="white"/>
<rect x="-11.5" y="-7.5" width="15" height="348" stroke="#E6E6E6"/>
<rect x="3.5" y="-7.5" width="15" height="348" stroke="#E6E6E6"/>
<rect x="18.5" y="-7.5" width="15" height="348" stroke="#E6E6E6"/>
<rect x="33.5" y="-7.5" width="15" height="348" stroke="#E6E6E6"/>
<rect x="48.5" y="-7.5" width="15" height="348" stroke="#E6E6E6"/>
<rect x="63.5" y="-7.5" width="15" height="348" stroke="#E6E6E6"/>
<rect x="78.5" y="-7.5" width="15" height="348" stroke="#E6E6E6"/>
<rect x="93.5" y="-7.5" width="15" height="348" stroke="#E6E6E6"/>
<rect x="108.5" y="-7.5" width="15" height="348" stroke="#E6E6E6"/>
<rect x="123.5" y="-7.5" width="15" height="348" stroke="#E6E6E6"/>
<rect x="138.5" y="-7.5" width="15" height="348" stroke="#E6E6E6"/>
<rect x="153.5" y="-7.5" width="15" height="348" stroke="#E6E6E6"/>
<rect x="168.5" y="-7.5" width="15" height="348" stroke="#E6E6E6"/>
<rect x="183.5" y="-7.5" width="15" height="348" stroke="#E6E6E6"/>
<rect x="198.5" y="-7.5" width="15" height="348" stroke="#E6E6E6"/>
<rect x="213.5" y="-7.5" width="15" height="348" stroke="#E6E6E6"/>
<rect x="228.5" y="-7.5" width="15" height="348" stroke="#E6E6E6"/>
<rect x="243.5" y="-7.5" width="15" height="348" stroke="#E6E6E6"/>
<rect x="258.5" y="-7.5" width="15" height="348" stroke="#E6E6E6"/>
<rect x="273.5" y="-7.5" width="15" height="348" stroke="#E6E6E6"/>
<rect x="288.5" y="-7.5" width="15" height="348" stroke="#E6E6E6"/>
<rect x="303.5" y="-7.5" width="15" height="348" stroke="#E6E6E6"/>
<rect x="318.5" y="-7.5" width="15" height="348" stroke="#E6E6E6"/>
<rect x="333.5" y="-7.5" width="15" height="348" stroke="#E6E6E6"/>
<rect x="348.5" y="-7.5" width="15" height="348" stroke="#E6E6E6"/>
<rect x="363.5" y="-7.5" width="15" height="348" stroke="#E6E6E6"/>
<rect x="378.5" y="-7.5" width="15" height="348" stroke="#E6E6E6"/>
<rect x="393.5" y="-7.5" width="15" height="348" stroke="#E6E6E6"/>
<rect x="408.5" y="-7.5" width="15" height="348" stroke="#E6E6E6"/>
<rect x="423.5" y="-7.5" width="15" height="348" stroke="#E6E6E6"/>
<rect x="438.5" y="-7.5" width="15" height="348" stroke="#E6E6E6"/>
<rect x="453.5" y="-7.5" width="15" height="348" stroke="#E6E6E6"/>
<rect x="468.5" y="-7.5" width="15" height="348" stroke="#E6E6E6"/>
<rect x="483.5" y="-7.5" width="15" height="348" stroke="#E6E6E6"/>
<rect x="498.5" y="-7.5" width="15" height="348" stroke="#E6E6E6"/>
<rect x="513.5" y="-7.5" width="15" height="348" stroke="#E6E6E6"/>
<rect x="528.5" y="-7.5" width="15" height="348" stroke="#E6E6E6"/>
<rect x="543.5" y="-7.5" width="15" height="348" stroke="#E6E6E6"/>
<rect x="558.5" y="-7.5" width="15" height="348" stroke="#E6E6E6"/>
<rect x="573.5" y="-7.5" width="15" height="348" stroke="#E6E6E6"/>
<rect x="588.5" y="-7.5" width="15" height="348" stroke="#E6E6E6"/>
<rect x="603.5" y="-7.5" width="15" height="348" stroke="#E6E6E6"/>
<rect x="618.5" y="-7.5" width="15" height="348" stroke="#E6E6E6"/>
<rect x="633.5" y="-7.5" width="15" height="348" stroke="#E6E6E6"/>
<rect x="648.5" y="-7.5" width="15" height="348" stroke="#E6E6E6"/>
<rect x="663.5" y="-7.5" width="15" height="348" stroke="#E6E6E6"/>
<rect x="678.5" y="-7.5" width="15" height="348" stroke="#E6E6E6"/>
<rect x="693.5" y="-7.5" width="15" height="348" stroke="#E6E6E6"/>
<rect x="708.5" y="-7.5" width="15" height="348" stroke="#E6E6E6"/>
<rect x="723.5" y="-7.5" width="15" height="348" stroke="#E6E6E6"/>
<rect x="738.5" y="-7.5" width="15" height="348" stroke="#E6E6E6"/>
<rect x="753.5" y="-7.5" width="15" height="348" stroke="#E6E6E6"/>
<rect x="768.5" y="-7.5" width="15" height="348" stroke="#E6E6E6"/>
<rect x="783.5" y="-7.5" width="15" height="348" stroke="#E6E6E6"/>
<rect x="798.5" y="-7.5" width="15" height="348" stroke="#E6E6E6"/>
<rect x="813.5" y="-7.5" width="15" height="348" stroke="#E6E6E6"/>
<rect x="828.5" y="-7.5" width="15" height="348" stroke="#E6E6E6"/>
<rect x="843.5" y="-7.5" width="15" height="348" stroke="#E6E6E6"/>
<rect x="858.5" y="-7.5" width="15" height="348" stroke="#E6E6E6"/>
<rect x="873.5" y="-7.5" width="15" height="348" stroke="#E6E6E6"/>
<rect x="888.5" y="-7.5" width="15" height="348" stroke="#E6E6E6"/>
<rect x="903.5" y="-7.5" width="15" height="348" stroke="#E6E6E6"/>
<rect x="918.5" y="-7.5" width="15" height="348" stroke="#E6E6E6"/>
<rect x="933.5" y="-7.5" width="15" height="348" stroke="#E6E6E6"/>
<rect x="948.5" y="-7.5" width="15" height="348" stroke="#E6E6E6"/>
<rect x="963.5" y="-7.5" width="15" height="348" stroke="#E6E6E6"/>
<rect x="978.5" y="-7.5" width="15" height="348" stroke="#E6E6E6"/>
<rect x="993.5" y="-7.5" width="15" height="348" stroke="#E6E6E6"/>
<rect x="1008.5" y="-7.5" width="15" height="348" stroke="#E6E6E6"/>
<rect x="1023.5" y="-7.5" width="15" height="348" stroke="#E6E6E6"/>
<rect x="1038.5" y="-7.5" width="15" height="348" stroke="#E6E6E6"/>
<rect x="1053.5" y="-7.5" width="15" height="348" stroke="#E6E6E6"/>
<rect x="1068.5" y="-7.5" width="15" height="348" stroke="#E6E6E6"/>
<rect x="-86.5" y="-7.5" width="1245" height="15" stroke="#E6E6E6"/>
<rect x="-86.5" y="7.5" width="1245" height="15" stroke="#E6E6E6"/>
<rect x="-86.5" y="22.5" width="1245" height="15" stroke="#E6E6E6"/>
<rect x="-86.5" y="37.5" width="1245" height="15" stroke="#E6E6E6"/>
<rect x="-86.5" y="52.5" width="1245" height="15" stroke="#E6E6E6"/>
<rect x="-86.5" y="67.5" width="1245" height="15" stroke="#E6E6E6"/>
<rect x="-86.5" y="82.5" width="1245" height="15" stroke="#E6E6E6"/>
<rect x="-86.5" y="97.5" width="1245" height="15" stroke="#E6E6E6"/>
<rect x="-86.5" y="112.5" width="1245" height="15" stroke="#E6E6E6"/>
<rect x="-86.5" y="127.5" width="1245" height="15" stroke="#E6E6E6"/>
<rect x="-86.5" y="142.5" width="1245" height="15" stroke="#E6E6E6"/>
<rect x="-86.5" y="157.5" width="1245" height="15" stroke="#E6E6E6"/>
<rect x="-86.5" y="172.5" width="1245" height="15" stroke="#E6E6E6"/>
<rect x="-86.5" y="187.5" width="1245" height="15" stroke="#E6E6E6"/>
<rect x="-86.5" y="202.5" width="1245" height="15" stroke="#E6E6E6"/>
<rect x="-86.5" y="217.5" width="1245" height="15" stroke="#E6E6E6"/>
<rect x="-86.5" y="232.5" width="1245" height="15" stroke="#E6E6E6"/>
<rect x="-86.5" y="247.5" width="1245" height="15" stroke="#E6E6E6"/>
<rect x="-86.5" y="262.5" width="1245" height="15" stroke="#E6E6E6"/>
<rect x="-86.5" y="277.5" width="1245" height="15" stroke="#E6E6E6"/>
<rect x="-86.5" y="292.5" width="1245" height="15" stroke="#E6E6E6"/>
<rect x="-86.5" y="307.5" width="1245" height="15" stroke="#E6E6E6"/>
<g clip-path="url(#clip1_3032_59654)">
<path d="M757.406 200.394C757.406 195.529 755.417 192.863 752.34 192.863C749.263 192.863 747.274 195.529 747.274 200.394V220.587H739.226V200.394C739.226 195.529 737.237 192.863 734.16 192.863C731.083 192.863 729.094 195.529 729.094 200.394V220.587H721V183.399H729.097V188.064C730.657 185.066 733.357 183 736.813 183C740.789 183 744.008 185.467 745.809 189.931C747.558 185.999 750.873 183 754.707 183C761.24 183 765.454 188.865 765.454 198.86V220.585H757.406V200.392V200.394Z" fill="#BFBFBF"/>
<path d="M778.6 198.527C781.887 198.527 784.223 200.008 785.411 201.918V198.839H792.182V220.587H785.411V217.508C784.184 219.418 781.847 220.899 778.561 220.899C773.175 220.899 768.859 216.534 768.859 209.674C768.859 202.815 773.175 198.527 778.6 198.527ZM780.58 204.335C778.046 204.335 775.749 206.205 775.749 209.674C775.749 213.143 778.046 215.091 780.58 215.091C783.114 215.091 785.411 213.182 785.411 209.713C785.411 206.244 783.154 204.335 780.58 204.335Z" fill="#BFBFBF"/>
<path d="M812.339 208.778C812.339 205.816 810.676 204.179 808.102 204.179C805.528 204.179 803.865 205.816 803.865 208.778V220.587H797.094V198.839H803.865V201.723C805.211 199.892 807.587 198.605 810.557 198.605C815.665 198.605 819.07 202.035 819.07 207.881V220.587H812.339V208.778Z" fill="#BFBFBF"/>
<path d="M873.999 206.32L872.457 198.457C871.313 199.089 869.827 199.509 868.399 199.509C867.085 199.509 865.828 199.298 864.684 198.947C863.599 198.596 862.399 198.314 860.855 198.314C854.111 198.314 850.168 203.019 850.168 209.759C850.168 212.852 851.26 215.355 852.656 217.013C854.468 219.629 857.356 221.11 860.729 221.11C861.798 221.11 862.825 220.961 863.787 220.674C868.052 219.652 871.11 215.3 871.252 211.398C871.308 209.855 871.085 207.932 870.798 207.301C871.942 207.373 873.197 206.88 873.999 206.318V206.32ZM864.849 209.91C864.849 213.574 862.853 215.328 860.715 215.328C859.634 215.328 858.64 214.892 857.915 214.005C857.191 213.109 856.734 211.756 856.734 209.927C856.734 206.224 858.626 204.509 860.799 204.509C861.847 204.509 862.858 204.936 863.61 205.82C864.36 206.712 864.849 208.065 864.849 209.91Z" fill="#BFBFBF"/>
<path d="M833.427 198.699C836.725 198.699 839.14 200.164 840.347 202.145V199.018H847.225V221.073C847.225 226.972 843.766 232.002 836.001 232.002C829.323 232.002 824.978 228.675 824.375 223.409H831.174C831.617 225.071 833.306 226.142 835.679 226.142C838.295 226.142 840.345 224.796 840.345 221.073V217.946C839.098 219.885 836.725 221.43 833.424 221.43C827.913 221.43 823.527 216.997 823.527 210.027C823.527 203.057 827.913 198.702 833.424 198.702L833.427 198.699ZM835.439 204.598C832.865 204.598 830.531 206.499 830.531 210.022C830.531 213.546 832.865 215.527 835.439 215.527C838.013 215.527 840.347 213.587 840.347 210.064C840.347 206.54 838.055 204.6 835.439 204.6V204.598Z" fill="#BFBFBF"/>
</g>
<g clip-path="url(#clip2_3032_59654)">
<path fill-rule="evenodd" clip-rule="evenodd" d="M583.158 233.152C605.365 212.019 595.791 196.2 577.009 186.921C575.636 186.242 574.29 185.572 572.971 184.915C554.359 175.646 541.08 169.032 530.732 178.881C521.626 187.55 521.863 203.074 530.273 216.649C530.459 216.983 530.662 217.301 530.879 217.603C532.129 219.519 533.544 221.391 535.119 223.195H529.584C530.152 228.199 534.246 231.359 540.538 231.359C541.521 231.359 542.432 231.272 543.27 231.109C556.078 241.86 569.984 245.689 583.158 233.152ZM543.27 231.109C548.67 230.059 551.112 225.827 551.112 220.976V200.021H544.631V202.993C543.494 201.112 541.22 199.72 538.112 199.72C532.919 199.72 528.788 203.858 528.788 210.479C528.788 212.882 529.332 214.967 530.273 216.649C530.47 216.968 530.672 217.286 530.879 217.603C532.581 219.968 535.177 221.314 538.112 221.314C541.22 221.314 543.456 219.847 544.631 218.004V220.976C544.631 224.512 542.698 225.791 540.234 225.791C537.998 225.791 536.406 224.775 535.989 223.195H535.119C535.686 223.844 536.273 224.483 536.882 225.113C538.974 227.279 541.107 229.293 543.27 231.109ZM451.656 194.604H444V221.013H450.481V205.137L456.47 221.013H461.7L467.651 205.175V221.013H474.132V194.604H466.514L459.123 212.887L451.656 194.604ZM493.349 202.993C492.212 201.149 489.976 199.72 486.83 199.72C481.637 199.72 477.506 203.858 477.506 210.479C477.506 217.101 481.637 221.314 486.792 221.314C489.938 221.314 492.174 219.885 493.349 218.041V221.013H499.83V200.021H493.349V202.993ZM484.101 210.479C484.101 207.131 486.299 205.325 488.725 205.325C491.189 205.325 493.349 207.169 493.349 210.517C493.349 213.865 491.151 215.709 488.725 215.709C486.299 215.709 484.101 213.828 484.101 210.479ZM519.123 209.614C519.123 206.755 517.531 205.175 515.067 205.175C512.603 205.175 511.012 206.755 511.012 209.614V221.013H504.53V200.021H511.012V202.805C512.3 201.037 514.574 199.795 517.417 199.795C522.306 199.795 525.566 203.106 525.566 208.749V221.013H519.123V209.614ZM535.383 210.479C535.383 207.131 537.581 205.325 540.007 205.325C542.471 205.325 544.631 207.169 544.631 210.517C544.631 213.865 542.433 215.709 540.007 215.709C537.581 215.709 535.383 213.828 535.383 210.479ZM566.157 221.314C559.964 221.314 555.279 217.191 555.279 210.555C555.279 203.918 560.075 199.795 566.233 199.795C572.391 199.795 577.187 203.918 577.187 210.555C577.187 217.191 572.353 221.314 566.157 221.314ZM566.157 215.764C568.461 215.764 570.614 214.078 570.614 210.552C570.614 207.027 568.498 205.341 566.233 205.341C563.968 205.341 561.852 206.99 561.852 210.552C561.852 214.115 563.816 215.764 566.157 215.764ZM583.441 200.016C583.441 201.85 581.944 203.336 580.097 203.336C578.25 203.336 576.752 201.85 576.752 200.016C576.752 198.183 578.25 196.697 580.097 196.697C581.944 196.697 583.441 198.183 583.441 200.016Z" fill="#BFBFBF"/>
<path d="M526.624 178.789C524.564 189.267 514.777 189.303 505.977 188.393C511.171 181.706 518.232 178.632 526.624 178.789Z" fill="#BFBFBF"/>
</g>
<g clip-path="url(#clip3_3032_59654)">
<path d="M223.263 163.833C223.161 163.833 223.056 163.807 222.96 163.752L220.479 162.323C220.188 162.156 220.09 161.785 220.258 161.497C220.426 161.207 220.796 161.11 221.088 161.277L223.569 162.706C223.86 162.873 223.958 163.244 223.79 163.531C223.678 163.726 223.473 163.833 223.263 163.833Z" fill="#BFBFBF"/>
<path d="M220.906 161.781C220.906 161.781 233.257 159.728 234.945 177.252C234.945 177.252 221.594 171.46 220.906 161.781Z" fill="#BFBFBF"/>
<path d="M215.145 167.208L219.523 156L221.762 156.712L218.779 168.363L215.145 167.206V167.208Z" fill="#BFBFBF"/>
<path d="M203.43 193.475H211.436L219.245 212.639L226.974 193.475H234.941V221.156H228.163V204.555L221.94 221.156H216.47L210.208 204.516V221.156H203.43V193.475Z" fill="#BFBFBF"/>
<path d="M200.144 190.065H213.42L219.156 205.136L224.952 190.065L234.945 190.121C232.124 181.458 223.621 173.488 219.692 169.145C218.209 167.505 216.279 166.311 214.124 165.796C199.47 162.289 184.147 174.742 181.599 189.998C178.843 206.488 186.078 216.415 193.562 220.284C194.171 220.6 198.703 221.133 200.125 221.066L200.146 190.065H200.144ZM185.77 198.047C185.59 198.098 185.411 198.091 185.248 198.038C184.966 197.947 184.732 197.722 184.648 197.418C184.362 196.405 184.24 195.236 184.289 193.944C184.308 193.443 184.73 193.053 185.234 193.072C185.737 193.09 186.129 193.51 186.11 194.011C186.071 195.115 186.169 196.096 186.402 196.929C186.537 197.411 186.255 197.912 185.77 198.047ZM188.339 184.188C188.325 184.222 186.966 187.66 186.385 191.487C186.311 191.981 185.845 192.322 185.348 192.248C185.299 192.241 185.252 192.23 185.203 192.216C184.784 192.081 184.513 191.661 184.581 191.216C185.194 187.178 186.584 183.668 186.644 183.52C186.831 183.056 187.353 182.833 187.826 183.012C188.295 183.195 188.523 183.724 188.337 184.188H188.339Z" fill="#BFBFBF"/>
<path d="M248.219 198.838C251.509 198.838 253.848 200.336 255.037 202.269V199.153H261.815V221.157H255.037V218.041C253.808 219.974 251.47 221.472 248.18 221.472C242.789 221.472 238.469 217.056 238.469 210.116C238.469 203.175 242.789 198.838 248.219 198.838ZM250.201 204.713C247.664 204.713 245.366 206.606 245.366 210.116C245.366 213.625 247.664 215.597 250.201 215.597C252.738 215.597 255.037 213.664 255.037 210.155C255.037 206.645 252.778 204.713 250.201 204.713Z" fill="#BFBFBF"/>
<path d="M281.991 209.208C281.991 206.211 280.326 204.555 277.749 204.555C275.173 204.555 273.508 206.211 273.508 209.208V221.156H266.73V199.153H273.508V202.071C274.856 200.217 277.234 198.916 280.207 198.916C285.32 198.916 288.729 202.386 288.729 208.301V221.156H281.991V209.208Z" fill="#BFBFBF"/>
<path d="M301.848 198.838C305.099 198.838 307.477 200.297 308.666 202.269V199.153H315.444V221.117C315.444 226.993 312.035 232 304.385 232C297.805 232 293.525 228.688 292.93 223.444H299.629C300.065 225.1 301.729 226.164 304.068 226.164C306.644 226.164 308.666 224.824 308.666 221.117V218.002C307.437 219.934 305.099 221.472 301.848 221.472C296.418 221.472 292.098 217.056 292.098 210.116C292.098 203.175 296.418 198.838 301.848 198.838ZM303.83 204.713C301.293 204.713 298.994 206.606 298.994 210.116C298.994 213.625 301.293 215.597 303.83 215.597C306.367 215.597 308.666 213.664 308.666 210.155C308.666 206.645 306.407 204.713 303.83 204.713Z" fill="#BFBFBF"/>
<path d="M330.427 221.472C323.927 221.472 319.012 217.134 319.012 210.155C319.012 203.175 324.046 198.838 330.506 198.838C336.967 198.838 342.001 203.175 342.001 210.155C342.001 217.134 336.928 221.472 330.427 221.472ZM330.427 215.636C332.845 215.636 335.104 213.862 335.104 210.155C335.104 206.448 332.885 204.674 330.506 204.674C328.128 204.674 325.909 206.409 325.909 210.155C325.909 213.901 327.97 215.636 330.427 215.636Z" fill="#BFBFBF"/>
</g>
<g clip-path="url(#clip4_3032_59654)">
<path d="M755.381 78.918C751.471 78.918 748.089 81.0648 746.304 83.8812C744.468 80.6839 741.185 78.918 737.13 78.918C733.605 78.918 730.852 80.3977 729.259 82.5469V79.2042H721V105.837H729.256V91.3768C729.256 87.891 731.286 85.9819 734.423 85.9819C737.56 85.9819 739.589 87.891 739.589 91.3768V105.837H747.799V91.3768C747.799 87.891 749.829 85.9819 752.966 85.9819C756.102 85.9819 758.132 87.891 758.132 91.3768V105.837H766.342V90.2779C766.342 83.1171 762.044 78.918 755.381 78.918Z" fill="#BFBFBF"/>
<path d="M821.39 78.918C817.77 78.918 814.871 80.4923 813.229 82.7362V79.2042H804.973V105.837H813.229V91.3768C813.229 87.7479 815.259 85.7441 818.396 85.7441C821.532 85.7441 823.562 87.7502 823.562 91.3768V105.837H831.772V90.2779C831.772 83.1171 827.619 78.918 821.39 78.918Z" fill="#BFBFBF"/>
<path d="M850.118 78.8242C842.247 78.8242 836.113 84.0737 836.113 92.5204C836.113 100.967 842.102 106.217 850.02 106.217C857.937 106.217 864.12 100.967 864.12 92.5204C864.12 84.0737 858.036 78.8242 850.115 78.8242H850.118ZM850.022 99.1549C847.028 99.1549 844.517 97.008 844.517 92.5204C844.517 88.0327 847.123 85.8858 850.118 85.8858C853.112 85.8858 855.719 87.9865 855.719 92.5204C855.719 97.0542 852.967 99.1549 850.022 99.1549Z" fill="#BFBFBF"/>
<path d="M881.997 78.2676C874.126 78.2676 867.992 83.517 867.992 91.9637C867.992 100.41 873.981 105.66 881.899 105.66C889.816 105.66 895.999 100.41 895.999 91.9637C895.999 83.517 889.914 78.2676 881.994 78.2676H881.997ZM881.901 98.5983C878.907 98.5983 876.396 96.4514 876.396 91.9637C876.396 87.4761 879.002 85.3292 881.997 85.3292C884.991 85.3292 887.598 87.4299 887.598 91.9637C887.598 96.4976 884.846 98.5983 881.901 98.5983Z" fill="#BFBFBF"/>
<path d="M850.022 113.935C847.028 113.935 844.517 111.788 844.517 107.301H836.113C836.113 115.75 842.102 120.997 850.02 120.997C857.937 120.997 864.12 115.747 864.12 107.301H855.716C855.716 111.788 852.965 113.935 850.02 113.935H850.022Z" fill="#BFBFBF"/>
<path d="M791.465 82.9807V79.2109H799.721V105.841H791.465V102.072" fill="#BFBFBF"/>
<path d="M782.466 78.832C781.742 78.8366 781.034 78.9082 780.35 79.0375C774.971 80.1409 770.858 85.5589 770.704 92.1427C770.704 92.2627 770.699 92.3827 770.699 92.5028C770.699 92.6782 770.704 92.8514 770.709 93.0245V93.036C770.709 93.1353 770.716 93.2323 770.72 93.3315C771.038 99.7537 775.125 104.985 780.427 106.03C780.432 106.03 780.439 106.033 780.443 106.033C780.535 106.049 780.623 106.067 780.712 106.081C780.719 106.081 780.726 106.081 780.733 106.086C780.827 106.1 780.922 106.114 781.016 106.123C781.107 106.134 781.198 106.146 781.289 106.155C781.56 106.185 781.833 106.204 782.109 106.21C782.184 106.215 782.258 106.217 782.335 106.217C782.373 106.22 782.408 106.22 782.445 106.22H782.478C788.88 106.153 794.049 100.047 794.049 92.5259C794.049 85.0049 788.87 78.8897 782.466 78.832ZM788.906 97.6137C788.695 97.81 788.471 97.99 788.235 98.147C788.156 98.2001 788.076 98.2509 787.995 98.2993C787.105 98.8349 786.07 99.1119 784.991 99.1119C783.447 99.1119 781.973 98.5163 780.887 97.3875C780.479 96.9651 780.126 96.4664 779.846 95.8962C779.75 95.7092 779.663 95.5107 779.586 95.3076C779.276 94.4858 779.101 93.5393 779.101 92.4774C779.101 90.222 779.89 88.5161 781.095 87.4126C782.158 86.4407 783.543 85.9375 784.991 85.9375C786.561 85.9375 788.034 86.5239 789.113 87.6388C790.195 88.7538 790.884 90.4021 790.884 92.5259C790.884 94.7836 790.106 96.5011 788.906 97.6137Z" fill="#BFBFBF"/>
<path d="M788.131 80.6064L790.724 76.3311L785.532 73L784.051 78.9697L784.097 78.9836C785.331 79.3391 786.527 79.8054 787.673 80.3779L788.129 80.6064H788.131Z" fill="#BFBFBF"/>
<path d="M785.203 79.2051L786.13 79.5929L785.203 79.2051Z" fill="#BFBFBF"/>
</g>
<g clip-path="url(#clip5_3032_59654)">
<path d="M480.766 91.4242C480.766 87.941 478.758 86.0325 475.65 86.0325C472.542 86.0325 470.534 87.941 470.534 91.4242V105.882H462.407V91.4242C462.407 87.941 460.399 86.0325 457.291 86.0325C454.183 86.0325 452.175 87.941 452.175 91.4242V105.882H444V79.257H452.175V82.597C453.753 80.4499 456.478 78.9707 459.968 78.9707C463.984 78.9707 467.235 80.7361 469.052 83.933C470.821 81.1179 474.168 78.9707 478.04 78.9707C484.638 78.9707 488.893 83.1696 488.893 90.3268V105.882H480.766V91.4242Z" fill="#BFBFBF"/>
<path d="M504.765 78.875C508.733 78.875 511.554 80.6882 512.988 83.0262V79.2567H521.164V105.881H512.988V102.112C511.506 104.45 508.685 106.263 504.717 106.263C498.215 106.263 493.004 100.919 493.004 92.5213C493.004 84.1236 498.215 78.875 504.765 78.875ZM507.156 85.9845C504.096 85.9845 501.323 88.2748 501.323 92.5213C501.323 96.7679 504.096 99.1537 507.156 99.1537C510.215 99.1537 512.988 96.8157 512.988 92.5691C512.988 88.3225 510.263 85.9845 507.156 85.9845Z" fill="#BFBFBF"/>
<path d="M545.497 91.4242C545.497 87.7979 543.489 85.7939 540.381 85.7939C537.273 85.7939 535.265 87.7979 535.265 91.4242V105.882H527.09V79.257H535.265V82.7879C536.891 80.5453 539.759 78.9707 543.345 78.9707C549.513 78.9707 553.624 83.1696 553.624 90.3268V105.882H545.497V91.4242Z" fill="#BFBFBF"/>
<path d="M569.449 78.875C573.369 78.875 576.238 80.6404 577.672 83.0262V79.2567H585.847V105.834C585.847 112.943 581.736 119.003 572.508 119.003C564.572 119.003 559.409 114.995 558.692 108.649H566.771C567.297 110.653 569.305 111.941 572.126 111.941C575.234 111.941 577.672 110.319 577.672 105.834V102.064C576.19 104.402 573.369 106.263 569.449 106.263C562.899 106.263 557.688 100.919 557.688 92.5213C557.688 84.1236 562.899 78.875 569.449 78.875ZM571.839 85.9845C568.779 85.9845 566.006 88.2748 566.006 92.5213C566.006 96.7679 568.779 99.1537 571.839 99.1537C574.899 99.1537 577.672 96.8157 577.672 92.5691C577.672 88.3225 574.947 85.9845 571.839 85.9845Z" fill="#BFBFBF"/>
<path d="M603.922 106.263C596.081 106.263 590.152 101.015 590.152 92.5691C590.152 84.1236 596.224 78.875 604.017 78.875C611.81 78.875 617.882 84.1236 617.882 92.5691C617.882 101.015 611.762 106.263 603.922 106.263ZM602.307 100.274C605.176 100.863 608.379 98.8702 609.476 93.557C610.584 88.1877 608.466 85.1593 605.645 84.5783C602.732 83.9776 599.678 85.9452 598.57 91.3145C597.462 96.6837 599.391 99.6729 602.307 100.274Z" fill="#BFBFBF"/>
<path d="M608.793 78.9002C608.793 78.9002 602.277 79.1977 602.502 70C602.502 70 609.043 73.834 608.793 78.9002Z" fill="#BFBFBF"/>
<path d="M619.001 74.5215C614.496 82.5488 609.043 78.9758 609.043 78.9758C611.414 74.4906 619.001 74.5215 619.001 74.5215Z" fill="#BFBFBF"/>
</g>
<g clip-path="url(#clip6_3032_59654)">
<path d="M213.618 91.48C213.618 88.0034 211.618 86.0978 208.523 86.0978C205.428 86.0978 203.428 88.0034 203.428 91.48V105.907H195.332V91.48C195.332 88.0034 193.333 86.0978 190.238 86.0978C187.143 86.0978 185.143 88.0034 185.143 91.48V105.907H177V79.3377H185.145V82.6707C186.716 80.5296 189.43 79.0527 192.904 79.0527C196.906 79.0527 200.142 80.8146 201.953 84.0039C203.713 81.1962 207.048 79.0527 210.904 79.0527C217.476 79.0527 221.713 83.2407 221.713 90.3847V105.905H213.618V91.4777V91.48Z" fill="#BFBFBF"/>
<path d="M237.546 78.959C241.496 78.959 244.308 80.768 245.733 83.1022V79.3382H253.878V105.908H245.733V102.146C244.261 104.478 241.449 106.289 237.499 106.289C231.023 106.289 225.832 100.954 225.832 92.5758C225.832 84.1975 231.023 78.959 237.543 78.959H237.546ZM239.925 86.0512C236.877 86.0512 234.116 88.336 234.116 92.5758C234.116 96.8155 236.877 99.1945 239.925 99.1945C242.973 99.1945 245.733 96.8603 245.733 92.6229C245.733 88.3854 243.02 86.0512 239.925 86.0512Z" fill="#BFBFBF"/>
<path d="M278.128 91.48C278.128 87.8621 276.128 85.8599 273.033 85.8599C269.938 85.8599 267.938 87.8597 267.938 91.48V105.907H259.793V79.3377H267.938V82.8615C269.554 80.6215 272.411 79.0527 275.982 79.0527C282.122 79.0527 286.221 83.2407 286.221 90.3847V105.905H278.125V91.4777L278.128 91.48Z" fill="#BFBFBF"/>
<path d="M309.822 81.6867V78.3608H322.888V84.7016H318.403V104.932C318.403 109.177 317.244 112.416 314.924 114.649C312.604 116.882 309.031 117.998 304.202 117.998C298.857 117.998 294.872 117.018 292.243 115.061L296.443 109.365C298.66 110.722 300.841 111.4 302.989 111.4C304.793 111.4 306.188 111.13 307.177 110.588C308.164 110.046 308.851 109.212 309.238 108.089C309.624 106.963 309.817 105.446 309.817 103.54V102.071C306.965 104.596 304.2 105.858 301.519 105.858C299.303 105.858 297.34 105.269 295.63 104.094C293.92 102.916 292.601 101.272 291.673 99.1593C290.745 97.0465 290.281 94.6227 290.281 91.8904C290.281 89.1581 290.776 86.8121 291.763 84.6993C292.75 82.5864 294.147 80.94 295.951 79.7646C297.755 78.5869 299.764 77.998 301.981 77.998C305.194 77.998 307.806 79.2276 309.815 81.6843L309.822 81.6867ZM304.435 98.8507C306.016 98.8507 307.318 98.2454 308.34 97.0347C309.363 95.824 309.874 94.1446 309.874 91.9964C309.874 89.8482 309.389 88.0958 308.418 86.8427C307.448 85.5896 306.119 84.9607 304.435 84.9607C302.751 84.9607 301.514 85.6061 300.57 86.8945C299.625 88.1829 299.152 89.8671 299.152 91.9469C299.152 94.0268 299.625 95.5908 300.57 96.8957C301.514 98.2006 302.803 98.8554 304.435 98.8554V98.8507Z" fill="#BFBFBF"/>
<path d="M352.947 91.9022C352.947 83.4744 346.95 78.2383 339.137 78.2383C331.324 78.2383 325.332 83.4744 325.332 91.9022C325.332 94.724 325.996 97.1854 327.169 99.2158H322.887V105.568H339.792V105.552C347.237 105.227 352.947 100.059 352.947 91.9022ZM339.045 98.5209C336.091 98.5209 333.618 96.3798 333.618 91.9022C333.618 87.4245 336.188 85.2834 339.139 85.2834C342.091 85.2834 344.663 87.3797 344.663 91.9022C344.663 96.4246 341.949 98.5209 339.045 98.5209Z" fill="#BFBFBF"/>
</g>
</g>
<defs>
<clipPath id="clip0_3032_59654">
<rect width="1072" height="314" rx="8" fill="white"/>
</clipPath>
<clipPath id="clip1_3032_59654">
<rect width="153" height="49" fill="white" transform="translate(721 183)"/>
</clipPath>
<clipPath id="clip2_3032_59654">
<rect width="152" height="67" fill="white" transform="translate(444 174)"/>
</clipPath>
<clipPath id="clip3_3032_59654">
<rect width="161" height="76" fill="white" transform="translate(181 156)"/>
</clipPath>
<clipPath id="clip4_3032_59654">
<rect width="175" height="48" fill="white" transform="translate(721 73)"/>
</clipPath>
<clipPath id="clip5_3032_59654">
<rect width="175" height="49" fill="white" transform="translate(444 70)"/>
</clipPath>
<clipPath id="clip6_3032_59654">
<rect width="175.949" height="40" fill="white" transform="translate(177 78)"/>
</clipPath>
</defs>
</svg>
