<svg width="34" height="90" viewBox="0 0 34 90" fill="none" xmlns="http://www.w3.org/2000/svg">
<path d="M17.0001 15.6246C21.2176 15.6246 24.6366 12.1269 24.6366 7.8123C24.6366 3.49769 21.2176 0 17.0001 0C12.7826 0 9.36362 3.49769 9.36362 7.8123C9.36362 12.1269 12.7826 15.6246 17.0001 15.6246Z" fill="#BFBFBF"/>
<path fill-rule="evenodd" clip-rule="evenodd" d="M26.5441 85.8917C26.5441 88.1601 24.7465 90 22.5282 90C20.3109 90 18.5124 88.161 18.5124 85.8917V57.8553C18.5124 57.5509 18.5124 54.9544 18.5124 53.5502C18.5124 53.0111 18.1893 52.5281 17.6984 52.3318C17.4028 52.2136 17.0717 52.2131 16.7749 52.3285C16.2688 52.5251 15.9286 53.0231 15.9286 53.577C15.9286 54.9871 15.9286 57.5529 15.9286 57.8553V85.8917C15.9286 88.1601 14.1311 90 11.9128 90C9.69448 90 7.8969 88.161 7.8969 85.8917V43.0594H26.5431L26.5441 85.8917ZM7.74392 41.9609C15.4295 41.9609 23.1151 41.9707 30.8017 41.9707C31.6823 41.9707 32.4816 41.6029 33.0611 41.0101C33.6405 40.4174 34 39.5986 34 38.6987L33.999 36.7277C33.999 36.6534 33.9847 36.579 33.9532 36.5066L33.4626 35.372V28.3545C33.4626 24.0359 30.5139 20.4 26.5707 19.4444L26.1347 18.4378C26.0582 18.2304 25.8621 18.0827 25.6317 18.0827L20.5975 18.0847C20.3843 18.0847 20.1835 18.2158 20.1003 18.43L19.802 19.1979H17.0894L16.7079 18.4212C16.6276 18.2216 16.4354 18.0818 16.2116 18.0818L13.0229 18.0837C12.781 18.0837 12.562 18.252 12.5027 18.5024L12.3383 19.1979H8.95059C4.02064 19.1979 0 23.3111 0 28.3545C0 36.7209 0 43.2551 0 51.6214C0 53.3987 1.40842 54.8396 3.14576 54.8396C4.8831 54.8396 6.29056 53.3987 6.29056 51.6214V42.7963C4.67657 42.1898 3.5244 40.6042 3.5244 38.7427C3.5244 36.8813 4.67657 35.2957 6.29056 34.6892V30.169C6.29056 29.7494 6.62521 29.407 7.03541 29.407H7.15206C7.56225 29.407 7.8969 29.7494 7.8969 30.169C7.8969 31.9542 7.8969 33.7404 7.8969 35.5255H7.74392C6.00658 35.5255 4.59816 36.9664 4.59816 38.7427C4.59912 40.5201 6.00754 41.9609 7.74392 41.9609ZM9.5807 35.5255L13.4445 19.1812H15.8827L16.6926 20.8275L17.2902 25.6616L13.4541 35.5255H9.5807ZM12.7035 40.8722C15.4429 33.6347 18.1565 26.3933 20.9609 19.1822H25.2846L32.9262 36.8421V38.6987C32.9262 39.2954 32.6872 39.8393 32.3019 40.2335C31.9165 40.6277 31.3859 40.8722 30.8017 40.8722H12.7035Z" fill="#BFBFBF"/>
</svg>
