<svg width="48" height="90" viewBox="0 0 48 90" fill="none" xmlns="http://www.w3.org/2000/svg">
<path d="M19.3328 15.626C23.6478 15.626 27.1458 12.128 27.1458 7.813C27.1458 3.498 23.6478 0 19.3328 0C15.0178 0 11.5198 3.498 11.5198 7.813C11.5198 12.128 15.0178 15.626 19.3328 15.626Z" fill="#BFBFBF"/>
<path d="M28.384 17.707H10.282C4.909 17.707 0.555 22.061 0.555 27.434C0.555 29.015 0.555 51.923 0.555 51.923C0.555 53.736 2.026 55.206 3.839 55.206C5.651 55.206 7.122 53.736 7.122 51.923V27.77C7.122 27.143 7.629 26.634 8.258 26.634C8.887 26.634 9.394 27.143 9.394 27.77L9.395 85.748C9.395 88.096 11.298 89.999 13.645 89.999C15.994 89.999 17.896 88.096 17.896 85.748C17.896 85.748 17.896 53.869 17.896 53.853C17.896 53.059 18.539 52.415 19.332 52.415C20.126 52.415 20.77 53.059 20.77 53.853C20.77 53.869 20.77 85.748 20.77 85.748C20.77 88.096 22.672 89.999 25.02 89.999C27.368 89.999 29.272 88.096 29.272 85.748V27.77C29.272 27.143 29.78 26.634 30.407 26.634C31.036 26.634 31.546 27.143 31.546 27.77V51.851H38.11C38.11 50.046 38.11 27.765 38.11 27.433C38.11 22.061 33.757 17.707 28.384 17.707Z" fill="#BFBFBF"/>
<path d="M10.2807 17.707H28.3827C33.7557 17.707 38.1097 22.061 38.1097 27.434C38.1097 29.015 38.1097 51.923 38.1097 51.923C38.1097 53.736 36.6387 55.206 34.8257 55.206C33.0137 55.206 31.5427 53.736 31.5427 51.923V27.77C31.5427 27.143 31.036 26.634 30.407 26.634C29.778 26.634 29.2707 27.143 29.2707 27.77L29.2697 85.748C29.2697 88.096 27.367 89.999 25.02 89.999C22.671 89.999 20.7687 88.096 20.7687 85.748C20.7687 85.748 20.7687 53.869 20.7687 53.853C20.7687 53.059 20.125 52.415 19.332 52.415C18.538 52.415 17.8947 53.059 17.8947 53.853C17.8947 53.869 17.8947 85.748 17.8947 85.748C17.8947 88.096 15.993 89.999 13.645 89.999C11.297 89.999 9.39269 88.096 9.39269 85.748V27.77C9.39269 27.143 8.885 26.634 8.258 26.634C7.629 26.634 7.11869 27.143 7.11869 27.77V51.851H0.554688C0.554688 50.046 0.554688 27.765 0.554688 27.433C0.554688 22.061 4.90769 17.707 10.2807 17.707Z" fill="#BFBFBF"/>
<path d="M34.3335 53.6055L36.2395 52.9995L47.808 89.3858L45.902 89.9918L34.3335 53.6055Z" fill="#BFBFBF"/>
</svg>
