<svg width="119" height="48" viewBox="0 0 119 48" fill="none" xmlns="http://www.w3.org/2000/svg">
<rect x="5" y="5" width="109" height="38" rx="3" fill="#545A67"/>
<rect x="5" y="5" width="109" height="38" rx="3" stroke="#293141" stroke-width="2"/>
<path d="M22.7368 24.2339L26.0357 27.5119L33.0057 20.4968M37 24C37 28.9706 32.9706 33 28 33C23.0294 33 19 28.9706 19 24C19 19.0294 23.0294 15 28 15C32.9706 15 37 19.0294 37 24Z" stroke="white" stroke-width="1.5" stroke-linejoin="round"/>
<path d="M49.3125 19.0059H52.2861C53.5758 19.0059 54.5488 19.1927 55.2051 19.5664C55.8613 19.9401 56.1895 20.585 56.1895 21.501C56.1895 21.8838 56.1211 22.2301 55.9844 22.54C55.8522 22.8454 55.6585 23.0983 55.4033 23.2988C55.1481 23.4948 54.8337 23.627 54.46 23.6953V23.7637C54.8473 23.832 55.1914 23.9528 55.4922 24.126C55.7975 24.2992 56.0368 24.5475 56.21 24.8711C56.3877 25.1947 56.4766 25.6139 56.4766 26.1289C56.4766 26.7396 56.3307 27.2591 56.0391 27.6875C55.752 28.1159 55.3395 28.4417 54.8018 28.665C54.2686 28.8883 53.6351 29 52.9014 29H49.3125V19.0059ZM50.9531 23.1279H52.5254C53.2682 23.1279 53.7832 23.0072 54.0703 22.7656C54.3574 22.5241 54.501 22.1709 54.501 21.7061C54.501 21.2321 54.3301 20.8903 53.9883 20.6807C53.651 20.471 53.1133 20.3662 52.375 20.3662H50.9531V23.1279ZM50.9531 24.4541V27.626H52.6826C53.4482 27.626 53.986 27.4779 54.2959 27.1816C54.6058 26.8854 54.7607 26.4844 54.7607 25.9785C54.7607 25.6686 54.6901 25.3997 54.5488 25.1719C54.4121 24.944 54.1865 24.7686 53.8721 24.6455C53.5576 24.5179 53.1338 24.4541 52.6006 24.4541H50.9531ZM64.9736 21.4326V29H63.709L63.4902 27.9814H63.4014C63.2419 28.2412 63.0391 28.4577 62.793 28.6309C62.5469 28.7995 62.2734 28.9248 61.9727 29.0068C61.6719 29.0934 61.3551 29.1367 61.0225 29.1367C60.4528 29.1367 59.9652 29.041 59.5596 28.8496C59.1585 28.6536 58.8509 28.3529 58.6367 27.9473C58.4225 27.5417 58.3154 27.0176 58.3154 26.375V21.4326H59.9287V26.0742C59.9287 26.6621 60.0472 27.1019 60.2842 27.3936C60.5257 27.6852 60.8994 27.8311 61.4053 27.8311C61.8929 27.8311 62.2803 27.7308 62.5674 27.5303C62.8545 27.3298 63.0573 27.0335 63.1758 26.6416C63.2988 26.2497 63.3604 25.7689 63.3604 25.1992V21.4326H64.9736ZM70.0938 27.8379C70.3034 27.8379 70.5107 27.8197 70.7158 27.7832C70.9209 27.7422 71.1077 27.6943 71.2764 27.6396V28.8564C71.0986 28.9339 70.8685 29 70.5859 29.0547C70.3034 29.1094 70.0094 29.1367 69.7041 29.1367C69.2757 29.1367 68.8906 29.0661 68.5488 28.9248C68.207 28.779 67.9359 28.5306 67.7354 28.1797C67.5348 27.8288 67.4346 27.3434 67.4346 26.7236V22.6562H66.4023V21.9385L67.5098 21.3711L68.0361 19.751H69.0479V21.4326H71.2148V22.6562H69.0479V26.7031C69.0479 27.0859 69.1436 27.3708 69.335 27.5576C69.5264 27.7445 69.7793 27.8379 70.0938 27.8379ZM75.6309 27.8379C75.8405 27.8379 76.0479 27.8197 76.2529 27.7832C76.458 27.7422 76.6449 27.6943 76.8135 27.6396V28.8564C76.6357 28.9339 76.4056 29 76.123 29.0547C75.8405 29.1094 75.5465 29.1367 75.2412 29.1367C74.8128 29.1367 74.4277 29.0661 74.0859 28.9248C73.7441 28.779 73.473 28.5306 73.2725 28.1797C73.0719 27.8288 72.9717 27.3434 72.9717 26.7236V22.6562H71.9395V21.9385L73.0469 21.3711L73.5732 19.751H74.585V21.4326H76.752V22.6562H74.585V26.7031C74.585 27.0859 74.6807 27.3708 74.8721 27.5576C75.0635 27.7445 75.3164 27.8379 75.6309 27.8379ZM85.0508 25.1992C85.0508 25.8281 84.9688 26.3864 84.8047 26.874C84.6406 27.3617 84.4014 27.7741 84.0869 28.1113C83.7725 28.444 83.3942 28.6992 82.9521 28.877C82.5101 29.0501 82.0111 29.1367 81.4551 29.1367C80.9355 29.1367 80.4593 29.0501 80.0264 28.877C79.5934 28.6992 79.2174 28.444 78.8984 28.1113C78.584 27.7741 78.3402 27.3617 78.167 26.874C77.9938 26.3864 77.9072 25.8281 77.9072 25.1992C77.9072 24.3652 78.0508 23.6589 78.3379 23.0801C78.6296 22.4967 79.0443 22.0524 79.582 21.7471C80.1198 21.4417 80.7601 21.2891 81.5029 21.2891C82.2002 21.2891 82.8154 21.4417 83.3486 21.7471C83.8818 22.0524 84.2988 22.4967 84.5996 23.0801C84.9004 23.6634 85.0508 24.3698 85.0508 25.1992ZM79.5615 25.1992C79.5615 25.7507 79.6276 26.2223 79.7598 26.6143C79.8965 27.0062 80.1061 27.307 80.3887 27.5166C80.6712 27.7217 81.0358 27.8242 81.4824 27.8242C81.929 27.8242 82.2936 27.7217 82.5762 27.5166C82.8587 27.307 83.0661 27.0062 83.1982 26.6143C83.3304 26.2223 83.3965 25.7507 83.3965 25.1992C83.3965 24.6478 83.3304 24.1807 83.1982 23.7979C83.0661 23.4105 82.8587 23.1165 82.5762 22.916C82.2936 22.7109 81.9268 22.6084 81.4756 22.6084C80.8102 22.6084 80.3249 22.8317 80.0195 23.2783C79.7142 23.7249 79.5615 24.3652 79.5615 25.1992ZM90.8408 21.2891C91.693 21.2891 92.3561 21.5101 92.8301 21.9521C93.3086 22.3896 93.5479 23.0938 93.5479 24.0645V29H91.9414V24.3652C91.9414 23.7773 91.8206 23.3376 91.5791 23.0459C91.3376 22.7497 90.9639 22.6016 90.458 22.6016C89.7243 22.6016 89.2139 22.8271 88.9268 23.2783C88.6442 23.7295 88.5029 24.3835 88.5029 25.2402V29H86.8965V21.4326H88.1475L88.373 22.458H88.4619C88.626 22.1937 88.8288 21.9772 89.0703 21.8086C89.3164 21.6354 89.5898 21.5055 89.8906 21.4189C90.196 21.3324 90.5127 21.2891 90.8408 21.2891Z" fill="white"/>
<rect x="1" y="1" width="117" height="46" rx="7" stroke="#293141" stroke-width="2"/>
<rect x="3" y="3" width="113" height="42" rx="5" stroke="white" stroke-width="2"/>
</svg>
