<svg width="54" height="90" viewBox="0 0 54 90" fill="none" xmlns="http://www.w3.org/2000/svg">
<path d="M18.9995 15.626C23.3145 15.626 26.8125 12.128 26.8125 7.813C26.8125 3.498 23.3145 0 18.9995 0C14.6845 0 11.1865 3.498 11.1865 7.813C11.1865 12.128 14.6845 15.626 18.9995 15.626Z" fill="#BFBFBF"/>
<path d="M28.0507 17.707H9.94868C4.57568 17.707 0.22168 22.061 0.22168 27.434C0.22168 29.015 0.22168 51.923 0.22168 51.923C0.22168 53.736 1.69268 55.206 3.50568 55.206C5.31768 55.206 6.78868 53.736 6.78868 51.923V27.77C6.78868 27.143 7.29568 26.634 7.92468 26.634C8.55368 26.634 9.06068 27.143 9.06068 27.77V53.904L9.06168 85.748C9.06168 88.096 10.9647 89.999 13.3117 89.999C15.6607 89.999 17.5627 88.096 17.5627 85.748C17.5627 85.748 17.5627 53.869 17.5627 53.853C17.5627 53.059 18.2057 52.415 18.9987 52.415C19.7927 52.415 20.4367 53.059 20.4367 53.853C20.4367 53.869 20.4367 85.748 20.4367 85.748C20.4367 88.096 22.3387 89.999 24.6867 89.999C27.0347 89.999 28.9387 88.096 28.9387 85.748V53.904V27.77C28.9387 27.143 29.4467 26.634 30.0737 26.634C30.7027 26.634 31.2127 27.143 31.2127 27.77V51.851H37.7767C37.7767 50.046 37.7767 27.765 37.7767 27.433C37.7767 22.061 33.4237 17.707 28.0507 17.707Z" fill="#BFBFBF"/>
<path d="M9.94737 17.707H28.0494C33.4224 17.707 37.7764 22.061 37.7764 27.434C37.7764 29.015 37.7764 51.923 37.7764 51.923C37.7764 53.736 36.3054 55.206 34.4924 55.206C32.6804 55.206 31.2094 53.736 31.2094 51.923V27.77C31.2094 27.143 30.7024 26.634 30.0734 26.634C29.4444 26.634 28.9374 27.143 28.9374 27.77V53.904L28.9364 85.748C28.9364 88.096 27.0334 89.999 24.6864 89.999C22.3374 89.999 20.4354 88.096 20.4354 85.748C20.4354 85.748 20.4354 53.869 20.4354 53.853C20.4354 53.059 19.7924 52.415 18.9994 52.415C18.2054 52.415 17.5614 53.059 17.5614 53.853C17.5614 53.869 17.5614 85.748 17.5614 85.748C17.5614 88.096 15.6594 89.999 13.3114 89.999C10.9634 89.999 9.05937 88.096 9.05937 85.748V53.904V27.77C9.05937 27.143 8.55137 26.634 7.92437 26.634C7.29537 26.634 6.78537 27.143 6.78537 27.77V51.851H0.221367C0.221367 50.046 0.221367 27.765 0.221367 27.433C0.221367 22.061 4.57437 17.707 9.94737 17.707Z" fill="#BFBFBF"/>
<path d="M53.6576 14.8571L51.3338 12.5333V1.2952C51.3338 0.647583 50.8385 0.152344 50.1909 0.152344C49.9624 0.152344 49.7719 0.228534 49.5814 0.34282L43.1814 4.38092L39.1433 0.34282C38.9147 0.114249 38.5719 0.114249 38.3433 0.34282C38.1147 0.571391 38.1147 0.914249 38.3433 1.14282L41.5814 4.38092L51.3338 14.1333L52.8576 15.6571C53.0862 15.8857 53.429 15.8857 53.6576 15.6571C53.8862 15.4285 53.8862 15.0857 53.6576 14.8571Z" fill="#BFBFBF"/>
<path d="M39.5238 4.38095C38.8762 4.38095 38.381 4.87619 38.381 5.52381V10.4762C38.381 11.1238 38.8762 11.619 39.5238 11.619H43.1429L49.581 15.6571C50.0381 15.9619 50.6476 15.8857 51.0286 15.4667L39.9429 4.38095H39.5238Z" fill="#BFBFBF"/>
</svg>
