<svg width="93" height="90" viewBox="0 0 93 90" fill="none" xmlns="http://www.w3.org/2000/svg">
<path d="M71.594 17.3564C68.6392 14.1636 66.4083 15.238 65.4478 15.9116C64.8963 16.1792 64.3313 16.5789 63.7013 16.9808L63.346 17.2756C62.3204 18.2116 50.7582 31.5715 50.7582 31.5715L36.6707 33.2209C33.5206 33.5031 32.5643 33.7717 32.4073 35.9069C32.305 38.3978 34.3841 38.785 36.0603 39.0106C37.7376 39.2383 46.4173 38.8028 50.0703 38.6224C52.4954 38.5709 52.7815 38.6937 53.9661 38.0925C54.7562 37.7588 63.7974 29.1698 63.7974 29.1698C63.7974 29.1698 68.9903 46.2304 67.9369 46.3689C66.8834 46.5084 52.105 47.9312 49.9133 51.5983C47.9531 53.8489 44.739 66.9444 44.739 66.9444L40.8969 82.8813C40.457 84.9 40.6429 87.7119 43.0793 87.8305C45.0044 87.8725 46.7788 86.2976 47.8209 83.0135C47.8209 83.0135 56.4221 58.2672 56.4221 58.2294C56.4221 58.2294 77.8962 60.2251 82.2557 55.7973C85.8271 48.0571 79.652 33.4937 79.652 33.4937L71.594 17.3564Z" fill="#BFBFBF"/>
<path d="M54.0904 7.60021C54.0904 11.7931 57.4873 15.1807 61.6766 15.1807C65.8773 15.1807 69.2711 11.7931 69.2711 7.60021C69.2711 3.38766 65.8773 0 61.6766 0C57.4873 0 54.0904 3.38766 54.0904 7.60021Z" fill="#BFBFBF"/>
<path d="M59.5181 60.0159C59.5181 60.0159 79.3343 59.7787 86.1334 57.7595C88.3035 56.9118 89.2936 60.5009 89.2936 61.0997V62.7855C89.2936 63.3834 88.8044 63.8694 88.1991 63.8694H75.9506L75.9316 64.2362C76.4662 64.578 77.1021 64.7776 77.7843 64.7776H87.6297C89.5245 64.7776 91.0651 63.2506 91.0651 61.3725V47.9884C91.0651 46.8524 90.4989 45.848 89.6331 45.2282L89.32 53.6081C89.2989 54.1725 88.8212 54.6125 88.2518 54.5916L86.6491 54.5331C86.0797 54.5112 85.6357 54.0377 85.6579 53.4733L86.4034 33.5142C86.4255 32.9509 86.9032 32.5109 87.4715 32.5308L89.0743 32.5903C89.6426 32.6112 90.0866 33.0847 90.0655 33.648L89.7186 42.9498C91.7167 43.7671 93.1265 45.7163 93.1265 47.9874V61.3725C93.1265 64.3763 90.6602 66.8208 87.6297 66.8208H77.7843C77.0915 66.8208 76.4304 66.6881 75.8209 66.455L75.2768 77.2775H74.4754V78.3676L85.9415 85.8058C86.1978 85.9731 86.3601 86.227 86.4139 86.503C86.5847 86.7465 86.686 87.0412 86.686 87.36C86.686 88.1898 86.0069 88.8629 85.1697 88.8629C84.3314 88.8629 83.6534 88.1898 83.6534 87.36C83.6534 87.2168 83.6787 87.083 83.7156 86.9524L75.1197 81.3744L76.5822 87.2377C76.9987 87.5063 77.275 87.9682 77.275 88.4971C77.275 89.328 76.5959 90 75.7587 90C74.9215 90 74.2413 89.3269 74.2413 88.4971C74.2413 88.2191 74.3225 87.963 74.4554 87.7383L72.6924 80.669L62.9545 86.9879C62.9935 87.1217 63.022 87.2607 63.022 87.406C63.022 88.2379 62.3419 88.9099 61.5047 88.9099C60.6664 88.9099 59.9884 88.2368 59.9884 87.406C59.9884 87.0579 60.1128 86.7402 60.3142 86.4862C60.3722 86.2155 60.5335 85.9668 60.7845 85.8037L72.2917 78.3373V77.2744H71.4892L70.8154 63.8662H59.5223C58.9181 63.8662 58.4278 63.3802 58.4278 62.7824V61.0966C58.4236 60.5009 58.9139 60.0159 59.5181 60.0159Z" fill="#BFBFBF"/>
<path d="M-0.126465 41.2048H55.1747V42.2892H-0.126465V41.2048Z" fill="#BFBFBF"/>
<path d="M-0.126465 43.3735H55.1747V46.6612H7.73416V57.4198L17.3744 64.1053L44.987 46.6622H51.1815L20.327 66.1541L51.5832 87.8313H45.7728L7.73416 61.4492V87.8313H4.37468V46.6612H-0.126465V43.3735Z" fill="#BFBFBF"/>
<path d="M20.5918 35.8083L22.6023 25.0184C23.2577 22.0728 24.828 21.1197 26.2439 20.9062L24.16 4.42088C24.097 3.92821 24.4509 3.47824 24.9478 3.41678L26.2082 3.26054C26.7103 3.19597 27.1609 3.55427 27.2229 4.04174L31.312 36.3812C31.3751 36.8749 31.0211 37.3248 30.5243 37.3873L29.2638 37.5436C29.2249 37.5488 29.1882 37.5498 29.1504 37.5498C28.6924 37.5498 28.3058 37.2124 28.2502 36.7613L26.4257 22.3311C25.5433 22.4696 24.5266 23.0654 24.0287 25.3038L22.0245 36.0656C21.8502 37.027 21.9184 37.6967 22.2262 38.0623C22.5823 38.4841 23.3795 38.68 24.7356 38.68C24.7461 38.68 24.7555 38.68 24.765 38.68H30.2785V40.1205H24.7671C24.7534 40.1205 24.7419 40.1205 24.7293 40.1205C23.4825 40.1205 21.9594 39.9872 21.1139 38.9883C20.5046 38.2717 20.3345 37.2321 20.5918 35.8083ZM29.3069 36.4499L30.207 36.3385L26.1631 4.35526L25.2629 4.46671L29.3069 36.4499Z" fill="#BFBFBF"/>
</svg>
