<svg width="51" height="90" viewBox="0 0 51 90" fill="none" xmlns="http://www.w3.org/2000/svg">
<path d="M18.7782 15.626C23.0932 15.626 26.5912 12.128 26.5912 7.813C26.5912 3.498 23.0932 0 18.7782 0C14.4632 0 10.9652 3.498 10.9652 7.813C10.9652 12.128 14.4632 15.626 18.7782 15.626Z" fill="#BFBFBF"/>
<path d="M26.5912 17.707H9.72731C4.35431 17.707 0.000312805 22.061 0.000312805 27.434C0.000312805 29.015 0.000312805 51.923 0.000312805 51.923C0.000312805 53.736 1.47131 55.206 3.28431 55.206C5.09631 55.206 6.56731 53.736 6.56731 51.923V27.77C6.56731 27.143 7.07431 26.634 7.70331 26.634C8.33231 26.634 8.83931 27.143 8.83931 27.77L8.84031 85.748C8.84031 88.096 10.7433 89.999 13.0903 89.999C15.4393 89.999 17.3413 88.096 17.3413 85.748C17.3413 85.748 17.3413 53.869 17.3413 53.853C17.3413 53.059 17.9843 52.415 18.7773 52.415C19.5713 52.415 20.2153 53.059 20.2153 53.853C20.2153 53.869 20.2153 85.748 20.2153 85.748C20.2153 88.096 22.1173 89.999 24.4653 89.999C26.8133 89.999 28.7173 88.096 28.7173 85.748V27.77C28.7173 27.143 28.859 26.3007 29.8523 26.634L33.202 27.9392C39.5664 30.419 43.7572 36.5497 43.7572 43.3801V46.258C43.7572 46.6861 43.8473 47.1093 44.0217 47.5003C44.9871 49.6655 47.9454 49.9502 49.306 48.0088L49.4922 47.743C49.8734 47.1991 50.0769 46.5538 50.0271 45.8915C49.8485 43.5146 49.1448 37.9144 47.0827 32.9611C45.4767 29.1033 42.582 25.6345 41.0969 24.3149C39.6117 22.9953 31.9642 17.707 26.5912 17.707Z" fill="#BFBFBF"/>
<path d="M29.4526 41.6808H45.4526V57.6808H29.4526V41.6808Z" fill="#BFBFBF"/>
</svg>
