<svg width="49" height="90" viewBox="0 0 49 90" fill="none" xmlns="http://www.w3.org/2000/svg">
<path d="M27.8293 17.707H9.72731C4.35431 17.707 0.000312805 22.061 0.000312805 27.434C0.000312805 29.015 0.000312805 51.923 0.000312805 51.923C0.000312805 53.736 1.47131 55.206 3.28431 55.206C5.09631 55.206 6.56731 53.736 6.56731 51.923V27.77C6.56731 27.143 7.07431 26.634 7.70331 26.634C8.33231 26.634 8.83931 27.143 8.83931 27.77L8.84031 85.748C8.84031 88.096 10.7433 89.999 13.0903 89.999C15.4393 89.999 17.3413 88.096 17.3413 85.748C17.3413 85.748 17.3413 53.869 17.3413 53.853C17.3413 53.059 17.9843 52.415 18.7773 52.415C19.5713 52.415 20.2153 53.059 20.2153 53.853C20.2153 53.869 20.2153 85.748 20.2153 85.748C20.2153 88.096 22.1173 89.999 24.4653 89.999C26.8133 89.999 28.7173 88.096 28.7173 85.748V27.77C28.7173 27.143 29.2253 26.634 29.8523 26.634C30.4813 26.634 30.9913 27.143 30.9913 27.77V51.851H37.5553C37.5553 50.046 37.5553 27.765 37.5553 27.433C37.5553 22.061 33.2023 17.707 27.8293 17.707Z" fill="#BFBFBF"/>
<path d="M9.726 17.707H27.828C33.201 17.707 37.555 22.061 37.555 27.434C37.555 29.015 37.555 51.923 37.555 51.923C37.555 53.736 36.084 55.206 34.271 55.206C32.459 55.206 30.988 53.736 30.988 51.923V27.77C30.988 27.143 30.4813 26.634 29.8523 26.634C29.2233 26.634 28.716 27.143 28.716 27.77L28.715 85.748C28.715 88.096 26.8123 89.999 24.4653 89.999C22.1163 89.999 20.214 88.096 20.214 85.748C20.214 85.748 20.214 53.869 20.214 53.853C20.214 53.059 19.5703 52.415 18.7773 52.415C17.9833 52.415 17.34 53.059 17.34 53.853C17.34 53.869 17.34 85.748 17.34 85.748C17.34 88.096 15.4383 89.999 13.0903 89.999C10.7423 89.999 8.838 88.096 8.838 85.748V27.77C8.838 27.143 8.33031 26.634 7.70331 26.634C7.07431 26.634 6.564 27.143 6.564 27.77V51.851H0C0 50.046 0 27.765 0 27.433C0 22.061 4.353 17.707 9.726 17.707Z" fill="#BFBFBF"/>
<path d="M18.7772 15.626C23.0922 15.626 26.5902 12.128 26.5902 7.813C26.5902 3.498 23.0922 0 18.7772 0C14.4622 0 10.9642 3.498 10.9642 7.813C10.9642 12.128 14.4622 15.626 18.7772 15.626Z" fill="#BFBFBF"/>
<path d="M43.2778 1.5C43.2778 0.671572 43.9494 0 44.7778 0C45.6063 0 46.2778 0.671573 46.2778 1.5V24.5C46.2778 25.3284 45.6063 26 44.7778 26C43.9494 26 43.2778 25.3284 43.2778 24.5V1.5Z" fill="#BFBFBF"/>
<path d="M48.7778 28C48.7778 30.2091 46.987 32 44.7778 32C42.5687 32 40.7778 30.2091 40.7778 28C40.7778 25.7909 42.5687 24 44.7778 24C46.987 24 48.7778 25.7909 48.7778 28Z" fill="#BFBFBF"/>
<path d="M47.7778 28C47.7778 29.6569 46.4347 31 44.7778 31C43.121 31 41.7778 29.6569 41.7778 28C41.7778 26.3431 43.121 25 44.7778 25C46.4347 25 47.7778 26.3431 47.7778 28Z" fill="#F6F5F5"/>
<path d="M44.2778 7.5C44.2778 7.22386 44.5017 7 44.7778 7C45.054 7 45.2778 7.22386 45.2778 7.5V25.5C45.2778 25.7761 45.054 26 44.7778 26C44.5017 26 44.2778 25.7761 44.2778 25.5V7.5Z" fill="#F6F5F5"/>
</svg>
