<svg width="67" height="90" viewBox="0 0 67 90" fill="none" xmlns="http://www.w3.org/2000/svg">
<path d="M19.4995 15.626C23.8145 15.626 27.3125 12.128 27.3125 7.813C27.3125 3.498 23.8145 0 19.4995 0C15.1845 0 11.6865 3.498 11.6865 7.813C11.6865 12.128 15.1845 15.626 19.4995 15.626Z" fill="#BFBFBF"/>
<path d="M28.5507 17.707H10.4487C5.07568 17.707 0.72168 22.061 0.72168 27.434C0.72168 29.015 0.72168 51.923 0.72168 51.923C0.72168 53.736 2.19268 55.206 4.00568 55.206C5.81768 55.206 7.28868 53.736 7.28868 51.923V27.77C7.28868 27.143 7.79568 26.634 8.42468 26.634C9.05368 26.634 9.56068 27.143 9.56068 27.77V53.904L9.56168 85.748C9.56168 88.096 11.4647 89.999 13.8117 89.999C16.1607 89.999 18.0627 88.096 18.0627 85.748C18.0627 85.748 18.0627 53.869 18.0627 53.853C18.0627 53.059 18.7057 52.415 19.4987 52.415C20.2927 52.415 20.9367 53.059 20.9367 53.853C20.9367 53.869 20.9367 85.748 20.9367 85.748C20.9367 88.096 22.8387 89.999 25.1867 89.999C27.5347 89.999 29.4387 88.096 29.4387 85.748V53.904V27.77C29.4387 27.143 29.9467 26.634 30.5737 26.634C31.2027 26.634 31.7127 27.143 31.7127 27.77V51.851H38.2767C38.2767 50.046 38.2767 27.765 38.2767 27.433C38.2767 22.061 33.9237 17.707 28.5507 17.707Z" fill="#BFBFBF"/>
<path d="M10.4487 17.707H28.5507C33.9237 17.707 38.2773 22.061 38.2773 27.434C38.2773 29.015 38.2773 51.923 38.2773 51.923C38.2773 53.736 36.8063 55.206 34.9933 55.206C33.1813 55.206 31.7103 53.736 31.7103 51.923V27.77C31.7103 27.143 31.2027 26.634 30.5737 26.634C29.9447 26.634 29.4387 27.143 29.4387 27.77V53.904L29.4373 85.748C29.4373 88.096 27.5337 89.999 25.1867 89.999C22.8387 89.999 20.9367 88.096 20.9367 85.748C20.9367 85.748 20.9367 53.869 20.9367 53.853C20.9367 53.059 20.2933 52.415 19.5003 52.415C18.7063 52.415 18.0627 53.059 18.0627 53.853C18.0627 53.869 18.0627 85.748 18.0627 85.748C18.0627 88.096 16.1607 89.999 13.8117 89.999C11.4637 89.999 9.56034 88.096 9.56034 85.748L9.56068 53.904V27.77C9.56068 27.143 9.05168 26.634 8.42468 26.634C7.79568 26.634 7.28634 27.143 7.28634 27.77V51.851H0.722343C0.722343 50.046 0.722343 27.765 0.722343 27.433C0.722343 22.061 5.07568 17.707 10.4487 17.707Z" fill="#BFBFBF"/>
<path d="M64.4106 14.6545L59.1541 0.758051L59.0883 0.659228C59.0883 0.659228 59.0883 0.612168 59.0553 0.593344L59.0035 0.527462L58.9659 0.470992L58.9047 0.423934C58.8865 0.404219 58.866 0.386832 58.8436 0.372169L58.7777 0.334521L58.6977 0.296875H58.1188L58.0388 0.334521L57.973 0.372169L57.9118 0.419227L57.8506 0.470992L57.7988 0.532169C57.7805 0.553216 57.7632 0.575206 57.7471 0.598051L57.7094 0.659228C57.695 0.684952 57.6824 0.711688 57.6718 0.739227L52.3494 14.6545C52.3108 14.7571 52.2928 14.8663 52.2963 14.9759C52.2999 15.0854 52.325 15.1932 52.3703 15.293C52.4155 15.3929 52.4799 15.4829 52.5599 15.5578C52.6399 15.6327 52.7339 15.6912 52.8365 15.7298C52.9391 15.7684 53.0483 15.7865 53.1578 15.7829C53.2674 15.7793 53.3752 15.7542 53.475 15.709C53.5749 15.6638 53.6648 15.5993 53.7398 15.5193C53.8147 15.4393 53.8732 15.3453 53.9118 15.2428L55.1683 11.9204H61.6153L62.853 15.2428C62.9134 15.3986 63.0193 15.5326 63.157 15.6275C63.2946 15.7223 63.4576 15.7736 63.6247 15.7745C63.7247 15.7744 63.8237 15.7553 63.9165 15.7181C64.0188 15.6808 64.1128 15.6237 64.1931 15.55C64.2734 15.4764 64.3383 15.3876 64.3842 15.2888C64.4301 15.19 64.456 15.0831 64.4606 14.9743C64.4651 14.8655 64.4481 14.7568 64.4106 14.6545ZM55.7941 10.2733L58.3824 3.37452L60.9706 10.2733H55.7941Z" fill="#BFBFBF"/>
<path d="M59.1976 23.0894V19.8235C59.1976 19.6051 59.1109 19.3956 58.9564 19.2412C58.802 19.0868 58.5925 19 58.3741 19C58.1557 19 57.9462 19.0868 57.7918 19.2412C57.6374 19.3956 57.5506 19.6051 57.5506 19.8235V23.0894H51.8235C51.6051 23.0894 51.3956 23.1762 51.2412 23.3306C51.0868 23.4851 51 23.6945 51 23.9129C51 24.1314 51.0868 24.3408 51.2412 24.4953C51.3956 24.6497 51.6051 24.7365 51.8235 24.7365H60.4729C59.6353 26.4259 57.3529 29.8706 51.8 32.7365C51.6348 32.8204 51.5027 32.9577 51.4252 33.126C51.3477 33.2944 51.3292 33.4839 51.3727 33.6641C51.4162 33.8442 51.5193 34.0044 51.6651 34.1187C51.811 34.2331 51.9911 34.2949 52.1765 34.2941C52.3079 34.2949 52.4374 34.2625 52.5529 34.2C54.5158 33.2142 56.344 31.9806 57.9929 30.5294L62.5576 34.2424C62.7025 34.3644 62.8859 34.4311 63.0753 34.4306C63.2459 34.4314 63.4125 34.3793 63.5522 34.2814C63.6918 34.1834 63.7977 34.0445 63.855 33.8839C63.9123 33.7232 63.9184 33.5487 63.8723 33.3845C63.8262 33.2203 63.7302 33.0744 63.5976 32.9671L59.1976 29.3576C60.5105 28.0251 61.5609 26.4574 62.2941 24.7365H64.92C65.1384 24.7365 65.3479 24.6497 65.5023 24.4953C65.6568 24.3408 65.7435 24.1314 65.7435 23.9129C65.7435 23.6945 65.6568 23.4851 65.5023 23.3306C65.3479 23.1762 65.1384 23.0894 64.92 23.0894H59.1976Z" fill="#BFBFBF"/>
</svg>
