<svg width="93" height="90" viewBox="0 0 93 90" fill="none" xmlns="http://www.w3.org/2000/svg">
<path d="M84.7864 53.9102H48.7361V89.9604H84.7864V53.9102Z" fill="#BFBFBF"/>
<path d="M10.923 56.053C10.9601 56.053 10.996 56.0526 11.0331 56.0515C12.7022 55.9925 14.008 54.5914 13.9494 52.9215C13.9036 51.6411 13.8832 50.4185 13.8832 49.25C13.8786 38.4867 15.6957 32.434 17.4586 29.1524V85.0156C17.4586 87.5984 19.2045 89.6907 21.7858 89.6907C24.3678 89.6907 26.4616 87.5984 26.4616 85.0156L26.4616 53.5953C26.4616 53.3744 26.5157 53.1557 26.6181 52.96C27.1323 51.9771 28.547 51.9791 29.0468 52.9694C29.1428 53.1598 29.1929 53.3701 29.1929 53.5834L29.1929 85.0156C29.1929 87.5984 31.1467 89.6907 33.728 89.6907C36.31 89.6907 37.9132 87.5984 37.9132 85.0156V25.0578C39.194 24.9489 40.7645 24.7742 42.3735 24.4929C44.2669 24.1518 46.1977 23.6965 47.9474 22.8664C48.8213 22.4406 49.6771 21.9207 50.444 21.0955C51.2044 20.2954 51.8541 19.0203 51.839 17.6351C51.8375 16.386 51.3716 15.2648 50.7389 14.3376C49.7728 12.9377 48.4095 11.77 46.5052 10.4907C44.9358 9.44546 42.9834 8.34882 40.5508 7.16067L40.5016 6.35597C40.3992 4.68832 38.9648 3.41924 37.2979 3.52134C36.739 3.55538 36.227 3.74143 35.7944 4.03298C36.5303 5.36105 36.9504 6.88614 36.9504 8.5084C36.9504 9.68483 36.7273 10.8106 36.3257 11.8467C36.3393 11.8535 36.3514 11.8622 36.3654 11.869C40.3927 13.7356 43.0194 15.3136 44.4537 16.4689C44.8889 16.8153 45.2104 17.1219 45.4305 17.3617C44.9782 17.5871 44.2809 17.8559 43.48 18.0632C41.7337 18.5389 39.5113 18.8384 37.7755 18.9953C36.9062 19.0758 36.1529 19.1231 35.6235 19.1503C35.3917 19.1624 35.2068 19.1704 35.0695 19.1749C35.0434 19.1745 35.0177 19.1708 34.9912 19.1708H20.3813C19.9313 19.1708 19.5067 19.2755 19.1259 19.4574C17.8273 19.9252 15.3576 21.2434 13.1568 24.5749C10.2926 28.879 7.83655 36.2496 7.83276 49.2497C7.83276 50.4904 7.85507 51.7852 7.90272 53.1344C7.9602 54.7677 9.30188 56.053 10.923 56.053Z" fill="#BFBFBF"/>
<path d="M27.9925 15.63C32.3086 15.63 35.8075 12.1311 35.8075 7.815C35.8075 3.49889 32.3086 0 27.9925 0C23.6764 0 20.1775 3.49889 20.1775 7.815C20.1775 12.1311 23.6764 15.63 27.9925 15.63Z" fill="#BFBFBF"/>
<path d="M78.3904 38.02H75.9854L56.1502 29.4355L55.6999 30.477L73.1296 38.02H55.1345V52.2006H78.3908L78.3904 38.02ZM56.4577 39.4146H63.1385V40.864H63.8948V39.4146H76.8151V41.6835H56.4577V39.4146ZM69.4407 50.6763H56.4577V42.7979H69.4407V50.6763ZM74.168 49.3724C72.6013 49.3724 71.3319 48.1026 71.3319 46.5363C71.3319 44.97 72.6013 43.7002 74.168 43.7002C75.7347 43.7002 77.0042 44.97 77.0042 46.5363C77.0042 48.1026 75.7343 49.3724 74.168 49.3724Z" fill="#BFBFBF"/>
<path d="M68.0541 43.9336H57.5291V44.753H68.0541V43.9336Z" fill="#BFBFBF"/>
<path d="M68.0541 46.3281H57.529V47.1471H68.0541V46.3281Z" fill="#BFBFBF"/>
<path d="M68.0541 48.7227H57.5291V49.5421H68.0541V48.7227Z" fill="#BFBFBF"/>
<path d="M72.0235 21.2723C72.7465 20.87 73.1648 20.1904 73.1247 19.5956L73.1357 19.5926V16.6207C73.1357 16.0659 73.5248 15.8443 74.0012 16.1287L75.1433 16.8113C75.6193 17.0956 76.0089 17.7824 76.0089 18.3364V20.6472C75.898 20.6302 75.7842 20.6193 75.6659 20.623C75.3191 20.634 74.9455 20.7353 74.5908 20.9331C73.6802 21.4398 73.2412 22.3882 73.6099 23.0508C73.9778 23.7125 75.0147 23.8388 75.9249 23.3314C76.6483 22.9294 77.0669 22.2502 77.0272 21.6546L77.0374 21.6509V16.9633C77.0374 16.4093 76.6415 15.7351 76.1571 15.4647L72.9867 13.7002C72.5019 13.4306 72.1059 13.6632 72.1059 14.2179V18.5874C71.9951 18.5712 71.8821 18.5595 71.7633 18.5636C71.4162 18.5746 71.0426 18.6759 70.6875 18.8737C69.7773 19.3804 69.3379 20.3288 69.7062 20.9914C70.0753 21.6535 71.1125 21.7798 72.0235 21.2723Z" fill="#BFBFBF"/>
<path d="M59.4873 23.2887C60.3079 23.1786 60.9451 22.6984 61.1251 22.13L61.1364 22.1308L62.221 19.3642C62.4233 18.8481 62.8669 18.7845 63.2064 19.2232L64.0202 20.2748C64.359 20.7135 64.4714 21.4951 64.269 22.0105L63.4254 24.1622C63.329 24.1066 63.2272 24.0544 63.1157 24.0144C62.7886 23.8975 62.4036 23.8563 62.0013 23.9104C60.9685 24.0499 60.2137 24.7729 60.3151 25.5239C60.4164 26.2749 61.335 26.7699 62.3685 26.6304C63.1887 26.5204 63.8262 26.0409 64.007 25.4721H64.0172L65.7287 21.1079C65.9306 20.5925 65.8085 19.8199 65.4557 19.3915L63.1478 16.5916C62.7954 16.1639 62.3416 16.2358 62.1389 16.752L60.5443 20.8201C60.4474 20.7649 60.3457 20.7131 60.2334 20.673C59.9063 20.5562 59.5214 20.5142 59.119 20.5683C58.0866 20.7086 57.3307 21.4308 57.4328 22.1822C57.5349 22.9328 58.4538 23.4282 59.4873 23.2887Z" fill="#BFBFBF"/>
</svg>
