<svg width="75" height="90" viewBox="0 0 75 90" fill="none" xmlns="http://www.w3.org/2000/svg">
<path d="M18.9997 15.626C23.3147 15.626 26.8127 12.128 26.8127 7.813C26.8127 3.498 23.3147 0 18.9997 0C14.6847 0 11.1867 3.498 11.1867 7.813C11.1867 12.128 14.6847 15.626 18.9997 15.626Z" fill="#BFBFBF"/>
<path d="M28.0507 17.707H9.94868C4.57568 17.707 0.22168 22.061 0.22168 27.434C0.22168 29.015 0.22168 51.923 0.22168 51.923C0.22168 53.736 1.69268 55.206 3.50568 55.206C5.31768 55.206 6.78868 53.736 6.78868 51.923V27.77C6.78868 27.143 7.29568 26.634 7.92468 26.634C8.55368 26.634 9.06068 27.143 9.06068 27.77V53.904L9.06168 85.748C9.06168 88.096 10.9647 89.999 13.3117 89.999C15.6607 89.999 17.5627 88.096 17.5627 85.748C17.5627 85.748 17.5627 53.869 17.5627 53.853C17.5627 53.059 18.2057 52.415 18.9987 52.415C19.7927 52.415 20.4367 53.059 20.4367 53.853C20.4367 53.869 20.4367 85.748 20.4367 85.748C20.4367 88.096 22.3387 89.999 24.6867 89.999C27.0347 89.999 28.9387 88.096 28.9387 85.748V53.904V27.77C28.9387 27.143 29.4467 26.634 30.0737 26.634C30.7027 26.634 31.2127 27.143 31.2127 27.77V51.851H37.7767C37.7767 50.046 37.7767 27.765 37.7767 27.433C37.7767 22.061 33.4237 17.707 28.0507 17.707Z" fill="#BFBFBF"/>
<path d="M9.94868 17.707H28.0507C33.4237 17.707 37.7773 22.061 37.7773 27.434C37.7773 29.015 37.7773 51.923 37.7773 51.923C37.7773 53.736 36.3063 55.206 34.4933 55.206C32.6813 55.206 31.2103 53.736 31.2103 51.923V27.77C31.2103 27.143 30.7027 26.634 30.0737 26.634C29.4447 26.634 28.9387 27.143 28.9387 27.77V53.904L28.9373 85.748C28.9373 88.096 27.0337 89.999 24.6867 89.999C22.3387 89.999 20.4367 88.096 20.4367 85.748C20.4367 85.748 20.4367 53.869 20.4367 53.853C20.4367 53.059 19.7933 52.415 19.0003 52.415C18.2063 52.415 17.5627 53.059 17.5627 53.853C17.5627 53.869 17.5627 85.748 17.5627 85.748C17.5627 88.096 15.6607 89.999 13.3117 89.999C10.9637 89.999 9.06034 88.096 9.06034 85.748L9.06068 53.904V27.77C9.06068 27.143 8.55168 26.634 7.92468 26.634C7.29568 26.634 6.78634 27.143 6.78634 27.77V51.851H0.222343C0.222343 50.046 0.222343 27.765 0.222343 27.433C0.222343 22.061 4.57568 17.707 9.94868 17.707Z" fill="#BFBFBF"/>
<path d="M75 10C75 15.5228 67.8366 20 59 20C50.1634 20 43 15.5228 43 10C43 4.47715 50.1634 0 59 0C67.8366 0 75 4.47715 75 10Z" fill="#BFBFBF"/>
<path d="M51.5571 21.6833L51.6954 16.489L56.1247 19.206L51.5571 21.6833Z" fill="#BFBFBF"/>
<path d="M64.5 10C64.5 13.0376 62.0376 15.5 59 15.5C55.9624 15.5 53.5 13.0376 53.5 10C53.5 6.96243 55.9624 4.5 59 4.5C62.0376 4.5 64.5 6.96243 64.5 10Z" fill="white"/>
<path d="M64.5 10C64.5 13.0376 62.0376 15.5 59 15.5C55.9624 15.5 53.5 13.0376 53.5 10C53.5 6.96243 55.9624 4.5 59 4.5C62.0376 4.5 64.5 6.96243 64.5 10Z" fill="white"/>
<path fill-rule="evenodd" clip-rule="evenodd" d="M55.1289 6.83514C54.4233 7.69715 54 8.79914 54 10C54 12.7614 56.2386 15 59 15C60.2009 15 61.3029 14.5767 62.1649 13.8711C62.1586 13.8654 62.1525 13.8596 62.1464 13.8536L55.1464 6.85355C55.1404 6.84753 55.1346 6.84139 55.1289 6.83514ZM55.8351 6.12893C55.8414 6.13458 55.8475 6.14042 55.8536 6.14645L62.8536 13.1464C62.8596 13.1525 62.8654 13.1586 62.8711 13.1649C63.5767 12.3029 64 11.2009 64 10C64 7.23858 61.7614 5 59 5C57.7991 5 56.6971 5.42334 55.8351 6.12893ZM53 10C53 6.68629 55.6863 4 59 4C62.3137 4 65 6.68629 65 10C65 13.3137 62.3137 16 59 16C55.6863 16 53 13.3137 53 10Z" fill="#BFBFBF"/>
</svg>
