<svg width="48" height="90" viewBox="0 0 48 90" fill="none" xmlns="http://www.w3.org/2000/svg">
<path fill-rule="evenodd" clip-rule="evenodd" d="M24.4446 15.626C28.7596 15.626 32.2576 12.128 32.2576 7.813C32.2576 3.498 28.7596 0 24.4446 0C20.1296 0 16.6316 3.498 16.6316 7.813C16.6316 12.128 20.1296 15.626 24.4446 15.626ZM21.6949 8.56701C21.4558 8.42894 21.15 8.51088 21.0119 8.75002C20.8738 8.98917 20.9558 9.29496 21.1949 9.43303L23.2596 10.6251L21.1952 11.817C20.956 11.9551 20.8741 12.2609 21.0122 12.5C21.1502 12.7392 21.456 12.8211 21.6952 12.683L24.2596 11.2024L26.8241 12.683C27.0632 12.8211 27.369 12.7392 27.5071 12.5C27.6452 12.2609 27.5632 11.9551 27.3241 11.817L25.2596 10.6251L27.3243 9.43303C27.5635 9.29496 27.6454 8.98917 27.5073 8.75002C27.3693 8.51088 27.0635 8.42894 26.8243 8.56701L24.2596 10.0477L21.6949 8.56701Z" fill="#BFBFBF"/>
<path d="M43.2218 27.433C43.2218 22.061 38.8688 17.707 33.4958 17.707H15.3925C10.0195 17.707 5.6665 22.061 5.6665 27.433V51.851L5.66682 51.923C5.66682 53.736 7.13782 55.206 8.95082 55.206C10.7628 55.206 12.2338 53.736 12.2338 51.923V27.77C12.2338 27.1822 12.6794 26.6981 13.2534 26.6399C13.2917 26.636 13.3305 26.634 13.3698 26.634C13.9968 26.634 14.5045 27.143 14.5045 27.77V85.748C14.5045 87.876 16.0686 89.6384 18.1096 89.9501C18.3207 89.9823 18.5368 89.999 18.7568 89.999C19.0177 89.999 19.2731 89.9756 19.521 89.9306C21.5049 89.5708 23.0078 87.8352 23.0078 85.748V53.853C23.0078 53.1087 23.573 52.4961 24.297 52.4225C24.3453 52.4175 24.3943 52.415 24.4438 52.415C24.5062 52.415 24.5677 52.419 24.6279 52.4267C25.3341 52.5173 25.8805 53.1215 25.8805 53.853V85.748C25.8805 87.8393 27.3896 89.5775 29.3793 89.9326C29.6235 89.9763 29.875 89.999 30.1318 89.999C30.3788 89.999 30.621 89.978 30.8565 89.9375C32.8594 89.5937 34.3838 87.849 34.3838 85.748V27.77C34.3838 27.1626 34.8606 26.666 35.4604 26.6355C35.4797 26.6345 35.4992 26.634 35.5188 26.634C35.5796 26.634 35.6393 26.6388 35.6975 26.6479C36.2411 26.7336 36.6545 27.2037 36.6545 27.77V51.923C36.6545 53.736 38.1255 55.206 39.9375 55.206C41.7505 55.206 43.2215 53.736 43.2215 51.923L43.2218 27.433Z" fill="#BFBFBF"/>
</svg>
