<svg width="48" height="90" viewBox="0 0 48 90" fill="none" xmlns="http://www.w3.org/2000/svg">
<path d="M24.4443 15.6255C28.7593 15.6255 32.2573 12.1275 32.2573 7.81251C32.2573 3.49751 28.7593 -0.000488281 24.4443 -0.000488281C20.1293 -0.000488281 16.6313 3.49751 16.6313 7.81251C16.6313 12.1275 20.1293 15.6255 24.4443 15.6255Z" fill="#BFBFBF"/>
<path d="M33.4953 17.7065H15.3933C10.0203 17.7065 5.66626 22.0605 5.66626 27.4335C5.66626 29.0145 5.66626 51.9225 5.66626 51.9225C5.66626 53.7355 7.13726 55.2055 8.95026 55.2055C10.7623 55.2055 12.2333 53.7355 12.2333 51.9225V27.7695C12.2333 27.1425 12.7403 26.6335 13.3693 26.6335C13.9983 26.6335 14.5053 27.1425 14.5053 27.7695L14.5063 85.7475C14.5063 88.0955 16.4093 89.9985 18.7563 89.9985C21.1053 89.9985 23.0073 88.0955 23.0073 85.7475C23.0073 85.7475 23.0073 53.8685 23.0073 53.8525C23.0073 53.0585 23.6503 52.4145 24.4433 52.4145C25.2373 52.4145 25.8813 53.0585 25.8813 53.8525C25.8813 53.8685 25.8813 85.7475 25.8813 85.7475C25.8813 88.0955 27.7833 89.9985 30.1313 89.9985C32.4793 89.9985 34.3833 88.0955 34.3833 85.7475V27.7695C34.3833 27.1425 34.8913 26.6335 35.5183 26.6335C36.1473 26.6335 36.6573 27.1425 36.6573 27.7695V30.8505H43.2213C43.2213 29.0455 43.2213 27.7645 43.2213 27.4325C43.2213 22.0605 38.8683 17.7065 33.4953 17.7065Z" fill="#BFBFBF"/>
</svg>
