<svg width="38" height="90" viewBox="0 0 38 90" fill="none" xmlns="http://www.w3.org/2000/svg">
<path d="M28.0505 17.707H9.94851C4.57551 17.707 0.221504 22.061 0.221504 27.434C0.221504 29.015 0.221504 51.923 0.221504 51.923C0.221504 53.736 1.6925 55.206 3.5055 55.206C5.3175 55.206 6.78851 53.736 6.78851 51.923V27.77C6.78851 27.143 7.2955 26.634 7.9245 26.634C8.5535 26.634 9.0605 27.143 9.0605 27.77L9.0615 85.748C9.0615 88.096 10.9645 89.999 13.3115 89.999C15.6605 89.999 17.5625 88.096 17.5625 85.748C17.5625 85.748 17.5625 53.869 17.5625 53.853C17.5625 53.059 18.2055 52.415 18.9985 52.415C19.7925 52.415 20.4365 53.059 20.4365 53.853C20.4365 53.869 20.4365 85.748 20.4365 85.748C20.4365 88.096 22.3385 89.999 24.6865 89.999C27.0345 89.999 28.9385 88.096 28.9385 85.748V27.77C28.9385 27.143 29.4465 26.634 30.0735 26.634C30.7025 26.634 31.2125 27.143 31.2125 27.77V51.851H37.7765C37.7765 50.046 37.7765 27.765 37.7765 27.433C37.7765 22.061 33.4235 17.707 28.0505 17.707Z" fill="#BFBFBF"/>
<path d="M9.94719 17.709H28.0492C33.4222 17.709 37.7762 22.063 37.7762 27.436C37.7762 29.017 37.7762 51.925 37.7762 51.925C37.7762 53.738 36.3052 55.208 34.4922 55.208C32.6802 55.208 31.2092 53.738 31.2092 51.925V27.772C31.2092 27.145 30.7022 26.636 30.0732 26.636C29.4442 26.636 28.9372 27.145 28.9372 27.772L28.9362 85.75C28.9362 88.098 27.0332 90.001 24.6862 90.001C22.3372 90.001 20.4352 88.098 20.4352 85.75C20.4352 85.75 20.4352 53.871 20.4352 53.855C20.4352 53.061 19.7922 52.417 18.9992 52.417C18.2052 52.417 17.5612 53.061 17.5612 53.855C17.5612 53.871 17.5612 85.75 17.5612 85.75C17.5612 88.098 15.6592 90.001 13.3112 90.001C10.9632 90.001 9.05919 88.098 9.05919 85.75V27.772C9.05919 27.145 8.55119 26.636 7.92419 26.636C7.29519 26.636 6.78519 27.145 6.78519 27.772V51.853H0.221191C0.221191 50.048 0.221191 27.767 0.221191 27.435C0.221191 22.063 4.57419 17.709 9.94719 17.709Z" fill="#BFBFBF"/>
<path d="M25.5415 8.19655C25.2476 9.74792 24.7804 10.811 24.4207 11.2542C24.0611 11.6974 23.6213 11.6091 21.7397 11.6091C19.8602 11.6091 19.3407 8.28452 19.3407 8.28452H18.6597C18.6597 8.28452 18.1395 11.6091 16.2596 11.6091C14.378 11.6091 13.9389 11.6974 13.5786 11.2542C13.2189 10.811 12.7521 9.74792 12.4584 8.19655C12.3914 7.99546 11.9359 7.97994 11.4998 8.01431C11.657 12.4537 14.9539 16 19 16C23.0464 16 26.3427 12.4537 26.4998 8.01431C26.0637 7.97994 25.6083 7.99546 25.5415 8.19655Z" fill="#BFBFBF"/>
<path d="M18.3362 7H19.6641C21.1834 6.20173 24.8135 6.53968 26.4998 6.75289C26.0706 2.9524 22.8778 0 19.0003 0C15.1229 0 11.9294 2.95274 11.4998 6.75323C13.1862 6.53968 16.8163 6.20173 18.3362 7Z" fill="#BFBFBF"/>
</svg>
