<svg width="148" height="44" viewBox="0 0 148 44" fill="none" xmlns="http://www.w3.org/2000/svg">
<path d="M28.8567 9.01611C25.5738 9.01611 22.7367 10.7729 21.2372 13.0765C19.6972 10.4607 16.9411 9.01611 13.5368 9.01611C10.578 9.01611 8.26798 10.2263 6.93059 11.9834V9.25023H0V31.0369H6.93059V19.2066C6.93059 16.3563 8.63271 14.7947 11.2671 14.7947C13.9015 14.7947 15.6037 16.3563 15.6037 19.2066V31.0369H22.4937V19.2066C22.4937 16.3563 24.1958 14.7947 26.8302 14.7947C29.4646 14.7947 31.1668 16.3563 31.1668 19.2066V31.0369H38.0568V18.3085C38.0568 12.452 34.4497 9.01611 28.8567 9.01611Z" fill="white"/>
<path d="M58.4829 12.334C57.267 10.4209 54.8758 8.93726 51.5119 8.93726C45.9595 8.93726 41.5418 13.2322 41.5418 20.1039C41.5418 26.9756 45.9595 31.3485 51.4716 31.3485C54.8354 31.3485 57.2266 29.8649 58.4829 27.9517V31.0362H65.4135V9.24954H58.4829V12.334ZM53.5384 25.5311C50.9446 25.5311 48.5939 23.5788 48.5939 20.1039C48.5939 16.629 50.9446 14.7549 53.5384 14.7549C56.1728 14.7549 58.4829 16.668 58.4829 20.143C58.4829 23.6179 56.1728 25.5311 53.5384 25.5311Z" fill="white"/>
<path d="M84.2191 9.01611C81.1796 9.01611 78.7478 10.3045 77.3698 12.1395V9.25023H70.4392V31.0369H77.3698V19.2066C77.3698 16.2392 79.0719 14.5994 81.7064 14.5994C84.3408 14.5994 86.0429 16.2392 86.0429 19.2066V31.0369H92.9329V18.3085C92.9329 12.452 89.4473 9.01611 84.2191 9.01611Z" fill="white"/>
<path d="M135.651 8.93726C129.045 8.93726 123.898 13.2322 123.898 20.143C123.898 27.0538 128.923 31.3485 135.57 31.3485C142.217 31.3485 147.404 27.0538 147.404 20.143C147.404 13.2322 142.298 8.93726 135.651 8.93726ZM135.57 25.57C133.057 25.57 130.95 23.8132 130.95 20.143C130.95 16.4337 133.138 14.7158 135.651 14.7158C138.083 14.7158 140.353 16.4337 140.353 20.143C140.353 23.8132 138.042 25.57 135.57 25.57Z" fill="white"/>
<path d="M108.05 31.2321C114.697 31.2321 119.885 26.9373 119.885 20.0265C119.885 13.1157 114.778 8.8208 108.131 8.8208C101.525 8.8208 96.378 13.1157 96.378 20.0265C96.378 26.9373 101.404 31.2321 108.05 31.2321ZM108.131 14.5993C110.563 14.5993 112.833 16.3173 112.833 20.0265C112.833 23.6967 110.523 25.4535 108.05 25.4535C105.538 25.4535 103.43 23.6967 103.43 20.0265C103.43 16.3173 105.619 14.5993 108.131 14.5993Z" fill="#F5C05C"/>
<path d="M108.376 38.221C105.944 38.221 103.674 36.5031 103.674 32.7939H96.6224C96.6225 39.7047 101.729 43.9996 108.376 43.9996C114.982 43.9996 120.129 39.7047 120.129 32.7939H113.077C113.077 36.5031 110.888 38.221 108.376 38.221Z" fill="#F5C05C"/>
<path d="M122.032 0C120.815 4.64246 118.905 9.6095 112.94 8.6915C114.477 4.39701 117.474 1.38619 122.032 0Z" fill="#98C28F"/>
</svg>
