<svg width="148" height="44" viewBox="0 0 148 44" fill="none" xmlns="http://www.w3.org/2000/svg">
<path d="M28.8567 9.01611C25.5738 9.01611 22.7367 10.7729 21.2373 13.0765C19.6972 10.4607 16.9411 9.01611 13.5368 9.01611C10.5781 9.01611 8.26799 10.2263 6.9306 11.9834V9.25023H0V31.037H6.9306V19.2067C6.9306 16.3563 8.63272 14.7947 11.2671 14.7947C13.9016 14.7947 15.6037 16.3563 15.6037 19.2067V31.037H22.4937V19.2067C22.4937 16.3563 24.1958 14.7947 26.8303 14.7947C29.4647 14.7947 31.1668 16.3563 31.1668 19.2067V31.037H38.0568V18.3085C38.0568 12.452 34.4497 9.01611 28.8567 9.01611Z" fill="white"/>
<path d="M58.483 12.334C57.2671 10.4209 54.8759 8.93726 51.512 8.93726C45.9596 8.93726 41.5419 13.2322 41.5419 20.1039C41.5419 26.9757 45.9596 31.3486 51.4716 31.3486C54.8355 31.3486 57.2267 29.8649 58.483 27.9518V31.0363H65.4135V9.24954H58.483V12.334ZM53.5385 25.5311C50.9446 25.5311 48.594 23.5789 48.594 20.1039C48.594 16.629 50.9446 14.7549 53.5385 14.7549C56.1729 14.7549 58.483 16.6681 58.483 20.143C58.483 23.618 56.1729 25.5311 53.5385 25.5311Z" fill="white"/>
<path d="M84.2199 9.01611C81.1804 9.01611 78.7486 10.3045 77.3707 12.1395V9.25023H70.4401V31.037H77.3707V19.2067C77.3707 16.2392 79.0728 14.5994 81.7072 14.5994C84.3416 14.5994 86.0438 16.2392 86.0438 19.2067V31.037H92.9338V18.3085C92.9338 12.452 89.4482 9.01611 84.2199 9.01611Z" fill="white"/>
<path d="M135.65 8.93726C129.044 8.93726 123.897 13.2322 123.897 20.143C123.897 27.0538 128.922 31.3486 135.569 31.3486C142.216 31.3486 147.404 27.0538 147.404 20.143C147.404 13.2322 142.297 8.93726 135.65 8.93726ZM135.569 25.57C133.056 25.57 130.949 23.8132 130.949 20.143C130.949 16.4337 133.138 14.7158 135.65 14.7158C138.082 14.7158 140.352 16.4337 140.352 20.143C140.352 23.8132 138.041 25.57 135.569 25.57Z" fill="white"/>
<path d="M108.051 31.2321C114.698 31.2321 119.886 26.9374 119.886 20.0265C119.886 13.1157 114.779 8.8208 108.132 8.8208C101.526 8.8208 96.3789 13.1157 96.3789 20.0265C96.3789 26.9374 101.405 31.2321 108.051 31.2321ZM108.132 14.5994C110.564 14.5994 112.834 16.3173 112.834 20.0265C112.834 23.6967 110.523 25.4535 108.051 25.4535C105.538 25.4535 103.431 23.6967 103.431 20.0265C103.431 16.3173 105.62 14.5994 108.132 14.5994Z" fill="white"/>
<path d="M108.376 38.221C105.944 38.221 103.674 36.5031 103.674 32.7939H96.6224C96.6225 39.7047 101.729 43.9996 108.376 43.9996C114.982 43.9996 120.129 39.7047 120.129 32.7939H113.077C113.077 36.5031 110.889 38.221 108.376 38.221Z" fill="white"/>
<path d="M122.031 0C120.814 4.64247 118.905 9.60951 112.939 8.69151C114.477 4.39702 117.473 1.38619 122.031 0Z" fill="white"/>
</svg>
