<svg width="48" height="64" viewBox="0 0 48 64" fill="none" xmlns="http://www.w3.org/2000/svg">
<path d="M23.0698 41.0935C29.3735 41.0935 34.2934 36.8212 34.2934 29.9468C34.2934 23.0723 29.4504 18.8001 23.1467 18.8001C16.8431 18.8001 12 23.0723 12 29.9468C12 36.8212 16.7662 41.0935 23.0698 41.0935ZM23.1467 24.5482C25.4529 24.5482 27.6054 26.2571 27.6054 29.9468C27.6054 33.6364 25.4145 35.3453 23.0698 35.3453C20.7252 35.3453 18.688 33.5976 18.688 29.9468C18.688 26.2959 20.7636 24.5482 23.1467 24.5482Z" fill="#F5C05C"/>
<path d="M23.44 48.2521C21.0731 48.2521 18.864 46.5432 18.864 42.8535H12C12 49.728 16.9705 54.0002 23.44 54.0002C29.9096 54.0002 34.8801 49.728 34.8801 42.8535H28.0161C28.0161 46.5432 25.8858 48.2521 23.44 48.2521Z" fill="#F5C05C"/>
<path d="M36.6397 10C35.4629 14.6415 33.6135 19.607 27.8396 18.6896C29.3282 14.3955 32.2289 11.3858 36.6397 10Z" fill="#98C28F"/>
</svg>
