<svg width="48" height="110" viewBox="0 0 48 110" fill="none" xmlns="http://www.w3.org/2000/svg">
<path d="M0.000976562 2.92642C0.000976563 1.31034 1.31614 0.000244141 2.93848 0.000244141H44.0635C45.6858 0.000244141 47.001 1.31034 47.001 2.92642V106.074C47.001 107.69 45.6858 109 44.0635 109H2.93848C1.31614 109 0.000976562 107.69 0.000976562 106.074V2.92642Z" fill="white"/>
<path fill-rule="evenodd" clip-rule="evenodd" d="M44.0635 0.731788H2.93848C1.72172 0.731788 0.735352 1.71436 0.735352 2.92642V106.074C0.735352 107.286 1.72172 108.269 2.93848 108.269H44.0635C45.2802 108.269 46.2666 107.286 46.2666 106.074V2.92642C46.2666 1.71436 45.2802 0.731788 44.0635 0.731788ZM2.93848 0.000244141C1.31614 0.000244141 0.000976563 1.31034 0.000976562 2.92642V106.074C0.000976562 107.69 1.31614 109 2.93848 109H44.0635C45.6858 109 47.001 107.69 47.001 106.074V2.92642C47.001 1.31034 45.6858 0.000244141 44.0635 0.000244141H2.93848Z" fill="#1A1A1A"/>
<path fill-rule="evenodd" clip-rule="evenodd" d="M23.501 16.8257C25.5289 16.8257 27.1729 15.1881 27.1729 13.168C27.1729 11.1479 25.5289 9.51031 23.501 9.51031C21.4731 9.51031 19.8291 11.1479 19.8291 13.168C19.8291 15.1881 21.4731 16.8257 23.501 16.8257ZM23.501 17.5573C25.9345 17.5573 27.9072 15.5922 27.9072 13.168C27.9072 10.7439 25.9345 8.77877 23.501 8.77877C21.0675 8.77877 19.0947 10.7439 19.0947 13.168C19.0947 15.5922 21.0675 17.5573 23.501 17.5573Z" fill="#1A1A1A"/>
<path d="M0.735352 26.3358H46.2666V46.819H0.735352V26.3358Z" fill="#FFF1CC"/>
<path d="M0.735352 46.819H46.2666V67.3023H0.735352V46.819Z" fill="#FFE499"/>
<path d="M0.735352 67.3023H46.2666V87.7855H0.735352V67.3023Z" fill="#FFD666"/>
<path d="M0.735352 87.7855H46.2666V106.074C46.2666 107.286 45.2802 108.269 44.0635 108.269H2.93848C1.72172 108.269 0.735352 107.286 0.735352 106.074V87.7855Z" fill="#FFBC01"/>
</svg>
