<svg width="48" height="110" viewBox="0 0 48 110" fill="none" xmlns="http://www.w3.org/2000/svg">
<path d="M0.906251 3.67742C0.906251 2.05768 2.21931 0.744629 3.83904 0.744629L44.8981 0.744629C46.5178 0.744629 47.8309 2.05768 47.8309 3.67742L47.8309 107.058C47.8309 108.678 46.5178 109.991 44.8981 109.991H3.83904C2.2193 109.991 0.90625 108.678 0.90625 107.058L0.906251 3.67742Z" fill="white"/>
<path fill-rule="evenodd" clip-rule="evenodd" d="M44.8981 1.47783L3.83904 1.47783C2.62424 1.47783 1.63945 2.46262 1.63945 3.67742L1.63945 107.058C1.63945 108.273 2.62424 109.258 3.83904 109.258H44.8981C46.1129 109.258 47.0977 108.273 47.0977 107.058V3.67742C47.0977 2.46262 46.1129 1.47783 44.8981 1.47783ZM3.83904 0.744629C2.21931 0.744629 0.906251 2.05768 0.906251 3.67742L0.90625 107.058C0.90625 108.678 2.2193 109.991 3.83904 109.991H44.8981C46.5178 109.991 47.8309 108.678 47.8309 107.058L47.8309 3.67742C47.8309 2.05768 46.5178 0.744629 44.8981 0.744629L3.83904 0.744629Z" fill="#1A1A1A"/>
<path fill-rule="evenodd" clip-rule="evenodd" d="M24.3686 17.6082C26.3932 17.6082 28.0346 15.9669 28.0346 13.9422C28.0346 11.9175 26.3932 10.2762 24.3686 10.2762C22.3439 10.2762 20.7026 11.9175 20.7026 13.9422C20.7026 15.9669 22.3439 17.6082 24.3686 17.6082ZM24.3686 18.3414C26.7982 18.3414 28.7678 16.3718 28.7678 13.9422C28.7678 11.5126 26.7982 9.543 24.3686 9.543C21.939 9.543 19.9694 11.5126 19.9694 13.9422C19.9694 16.3718 21.939 18.3414 24.3686 18.3414Z" fill="#1A1A1A"/>
<path d="M1.63945 27.1397H47.0977V47.6693H1.63945V27.1397Z" fill="#FCE9F3"/>
<path d="M1.63945 47.6693H47.0977V68.1988H1.63945V47.6693Z" fill="#F9D2E7"/>
<path d="M1.63945 68.1988H47.0977L47.0977 88.7283H1.63945L1.63945 68.1988Z" fill="#F3A5CF"/>
<path d="M1.63945 88.7283H47.0977L47.0977 107.058C47.0977 108.273 46.1129 109.258 44.8981 109.258H3.83904C2.62424 109.258 1.63945 108.273 1.63945 107.058L1.63945 88.7283Z" fill="#EF87BF"/>
</svg>
