<svg width="12" height="12" viewBox="0 0 12 12" fill="none" xmlns="http://www.w3.org/2000/svg">
<path d="M11.7354 6.34209C8.25595 7.2144 7.21782 8.25774 6.3451 11.7356C6.32538 11.8113 6.28107 11.8783 6.21914 11.9262C6.1572 11.974 6.08113 12 6.00285 12C5.92457 12 5.8485 11.974 5.78656 11.9262C5.72463 11.8783 5.68033 11.8113 5.6606 11.7356C4.78788 8.25774 3.74404 7.2144 0.26455 6.34209C0.188793 6.32237 0.121718 6.27809 0.0738425 6.21619C0.025967 6.15428 0 6.07825 0 6C0 5.92176 0.025967 5.84572 0.0738425 5.78382C0.121718 5.72191 0.188793 5.67763 0.26455 5.65792C3.74404 4.78561 4.78788 3.74226 5.6606 0.264429C5.68033 0.188708 5.72463 0.121669 5.78656 0.0738161C5.8485 0.0259634 5.92457 0 6.00285 0C6.08113 0 6.1572 0.0259634 6.21914 0.0738161C6.28107 0.121669 6.32538 0.188708 6.3451 0.264429C7.21782 3.74226 8.25595 4.78561 11.7354 5.65792C11.8112 5.67763 11.8783 5.72191 11.9262 5.78382C11.974 5.84572 12 5.92176 12 6C12 6.07825 11.974 6.15428 11.9262 6.21619C11.8783 6.27809 11.8112 6.32237 11.7354 6.34209Z" fill="#F26722"/>
<path fill-rule="evenodd" clip-rule="evenodd" d="M11.7354 5.65792C8.25595 4.78561 7.21782 3.74226 6.3451 0.264429C6.32538 0.188708 6.28107 0.121669 6.21914 0.0738161C6.1572 0.0259634 6.08113 0 6.00285 0C5.92457 0 5.8485 0.0259634 5.78656 0.0738161C5.72463 0.121669 5.68033 0.188708 5.6606 0.264429C4.78788 3.74226 3.74404 4.78561 0.26455 5.65792C0.188793 5.67763 0.121718 5.72191 0.0738425 5.78382C0.025967 5.84572 0 5.92176 0 6C0 6.07825 0.025967 6.15428 0.0738425 6.21619C0.121718 6.27809 0.188793 6.32237 0.26455 6.34209C3.74404 7.2144 4.78788 8.25774 5.6606 11.7356C5.68033 11.8113 5.72463 11.8783 5.78656 11.9262C5.8485 11.974 5.92457 12 6.00285 12C6.08113 12 6.1572 11.974 6.21914 11.9262C6.28107 11.8783 6.32538 11.8113 6.3451 11.7356C7.21782 8.25774 8.25595 7.2144 11.7354 6.34209C11.8112 6.32237 11.8783 6.27809 11.9262 6.21619C11.974 6.15428 12 6.07825 12 6C12 5.92176 11.974 5.84572 11.9262 5.78382C11.8783 5.72191 11.8112 5.67763 11.7354 5.65792ZM10.7099 6C9.39383 6.39359 8.40013 6.87484 7.63819 7.63777C6.87629 8.40067 6.39611 9.39521 6.00279 10.7111C5.60898 9.39484 5.12751 8.40027 4.36428 7.6374C3.60124 6.87472 2.60654 6.39355 1.29018 6C2.60654 5.60645 3.60124 5.12528 4.36428 4.36261C5.12751 3.59974 5.60898 2.60517 6.00279 1.28894C6.39611 2.6048 6.87629 3.59934 7.63819 4.36223C8.40013 5.12516 9.39383 5.60642 10.7099 6Z" fill="#1A1A1A"/>
</svg>
