<svg width="12" height="12" viewBox="0 0 12 12" fill="none" xmlns="http://www.w3.org/2000/svg">
<path d="M6.25947 12C6.15395 12 6.06349 11.9172 6.05973 11.808C6.05596 11.6989 6.14264 11.6048 6.25192 11.601C6.76821 11.5785 7.27696 11.4881 7.76687 11.33C7.87238 11.2962 7.98543 11.3526 8.01935 11.458C8.05327 11.5634 7.99673 11.6763 7.89121 11.7102C7.36739 11.8796 6.82096 11.9774 6.26699 12C6.26699 12 6.26324 12 6.25947 12ZM4.67292 11.8457C4.67292 11.8457 4.64278 11.8457 4.6277 11.8419C4.08881 11.714 3.57252 11.5145 3.09015 11.2435C2.99217 11.1908 2.95827 11.0666 3.0148 10.9725C3.06756 10.8746 3.19191 10.8407 3.28612 10.8972C3.73834 11.1494 4.2207 11.3376 4.72191 11.4542C4.82743 11.4806 4.89527 11.586 4.86889 11.6951C4.84628 11.7855 4.76337 11.8495 4.67292 11.8495V11.8457ZM9.26295 11.0214C9.19888 11.0214 9.13482 10.9913 9.09713 10.9348C9.03684 10.8445 9.05945 10.7203 9.1499 10.6563C9.57574 10.3703 9.96389 10.024 10.2993 9.63257C10.3709 9.54977 10.4952 9.53847 10.5819 9.60999C10.6648 9.6815 10.6761 9.8057 10.6045 9.89227C10.2465 10.3138 9.83201 10.6789 9.37225 10.9875C9.33833 11.0101 9.30063 11.0214 9.25918 11.0214H9.26295ZM1.91438 10.3101C1.86162 10.3101 1.81263 10.2912 1.77495 10.2536C1.38302 9.86216 1.04764 9.42179 0.776309 8.94379C0.72355 8.84593 0.757449 8.72549 0.851661 8.6728C0.945873 8.6201 1.07025 8.65398 1.123 8.74807C1.37549 9.19597 1.68827 9.60622 2.05381 9.97131C2.13295 10.0503 2.13295 10.1746 2.05381 10.2536C2.01613 10.2912 1.96337 10.3138 1.91061 10.3138L1.91438 10.3101ZM11.3092 8.6201C11.2829 8.6201 11.2527 8.61258 11.2263 8.60128C11.1246 8.55612 11.0831 8.43568 11.1284 8.33782C11.3432 7.87111 11.4939 7.37428 11.573 6.86617C11.5919 6.75702 11.6936 6.68551 11.8029 6.70056C11.9122 6.71938 11.9876 6.821 11.9687 6.93015C11.8821 7.47591 11.7238 8.0066 11.4939 8.50719C11.46 8.5787 11.3884 8.62387 11.313 8.62387L11.3092 8.6201ZM0.365533 7.56248C0.275089 7.56248 0.192175 7.50225 0.169564 7.40816C0.0565091 6.94897 0 6.47097 0 5.99297C0 5.43969 0.075357 4.89017 0.222328 4.36324C0.252476 4.25785 0.361772 4.19387 0.46729 4.22398C0.572808 4.25409 0.63687 4.36324 0.606722 4.46863C0.467288 4.96169 0.395688 5.47356 0.395688 5.99297C0.395688 6.44086 0.44844 6.88499 0.553958 7.31406C0.580337 7.41945 0.512499 7.5286 0.406981 7.55495C0.391907 7.55871 0.376835 7.55871 0.361761 7.55871L0.365533 7.56248ZM11.7992 5.50367C11.6974 5.50367 11.6145 5.4284 11.5994 5.32677C11.5391 4.8149 11.4072 4.31431 11.2113 3.84007C11.1698 3.73845 11.2188 3.62177 11.3206 3.58037C11.4223 3.53897 11.5391 3.58789 11.5806 3.68952C11.7916 4.19763 11.931 4.73586 11.9989 5.28161C12.0102 5.39076 11.9348 5.48862 11.8255 5.50367C11.818 5.50367 11.8104 5.50367 11.8029 5.50367H11.7992ZM1.05895 3.15882C1.02503 3.15882 0.987334 3.14753 0.953418 3.12871C0.859205 3.07226 0.829064 2.94805 0.88936 2.85395C1.17953 2.38348 1.52999 1.95817 1.93699 1.58179C2.01613 1.50651 2.14426 1.51028 2.21963 1.59308C2.295 1.67212 2.29124 1.80009 2.20833 1.87537C1.82772 2.2254 1.49985 2.62436 1.23228 3.06473C1.1946 3.12495 1.13053 3.15882 1.0627 3.15882H1.05895ZM10.5895 2.59049C10.5292 2.59049 10.4726 2.56414 10.4312 2.51521C10.1109 2.11248 9.73779 1.75116 9.31948 1.45005C9.22904 1.38607 9.2102 1.26187 9.27427 1.17154C9.33833 1.0812 9.46269 1.06238 9.55313 1.12637C9.99781 1.45005 10.401 1.83396 10.744 2.2668C10.8118 2.35337 10.7967 2.47757 10.7101 2.54908C10.6724 2.57919 10.6309 2.59049 10.5857 2.59049H10.5895ZM3.37656 1.01345C3.30496 1.01345 3.23337 0.972052 3.19945 0.904303C3.15046 0.806444 3.18814 0.686 3.28612 0.63707C3.77979 0.384895 4.30361 0.204238 4.84251 0.0950873C4.9518 0.0725044 5.05731 0.144016 5.07615 0.253166C5.09877 0.362317 5.02717 0.467701 4.91788 0.48652C4.4129 0.588143 3.92298 0.757513 3.46323 0.990869C3.43308 1.00592 3.40293 1.01345 3.37279 1.01345H3.37656ZM8.03067 0.738695C8.00805 0.738695 7.98542 0.734931 7.96281 0.727404C7.48045 0.550505 6.97547 0.441356 6.45919 0.399955C6.3499 0.392427 6.267 0.294565 6.27453 0.185415C6.28207 0.0762646 6.38005 -0.0102993 6.48934 0.000992137C7.03954 0.042394 7.58221 0.162833 8.0985 0.351023C8.20024 0.388661 8.25677 0.505342 8.21532 0.606965C8.18517 0.686005 8.1098 0.738695 8.02689 0.738695H8.03067Z" fill="#1A1A1A"/>
</svg>
