<svg width="64" height="64" viewBox="0 0 64 64" fill="none" xmlns="http://www.w3.org/2000/svg">
<g clip-path="url(#clip0_3446_79240)">
<path d="M0 4C0 1.79086 1.79086 0 4 0H60C62.2091 0 64 1.79086 64 4V60C64 62.2091 62.2091 64 60 64H4C1.79086 64 0 62.2091 0 60V4Z" fill="#F5F6F7"/>
<path d="M39.333 18.668H12.3168C10.8441 18.668 9.65016 19.8619 9.65016 21.3346C9.65016 21.7486 9.74655 22.1569 9.93169 22.5272L13.7909 30.2457C15.1461 32.956 17.9162 34.668 20.9463 34.668H39.333" fill="#62C2AF"/>
<path d="M34.6667 34.6667H20.9475C17.918 34.6667 15.1484 32.9554 13.793 30.2461L9.93083 22.5265C9.27188 21.2094 9.80543 19.6074 11.1225 18.9485C11.493 18.7632 11.9015 18.6667 12.3157 18.6667H37.3333H10.6667C9.19391 18.6667 8 19.8606 8 21.3333V50.6667C8 52.1394 9.19391 53.3333 10.6667 53.3333H37.3333M24 18.6667V16C24 13.0545 26.3878 10.6667 29.3333 10.6667H34.6667C35.6381 10.6667 36.5489 10.9264 37.3333 11.3802M45.3333 45.3333H56V56H45.3333V45.3333ZM45.3333 26.6667H56V37.3333H45.3333V26.6667ZM45.3333 8H56V18.6667H45.3333V8ZM26.6667 34.6667H37.3333V42.6667H26.6667V34.6667Z" stroke="#293141" stroke-width="1.5" stroke-linecap="round" stroke-linejoin="round"/>
</g>
<mask id="path-4-inside-1_3446_79240" fill="white">
<path d="M6 0H58V64H6V0Z"/>
</mask>
<path d="M6 0H58V64H6V0Z" fill="#62C2AF" fill-opacity="0.2"/>
<path d="M58 0H57V64H58H59V0H58ZM6 64H7V0H6H5V64H6Z" fill="#62C2AF" mask="url(#path-4-inside-1_3446_79240)"/>
<mask id="path-6-inside-2_3446_79240" fill="white">
<path d="M0 56L-2.09815e-06 8L64 8L64 56L0 56Z"/>
</mask>
<path d="M0 56L-2.09815e-06 8L64 8L64 56L0 56Z" fill="#62C2AF" fill-opacity="0.2"/>
<path d="M-2.09815e-06 8L-2.05444e-06 9L64 9L64 8L64 7L-2.14186e-06 7L-2.09815e-06 8ZM64 56L64 55L-4.37114e-08 55L0 56L4.37114e-08 57L64 57L64 56Z" fill="#62C2AF" mask="url(#path-6-inside-2_3446_79240)"/>
<defs>
<clipPath id="clip0_3446_79240">
<rect width="64" height="64" fill="white"/>
</clipPath>
</defs>
</svg>
