<svg width="64" height="64" viewBox="0 0 64 64" fill="none" xmlns="http://www.w3.org/2000/svg">
<path d="M60 0H4C1.79086 0 0 1.79086 0 4V60C0 62.2091 1.79086 64 4 64H60C62.2091 64 64 62.2091 64 60V4C64 1.79086 62.2091 0 60 0Z" fill="#F5F6F7"/>
<path fill-rule="evenodd" clip-rule="evenodd" d="M25.0283 54.9717C15.1735 51.9848 8 42.8301 8 32C8 18.7452 18.7452 8 32 8C42.8301 8 51.9848 15.1735 54.9717 25.0283C52.7654 24.3596 50.4247 24 48 24C34.7452 24 24 34.7452 24 48C24 50.4247 24.3596 52.7654 25.0283 54.9717Z" fill="#62C2AF"/>
<path d="M54.9717 25.0283C55.6404 27.2346 56 29.5753 56 32C56 45.2548 45.2548 56 32 56C29.5753 56 27.2346 55.6404 25.0283 54.9717M54.9717 25.0283C51.9848 15.1735 42.8301 8 32 8C18.7452 8 8 18.7452 8 32C8 42.8301 15.1735 51.9848 25.0283 54.9717M54.9717 25.0283C52.7654 24.3596 50.4247 24 48 24C34.7452 24 24 34.7452 24 48C24 50.4247 24.3596 52.7654 25.0283 54.9717M54.9717 25.0283L25.0283 54.9717" stroke="#293141" stroke-width="1.5"/>
<mask id="path-4-inside-1_3446_79220" fill="white">
<path d="M6 0H58V64H6V0Z"/>
</mask>
<path d="M6 0H58V64H6V0Z" fill="#62C2AF" fill-opacity="0.2"/>
<path d="M58 0H57V64H58H59V0H58ZM6 64H7V0H6H5V64H6Z" fill="#62C2AF" mask="url(#path-4-inside-1_3446_79220)"/>
<mask id="path-6-inside-2_3446_79220" fill="white">
<path d="M0 56L-2.09815e-06 8L64 8L64 56L0 56Z"/>
</mask>
<path d="M0 56L-2.09815e-06 8L64 8L64 56L0 56Z" fill="#62C2AF" fill-opacity="0.2"/>
<path d="M-2.09815e-06 8L-2.05444e-06 9L64 9L64 8L64 7L-2.14186e-06 7L-2.09815e-06 8ZM64 56L64 55L-4.37114e-08 55L0 56L4.37114e-08 57L64 57L64 56Z" fill="#62C2AF" mask="url(#path-6-inside-2_3446_79220)"/>
</svg>
