<svg width="64" height="64" viewBox="0 0 64 64" fill="none" xmlns="http://www.w3.org/2000/svg">
<g clip-path="url(#clip0_3446_79210)">
<path d="M60 0H4C1.79086 0 0 1.79086 0 4V60C0 62.2091 1.79086 64 4 64H60C62.2091 64 64 62.2091 64 60V4C64 1.79086 62.2091 0 60 0Z" fill="#F5F6F7"/>
<circle cx="29.3333" cy="34.6654" r="21.3333" fill="#62C2AF"/>
<path d="M50.3223 38.4745C53.8198 35.2556 56 30.7087 56 25.6691C56 15.9107 47.8257 8 37.7421 8C32.6964 8 28.1288 9.98077 24.8241 13.1826C24.5399 13.458 24.265 13.7424 24 14.0354M13.3333 37.3333H29.3333M16 32H32M37.3333 25.3277C35.6463 23.6633 33.4991 22.6667 31.1613 22.6667C25.7335 22.6667 21.3333 28.0393 21.3333 34.6667C21.3333 41.2941 25.7335 46.6667 31.1613 46.6667C33.4953 46.6667 35.6394 45.6732 37.3252 44.0137M50.6667 34.6667C50.6667 46.4487 41.1154 56 29.3333 56C17.5513 56 8 46.4487 8 34.6667C8 22.8846 17.5513 13.3333 29.3333 13.3333C41.1154 13.3333 50.6667 22.8846 50.6667 34.6667Z" stroke="#293141" stroke-width="1.5" stroke-linejoin="round"/>
</g>
<mask id="path-4-inside-1_3446_79210" fill="white">
<path d="M6 0H58V64H6V0Z"/>
</mask>
<path d="M6 0H58V64H6V0Z" fill="#62C2AF" fill-opacity="0.2"/>
<path d="M58 0H57V64H58H59V0H58ZM6 64H7V0H6H5V64H6Z" fill="#62C2AF" mask="url(#path-4-inside-1_3446_79210)"/>
<mask id="path-6-inside-2_3446_79210" fill="white">
<path d="M0 56L-2.09815e-06 8L64 8L64 56L0 56Z"/>
</mask>
<path d="M0 56L-2.09815e-06 8L64 8L64 56L0 56Z" fill="#62C2AF" fill-opacity="0.2"/>
<path d="M-2.09815e-06 8L-2.05444e-06 9L64 9L64 8L64 7L-2.14186e-06 7L-2.09815e-06 8ZM64 56L64 55L-4.37114e-08 55L0 56L4.37114e-08 57L64 57L64 56Z" fill="#62C2AF" mask="url(#path-6-inside-2_3446_79210)"/>
<defs>
<clipPath id="clip0_3446_79210">
<rect width="64" height="64" fill="white"/>
</clipPath>
</defs>
</svg>
