<svg width="115" height="106" viewBox="0 0 115 106" fill="none" xmlns="http://www.w3.org/2000/svg">
<g clip-path="url(#clip0_3446_79310)">
<path d="M110.816 0H54.8164C52.6073 0 50.8164 1.79086 50.8164 4V60C50.8164 62.2091 52.6073 64 54.8164 64H110.816C113.026 64 114.816 62.2091 114.816 60V4C114.816 1.79086 113.026 0 110.816 0Z" fill="#F5F6F7"/>
<path fill-rule="evenodd" clip-rule="evenodd" d="M58.8164 16H106.816L82.8164 37.3333L58.8164 16Z" fill="#62C2AF"/>
<path d="M58.8164 16H106.816M58.8164 16V48M58.8164 16L82.8164 37.3333L106.816 16M106.816 16V48M106.816 48H58.8164M106.816 48L88.8759 32.0529M58.8164 48L76.7934 32.0204" stroke="#293141" stroke-width="1.5" stroke-linejoin="round"/>
</g>
<mask id="path-4-inside-1_3446_79310" fill="white">
<path d="M56.8164 0H108.816V64H56.8164V0Z"/>
</mask>
<path d="M56.8164 0H108.816V64H56.8164V0Z" fill="#62C2AF" fill-opacity="0.2"/>
<path d="M108.816 0H107.816V64H108.816H109.816V0H108.816ZM56.8164 64H57.8164V0H56.8164H55.8164V64H56.8164Z" fill="#62C2AF" mask="url(#path-4-inside-1_3446_79310)"/>
<mask id="path-6-inside-2_3446_79310" fill="white">
<path d="M50.8164 56L50.8164 8L114.816 8L114.816 56L50.8164 56Z"/>
</mask>
<path d="M50.8164 56L50.8164 8L114.816 8L114.816 56L50.8164 56Z" fill="#62C2AF" fill-opacity="0.2"/>
<path d="M50.8164 8L50.8164 9L114.816 9L114.816 8L114.816 7L50.8164 7L50.8164 8ZM114.816 56L114.816 55L50.8164 55L50.8164 56L50.8164 57L114.816 57L114.816 56Z" fill="#62C2AF" mask="url(#path-6-inside-2_3446_79310)"/>
<line x1="51.3164" y1="72" x2="51.3164" y2="81" stroke="#BFBFBF"/>
<line x1="113.816" y1="76.5" x2="51.8164" y2="76.5" stroke="#BFBFBF"/>
<line x1="114.316" y1="72" x2="114.316" y2="81" stroke="#BFBFBF"/>
<path d="M114.444 102.998H113.076C112.959 102.998 112.865 102.969 112.796 102.91C112.732 102.846 112.679 102.777 112.636 102.702L110.596 99.5263C110.575 99.6009 110.551 99.6756 110.524 99.7503C110.503 99.8196 110.471 99.8836 110.428 99.9423L108.54 102.702C108.487 102.777 108.428 102.846 108.364 102.91C108.305 102.969 108.223 102.998 108.116 102.998H106.844L109.684 98.8383L106.956 94.8943H108.324C108.441 94.8943 108.527 94.9129 108.58 94.9503C108.633 94.9876 108.681 95.0409 108.724 95.1103L110.716 98.1503C110.759 97.9956 110.825 97.8463 110.916 97.7023L112.66 95.1423C112.708 95.0676 112.759 95.0089 112.812 94.9663C112.871 94.9183 112.94 94.8943 113.02 94.8943H114.332L111.604 98.7663L114.444 102.998Z" fill="#1A1A1A"/>
<path d="M100.564 101.046C100.825 101.398 101.111 101.646 101.42 101.79C101.729 101.934 102.076 102.006 102.46 102.006C103.217 102.006 103.799 101.737 104.204 101.198C104.609 100.66 104.812 99.8916 104.812 98.8942C104.812 98.3662 104.764 97.9129 104.668 97.5342C104.577 97.1556 104.444 96.8462 104.268 96.6062C104.092 96.3609 103.876 96.1822 103.62 96.0702C103.364 95.9582 103.073 95.9022 102.748 95.9022C102.284 95.9022 101.876 96.0089 101.524 96.2222C101.177 96.4356 100.857 96.7369 100.564 97.1263V101.046ZM100.492 96.1502C100.833 95.7289 101.228 95.3902 101.676 95.1342C102.124 94.8782 102.636 94.7502 103.212 94.7502C103.681 94.7502 104.105 94.8409 104.484 95.0223C104.863 95.1983 105.185 95.4623 105.452 95.8142C105.719 96.1609 105.924 96.5929 106.068 97.1102C106.212 97.6276 106.284 98.2222 106.284 98.8942C106.284 99.4916 106.204 100.049 106.044 100.566C105.884 101.078 105.652 101.524 105.348 101.902C105.049 102.276 104.681 102.572 104.244 102.79C103.812 103.004 103.324 103.11 102.78 103.11C102.284 103.11 101.857 103.028 101.5 102.862C101.148 102.692 100.836 102.457 100.564 102.158V105.742H99.1319V94.8942H99.9879C100.191 94.8942 100.316 94.9929 100.364 95.1902L100.492 96.1502Z" fill="#1A1A1A"/>
<path d="M90.4689 98.8623V94.1343C90.4689 93.9956 90.4742 93.8436 90.4849 93.6783C90.4955 93.5129 90.5115 93.3449 90.5329 93.1743L86.3569 98.8623H90.4689ZM93.4529 98.8623V99.6783C93.4529 99.7636 93.4262 99.8356 93.3729 99.8943C93.3249 99.9529 93.2475 99.9823 93.1409 99.9823H91.7169V102.998H90.4689V99.9823H85.3809C85.2742 99.9823 85.1809 99.9529 85.1009 99.8943C85.0262 99.8303 84.9782 99.7529 84.9569 99.6623L84.8129 98.9343L90.3889 91.5343H91.7169V98.8623H93.4529Z" fill="#1A1A1A"/>
<path d="M83.2436 101.646C83.3983 101.646 83.5209 101.692 83.6116 101.782C83.7023 101.873 83.7476 101.99 83.7476 102.134V102.998H76.0996V102.51C76.0996 102.409 76.1209 102.305 76.1636 102.198C76.2063 102.092 76.2729 101.993 76.3636 101.902L80.0356 98.2143C80.3396 97.9049 80.6169 97.6089 80.8676 97.3263C81.1183 97.0383 81.3316 96.7503 81.5076 96.4623C81.6836 96.1743 81.8196 95.8836 81.9156 95.5903C82.0116 95.2916 82.0596 94.9743 82.0596 94.6383C82.0596 94.3023 82.0063 94.0089 81.8996 93.7583C81.7929 93.5023 81.6463 93.2916 81.4596 93.1263C81.2783 92.9609 81.0623 92.8383 80.8116 92.7583C80.5609 92.6729 80.2916 92.6303 80.0036 92.6303C79.7103 92.6303 79.4409 92.6729 79.1956 92.7583C78.9503 92.8436 78.7316 92.9636 78.5396 93.1183C78.3529 93.2676 78.1956 93.4463 78.0676 93.6543C77.9396 93.8623 77.8489 94.0916 77.7956 94.3423C77.7316 94.5289 77.6436 94.6543 77.5316 94.7183C77.4249 94.7769 77.2729 94.7929 77.0756 94.7663L76.3316 94.6383C76.4063 94.1156 76.5503 93.6543 76.7636 93.2543C76.9823 92.8489 77.2543 92.5103 77.5796 92.2383C77.9103 91.9663 78.2863 91.7609 78.7076 91.6223C79.1289 91.4783 79.5849 91.4062 80.0756 91.4062C80.5609 91.4062 81.0143 91.4783 81.4356 91.6223C81.8569 91.7663 82.2223 91.9769 82.5316 92.2543C82.8409 92.5263 83.0836 92.8596 83.2596 93.2543C83.4356 93.6489 83.5236 94.0969 83.5236 94.5983C83.5236 95.0249 83.4596 95.4223 83.3316 95.7903C83.2036 96.1529 83.0303 96.4996 82.8116 96.8303C82.5929 97.1609 82.3396 97.4836 82.0516 97.7983C81.7689 98.1129 81.4676 98.4303 81.1476 98.7503L78.1236 101.838C78.3369 101.78 78.5529 101.734 78.7716 101.702C78.9903 101.665 79.2009 101.646 79.4036 101.646H83.2436Z" fill="#1A1A1A"/>
<path d="M75.1629 102.998H73.7949C73.6775 102.998 73.5842 102.969 73.5149 102.91C73.4509 102.846 73.3975 102.777 73.3549 102.702L71.3149 99.5263C71.2935 99.6009 71.2695 99.6756 71.2429 99.7503C71.2215 99.8196 71.1895 99.8836 71.1469 99.9423L69.2589 102.702C69.2055 102.777 69.1469 102.846 69.0829 102.91C69.0242 102.969 68.9415 102.998 68.8349 102.998H67.5629L70.4029 98.8383L67.6749 94.8943H69.0429C69.1602 94.8943 69.2455 94.9129 69.2989 94.9503C69.3522 94.9876 69.4002 95.0409 69.4429 95.1103L71.4349 98.1503C71.4775 97.9956 71.5442 97.8463 71.6349 97.7023L73.3789 95.1423C73.4269 95.0676 73.4775 95.0089 73.5309 94.9663C73.5895 94.9183 73.6589 94.8943 73.7389 94.8943H75.0509L72.3229 98.7663L75.1629 102.998Z" fill="#1A1A1A"/>
<path d="M63.9376 98.8623V94.1343C63.9376 93.9956 63.9429 93.8436 63.9536 93.6783C63.9643 93.5129 63.9803 93.3449 64.0016 93.1743L59.8256 98.8623H63.9376ZM66.9216 98.8623V99.6783C66.9216 99.7636 66.8949 99.8356 66.8416 99.8943C66.7936 99.9529 66.7163 99.9823 66.6096 99.9823H65.1856V102.998H63.9376V99.9823H58.8496C58.7429 99.9823 58.6496 99.9529 58.5696 99.8943C58.4949 99.8303 58.4469 99.7529 58.4256 99.6623L58.2816 98.9343L63.8576 91.5343H65.1856V98.8623H66.9216Z" fill="#1A1A1A"/>
<path d="M56.7124 101.646C56.867 101.646 56.9897 101.692 57.0804 101.782C57.171 101.873 57.2164 101.99 57.2164 102.134V102.998H49.5684V102.51C49.5684 102.409 49.5897 102.305 49.6324 102.198C49.675 102.092 49.7417 101.993 49.8324 101.902L53.5044 98.2143C53.8084 97.9049 54.0857 97.6089 54.3364 97.3263C54.587 97.0383 54.8004 96.7503 54.9764 96.4623C55.1524 96.1743 55.2884 95.8836 55.3844 95.5903C55.4804 95.2916 55.5284 94.9743 55.5284 94.6383C55.5284 94.3023 55.475 94.0089 55.3684 93.7583C55.2617 93.5023 55.115 93.2916 54.9284 93.1263C54.747 92.9609 54.531 92.8383 54.2804 92.7583C54.0297 92.6729 53.7604 92.6303 53.4724 92.6303C53.179 92.6303 52.9097 92.6729 52.6644 92.7583C52.419 92.8436 52.2004 92.9636 52.0084 93.1183C51.8217 93.2676 51.6644 93.4463 51.5364 93.6543C51.4084 93.8623 51.3177 94.0916 51.2644 94.3423C51.2004 94.5289 51.1124 94.6543 51.0004 94.7183C50.8937 94.7769 50.7417 94.7929 50.5444 94.7663L49.8004 94.6383C49.875 94.1156 50.019 93.6543 50.2324 93.2543C50.451 92.8489 50.723 92.5103 51.0484 92.2383C51.379 91.9663 51.755 91.7609 52.1764 91.6223C52.5977 91.4783 53.0537 91.4062 53.5444 91.4062C54.0297 91.4062 54.483 91.4783 54.9044 91.6223C55.3257 91.7663 55.691 91.9769 56.0004 92.2543C56.3097 92.5263 56.5524 92.8596 56.7284 93.2543C56.9044 93.6489 56.9924 94.0969 56.9924 94.5983C56.9924 95.0249 56.9284 95.4223 56.8004 95.7903C56.6724 96.1529 56.499 96.4996 56.2804 96.8303C56.0617 97.1609 55.8084 97.4836 55.5204 97.7983C55.2377 98.1129 54.9364 98.4303 54.6164 98.7503L51.5924 101.838C51.8057 101.78 52.0217 101.734 52.2404 101.702C52.459 101.665 52.6697 101.646 52.8724 101.646H56.7124Z" fill="#1A1A1A"/>
<line x1="33.8164" y1="63.5" x2="42.8164" y2="63.5" stroke="#BFBFBF"/>
<line x1="38.3164" y1="56" x2="38.3164" y2="64" stroke="#BFBFBF"/>
<line x1="33.8164" y1="55.5" x2="42.8164" y2="55.5" stroke="#BFBFBF"/>
<path d="M29.6313 63.9992H28.2633C28.1459 63.9992 28.0526 63.9698 27.9832 63.9112C27.9192 63.8472 27.8659 63.7778 27.8232 63.7032L25.7833 60.5272C25.7619 60.6018 25.7379 60.6765 25.7113 60.7512C25.6899 60.8205 25.6579 60.8845 25.6152 60.9432L23.7273 63.7032C23.6739 63.7778 23.6153 63.8472 23.5513 63.9112C23.4926 63.9698 23.4099 63.9992 23.3032 63.9992H22.0312L24.8713 59.8392L22.1432 55.8952H23.5112C23.6286 55.8952 23.7139 55.9138 23.7673 55.9512C23.8206 55.9885 23.8686 56.0418 23.9112 56.1112L25.9032 59.1512C25.9459 58.9965 26.0126 58.8472 26.1033 58.7032L27.8472 56.1432C27.8953 56.0685 27.9459 56.0098 27.9993 55.9672C28.0579 55.9192 28.1273 55.8952 28.2073 55.8952H29.5193L26.7913 59.7672L29.6313 63.9992Z" fill="#1A1A1A"/>
<path d="M15.751 62.0472C16.0123 62.3992 16.2977 62.6472 16.607 62.7912C16.9163 62.9352 17.263 63.0072 17.647 63.0072C18.4043 63.0072 18.9857 62.7378 19.391 62.1992C19.7963 61.6605 19.999 60.8925 19.999 59.8952C19.999 59.3672 19.951 58.9138 19.855 58.5352C19.7643 58.1565 19.631 57.8472 19.455 57.6072C19.279 57.3618 19.063 57.1832 18.807 57.0712C18.551 56.9592 18.2603 56.9032 17.935 56.9032C17.471 56.9032 17.063 57.0098 16.711 57.2232C16.3643 57.4365 16.0443 57.7378 15.751 58.1272V62.0472ZM15.679 57.1512C16.0203 56.7298 16.415 56.3912 16.863 56.1352C17.311 55.8792 17.823 55.7512 18.399 55.7512C18.8683 55.7512 19.2923 55.8418 19.671 56.0232C20.0497 56.1992 20.3723 56.4632 20.639 56.8152C20.9057 57.1618 21.111 57.5938 21.255 58.1112C21.399 58.6285 21.471 59.2232 21.471 59.8952C21.471 60.4925 21.391 61.0498 21.231 61.5672C21.071 62.0792 20.839 62.5245 20.535 62.9032C20.2363 63.2765 19.8683 63.5725 19.431 63.7912C18.999 64.0045 18.511 64.1112 17.967 64.1112C17.471 64.1112 17.0443 64.0285 16.687 63.8632C16.335 63.6925 16.023 63.4578 15.751 63.1592V66.7432H14.319V55.8952H15.175C15.3777 55.8952 15.503 55.9938 15.551 56.1912L15.679 57.1512Z" fill="#1A1A1A"/>
<path d="M5.656 59.8632V55.1352C5.656 54.9965 5.66133 54.8445 5.672 54.6792C5.68267 54.5138 5.69867 54.3458 5.72 54.1752L1.544 59.8632H5.656ZM8.64 59.8632V60.6792C8.64 60.7645 8.61333 60.8365 8.56 60.8952C8.512 60.9538 8.43467 60.9832 8.328 60.9832H6.904V63.9992H5.656V60.9832H0.568C0.461333 60.9832 0.368 60.9538 0.288 60.8952C0.213333 60.8312 0.165333 60.7538 0.144 60.6632L0 59.9352L5.576 52.5352H6.904V59.8632H8.64Z" fill="#1A1A1A"/>
<defs>
<clipPath id="clip0_3446_79310">
<rect width="64" height="64" fill="white" transform="translate(50.8164)"/>
</clipPath>
</defs>
</svg>
