<svg width="35" height="44" viewBox="0 0 35 44" fill="none" xmlns="http://www.w3.org/2000/svg">
<path d="M19.5638 27.3137C19.67 27.0693 19.7762 26.8249 19.8717 26.5561C21.008 27.1147 22.3637 27.2159 23.5742 26.8458C23.7371 26.7935 23.8999 26.7341 24.0556 26.6678C25.3759 26.0987 26.4166 24.9361 26.8237 23.571C27.2803 22.0384 26.9511 20.3661 27.344 18.816C27.744 17.2205 29.0041 15.803 30.6218 15.4085C32.2429 15.0175 34.1402 15.803 34.8057 17.3112C33.5314 16.599 32.158 15.8205 30.7881 16.3372C29.5669 16.798 28.8944 18.1177 28.6643 19.3885C28.4342 20.6628 28.5227 21.9755 28.2537 23.2394C27.8431 25.1456 26.5724 26.8598 24.8521 27.8199C24.3494 28.0992 23.8114 28.3157 23.2557 28.4658C21.9991 28.801 20.6434 28.7975 19.3939 28.4344L19.5638 27.3137Z" fill="#1A1A1A"/>
<g style="mix-blend-mode:multiply">
<path d="M-0.000198364 43.1397C10.2507 41.6455 20.7282 41.6629 30.9756 43.1921C20.7176 44.2884 10.2543 44.2674 -0.000198364 43.1397Z" fill="#DDDDDD"/>
</g>
<path d="M18.7036 4.03057C19.0753 3.42309 19.3125 2.71785 19.2417 2.01262C19.185 1.44005 18.916 0.888433 18.4983 0.483447C18.1337 0.13083 17.5957 -0.113559 17.1143 0.0540215C16.555 0.249532 16.3179 0.895415 16.2082 1.46798C16.0383 2.32683 15.6383 4.5752 16.2294 5.32931C17.1037 6.45 18.332 4.63804 18.7036 4.02707V4.03057Z" fill="white"/>
<path fill-rule="evenodd" clip-rule="evenodd" d="M19.2417 2.01262C19.3123 2.7165 19.0762 3.42039 18.7058 4.02707C18.7056 4.02739 18.7054 4.0277 18.7052 4.02802C18.7047 4.02887 18.7042 4.02972 18.7036 4.03057V4.02707C18.7031 4.02792 18.7026 4.02877 18.7021 4.02962C18.7019 4.02993 18.7017 4.03025 18.7015 4.03057C18.5214 4.32632 18.144 4.89755 17.7036 5.28568C17.2293 5.70377 16.6819 5.90938 16.2294 5.32931C15.6383 4.5752 16.0383 2.32683 16.2082 1.46798C16.3179 0.895415 16.555 0.249532 17.1143 0.0540215C17.5957 -0.113559 18.1337 0.13083 18.4983 0.483447C18.7723 0.749112 18.9823 1.07788 19.1104 1.43426C19.1776 1.62115 19.2222 1.81565 19.2417 2.01262ZM17.9132 3.40228C18.1693 2.94888 18.2858 2.502 18.2467 2.1125L18.2465 2.11105C18.2136 1.77842 18.0535 1.44523 17.8027 1.20185C17.7079 1.11023 17.6031 1.04673 17.5193 1.01735C17.4791 1.00327 17.4549 1.00037 17.4432 1.00007C17.4305 1.01067 17.4037 1.03883 17.367 1.10491C17.2967 1.23149 17.2355 1.42005 17.1903 1.6562L17.1903 1.65621L17.1891 1.66205C17.1061 2.08167 16.9745 2.80511 16.9315 3.49979C16.9099 3.84822 16.9129 4.15688 16.9444 4.39958C16.9549 4.47966 16.9671 4.54184 16.9786 4.58906C16.989 4.5808 16.9999 4.57189 17.0113 4.56228C17.3409 4.28503 17.6709 3.80068 17.8493 3.50736L17.9132 3.40228ZM17.4515 0.994484C17.4515 0.994312 17.4501 0.994912 17.4474 0.996801C17.4502 0.995602 17.4516 0.994657 17.4515 0.994484ZM17.4349 1.0005C17.4349 1.00055 17.4356 1.00049 17.4371 1.00018L17.4349 1.0005Z" fill="#1A1A1A"/>
<g style="mix-blend-mode:multiply">
<path d="M18.2329 3.10197C18.3533 2.71445 18.4276 2.27455 18.2365 1.91146C18.0736 1.60423 17.6807 1.40522 17.3515 1.53091C17.0967 1.62866 16.9374 1.88003 16.8277 2.12791C16.4277 3.02517 16.41 4.04112 16.502 5.01518C16.5197 5.2072 16.5976 5.70296 16.8949 5.66107C17.0967 5.63314 17.2347 5.19324 17.3197 5.04311C17.6736 4.41818 18.017 3.78975 18.2294 3.10197H18.2329Z" fill="#F5F5F5"/>
</g>
<path d="M22.0451 8.74734C23.2061 8.85906 24.4061 8.52041 25.3264 7.81867C26.2467 7.11693 26.8838 6.05559 27.0644 4.92093C27.1989 4.08303 27.075 3.17879 26.5759 2.48752C26.0768 1.79625 25.1529 1.38079 24.3247 1.60773C23.5318 1.82418 22.9937 2.5364 22.6044 3.24861C21.9177 4.51594 21.5177 5.9299 21.4434 7.36481C21.415 7.93388 21.861 8.2062 22.0451 8.74734Z" fill="white"/>
<path fill-rule="evenodd" clip-rule="evenodd" d="M27.0644 4.92093C26.8838 6.05559 26.2467 7.11693 25.3264 7.81867C24.4061 8.52041 23.2061 8.85906 22.0451 8.74734C21.9722 8.53301 21.8582 8.36085 21.7489 8.19572C21.5821 7.94393 21.4263 7.70849 21.4434 7.36481C21.5177 5.9299 21.9177 4.51594 22.6044 3.24861C22.9937 2.5364 23.5318 1.82418 24.3247 1.60773C25.1529 1.38079 26.0768 1.79625 26.5759 2.48752C27.075 3.17879 27.1989 4.08303 27.0644 4.92093ZM23.4827 3.72665C23.8521 3.05145 24.218 2.67344 24.588 2.57242L24.5889 2.57218C24.9419 2.47547 25.4628 2.65409 25.7651 3.07289C26.0683 3.49278 26.1821 4.10797 26.077 4.76243L26.0768 4.7638C25.9371 5.64214 25.4381 6.47597 24.72 7.02347C24.1387 7.46674 23.4056 7.72765 22.6625 7.76393C22.6209 7.69816 22.5832 7.64225 22.554 7.59882C22.5354 7.57111 22.5202 7.54849 22.5095 7.53162C22.4624 7.45724 22.4474 7.42457 22.4423 7.41119C22.5095 6.1287 22.8677 4.86223 23.4827 3.72665Z" fill="#1A1A1A"/>
<g style="mix-blend-mode:multiply">
<path d="M22.2965 7.90935C23.2168 7.52182 24.0274 6.91085 24.7353 6.21609C25.068 5.89141 25.3866 5.53879 25.5848 5.11984C25.7831 4.70089 25.8574 4.20513 25.6875 3.7757C25.5176 3.34628 25.0822 3.00414 24.6114 3.02858C24.1371 3.05651 23.7584 3.4196 23.4787 3.79665C22.7248 4.80912 22.3389 6.04153 21.9885 7.2495C22.0664 7.47294 22.215 7.68242 22.2965 7.90586V7.90935Z" fill="#F5F5F5"/>
</g>
<path d="M19.2063 34.0727C19.2063 34.7116 19.2275 35.354 19.2771 35.9929C19.5071 35.9231 19.8009 35.8672 20.031 35.7974C20.031 35.2528 20.0275 34.7046 20.0275 34.1565C20.0275 33.144 20.0275 32.1316 20.0239 31.1191C19.8009 31.0912 19.6239 31.1366 19.4009 31.1086C19.2735 32.0932 19.2098 33.0812 19.2063 34.0727Z" fill="#1A1A1A"/>
<g style="mix-blend-mode:multiply">
<path d="M19.4011 31.1086C19.2736 32.0932 19.2099 33.0812 19.2064 34.0727C19.4789 34.1007 19.755 34.1251 20.0276 34.1565C20.0276 33.144 20.0276 32.1316 20.024 31.1191C19.801 31.0912 19.6241 31.1366 19.4011 31.1086Z" fill="#1A1A1A"/>
</g>
<path d="M11.1358 36.5167C11.465 36.4538 11.6774 36.3456 12.0066 36.2828C11.9535 35.3087 11.9004 34.3381 11.8508 33.3676C11.8084 32.6065 11.7659 31.8489 11.727 31.0913C11.5429 31.0564 11.3659 31.1367 11.1818 31.1018C11.1748 31.8314 11.1712 32.5576 11.1641 33.2873C11.1571 34.3626 11.1464 35.4414 11.1358 36.5167Z" fill="#1A1A1A"/>
<g style="mix-blend-mode:multiply">
<path d="M11.1641 33.2873C11.3942 33.3187 11.6208 33.3466 11.8508 33.3676C11.8084 32.6065 11.7659 31.8489 11.7269 31.0913C11.5429 31.0564 11.3659 31.1367 11.1818 31.1018C11.1748 31.8314 11.1712 32.5576 11.1641 33.2873Z" fill="#1A1A1A"/>
</g>
<path d="M16.9234 43.6215C17.3871 42.4834 17.9322 41.3278 18.5799 40.2804C18.3569 38.7442 17.9994 37.2849 17.7764 35.7487L21.8046 35.5881C21.84 38.1298 21.9002 40.7482 21.9355 43.2864C20.4064 43.4085 18.4525 43.4993 16.9234 43.6215Z" fill="#81CAFF"/>
<path fill-rule="evenodd" clip-rule="evenodd" d="M19.6218 40.4969L19.5696 40.1367C19.4547 39.3452 19.3058 38.5769 19.162 37.8349L19.1599 37.8243C19.0865 37.4455 19.0144 37.0735 18.9473 36.7028L20.8201 36.6282C20.8352 37.5671 20.8527 38.5129 20.8702 39.4571L20.8703 39.4612C20.8883 40.4309 20.9062 41.3989 20.9215 42.3577C20.4225 42.3913 19.8977 42.4234 19.3684 42.4558L19.3624 42.4562C19.0771 42.4736 18.7906 42.4911 18.5069 42.509C18.7904 41.9186 19.0973 41.345 19.4304 40.8064L19.6218 40.4969ZM17.3682 42.585C17.212 42.9298 17.0639 43.2765 16.9234 43.6215C17.2765 43.5933 17.6523 43.5668 18.0402 43.5411C18.4923 43.5112 18.9609 43.4826 19.4295 43.4539C20.3002 43.4007 21.171 43.3475 21.9355 43.2864C21.9179 42.019 21.894 40.7317 21.8702 39.4439C21.8525 38.4897 21.8348 37.5351 21.8196 36.5883C21.8143 36.2539 21.8092 35.9203 21.8046 35.5881L17.7764 35.7487C17.825 36.0833 17.8799 36.4142 17.9385 36.7431C18.0143 37.1692 18.0963 37.5919 18.1782 38.0146C18.3233 38.7634 18.4684 39.5123 18.5799 40.2804C18.1286 41.0102 17.727 41.7926 17.3682 42.585Z" fill="#1A1A1A"/>
<path d="M7.95722 43.6214C8.5802 42.3855 9.27044 41.2718 9.989 40.0848C9.92882 38.5626 9.88281 37.0997 9.82263 35.5775C10.9447 35.4519 12.0739 35.4169 13.203 35.4728C13.3588 37.9481 13.4968 40.4723 13.4473 42.9511C11.681 43.3491 9.76954 43.597 7.95722 43.6179V43.6214Z" fill="#81CAFF"/>
<path fill-rule="evenodd" clip-rule="evenodd" d="M9.10717 43.5756C8.7216 43.5991 8.33813 43.6135 7.95899 43.6179C7.95899 43.6179 7.95898 43.6179 7.95898 43.6179C7.95841 43.619 7.95783 43.6202 7.95726 43.6213C7.95725 43.6213 7.95723 43.6214 7.95722 43.6214V43.6179C7.95781 43.6179 7.9584 43.6179 7.95899 43.6179C8.13344 43.2719 8.31316 42.9356 8.49729 42.6045C8.90275 41.8753 9.32962 41.1718 9.76878 40.448C9.84186 40.3275 9.91528 40.2065 9.989 40.0848C9.95891 39.3237 9.93236 38.5774 9.90581 37.8311C9.87927 37.0849 9.85272 36.3386 9.82263 35.5775C10.9447 35.4519 12.0739 35.4169 13.203 35.4728C13.3588 37.9481 13.4968 40.4723 13.4473 42.9511C12.051 43.2657 10.5641 43.4865 9.10717 43.5756ZM9.68994 42.5294C9.98873 42.0135 10.3005 41.4995 10.6249 40.9648C10.6975 40.8452 10.7706 40.7246 10.8445 40.6026L11.0001 40.3455L10.9882 40.0453C10.9582 39.2865 10.9317 38.5422 10.9052 37.7956L10.9051 37.7945C10.8897 37.3611 10.8743 36.9269 10.8581 36.4895C11.325 36.459 11.7929 36.4449 12.2611 36.4473C12.3751 38.3513 12.4652 40.2582 12.457 42.1373C11.55 42.314 10.6163 42.4481 9.68994 42.5294Z" fill="#1A1A1A"/>
<path d="M7.78028 31.4054C12.3182 32.1211 17.1251 32.7251 21.7125 33.0323C21.9001 26.954 22.0842 20.8793 22.2682 14.801C22.3355 12.5491 22.4027 10.2973 22.4735 8.0454C22.4912 7.47283 22.1195 6.96311 21.5674 6.79203C18.1197 5.71673 14.7004 4.44591 11.3341 3.11923C10.7359 2.88532 10.1413 2.6514 9.55012 2.414C9.28111 2.30926 9.10766 2.5746 9.03687 2.85041C9.45455 3.59404 9.85808 4.34815 10.2404 5.10925C11.0863 6.77109 11.8474 8.47133 12.527 10.203C11.943 11.5401 11.4085 12.8982 10.9306 14.2738C9.01563 19.783 7.95726 25.582 7.78028 31.4054Z" fill="white"/>
<path fill-rule="evenodd" clip-rule="evenodd" d="M12.527 10.203C11.8474 8.47133 11.0863 6.77109 10.2404 5.10925C9.95365 4.53844 9.655 3.97156 9.34738 3.41008C9.34253 3.40122 9.33768 3.39237 9.33282 3.38351C9.30164 3.32666 9.27036 3.26986 9.23899 3.21313C9.2371 3.2097 9.23521 3.20627 9.23331 3.20285C9.1682 3.08512 9.10271 2.96763 9.03687 2.85041C9.10766 2.5746 9.28111 2.30926 9.55012 2.414C9.60139 2.43459 9.65269 2.45515 9.70401 2.47569C9.81923 2.52181 9.9346 2.5678 10.0501 2.61371C10.4763 2.78308 10.9043 2.95116 11.3341 3.11923C14.7004 4.44591 18.1197 5.71673 21.5674 6.79203C22.1195 6.96311 22.4912 7.47283 22.4735 8.0454C22.4027 10.2968 22.3355 12.5483 22.2683 14.7997L22.2682 14.801C22.0942 20.5459 21.9203 26.2876 21.7433 32.0321C21.7331 32.3655 21.7228 32.6989 21.7125 33.0323C21.3808 33.0101 21.048 32.9863 20.7142 32.9611C16.4314 32.6372 11.9901 32.0694 7.78028 31.4054C7.95727 25.582 9.01563 19.783 10.9306 14.2738C11.4085 12.8982 11.943 11.5401 12.527 10.203ZM8.81348 30.554C9.06285 25.1279 10.0906 19.7362 11.8752 14.6021L11.8752 14.602C12.3442 13.252 12.8692 11.9179 13.4434 10.6033L13.6093 10.2235L13.4579 9.83766C12.7672 8.07775 11.9934 6.34882 11.1328 4.65811C11.0186 4.43068 10.9025 4.204 10.7849 3.97815C10.8461 4.00213 10.9074 4.0261 10.9687 4.05006C14.3454 5.38084 17.7895 6.66125 21.2696 7.74668L21.2714 7.74725C21.4059 7.7889 21.4773 7.90367 21.474 8.01428M8.81348 30.554C12.7258 31.1537 16.8057 31.6611 20.7451 31.9606C20.9216 26.2301 21.0951 20.5023 21.2687 14.7711C21.2687 14.771 21.2687 14.7708 21.2687 14.7707L21.2687 14.7694C21.3359 12.5184 21.4032 10.2665 21.474 8.0145" fill="#1A1A1A"/>
<path d="M19.6202 16.5217C19.995 20.5688 18.9744 24.3966 16.6532 27.685C17.0079 27.5998 17.5327 27.7748 17.8955 27.6877C19.803 24.3298 20.754 20.6104 20.7109 16.7076C20.3605 16.6266 19.9718 16.5988 19.6213 16.5177L19.6202 16.5217Z" fill="#1A1A1A"/>
<path d="M9.03673 2.85041C9.45441 3.59404 9.85793 4.34815 10.2402 5.10925C10.7287 4.67284 11.0827 4.0898 11.2597 3.46138C11.2915 3.34267 11.3163 3.22746 11.334 3.11923C10.7358 2.88532 10.1411 2.6514 9.54998 2.414C9.28097 2.30926 9.10752 2.5746 9.03673 2.85041Z" fill="#1A1A1A"/>
<path d="M18.6328 7.57076C18.7637 7.98273 18.785 8.42961 18.6929 8.85205C18.6717 8.9533 18.6434 9.05804 18.5797 9.14183C18.516 9.22562 18.4133 9.28846 18.3071 9.27449C18.1266 9.25355 18.0416 9.04756 18.0027 8.873C17.9107 8.43659 17.9001 7.98273 17.9708 7.54283C18.0558 7.01565 18.4947 7.13785 18.6328 7.57076Z" fill="#1A1A1A"/>
<g style="mix-blend-mode:multiply">
<path d="M16.771 34.0625C16.7887 33.9856 16.8029 33.9088 16.8206 33.832C16.8135 33.832 16.8099 33.832 16.8029 33.832C16.817 33.8844 16.7568 34.0136 16.771 34.0659V34.0625Z" fill="#1A1A1A"/>
</g>
<path d="M13.9109 11.7322C13.78 12.1511 13.6455 12.5771 13.6525 13.0135C13.6596 13.4499 13.8508 13.8618 14.2083 14.1202C14.626 14.0469 14.9693 13.7327 15.1781 13.3696C15.387 13.0065 15.4826 12.5875 15.5781 12.1791C14.987 12.1651 14.4242 12.022 13.9109 11.7322Z" fill="white"/>
<path d="M11.879 3.92578C12.4595 3.98862 12.9763 4.17017 13.532 4.35171C14.0878 4.53326 14.6612 4.65196 15.1532 4.93126C15.1992 4.95919 15.1815 5.04298 15.1249 5.03949C14.5621 4.97665 14.0134 4.73924 13.4719 4.56817C12.9303 4.3971 12.3816 4.23999 11.8755 3.94673C11.8684 3.94324 11.8719 3.92927 11.879 3.92927V3.92578Z" fill="#1A1A1A"/>
<path d="M11.8225 4.47388C12.4596 4.72874 13.0224 5.0639 13.6206 5.39906C14.2189 5.73422 14.8525 5.99956 15.3869 6.40803C15.4507 6.45691 15.3799 6.55816 15.3126 6.53721C14.6719 6.3417 14.0737 5.95068 13.4897 5.62599C12.9056 5.30131 12.3251 4.96265 11.8048 4.50879C11.7906 4.49832 11.8048 4.47039 11.8225 4.47737V4.47388Z" fill="#1A1A1A"/>
<path d="M11.5605 5.15125C12.3534 5.84601 13.0401 6.60361 13.7445 7.38914C13.8011 7.45198 13.7091 7.54625 13.6489 7.48341C12.9056 6.7293 12.1906 5.99613 11.5463 5.16172C11.5393 5.15125 11.5534 5.14427 11.5605 5.15125Z" fill="#1A1A1A"/>
</svg>
